<?xml version="1.0" encoding="utf-8"?>
<!-- Generator: Adobe Illustrator 23.0.0, SVG Export Plug-In . SVG Version: 6.00 Build 0)  -->
<svg version="1.1" id="레이어_1" xmlns="http://www.w3.org/2000/svg" xmlns:xlink="http://www.w3.org/1999/xlink" x="0px"
	 y="0px" viewBox="0 0 124.6 125.2" style="enable-background:new 0 0 124.6 125.2;" xml:space="preserve">
<style type="text/css">
	.st0{fill:#C1321F;}
	.st1{opacity:0.2;}
	.st2{clip-path:url(#SVGID_2_);}
	.st3{fill:#5D5D5D;}
	.st4{fill:#FC6F58;}
	.st5{fill:#324A5E;}
	.st6{fill:#2B3B4E;}
	.st7{fill:#FFD0B8;}
	.st8{fill:#FFDDCA;}
	.st9{fill:none;stroke:#FFB392;stroke-width:2;stroke-linecap:round;stroke-miterlimit:10;}
</style>
<title>자산 2</title>
<g>
	<g>
		<g id="circle">
			<circle class="st0" cx="62.6" cy="62.6" r="62.6"/>
		</g>
		<g id="shadow">
			<g class="st1">
				<g>
					<defs>
						<circle id="SVGID_1_" cx="62.6" cy="62.6" r="62.6"/>
					</defs>
					<clipPath id="SVGID_2_">
						<use xlink:href="#SVGID_1_"  style="overflow:visible;"/>
					</clipPath>
					<g class="st2">
						<path class="st3" d="M90.4,98.6H70.9v-6.1c9.9-3.6,17.2-12,19.4-22.3h0.2c3.9,0,7.1-3.2,7.1-7.1v0v-1.7c0-3.7-2.9-6.8-6.6-7.1
							v-5c0-4.6-1-9.2-3.1-13.3c1.1-0.8,2.1-1.8,3-2.9c5.2-6.6,4-16.2-2.6-21.4s-16.2-4-21.4,2.6c-0.3,0.4-0.6,0.7-0.8,1.1
							c-0.8,1.2-1.4,2.5-1.8,3.8c-1.2-0.2-2.4-0.2-3.7-0.2l0,0c-0.4,0-0.8,0-1.2,0c-16,0.6-28.8,13.6-29.2,29.7V49
							c0,0.1,0,0.2,0,0.4v5c-3.7,0.3-6.6,3.3-6.6,7.1v1.7c0,3.9,3.2,7.1,7.1,7.1c0,0,0,0,0,0h0.1c2.2,10.3,9.5,18.8,19.4,22.3v6.1
							H34.8c-6.7,0-12.2,5.1-12.8,11.7c23.4,19.9,57.8,19.9,81.2,0C102.6,103.7,97.1,98.6,90.4,98.6z"/>
						<path class="st3" d="M91.1,99.3H71.6v-6c9.9-3.6,17.2-12.1,19.4-22.4h0.2c3.9,0,7.1-3.2,7.1-7.1v0v-1.7c0-3.7-2.9-6.8-6.6-7.1
							v-5c0-4.6-1-9.2-3.1-13.3c1.1-0.8,2.1-1.8,3-2.9c5.2-6.6,4-16.2-2.6-21.4s-16.2-4-21.4,2.6c-0.3,0.4-0.6,0.7-0.8,1.1
							c-0.7,1.2-1.3,2.4-1.7,3.7c-1.2-0.2-2.4-0.2-3.7-0.2l0,0c-0.4,0-0.8,0-1.2,0C44.1,20.3,31.3,33.4,31,49.5v0.3
							c0,0.1,0,0.2,0,0.4v5c-3.7,0.3-6.6,3.3-6.6,7.1v1.7c0,3.9,3.2,7.1,7.1,7.1c0,0,0,0,0,0h0.1c2.1,10.3,9.5,18.8,19.4,22.4v6
							H35.5c-6.7,0-12.2,5.1-12.8,11.7c23.4,20,57.9,20,81.3,0C103.4,104.4,97.8,99.3,91.1,99.3z"/>
						<path class="st3" d="M91.8,100H72.3v-6c9.9-3.6,17.2-12,19.4-22.4h0.2c3.9,0,7.1-3.1,7.1-7c0,0,0,0,0,0v-1.7
							c0-3.7-2.9-6.8-6.6-7.1v-5c0-4.6-1-9.2-3.1-13.3c1.1-0.8,2.1-1.8,3-2.9c5.2-6.6,4.1-16.2-2.5-21.4C83.3,8,73.7,9.1,68.4,15.7
							c-0.3,0.4-0.6,0.8-0.9,1.3c-0.8,1.2-1.4,2.5-1.8,3.8c-1.2-0.2-2.4-0.2-3.7-0.2l0,0c-0.4,0-0.8,0-1.2,0
							c-16,0.6-28.8,13.6-29.2,29.6v0.3c0,0.1,0,0.2,0,0.4v5c-3.7,0.3-6.6,3.3-6.6,7.1v1.6c0,3.9,3.2,7.1,7.1,7.1c0,0,0,0,0,0h0.1
							c2.1,10.3,9.5,18.8,19.4,22.4v6H36.2c-6.7,0-12.2,5.1-12.8,11.7c23.4,19.9,57.8,19.9,81.2,0C104.1,105.1,98.5,100,91.8,100z"
							/>
						<path class="st3" d="M92.6,100.7H73v-6c9.9-3.6,17.3-12.1,19.4-22.4h0.2c3.9,0,7.1-3.2,7.1-7.1l0,0v-1.6
							c0-3.7-2.9-6.8-6.6-7.1v-5c0-4.6-1-9.2-3.1-13.3c1.1-0.8,2.1-1.8,3-2.9c5.2-6.6,4-16.2-2.6-21.4s-16.2-4-21.4,2.6
							c-0.3,0.4-0.6,0.7-0.8,1.1c-0.8,1.2-1.4,2.5-1.8,3.8c-1.2-0.2-2.4-0.2-3.7-0.2l0,0c-0.4,0-0.8,0-1.2,0
							c-16,0.6-28.8,13.6-29.2,29.7v0.3c0,0.1,0,0.2,0,0.4v5c-3.7,0.3-6.6,3.3-6.6,7.1v1.6c0,3.9,3.2,7.1,7.1,7.1c0,0,0,0,0,0h0.1
							c2.1,10.3,9.5,18.8,19.4,22.4v6H36.9c-6.6,0-12.2,5.1-12.8,11.7c23.4,19.9,57.8,19.9,81.2,0
							C104.7,105.8,99.2,100.7,92.6,100.7z"/>
						<path class="st3" d="M93.3,101.4H73.7v-6c9.9-3.6,17.2-12,19.4-22.3h0.2c3.9,0,7.1-3.2,7.1-7.1c0,0,0,0,0,0v-1.7
							c0-3.7-2.9-6.8-6.6-7.1v-5c0-4.6-1.1-9.1-3.1-13.3c1.1-0.8,2.1-1.8,3-2.9c5.2-6.6,4-16.2-2.6-21.4c-6.6-5.2-16.2-4-21.4,2.6
							c-0.3,0.4-0.6,0.7-0.8,1.1c-0.8,1.2-1.4,2.5-1.8,3.8c-1.2-0.2-2.4-0.2-3.7-0.2l0,0c-0.4,0-0.8,0-1.2,0
							c-16,0.6-28.8,13.6-29.2,29.6v0.3c0,0.1,0,0.2,0,0.4v5c-3.7,0.3-6.6,3.3-6.6,7.1V66c0,3.9,3.2,7.1,7.1,7.1c0,0,0,0,0,0h0.2
							c2.2,10.3,9.5,18.8,19.4,22.3v6H37.7c-6.6,0-12.2,5-12.8,11.7c23.4,19.9,57.8,19.9,81.2,0C105.5,106.5,99.9,101.4,93.3,101.4z
							"/>
						<path class="st3" d="M94,102.2H74.4v-6c9.9-3.6,17.2-12,19.4-22.3H94c3.9,0,7.1-3.2,7.1-7.1c0,0,0,0,0,0V65
							c0-3.7-2.9-6.7-6.6-7v-5c0-4.6-1-9.2-3.1-13.3c1.1-0.8,2.1-1.8,3-2.9c5.2-6.6,4-16.2-2.6-21.4s-16.2-4-21.4,2.6
							c-0.3,0.4-0.6,0.7-0.8,1.1c-0.8,1.2-1.4,2.5-1.8,3.8c-1.2-0.2-2.4-0.2-3.7-0.2l0,0c-0.4,0-0.8,0-1.2,0
							c-16,0.6-28.8,13.6-29.2,29.6v0.3c0,0.1,0,0.2,0,0.4v5c-3.7,0.2-6.6,3.3-6.6,7v1.7c0,3.9,3.2,7.1,7.1,7.1c0,0,0,0,0,0h0.2
							C36.6,84,44,92.5,53.9,96.1v6H38.4c-6.6,0-12.2,5-12.8,11.7c23.4,19.9,57.8,19.9,81.2,0C106.1,107.2,100.6,102.2,94,102.2z"/>
						<path class="st3" d="M94.7,102.9H75.2v-6c9.9-3.6,17.2-12,19.4-22.3h0.2c3.9,0,7.1-3.2,7.1-7.1c0,0,0,0,0,0v-1.7
							c0-3.7-2.9-6.8-6.6-7.1v-5c0-4.6-1-9.2-3.1-13.3c1.1-0.8,2.1-1.8,3-2.9c5.2-6.6,4-16.2-2.6-21.4c-6.6-5.2-16.2-4-21.4,2.6
							c-0.3,0.4-0.6,0.7-0.8,1.1c-0.8,1.2-1.4,2.5-1.8,3.8c-1.2-0.2-2.4-0.2-3.7-0.2l0,0c-0.4,0-0.8,0-1.2,0
							C47.7,24,34.9,37,34.6,53v0.3c0,0.1,0,0.2,0,0.4v5C30.9,58.9,28,62,28,65.7v1.7c0,3.9,3.1,7,7,7.1h0.2
							c2.2,10.3,9.5,18.8,19.4,22.3v6H39.1c-6.6,0-12.2,5-12.8,11.7c23.4,19.9,57.8,19.9,81.2,0C106.9,107.9,101.3,102.9,94.7,102.9
							z"/>
						<path class="st3" d="M95.4,103.6H75.9v-6c9.9-3.6,17.2-12,19.4-22.3h0.2c3.9,0,7.1-3.2,7.1-7.1c0,0,0,0,0,0v-1.7
							c0-3.7-2.9-6.8-6.6-7.1v-5c0-4.6-1-9.2-3.1-13.3c1.1-0.8,2.1-1.8,3-2.9c5.2-6.6,4-16.2-2.6-21.4c-6.6-5.2-16.2-4-21.4,2.6
							c-0.3,0.4-0.6,0.7-0.8,1.1c-0.8,1.2-1.4,2.5-1.8,3.8c-1.2-0.2-2.4-0.2-3.7-0.2l0,0c-0.4,0-0.8,0-1.2,0
							c-16,0.6-28.8,13.6-29.2,29.7V54c0,0.1,0,0.2,0,0.4v5c-3.7,0.3-6.6,3.3-6.6,7.1v1.7c0,3.9,3.2,7.1,7.1,7.1c0,0,0,0,0,0h0.2
							c2.2,10.3,9.5,18.8,19.4,22.3v6H39.8c-6.6,0-12.2,5.1-12.8,11.7c23.4,19.9,57.8,19.9,81.2,0
							C107.6,108.6,102.1,103.6,95.4,103.6z"/>
						<path class="st3" d="M96.1,104.3H76.6v-6c9.9-3.6,17.3-12.1,19.4-22.4h0.2c3.9,0,7.1-3.2,7.1-7.1c0,0,0,0,0,0v-1.6
							c0-3.7-2.9-6.8-6.6-7.1v-5c0-4.6-1-9.2-3.1-13.3c1.1-0.8,2.1-1.8,3-2.9c5.2-6.6,4-16.2-2.6-21.4c-6.6-5.2-16.2-4-21.4,2.6
							c-0.3,0.4-0.6,0.7-0.8,1.1C71,22.4,70.4,23.7,70,25c-1.2-0.2-2.4-0.2-3.7-0.2l0,0c-0.4,0-0.8,0-1.2,0
							C49.1,25.4,36.3,38.4,36,54.4v0.3c0,0.1,0,0.2,0,0.4v5c-3.7,0.3-6.6,3.3-6.6,7.1v1.7c0,3.9,3.2,7.1,7.1,7.1c0,0,0,0,0,0h0.2
							c2.1,10.3,9.5,18.8,19.4,22.4v6H40.5c-6.7,0-12.2,5.1-12.8,11.8c23.4,19.9,57.8,19.9,81.2,0
							C108.3,109.4,102.8,104.3,96.1,104.3z"/>
						<path class="st3" d="M96.8,105H77.3v-6c9.9-3.6,17.2-12,19.4-22.3h0.2c3.9,0,7.1-3.2,7.1-7.1c0,0,0,0,0,0v-1.7
							c0-3.7-2.9-6.8-6.6-7.1v-5c0-4.6-1-9.2-3.1-13.3c1.1-0.8,2.1-1.8,3-2.9c5.2-6.6,4-16.2-2.6-21.4c-6.6-5.2-16.2-4-21.4,2.6
							c-0.3,0.4-0.6,0.7-0.8,1.1c-0.8,1.2-1.4,2.5-1.8,3.8c-1.2-0.2-2.4-0.2-3.7-0.2l0,0c-0.4,0-0.8,0-1.2,0
							c-16,0.6-28.8,13.6-29.2,29.7v0.3c0,0.1,0,0.2,0,0.4v5c-3.7,0.3-6.6,3.3-6.6,7.1v1.7c0,3.9,3.2,7.1,7.1,7.1c0,0,0,0,0,0h0.2
							c2.1,10.3,9.5,18.8,19.4,22.4v6H41.2c-6.6,0-12.2,5-12.8,11.7c23.4,19.9,57.8,19.9,81.2,0C109,110,103.5,105,96.8,105z"/>
						<path class="st3" d="M97.5,105.7H78v-6c9.9-3.6,17.3-12.1,19.4-22.4h0.2c3.9,0,7.1-3.2,7.1-7.1c0,0,0,0,0,0v-1.6
							c0-3.7-2.9-6.8-6.6-7.1v-5c0-4.6-1-9.2-3-13.3c1.1-0.8,2.1-1.8,3-2.9c5.2-6.6,4-16.2-2.6-21.4s-16.2-4-21.4,2.6
							c-0.3,0.4-0.6,0.7-0.8,1.1c-0.8,1.2-1.4,2.5-1.8,3.8c-1.2-0.2-2.4-0.2-3.7-0.2l0,0c-0.4,0-0.8,0-1.2,0
							c-16.1,0.6-28.9,13.6-29.2,29.7v0.3c0,0.1,0,0.2,0,0.4v5c-3.7,0.3-6.6,3.3-6.6,7.1v1.7c0,3.9,3.2,7.1,7.1,7.1c0,0,0,0,0,0H38
							c2.2,10.3,9.5,18.8,19.4,22.3v6H41.9c-6.6,0-12.2,5-12.8,11.7c23.4,19.9,57.8,19.9,81.2,0C109.7,110.7,104.1,105.7,97.5,105.7
							z"/>
						<path class="st3" d="M98.2,106.4H78.7v-6C88.6,96.8,96,88.3,98.1,78h0.2c3.9,0,7.1-3.2,7.1-7.1c0,0,0,0,0,0v-1.6
							c0-3.7-2.9-6.8-6.6-7.1v-5c0-4.6-1-9.2-3.1-13.3c1.1-0.8,2.1-1.8,3-2.9c5.2-6.6,4-16.2-2.6-21.4c-6.6-5.2-16.2-4-21.4,2.6
							c-0.3,0.4-0.6,0.7-0.8,1.1c-0.8,1.2-1.4,2.5-1.8,3.8c-1.2-0.2-2.4-0.2-3.7-0.2l0,0c-0.4,0-0.8,0-1.2,0
							c-16,0.6-28.8,13.6-29.2,29.6v0.3c0,0.1,0,0.2,0,0.4v5c-3.7,0.3-6.6,3.3-6.6,7.1v1.7c0,3.9,3.2,7.1,7.1,7.1h0.2
							c2.2,10.3,9.5,18.8,19.4,22.3v6H42.6c-6.7,0-12.2,5.1-12.8,11.7c23.4,19.9,57.8,19.9,81.2,0
							C110.4,111.5,104.9,106.4,98.2,106.4z"/>
						<path class="st3" d="M98.9,107.1H79.4v-6c9.9-3.6,17.2-12,19.4-22.3H99c3.9,0,7.1-3.2,7.1-7.1c0,0,0,0,0,0V70
							c0-3.7-2.9-6.8-6.6-7.1v-5c0-4.6-1-9.2-3.1-13.3c4-2.8,6.3-7.4,6.3-12.3c0-8.4-6.8-15.3-15.2-15.3c-6.7,0-12.7,4.4-14.6,10.8
							c-1.2-0.2-2.4-0.2-3.7-0.2l0,0c-0.4,0-0.8,0-1.2,0C52,28.2,39.2,41.2,38.8,57.3v0.3c0,0.1,0,0.2,0,0.4v5
							c-3.7,0.2-6.6,3.3-6.6,7.1v1.7c0,3.9,3.2,7.1,7.1,7.1c0,0,0,0,0,0h0.2c2.2,10.3,9.5,18.8,19.4,22.3v6H43.3
							c-6.6,0-12.2,5-12.8,11.7c23.4,19.9,57.8,19.9,81.2,0C111.1,112.2,105.6,107.1,98.9,107.1z"/>
						<path class="st3" d="M99.7,107.8H80.1v-6c9.9-3.6,17.2-12,19.4-22.3h0.2c3.9,0,7.1-3.2,7.1-7.1v-1.7c0-3.7-2.9-6.8-6.6-7.1v-5
							c0-4.6-1-9.2-3.1-13.3c4-2.8,6.4-7.4,6.3-12.3c0-8.4-6.8-15.3-15.2-15.3c-6.7,0-12.7,4.4-14.6,10.8c-1.2-0.2-2.4-0.2-3.7-0.2
							l0,0c-0.4,0-0.8,0-1.2,0C52.7,28.9,39.9,41.9,39.5,58v0.3c0,0.1,0,0.2,0,0.4v5c-3.7,0.3-6.6,3.3-6.6,7.1v1.7
							c0,3.9,3.1,7.1,7,7.1h0.2c2.2,10.3,9.5,18.8,19.4,22.3v6H44c-6.6,0-12.2,5.1-12.8,11.7c23.4,19.9,57.8,19.9,81.2,0
							C111.8,112.9,106.3,107.8,99.7,107.8z"/>
						<path class="st3" d="M100.4,108.6H80.8v-6c9.9-3.6,17.2-12,19.4-22.3h0.2c3.9,0,7.1-3.2,7.1-7.1v-1.7c0-3.7-2.9-6.8-6.6-7.1
							v-5c0-4.6-1-9.2-3.1-13.4c4-2.8,6.3-7.4,6.3-12.3c0-8.4-6.8-15.3-15.2-15.3c-6.7,0-12.7,4.4-14.6,10.8
							c-1.2-0.2-2.4-0.2-3.7-0.2l0,0c-0.4,0-0.8,0-1.2,0c-16.1,0.6-28.9,13.6-29.2,29.7V59c0,0.1,0,0.2,0,0.4v5
							c-3.7,0.3-6.6,3.3-6.6,7.1v1.7c0,3.9,3.2,7.1,7.1,7.1h0.2c2.2,10.3,9.5,18.8,19.4,22.3v6H44.7c-6.6,0-12.2,5-12.8,11.7
							c23.4,19.9,57.8,19.9,81.2,0C112.5,113.6,107,108.5,100.4,108.6z"/>
						<path class="st3" d="M101.1,109.3H81.6v-6.1c9.9-3.6,17.3-12,19.4-22.3h0.2c3.9,0,7.1-3.2,7.1-7.1v-1.7c0-3.7-2.9-6.8-6.6-7.1
							v-5c0-4.6-1-9.2-3.1-13.3c4-2.8,6.3-7.4,6.3-12.3C105,26,98.2,19.1,89.8,19C83,18.9,76.9,23.4,75,30c-1.2-0.2-2.4-0.2-3.7-0.2
							l0,0c-0.4,0-0.8,0-1.2,0c-16,0.6-28.8,13.6-29.2,29.6v0.3c0,0.1,0,0.2,0,0.4v5c-3.7,0.3-6.6,3.3-6.6,7.1v1.7
							c0,3.9,3.2,7.1,7.1,7.1h0.2c2.1,10.3,9.5,18.8,19.4,22.4v6.1H45.5c-6.6,0-12.2,5-12.8,11.7c23.4,19.9,57.8,19.9,81.2,0
							C113.3,114.3,107.7,109.3,101.1,109.3z"/>
						<path class="st3" d="M101.8,110H82.3v-6c9.9-3.6,17.2-12,19.4-22.3h0.2c3.9,0,7.1-3.2,7.1-7.1v-1.7c0-3.7-2.9-6.8-6.6-7.1v-5
							c0-4.6-1-9.2-3.1-13.3c4-2.8,6.3-7.4,6.3-12.3c0-8.4-6.8-15.3-15.2-15.3c-6.7,0-12.7,4.4-14.6,10.8c-1.2-0.2-2.5-0.2-3.7-0.2
							l0,0c-0.4,0-0.8,0-1.2,0C54.8,31,42,44.1,41.7,60.1v0.3c0,0.1,0,0.2,0,0.4v5c-3.7,0.3-6.6,3.3-6.6,7.1v1.7
							c0,3.9,3.2,7.1,7.1,7.1h0.2c2.2,10.3,9.5,18.8,19.4,22.3v6H46.2c-6.6,0-12.2,5-12.8,11.7c23.4,19.9,57.8,19.9,81.2,0
							C113.9,115,108.4,110,101.8,110z"/>
						<path class="st3" d="M102.5,110.7H83v-6.1c9.9-3.6,17.2-12,19.4-22.3h0.2c3.9,0,7.1-3.2,7.1-7.1v-1.6c0-3.7-2.9-6.8-6.6-7.1
							v-5c0-4.6-1-9.2-3.1-13.3c4-2.8,6.3-7.4,6.3-12.3c0.1-8.4-6.7-15.3-15.1-15.4c-6.8-0.1-12.9,4.4-14.8,10.9
							c-1.2-0.2-2.4-0.2-3.7-0.2l0,0c-0.4,0-0.8,0-1.2,0c-16.1,0.6-28.9,13.6-29.2,29.7v0.3c0,0.1,0,0.2,0,0.4v5
							c-3.7,0.3-6.6,3.3-6.6,7.1v1.7c0,3.9,3.2,7.1,7.1,7.1H43c2.2,10.3,9.5,18.8,19.4,22.3v6.1H46.9c-6.6,0-12.2,5-12.8,11.7
							c23.4,19.9,57.8,19.9,81.2,0C114.7,115.7,109.1,110.7,102.5,110.7z"/>
						<path class="st3" d="M103.2,111.4H83.7v-6c9.9-3.6,17.3-12.1,19.4-22.4h0.2c3.9,0,7.1-3.2,7.1-7.1v-1.7c0-3.7-2.9-6.8-6.6-7.1
							v-5c0-4.6-1-9.2-3.1-13.3c4-2.8,6.4-7.5,6.4-12.4c0-8.4-6.8-15.3-15.2-15.3c-6.7,0-12.7,4.4-14.6,10.8
							c-1.2-0.2-2.4-0.2-3.7-0.2l0,0c-0.4,0-0.8,0-1.2,0c-16.1,0.6-28.9,13.6-29.2,29.7v0.3c0,0.1,0,0.2,0,0.4v5
							c-3.7,0.3-6.6,3.3-6.6,7.1v1.7c0,3.9,3.1,7.1,7.1,7.1h0.2c2.2,10.3,9.5,18.8,19.4,22.3v6H47.6c-6.6,0-12.2,5-12.8,11.7
							c23.4,19.9,57.8,19.9,81.2,0C115.4,116.4,109.8,111.4,103.2,111.4z"/>
						<path class="st3" d="M103.9,112.1H84.4v-6c9.9-3.6,17.2-12,19.4-22.3h0.2c3.9,0,7.1-3.2,7.1-7.1c0,0,0,0,0,0V75
							c0-3.7-2.9-6.8-6.6-7.1v-5c0-4.6-1-9.2-3.1-13.3c4-2.8,6.3-7.4,6.3-12.3c0-8.4-6.8-15.3-15.2-15.3c-6.7,0-12.7,4.4-14.6,10.8
							c-1.2-0.2-2.4-0.2-3.7-0.2h0c-0.4,0-0.8,0-1.2,0c-16,0.6-28.8,13.6-29.1,29.6v0.3c0,0.1,0,0.2,0,0.4v5
							c-3.7,0.2-6.6,3.4-6.6,7.1v1.7c0,3.9,3.2,7.1,7.1,7.1h0.2c2.2,10.3,9.5,18.8,19.4,22.3v6H48.3c-6.6,0-12.2,5-12.8,11.7
							c23.4,19.9,57.8,19.9,81.2,0C116.1,117.1,110.5,112.1,103.9,112.1z"/>
						<path class="st3" d="M104.6,112.8H85.1v-6c9.9-3.6,17.2-12,19.4-22.3h0.2c3.9,0,7.1-3.2,7.1-7.1v-1.7c0-3.7-2.9-6.8-6.6-7.1
							v-5c0-4.6-1-9.2-3.1-13.3c4-2.8,6.3-7.4,6.3-12.3c0-8.4-6.8-15.3-15.2-15.3c-6.7,0-12.7,4.4-14.6,10.8
							c-1.2-0.2-2.4-0.2-3.7-0.2l0,0c-0.4,0-0.8,0-1.2,0C57.6,33.9,44.8,46.9,44.5,63v0.3c0,0.1,0,0.3,0,0.4v5
							c-3.7,0.3-6.6,3.3-6.6,7.1v1.7c0,3.9,3.2,7.1,7.1,7.1h0.2c2.2,10.3,9.5,18.8,19.4,22.3v6H49c-6.6,0-12.2,5-12.8,11.7
							c23.4,19.9,57.8,19.9,81.2,0C116.8,117.8,111.2,112.8,104.6,112.8z"/>
						<path class="st3" d="M105.3,113.5H85.8v-6c9.9-3.6,17.2-12,19.4-22.3h0.2c3.9,0,7.1-3.2,7.1-7.1c0,0,0-0.1,0-0.1v-1.6
							c0-3.7-2.9-6.8-6.6-7.1v-5c0-4.6-1-9.2-3.1-13.3c4-2.8,6.3-7.4,6.3-12.3c0-8.4-6.8-15.3-15.2-15.3c-6.7,0-12.7,4.4-14.6,10.8
							C78,34.1,76.8,34,75.6,34l0,0c-0.4,0-0.8,0-1.2,0c-16.1,0.6-28.9,13.6-29.2,29.7c0,0.1,0,0.2,0,0.3s0,0.2,0,0.4v5
							c-3.7,0.3-6.6,3.3-6.6,7.1V78c0,3.9,3.2,7.1,7.1,7.1h0.2c2.2,10.3,9.5,18.8,19.4,22.3v6H49.7c-6.7,0-12.2,5.1-12.8,11.8
							c23.4,19.9,57.8,19.9,81.2,0C117.5,118.6,112,113.5,105.3,113.5z"/>
						<path class="st3" d="M106,114.2H86.5v-6c9.9-3.6,17.2-12,19.4-22.3h0.2c3.9,0,7.1-3.2,7.1-7.1v-1.7c0-3.7-2.9-6.8-6.6-7.1v-5
							c0-4.6-1-9.2-3.1-13.3c4-2.8,6.3-7.4,6.3-12.3c-0.1-8.4-7-15.2-15.4-15.1C87.8,24.4,82,28.7,80,35c-1.2-0.2-2.4-0.2-3.7-0.2
							l0,0c-0.4,0-0.8,0-1.2,0c-16.1,0.6-28.9,13.6-29.2,29.6c0,0.1,0,0.2,0,0.3s0,0.3,0,0.4v5c-3.7,0.3-6.6,3.3-6.6,7.1v1.7
							c0,3.9,3.2,7.1,7.1,7.1h0.2c2.1,10.3,9.5,18.8,19.4,22.3v6H50.4c-6.6,0-12.2,5-12.8,11.7c23.4,19.9,57.8,19.9,81.2,0
							C118.2,119.2,112.6,114.2,106,114.2z"/>
						<path class="st3" d="M106.8,114.9H87.2v-6c9.9-3.6,17.2-12,19.4-22.3h0.1c3.9,0,7.1-3.2,7.1-7.1v-1.7c0-3.7-2.9-6.8-6.6-7.1
							v-5c0-4.6-1-9.2-3.1-13.3c4-2.8,6.3-7.4,6.3-12.3c0-8.4-6.8-15.3-15.2-15.3c-6.7,0-12.7,4.4-14.6,10.8
							c-1.2-0.2-2.4-0.2-3.7-0.3l0,0c-0.4,0-0.8,0-1.2,0C59.8,36,47,49,46.6,65.1c0,0.1,0,0.2,0,0.3s0,0.3,0,0.4v5
							C42.9,71,40,74.1,40,77.8v1.7c0,3.9,3.2,7.1,7.1,7.1h0.2c2.1,10.3,9.5,18.8,19.4,22.3v6H51.1c-6.7,0-12.2,5.1-12.8,11.7
							c23.4,19.9,57.8,19.9,81.2,0C118.9,120,113.4,114.9,106.8,114.9z"/>
						<path class="st3" d="M107.5,115.7H87.9v-6.1c9.9-3.6,17.2-12,19.4-22.3h0.1c3.9,0,7.1-3.2,7.1-7.1l0,0v-1.7
							c0-3.7-2.9-6.8-6.6-7.1v-5c0-4.6-1-9.2-3.1-13.3c4-2.8,6.3-7.4,6.3-12.3c0-8.4-6.8-15.3-15.2-15.3c-6.7,0-12.7,4.4-14.6,10.8
							c-1.2-0.2-2.4-0.2-3.7-0.2l0,0c-0.4,0-0.8,0-1.2,0c-16.1,0.6-28.9,13.6-29.2,29.7c0,0.1,0,0.2,0,0.3s0,0.3,0,0.4v5
							c-3.7,0.3-6.6,3.3-6.6,7.1v1.7c0,3.9,3.2,7.1,7.1,7.1H48c2.1,10.3,9.5,18.8,19.4,22.4v6.1H51.8c-6.7,0-12.2,5-12.8,11.7
							c23.4,19.9,57.8,19.9,81.2,0C119.6,120.7,114.1,115.7,107.5,115.7z"/>
						<path class="st3" d="M108.2,116.4H88.7v-6c9.9-3.6,17.3-12,19.4-22.4h0.1c3.9,0,7.1-3.2,7.1-7.1c0,0,0,0,0,0v-1.7
							c0-3.7-2.9-6.8-6.6-7.1v-5c0-4.6-1-9.2-3.1-13.3c4-2.8,6.3-7.4,6.3-12.3c0-8.4-6.8-15.3-15.2-15.3c-6.7,0-12.7,4.4-14.6,10.8
							c-1.2-0.2-2.4-0.2-3.7-0.2l0,0c-0.4,0-0.8,0-1.2,0c-16.1,0.6-28.9,13.6-29.2,29.6c0,0.1,0,0.2,0,0.3s0,0.3,0,0.4v5
							c-3.7,0.3-6.6,3.3-6.6,7.1v1.7c0,3.9,3.1,7.1,7,7.1c0,0,0,0,0,0h0.2c2.1,10.3,9.5,18.8,19.4,22.3v6H52.5
							c-6.6,0-12.2,5-12.8,11.7c23.4,20,57.8,20,81.3,0C120.4,121.4,114.8,116.3,108.2,116.4z"/>
						<path class="st3" d="M108.9,117.1H89.4v-6c9.9-3.6,17.2-12,19.4-22.3h0.1c3.9,0,7.1-3.1,7.1-7.1c0,0,0,0,0-0.1v-1.6
							c0-3.7-2.9-6.8-6.6-7.1v-5c0-4.6-1-9.2-3.1-13.3c4-2.8,6.3-7.4,6.3-12.3c0-8.4-6.8-15.3-15.2-15.3c-5.2,0-10.1,2.6-12.9,7
							c-0.8,1.2-1.4,2.5-1.8,3.8c-1.2-0.2-2.4-0.2-3.7-0.2h-0.1c-0.4,0-0.8,0-1.2,0c-16,0.6-28.8,13.6-29.1,29.7c0,0.1,0,0.2,0,0.3
							s0,0.3,0,0.4v5c-3.7,0.3-6.6,3.3-6.6,7.1v1.7c0,3.9,3.2,7.1,7.1,7.1h0.2c2.1,10.3,9.5,18.8,19.4,22.3v6H53.3
							c-6.6,0-12.2,5-12.8,11.7c23.4,19.9,57.8,19.9,81.2,0C121,122.1,115.5,117.1,108.9,117.1z"/>
						<path class="st3" d="M109.6,117.8H90.1v-6c9.9-3.6,17.2-12,19.4-22.3h0.1c3.9,0,7.1-3.2,7.1-7.1c0,0,0,0,0,0v-1.7
							c0-3.7-2.9-6.8-6.6-7.1v-5c0-4.6-1.1-9.2-3.1-13.3c4-2.8,6.3-7.4,6.3-12.3c0-8.4-6.8-15.3-15.2-15.3c-5.2,0-10,2.6-12.9,7
							c-0.8,1.2-1.4,2.5-1.8,3.8c-1.2-0.1-2.4-0.2-3.7-0.2l0,0c-0.4,0-0.8,0-1.2,0c-16.1,0.6-28.9,13.6-29.2,29.7c0,0.1,0,0.2,0,0.3
							s0,0.3,0,0.4v5c-3.7,0.3-6.6,3.3-6.6,7.1v1.7c0,3.9,3.2,7.1,7.1,7.1c0,0,0,0,0,0h0.2c2.1,10.3,9.5,18.8,19.4,22.3v6H54
							c-6.6,0-12.2,5-12.8,11.7c23.4,19.9,57.8,19.9,81.2,0C121.8,122.8,116.2,117.8,109.6,117.8z"/>
						<path class="st3" d="M110.3,118.5H90.8v-6c9.9-3.6,17.2-12,19.4-22.3h0.1c3.9,0,7.1-3.2,7.1-7.1c0,0,0,0,0-0.1v-1.6
							c0-3.7-2.9-6.8-6.6-7.1v-5c0-4.6-1-9.2-3.1-13.3c4-2.8,6.3-7.4,6.3-12.3c0-8.4-6.8-15.3-15.2-15.3c-5.2,0-10,2.6-12.8,7
							c-0.8,1.2-1.4,2.5-1.8,3.8C83,39.1,81.8,39,80.5,39h-0.1c-0.4,0-0.8,0-1.2,0c-16,0.6-28.8,13.6-29.1,29.6c0,0.1,0,0.2,0,0.3
							s0,0.3,0,0.4v5c-3.7,0.3-6.6,3.3-6.6,7.1V83c0,3.9,3.2,7.1,7.1,7.1h0.2c2.1,10.3,9.5,18.8,19.4,22.4v6H54.7
							c-6.6,0-12.2,5-12.8,11.7c23.4,19.9,57.8,19.9,81.2,0C122.5,123.5,116.9,118.5,110.3,118.5z"/>
						<path class="st3" d="M111,119.2H91.5v-6c9.9-3.6,17.2-12,19.4-22.3h0.1c3.9,0,7.1-3.2,7.1-7.1c0,0,0,0,0,0v-1.7
							c0-3.7-2.9-6.8-6.6-7.1v-5c0-4.6-1-9.2-3.1-13.3c4-2.8,6.3-7.4,6.3-12.3c0-8.4-6.8-15.3-15.2-15.3c-5.2,0-10,2.6-12.9,7
							c-0.8,1.2-1.4,2.5-1.8,3.8c-1.2-0.1-2.4-0.2-3.7-0.2l0,0c-0.4,0-0.8,0-1.2,0C64,40.3,51.2,53.3,50.9,69.3c0,0.1,0,0.2,0,0.3
							s0,0.3,0,0.4v5c-3.7,0.3-6.6,3.3-6.6,7.1v1.7c0,3.9,3.2,7.1,7.1,7.1h0.2c2.1,10.3,9.5,18.8,19.4,22.3v6H55.4
							c-6.6,0-12.2,5-12.8,11.7c23.4,19.9,57.8,19.9,81.2,0C123.2,124.2,117.6,119.2,111,119.2z"/>
						<path class="st3" d="M111.7,119.9H92.2v-6c9.9-3.6,17.2-12,19.4-22.3h0.1c3.9,0,7.1-3.2,7.1-7.1c0,0,0,0,0,0v-1.7
							c0-3.7-2.9-6.8-6.6-7.1v-5c0-4.6-1-9.2-3.1-13.3c4-2.8,6.3-7.4,6.3-12.3c0-8.4-6.8-15.3-15.2-15.3c-5.2,0-10.1,2.6-12.9,7
							c-0.8,1.2-1.4,2.5-1.8,3.8c-1.2-0.1-2.4-0.2-3.6-0.2l0,0h-1.2C64.8,40.9,51.9,54,51.6,70.1c0,0.1,0,0.2,0,0.3s0,0.3,0,0.4v5
							C47.9,75.9,45,79,45,82.8v1.7c0,3.9,3.2,7.1,7.1,7.1h0.2c2.1,10.3,9.5,18.8,19.4,22.3v6H56.1c-6.6,0-12.2,5-12.8,11.7
							c23.4,19.9,57.8,19.9,81.2,0C123.9,124.9,118.3,119.9,111.7,119.9z"/>
						<path class="st3" d="M112.4,120.6H92.9v-6.1c9.9-3.6,17.2-12,19.4-22.3h0.1c3.9,0,7.1-3.2,7.1-7.1c0,0,0,0,0,0v-1.7
							c0-3.7-2.9-6.8-6.6-7.1v-5c0-4.6-1-9.2-3.1-13.3c4-2.8,6.3-7.4,6.3-12.3c0-8.4-6.9-15.2-15.3-15.2c-6.7,0-12.6,4.4-14.5,10.8
							c-1.2-0.2-2.4-0.2-3.7-0.2l0,0h-1.2c-16.1,0.6-28.9,13.6-29.2,29.6c0,0.1,0,0.2,0,0.3s0,0.3,0,0.4v5c-3.7,0.3-6.6,3.3-6.6,7.1
							v1.7c0,3.9,3.2,7.1,7.1,7.1H53c2.1,10.3,9.5,18.8,19.4,22.3v6.1H56.8c-6.6,0-12.2,5.1-12.8,11.7c23.4,19.9,57.8,19.9,81.2,0
							C124.6,125.7,119.1,120.6,112.4,120.6z"/>
						<path class="st3" d="M113.1,121.3H93.6v-6c9.9-3.6,17.2-12.1,19.4-22.4h0.1c3.9,0,7.1-3.2,7.1-7.1c0,0,0,0,0,0v-1.7
							c0-3.7-2.9-6.8-6.6-7.1v-5c0-4.6-1-9.2-3.1-13.3c4-2.8,6.3-7.4,6.3-12.3c0-8.4-6.9-15.2-15.3-15.2c-6.6,0-12.5,4.4-14.5,10.7
							c-1.2-0.2-2.4-0.2-3.7-0.2l0,0h-1.2C66.1,42.3,53.3,55.4,53,71.5c0,0.1,0,0.2,0,0.3c0,0.1,0,0.3,0,0.4v5
							c-3.7,0.3-6.6,3.3-6.6,7.1v1.7c0,3.9,3.2,7.1,7.1,7.1h0.2c2.1,10.3,9.5,18.8,19.4,22.4v6H57.5c-6.7,0-12.2,5.1-12.8,11.7
							c23.4,20,57.9,20,81.3,0C125.4,126.4,119.8,121.3,113.1,121.3z"/>
						<path class="st3" d="M113.8,122H94.3v-6c9.9-3.6,17.2-12,19.4-22.3h0.1c3.9,0,7.1-3.1,7.1-7c0,0,0,0,0-0.1v-1.6
							c0-3.7-2.9-6.8-6.6-7.1v-5c0-4.6-1-9.2-3.1-13.3c1.1-0.8,2.1-1.8,3-2.9c5.2-6.6,4.1-16.2-2.5-21.4s-16.2-4.1-21.4,2.5
							c-0.3,0.4-0.6,0.8-0.9,1.3c-0.8,1.2-1.3,2.5-1.8,3.8c-1.2-0.2-2.4-0.2-3.7-0.2l0,0h-1.2c-16,0.6-28.9,13.6-29.2,29.6
							c0,0.1,0,0.2,0,0.3c0,0.1,0,0.3,0,0.4v5c-3.7,0.3-6.6,3.3-6.6,7.1v1.7c0,3.9,3.2,7.1,7.1,7.1c0,0,0,0,0,0h0.2
							c2.1,10.3,9.5,18.8,19.4,22.4v6H58.2c-6.7,0-12.2,5.1-12.8,11.7c23.4,19.9,57.8,19.9,81.2,0C126.1,127.1,120.5,122,113.8,122z
							"/>
						<path class="st3" d="M114.6,122.8H95v-6c9.9-3.6,17.2-12,19.4-22.3h0.1c3.9,0,7.1-3.2,7.1-7.1c0,0,0,0,0,0v-1.7
							c0-3.7-2.9-6.8-6.6-7.1v-5c0-4.6-1-9.2-3-13.3c1.1-0.8,2.1-1.8,3-2.9c5.2-6.6,4-16.2-2.6-21.4s-16.2-4-21.4,2.6
							c-0.3,0.4-0.6,0.7-0.8,1.1c-0.8,1.2-1.3,2.5-1.8,3.8c-1.2-0.2-2.4-0.2-3.7-0.2l0,0h-1.2c-16.1,0.6-28.9,13.6-29.2,29.7
							c0,0.1,0,0.2,0,0.3c0,0.1,0,0.3,0,0.4v5c-3.7,0.3-6.6,3.3-6.6,7.1v1.7c0,3.9,3.2,7.1,7.1,7.1c0,0,0,0,0,0h0.2
							c2.1,10.3,9.5,18.8,19.4,22.4v6H58.9c-6.6,0-12.2,5-12.8,11.7c23.4,19.9,57.8,19.9,81.2,0
							C126.7,127.8,121.2,122.7,114.6,122.8z"/>
						<path class="st3" d="M115.3,123.5H95.8v-6c9.9-3.6,17.2-12,19.4-22.3h0.1c3.9,0,7.1-3.2,7.1-7.1c0,0,0,0,0,0v-1.7
							c0-3.7-2.9-6.8-6.6-7.1v-5c0-4.6-1.1-9.1-3.1-13.3c1.1-0.8,2.1-1.8,3-2.9c5.2-6.6,4-16.2-2.6-21.4c-6.6-5.2-16.2-4-21.4,2.6
							c-0.3,0.4-0.6,0.7-0.8,1.1c-0.8,1.2-1.3,2.5-1.8,3.8c-1.2-0.2-2.4-0.2-3.7-0.2h-0.1l-1.1,0c-16,0.6-28.8,13.6-29.1,29.6
							c0,0.1,0,0.2,0,0.3c0,0.1,0,0.3,0,0.4v5c-3.7,0.3-6.6,3.3-6.6,7.1V88c0,3.9,3.2,7.1,7.1,7.1c0,0,0,0,0,0h0.1
							c2.2,10.3,9.5,18.8,19.4,22.3v6H59.7c-6.6,0-12.2,5-12.8,11.7c23.4,19.9,57.8,19.9,81.2,0
							C127.5,128.5,121.9,123.5,115.3,123.5z"/>
						<path class="st3" d="M116,124.2H96.5v-6c9.9-3.6,17.2-12,19.4-22.3h0.2c3.9,0,7.1-3.2,7.1-7.1c0,0,0,0,0,0V87
							c0-3.7-2.9-6.8-6.6-7.1V75c0-4.6-1-9.2-3.1-13.3c4-2.8,6.3-7.4,6.3-12.3c0-8.4-6.8-15.3-15.2-15.3c-5.2,0-10,2.6-12.9,7
							c-0.8,1.2-1.3,2.5-1.8,3.8c-1.2-0.2-2.4-0.2-3.7-0.2l0,0c-0.4,0-0.8,0-1.2,0c-16,0.6-28.8,13.6-29.2,29.6c0,0.1,0,0.2,0,0.3
							c0,0.1,0,0.3,0,0.4v5c-3.7,0.2-6.6,3.3-6.6,7v1.7c0,3.9,3.2,7.1,7.1,7.1c0,0,0,0,0,0h0.1c2.2,10.3,9.5,18.8,19.4,22.3v6H60.4
							c-6.6,0-12.2,5-12.8,11.7c23.4,19.9,57.8,19.9,81.2,0C128.1,129.2,122.6,124.2,116,124.2z"/>
						<path class="st3" d="M116.7,124.9H97.2v-6c9.9-3.6,17.2-12,19.4-22.3h0.2c3.9,0,7.1-3.2,7.1-7.1c0,0,0,0,0,0v-1.7
							c0-3.7-2.9-6.8-6.6-7.1v-5c0-4.6-1-9.2-3.1-13.3c4-2.9,6.3-7.5,6.3-12.4c0-8.4-6.8-15.3-15.2-15.3c-5.2,0-10,2.6-12.9,7
							c-0.8,1.2-1.3,2.5-1.8,3.8c-1.2-0.2-2.4-0.2-3.7-0.2l0,0c-0.4,0-0.8,0-1.2,0C69.7,45.9,56.9,58.9,56.6,75c0,0.1,0,0.2,0,0.3
							c0,0.1,0,0.3,0,0.4v5C52.9,80.9,50,84,50,87.8v1.7c0,3.9,3.2,7.1,7.1,7.1c0,0,0,0,0,0h0.1c2.2,10.3,9.5,18.8,19.4,22.3v6H61.1
							c-6.6,0-12.2,5-12.8,11.7c23.4,19.9,57.8,19.9,81.2,0C128.9,129.9,123.3,124.9,116.7,124.9z"/>
						<path class="st3" d="M117.4,125.6H97.9v-6c9.9-3.6,17.2-12,19.4-22.3h0.2c3.9,0,7.1-3.2,7.1-7.1c0,0,0,0,0,0v-1.7
							c0-3.7-2.9-6.8-6.6-7.1v-5c0-4.6-1-9.2-3.1-13.3c4-2.8,6.3-7.4,6.3-12.3c0-8.4-6.8-15.3-15.2-15.3c-5.2,0-10.1,2.6-12.9,7
							c-0.8,1.2-1.3,2.5-1.8,3.8c-1.2-0.2-2.4-0.2-3.7-0.2l0,0c-0.4,0-0.8,0-1.2,0c-16.1,0.6-28.9,13.6-29.2,29.7c0,0.1,0,0.2,0,0.3
							c0,0.1,0,0.3,0,0.4v5c-3.7,0.3-6.6,3.3-6.6,7.1v1.7c0,3.9,3.2,7.1,7.1,7.1c0,0,0,0,0,0h0.1c2.2,10.3,9.5,18.8,19.4,22.3v6
							H61.8c-6.7,0-12.2,5.1-12.8,11.7c23.4,19.9,57.8,19.9,81.2,0C129.6,130.6,124.1,125.6,117.4,125.6z"/>
						<path class="st3" d="M118.1,126.3H98.6v-6c9.9-3.6,17.3-12.1,19.4-22.4h0.2c3.9,0,7.1-3.2,7.1-7.1v-1.7c0-3.7-2.9-6.8-6.6-7.1
							v-5c0-4.6-1-9.2-3.1-13.3c6.8-5,8.2-14.5,3.3-21.3c-5-6.8-14.5-8.2-21.3-3.3C94.9,41.2,93,43.9,92,47
							c-1.2-0.2-2.4-0.2-3.7-0.2l0,0c-0.4,0-0.8,0-1.2,0C71.1,47.4,58.3,60.4,58,76.4c0,0.1,0,0.2,0,0.3c0,0.1,0,0.3,0,0.4v5
							c-3.7,0.3-6.6,3.3-6.6,7.1v1.7c0,3.9,3.2,7.1,7.1,7.1c0,0,0,0,0,0h0.1c2.1,10.3,9.5,18.8,19.4,22.4v6H62.5
							c-6.7,0-12.2,5.1-12.8,11.8c23.4,19.9,57.8,19.9,81.2,0C130.3,131.4,124.8,126.3,118.1,126.3z"/>
						<path class="st3" d="M118.8,127H99.3v-6c9.9-3.6,17.2-12,19.4-22.3h0.2c3.9,0,7.1-3.2,7.1-7.1v-1.7c0-3.7-2.9-6.8-6.6-7.1v-5
							c0-4.6-1-9.2-3.1-13.3c6.8-4.9,8.3-14.5,3.4-21.3s-14.5-8.3-21.3-3.4c-1.5,1.1-2.9,2.5-3.9,4.1c-0.8,1.2-1.4,2.5-1.8,3.8
							c-1.2-0.2-2.4-0.2-3.7-0.2l0,0c-0.4,0-0.8,0-1.2,0C71.8,48.1,59,61.1,58.7,77.2c0,0.1,0,0.2,0,0.3c0,0.1,0,0.3,0,0.4v5
							c-3.7,0.3-6.6,3.3-6.6,7.1v1.7c0,3.9,3.2,7.1,7.1,7.1c0,0,0,0,0,0h0.1c2.1,10.3,9.5,18.8,19.4,22.4v6H63.2
							c-6.6,0-12.2,5-12.8,11.7c23.4,19.9,57.8,19.9,81.2,0C131,132,125.5,127,118.8,127z"/>
						<path class="st3" d="M119.5,127.7H100v-6c9.9-3.6,17.3-12.1,19.4-22.4h0.2c3.9,0,7.1-3.2,7.1-7.1v-1.7c0-3.7-2.9-6.8-6.6-7.1
							v-5c0-4.6-1-9.2-3-13.3c6.8-5,8.3-14.5,3.4-21.3s-14.5-8.3-21.3-3.4c-1.5,1.1-2.8,2.5-3.9,4.1c-0.8,1.2-1.4,2.5-1.8,3.8
							c-1.2-0.2-2.4-0.2-3.7-0.2l0,0c-0.4,0-0.8,0-1.2,0c-16.1,0.6-28.9,13.6-29.2,29.7c0,0.1,0,0.2,0,0.3c0,0.1,0,0.3,0,0.4v5
							c-3.7,0.3-6.6,3.3-6.6,7.1v1.7c0,3.9,3.2,7.1,7.1,7.1c0,0,0,0,0,0H60c2.2,10.3,9.5,18.8,19.4,22.3v6H63.9
							c-6.7,0-12.2,5.1-12.8,11.7c23.4,19.9,57.8,19.9,81.2,0C131.7,132.8,126.2,127.7,119.5,127.7z"/>
						<path class="st3" d="M120.2,128.4h-19.5v-6.1c9.9-3.6,17.3-12.1,19.4-22.4h0.2c3.9,0,7.1-3.2,7.1-7.1l0,0v-1.6
							c0-3.7-2.9-6.8-6.6-7.1v-5c0-4.6-1-9.2-3.1-13.3c1.1-0.8,2.1-1.8,3-2.9c5.2-6.6,4.1-16.2-2.5-21.4s-16.2-4.1-21.4,2.5
							c-1.2,1.5-2.1,3.2-2.6,5c-1.2-0.2-2.4-0.2-3.7-0.2l0,0c-0.4,0-0.8,0-1.2,0c-16,0.6-28.8,13.6-29.2,29.7c0,0.1,0,0.2,0,0.3
							c0,0.1,0,0.3,0,0.4v5c-3.7,0.3-6.6,3.3-6.6,7.1v1.6c0,3.9,3.2,7.1,7.1,7.1h0.1c2.2,10.3,9.5,18.8,19.4,22.3v6H64.6
							c-6.6,0-12.2,5-12.8,11.7c23.4,19.9,57.8,19.9,81.2,0C132.4,133.5,126.9,128.4,120.2,128.4z"/>
						<path class="st3" d="M121,129.1h-19.6v-6c9.9-3.6,17.2-12,19.4-22.3h0.2c3.9,0,7.1-3.2,7.1-7.1l0,0V92c0-3.7-2.9-6.8-6.6-7.1
							v-5c0-4.6-1-9.2-3.1-13.3c1.1-0.8,2.1-1.8,3-2.9c5.2-6.6,4.1-16.2-2.5-21.4s-16.2-4.1-21.4,2.5c-1.2,1.5-2.1,3.2-2.6,5
							c-1.2-0.2-2.4-0.2-3.7-0.2l0,0c-0.4,0-0.8,0-1.2,0C74,50.2,61.2,63.2,60.8,79.3c0,0.1,0,0.2,0,0.3c0,0.1,0,0.2,0,0.4v5
							c-3.7,0.2-6.6,3.3-6.6,7.1v1.6c0,3.9,3.2,7.1,7.1,7.1c0,0,0,0,0,0h0.1c2.2,10.3,9.5,18.8,19.4,22.3v6H65.3
							c-6.7,0-12.2,5.1-12.8,11.7c23.4,19.9,57.8,19.9,81.2,0C133.1,134.2,127.6,129.2,121,129.1z"/>
						<path class="st3" d="M121.7,129.9h-19.5v-6c9.9-3.6,17.2-12,19.4-22.3h0.2c3.9,0,7.1-3.2,7.1-7.1v0v-1.7
							c0-3.7-2.9-6.8-6.6-7.1v-5c0-4.6-1-9.2-3.1-13.3c1.1-0.8,2.1-1.8,3-2.9c5.2-6.6,4.1-16.2-2.5-21.4c-6.6-5.2-16.2-4.1-21.4,2.5
							c-1.2,1.5-2.1,3.2-2.6,5c-1.2-0.2-2.4-0.2-3.7-0.2l0,0c-0.4,0-0.8,0-1.2,0c-12.3,0.5-23.1,8.3-27.3,19.9
							c-1.2,3.1-1.8,6.4-1.8,9.8c0,0.1,0,0.2,0,0.3c0,0.1,0,0.2,0,0.4v5C57.8,85.9,55,89,55,92.7v1.7c0,3.9,3.1,7.1,7,7.1
							c0,0,0,0,0,0h0.1c2.2,10.3,9.5,18.8,19.4,22.3v6H66c-6.6,0-12.2,5-12.8,11.7c23.4,19.9,57.8,19.9,81.2,0
							C133.8,134.9,128.3,129.9,121.7,129.9z"/>
						<path class="st3" d="M122.4,130.6h-19.5v-6c9.9-3.6,17.2-12,19.4-22.3h0.2c3.9,0,7.1-3.2,7.1-7.1l0,0v-1.7
							c0-3.7-2.9-6.8-6.6-7.1v-5c0-4.6-1-9.2-3.1-13.3c1.1-0.8,2.1-1.8,3-2.9c5.2-6.6,4.1-16.2-2.5-21.4c-6.6-5.2-16.2-4.1-21.4,2.5
							c-1.2,1.5-2.1,3.2-2.6,5C95,51.1,93.8,51,92.6,51l0,0c-0.4,0-0.8,0-1.2,0c-16.1,0.6-28.9,13.6-29.2,29.7V81c0,0.1,0,0.2,0,0.4
							v5c-3.7,0.3-6.6,3.3-6.6,7.1v1.7c0,3.9,3.2,7.1,7.1,7.1c0,0,0,0,0,0h0.1c2.2,10.3,9.5,18.8,19.4,22.3v6H66.8
							c-6.6,0-12.2,5-12.8,11.7c23.4,19.9,57.8,19.9,81.2,0C134.5,135.6,129,130.6,122.4,130.6z"/>
						<path class="st3" d="M123.1,131.3h-19.5v-6.1c9.9-3.6,17.3-12,19.4-22.3h0.2c3.9,0,7.1-3.2,7.1-7.1v0v-1.7
							c0-3.7-2.9-6.8-6.6-7.1v-5c0-4.6-1-9.2-3.1-13.3c1.1-0.8,2.1-1.8,3-2.9c5.2-6.6,4.1-16.2-2.6-21.4c-6.6-5.2-16.2-4.1-21.4,2.6
							c-1.2,1.5-2,3.1-2.6,4.9c-1.2-0.2-2.4-0.2-3.7-0.2l0,0c-0.4,0-0.8,0-1.2,0c-16,0.6-28.8,13.6-29.2,29.7v0.3c0,0.1,0,0.2,0,0.4
							v5c-3.7,0.3-6.6,3.3-6.6,7.1v1.7c0,3.9,3.2,7.1,7.1,7.1c0,0,0,0,0,0h0.1c2.1,10.3,9.5,18.8,19.4,22.4v6.1H67.5
							c-6.6,0-12.2,5-12.8,11.7c23.4,19.9,57.8,19.9,81.2,0C135.3,136.3,129.7,131.3,123.1,131.3z"/>
						<path class="st3" d="M123.8,132h-19.5v-6c9.9-3.6,17.2-12,19.4-22.3h0.2c3.9,0,7.1-3.2,7.1-7.1l0,0v-1.7
							c0-3.7-2.9-6.8-6.6-7.1v-5c0-4.6-1-9.2-3.1-13.3c1.1-0.8,2.1-1.8,3-2.9c5.2-6.6,4-16.2-2.6-21.4s-16.2-4-21.4,2.6
							c-0.3,0.4-0.6,0.7-0.8,1.1c-0.8,1.2-1.4,2.5-1.8,3.8c-1.2-0.2-2.4-0.2-3.7-0.3l0,0c-0.4,0-0.8,0-1.2,0
							c-16,0.6-28.8,13.6-29.2,29.7v0.3c0,0.1,0,0.2,0,0.4v5c-3.7,0.3-6.6,3.3-6.6,7.1v1.7c0,3.9,3.2,7.1,7.1,7.1c0,0,0,0,0,0h0.1
							c2.2,10.3,9.5,18.8,19.4,22.3v6H68.2c-6.6,0-12.2,5-12.8,11.7c23.4,19.9,57.8,19.9,81.2,0C135.9,137,130.4,132,123.8,132z"/>
						<path class="st3" d="M124.5,132.7H105v-6c9.9-3.6,17.2-12,19.4-22.3h0.2c3.9,0,7.1-3.2,7.1-7.1v0v-1.7c0-3.7-2.9-6.8-6.6-7.1
							v-5c0-4.6-1-9.2-3.1-13.3c1.1-0.8,2.1-1.8,3-2.9c5.2-6.6,4-16.2-2.6-21.4s-16.2-4-21.4,2.6c-0.3,0.4-0.6,0.7-0.8,1.1
							c-0.8,1.2-1.4,2.5-1.8,3.8c-1.2-0.2-2.4-0.2-3.7-0.2l0,0c-0.4,0-0.8,0-1.2,0c-16,0.6-28.8,13.6-29.2,29.6v0.3
							c0,0.1,0,0.2,0,0.4v5c-3.7,0.3-6.6,3.3-6.6,7.1v1.7c0,3.9,3.2,7.1,7.1,7.1c0,0,0,0,0,0H65c2.2,10.3,9.5,18.8,19.4,22.3v6H68.9
							c-6.6,0-12.2,5-12.8,11.7c23.4,19.9,57.8,19.9,81.2,0C136.7,137.7,131.1,132.7,124.5,132.7z"/>
						<path class="st3" d="M125.2,133.4h-19.5v-6c9.9-3.6,17.2-12.1,19.4-22.4h0.2c3.9,0,7.1-3.2,7.1-7.1l0,0v-1.7
							c0-3.7-2.9-6.8-6.6-7.1v-5c0-4.6-1-9.2-3.1-13.3c1.1-0.8,2.1-1.8,3-2.9c5.2-6.6,4-16.2-2.6-21.4s-16.2-4-21.4,2.6
							c-0.3,0.4-0.6,0.7-0.8,1.1c-0.8,1.2-1.4,2.5-1.8,3.8c-1.2-0.2-2.4-0.2-3.7-0.2l0,0c-0.4,0-0.8,0-1.2,0
							c-16,0.6-28.8,13.6-29.2,29.6v0.3c0,0.1,0,0.2,0,0.4v5c-3.7,0.3-6.6,3.3-6.6,7.1v1.7c0,3.9,3.1,7.1,7,7.1c0,0,0,0,0,0h0.1
							c2.2,10.3,9.5,18.8,19.4,22.3v6H69.6c-6.6,0-12.2,5-12.8,11.7c23.4,19.9,57.8,19.9,81.2,0
							C137.4,138.4,131.8,133.4,125.2,133.4z"/>
						<path class="st3" d="M125.9,134.1h-19.5v-6c9.9-3.6,17.2-12,19.4-22.3h0.2c3.9,0,7.1-3.2,7.1-7.1c0,0,0,0,0,0V97
							c0-3.7-2.9-6.8-6.6-7.1v-5c0-4.6-1-9.2-3.1-13.3c1.1-0.8,2.1-1.8,3-2.9c5.3-6.6,4.2-16.2-2.4-21.4s-16.2-4.2-21.4,2.4
							c-0.3,0.4-0.6,0.8-0.9,1.3c-0.8,1.2-1.4,2.5-1.8,3.8c-1.2-0.2-2.4-0.2-3.7-0.2l0,0c-0.4,0-0.8,0-1.2,0
							c-16.1,0.6-28.9,13.6-29.2,29.7v0.3c0,0.1,0,0.2,0,0.4v5c-3.7,0.2-6.6,3.4-6.6,7.1v1.7c0,3.9,3.2,7.1,7.1,7.1c0,0,0,0,0,0h0.2
							c2.2,10.3,9.5,18.8,19.4,22.4v6H70.3c-6.6,0-12.2,5-12.8,11.7c23.4,19.9,57.8,19.9,81.2,0
							C138.1,139.1,132.6,134.1,125.9,134.1z"/>
						<path class="st3" d="M126.6,134.8h-19.5v-6c9.9-3.6,17.2-12,19.4-22.3h0.2c3.9,0,7.1-3.2,7.1-7.1c0,0,0,0,0,0v-1.7
							c0-3.7-2.9-6.8-6.6-7.1v-5c0-4.6-1-9.2-3.1-13.3c1.1-0.8,2.1-1.8,3-2.9c5.2-6.6,4-16.2-2.6-21.4c-6.6-5.2-16.2-4-21.4,2.6
							c-0.3,0.4-0.6,0.7-0.8,1.1c-0.8,1.2-1.4,2.5-1.8,3.8c-1.2-0.2-2.4-0.2-3.7-0.2l0,0c-0.4,0-0.8,0-1.2,0
							C79.6,55.9,66.8,68.9,66.5,85v0.3c0,0.1,0,0.2,0,0.4v5c-3.7,0.3-6.6,3.3-6.6,7.1v1.7c0,3.9,3.2,7.1,7.1,7.1h0h0.2
							c2.2,10.3,9.5,18.8,19.4,22.4v6H71c-6.7,0-12.2,5.1-12.8,11.7c23.4,19.9,57.8,19.9,81.2,0
							C138.8,139.9,133.3,134.8,126.6,134.8z"/>
						<path class="st3" d="M127.3,135.5h-19.5v-6c9.9-3.6,17.2-12,19.4-22.3h0.2c3.9,0,7.1-3.2,7.1-7.1c0,0,0,0,0,0v-1.7
							c0-3.7-2.9-6.8-6.6-7.1v-5c0-4.6-1-9.2-3.1-13.3c1.1-0.8,2.1-1.8,3-2.9c5.3-6.5,4.3-16.1-2.2-21.5s-16.1-4.3-21.5,2.2
							c-0.4,0.5-0.8,1-1.1,1.5c-0.8,1.2-1.4,2.5-1.8,3.8c-1.2-0.2-2.4-0.2-3.7-0.2l0,0c-0.4,0-0.8,0-1.2,0
							c-16.1,0.6-28.9,13.6-29.2,29.7v0.3c0,0.1,0,0.2,0,0.4v5c-3.7,0.3-6.6,3.3-6.6,7.1v1.6c0,3.9,3.2,7.1,7.1,7.1c0,0,0,0,0,0h0.2
							c2.2,10.3,9.5,18.8,19.4,22.4v6H71.7c-6.6,0-12.2,5-12.8,11.7c23.4,19.9,57.8,19.9,81.2,0C139.5,140.5,134,135.5,127.3,135.5z
							"/>
						<path class="st3" d="M128.1,136.2h-19.5v-6c9.9-3.6,17.2-12,19.4-22.3h0.1c3.9,0,7.1-3.2,7.1-7.1c0,0,0,0,0,0v-1.7
							c0-3.7-2.9-6.8-6.6-7.1v-5c0-4.6-1-9.2-3.1-13.3c1.1-0.8,2.1-1.8,3-2.9c5.2-6.6,4-16.2-2.6-21.4s-16.2-4-21.4,2.6
							c-0.3,0.4-0.6,0.7-0.8,1.1c-0.7,1.2-1.3,2.5-1.7,3.9c-1.2-0.2-2.4-0.2-3.7-0.2l0,0c-0.4,0-0.8,0-1.2,0
							c-16.1,0.6-28.9,13.6-29.2,29.6v0.3c0,0.1,0,0.2,0,0.4v5c-3.7,0.3-6.6,3.3-6.6,7.1v1.7c0,3.9,3.2,7.1,7.1,7.1c0,0,0,0,0,0h0.2
							c2.2,10.3,9.5,18.8,19.4,22.4v6H72.4c-6.6,0-12.2,5-12.8,11.7c23.4,19.9,57.8,19.9,81.2,0
							C140.2,141.3,134.7,136.2,128.1,136.2z"/>
						<path class="st3" d="M128.8,136.9h-19.5v-6c9.9-3.6,17.2-12,19.4-22.3h0.1c3.9,0,7.1-3.2,7.1-7.1c0,0,0,0,0,0v-1.7
							c0-3.7-2.9-6.8-6.6-7.1v-5c0-4.6-1-9.2-3.1-13.3c1.1-0.8,2.1-1.8,3-2.9c5.2-6.6,4-16.2-2.6-21.4s-16.2-4-21.4,2.6
							c-0.3,0.4-0.6,0.7-0.8,1.1c-0.8,1.2-1.4,2.5-1.8,3.8c-1.2-0.2-2.4-0.2-3.6-0.3l0,0c-0.4,0-0.8,0-1.2,0
							C81.8,58,69,71,68.6,87.1v0.3c0,0.1,0,0.2,0,0.4v5C64.9,93,62,96.1,62,99.8v1.7c0,3.9,3.2,7.1,7.1,7.1c0,0,0,0,0,0h0.2
							c2.2,10.3,9.5,18.8,19.4,22.4v6H73.1c-6.7,0-12.2,5.1-12.8,11.7c23.4,19.9,57.8,19.9,81.2,0C141,142,135.4,136.9,128.8,136.9z
							"/>
						<path class="st3" d="M129.5,137.6h-19.5v-6c9.9-3.6,17.2-12,19.4-22.3h0.1c3.9,0,7.1-3.2,7.1-7.1c0,0,0,0,0,0v-1.7
							c0-3.7-2.9-6.8-6.6-7.1v-5c0-4.6-1-9.2-3.1-13.3c1.1-0.8,2.1-1.8,3-2.9c5.2-6.6,4-16.2-2.6-21.4s-16.2-4-21.4,2.6
							c-0.3,0.4-0.6,0.7-0.8,1.1c-0.8,1.2-1.4,2.5-1.8,3.8c-1.2-0.2-2.4-0.2-3.7-0.2l0,0c-0.4,0-0.8,0-1.2,0
							c-16,0.6-28.9,13.6-29.2,29.7v0.3c0,0.1,0,0.2,0,0.4v5c-3.7,0.3-6.6,3.3-6.6,7.1v1.7c0,3.9,3.2,7.1,7.1,7.1c0,0,0,0,0,0H70
							c2.2,10.3,9.5,18.8,19.4,22.4v6H73.8c-6.7,0-12.3,5.1-12.8,11.7c23.4,19.9,57.8,19.9,81.2,0
							C141.6,142.7,136.1,137.7,129.5,137.6z"/>
						<path class="st3" d="M130.2,138.4h-19.5v-6c9.9-3.6,17.2-12,19.4-22.4h0.1c3.9,0,7.1-3.2,7.1-7.1c0,0,0,0,0,0v-1.7
							c0-3.7-2.9-6.8-6.6-7.1v-5c0-4.6-1-9.2-3.1-13.3c1.1-0.8,2.1-1.8,3-2.9c5.2-6.6,4-16.2-2.6-21.4c-6.6-5.2-16.2-4-21.4,2.6
							c-0.3,0.4-0.6,0.7-0.8,1.1c-0.8,1.2-1.4,2.5-1.8,3.8c-1.2-0.2-2.4-0.2-3.7-0.2l0,0c-0.4,0-0.8,0-1.2,0
							c-16,0.6-28.8,13.6-29.2,29.6v0.3c0,0.1,0,0.2,0,0.4v5c-3.7,0.3-6.6,3.3-6.6,7.1v1.7c0,3.9,3.1,7.1,7,7.1c0,0,0,0,0.1,0h0.2
							c2.2,10.3,9.5,18.8,19.4,22.4v6H74.6c-6.6,0-12.2,5-12.8,11.6c23.4,20,57.8,20,81.3,0C142.4,143.4,136.8,138.3,130.2,138.4z"
							/>
						<path class="st3" d="M130.9,139.1h-19.5v-6c9.9-3.6,17.2-12,19.4-22.3h0.1c3.9,0,7.1-3.2,7.1-7.1c0,0,0,0,0,0V102
							c0-3.7-2.9-6.8-6.6-7.1v-5c0-4.6-1-9.2-3.1-13.3c6.8-5,8.3-14.5,3.3-21.3c-5-6.8-14.5-8.3-21.3-3.3c-1.5,1.1-2.8,2.4-3.8,4
							c-0.8,1.2-1.4,2.5-1.8,3.8c-1.2-0.2-2.4-0.2-3.7-0.2l0,0c-0.4,0-0.8,0-1.2,0c-16.1,0.6-28.9,13.6-29.2,29.7v0.3
							c0,0.1,0,0.2,0,0.4v5c-3.7,0.3-6.6,3.3-6.6,7.1v1.7c0,3.9,3.2,7.1,7.1,7.1c0,0,0,0,0,0h0.2c2.2,10.3,9.5,18.8,19.4,22.3v6
							H75.3c-6.6,0-12.2,5-12.8,11.7c23.4,19.9,57.8,19.9,81.2,0C143,144.1,137.5,139.1,130.9,139.1z"/>
						<path class="st3" d="M131.6,139.8h-19.5v-6c9.9-3.6,17.2-12,19.4-22.3h0.1c3.9,0,7.1-3.2,7.1-7.1c0,0,0,0,0,0v-1.7
							c0-3.7-2.9-6.8-6.6-7.1v-5c0-4.6-1.1-9.2-3.1-13.4c4-2.8,6.3-7.4,6.3-12.3c0-8.4-6.8-15.3-15.2-15.3
							c-6.7,0-12.7,4.4-14.6,10.8c-1.2-0.2-2.4-0.2-3.7-0.2l0,0c-0.4,0-0.8,0-1.2,0c-16.1,0.6-28.9,13.6-29.2,29.7v0.3
							c0,0.1,0,0.2,0,0.4v5c-3.7,0.3-6.6,3.3-6.6,7.1v1.7c0,3.9,3.1,7.1,7,7.1c0,0,0,0,0.1,0h0.2c2.2,10.3,9.5,18.8,19.4,22.4v6H76
							c-6.6,0-12.2,5-12.8,11.7c23.4,19.9,57.8,19.9,81.2,0C143.8,144.8,138.2,139.8,131.6,139.8z"/>
						<path class="st3" d="M132.3,140.5h-19.5v-6c9.9-3.6,17.2-12,19.4-22.3h0.1c3.9,0,7.1-3.2,7.1-7.1v-1.7c0-3.7-2.9-6.8-6.6-7.1
							v-5c0-4.6-1-9.2-3.1-13.3c4-2.8,6.3-7.4,6.3-12.3c0-8.4-6.8-15.3-15.2-15.3c-6.7,0-12.7,4.4-14.6,10.8
							c-1.2-0.2-2.4-0.2-3.7-0.2h-0.1c-0.4,0-0.8,0-1.2,0c-16,0.6-28.8,13.6-29.2,29.6v0.3c0,0.1,0,0.2,0,0.4v5
							c-3.7,0.3-6.6,3.3-6.6,7.1v1.7c0,3.9,3.2,7.1,7.1,7.1h0.2c2.2,10.3,9.5,18.8,19.4,22.4v6H76.7c-6.6,0-12.2,5-12.8,11.7
							c23.4,19.9,57.8,19.9,81.2,0C144.5,145.5,138.9,140.5,132.3,140.5z"/>
						<path class="st3" d="M133,141.2h-19.5v-6c9.9-3.6,17.2-12,19.4-22.3h0.1c3.9,0,7.1-3.2,7.1-7.1v-1.7c0-3.7-2.9-6.8-6.6-7.1v-5
							c0-4.6-1-9.2-3.1-13.3c4-2.8,6.3-7.4,6.3-12.3c0-8.4-6.8-15.3-15.2-15.3c-6.7,0-12.7,4.4-14.6,10.8c-1.2-0.2-2.4-0.2-3.7-0.2
							l0,0c-0.4,0-0.8,0-1.2,0c-16,0.6-28.8,13.6-29.2,29.7v0.3c0,0.1,0,0.2,0,0.4v5c-3.7,0.3-6.6,3.3-6.6,7.1v1.7
							c0,3.9,3.2,7.1,7.1,7.1h0.2c2.2,10.3,9.5,18.8,19.4,22.4v6H77.4c-6.6,0-12.2,5-12.8,11.7c23.4,19.9,57.8,19.9,81.2,0
							C145.2,146.2,139.6,141.2,133,141.2z"/>
						<path class="st3" d="M133.7,141.9h-19.5v-6c9.9-3.6,17.2-12,19.4-22.3h0.1c3.9,0,7.1-3.2,7.1-7.1v-1.7c0-3.7-2.9-6.8-6.6-7.1
							v-5c0-4.6-1-9.2-3.1-13.3c4-2.8,6.3-7.4,6.3-12.3c0-8.4-6.8-15.3-15.2-15.3c-6.7,0-12.7,4.4-14.6,10.8
							c-1.2-0.2-2.4-0.2-3.7-0.2l0,0c-0.4,0-0.8,0-1.2,0C86.8,63,74,76,73.6,92.1v0.3c0,0.1,0,0.2,0,0.4v5c-3.7,0.2-6.6,3.3-6.6,7.1
							v1.7c0,3.9,3.2,7.1,7.1,7.1h0.2c2.2,10.3,9.5,18.8,19.4,22.3v6H78.1c-6.6,0-12.2,5-12.8,11.7c23.4,19.9,57.8,19.9,81.2,0
							C145.9,146.9,140.3,141.9,133.7,141.9z"/>
						<path class="st3" d="M134.4,142.6h-19.5v-6.1c9.9-3.6,17.2-12,19.4-22.3h0.1c3.9,0,7.1-3.2,7.1-7.1v-1.7
							c0-3.7-2.9-6.8-6.6-7.1v-5c0-4.6-1-9.2-3.1-13.3c4-2.8,6.3-7.4,6.3-12.3c0-8.4-6.8-15.3-15.2-15.3c-6.7,0-12.7,4.4-14.6,10.8
							c-1.2-0.2-2.4-0.2-3.7-0.2l0,0c-0.4,0-0.8,0-1.2,0c-16.1,0.6-28.9,13.6-29.2,29.7V93c0,0.1,0,0.2,0,0.4v5
							c-3.7,0.3-6.6,3.3-6.6,7.1v1.7c0,3.9,3.2,7.1,7.1,7.1H75c2.2,10.3,9.5,18.8,19.4,22.3v6.1H78.8c-6.7,0-12.2,5.1-12.8,11.7
							c23.4,19.9,57.8,19.9,81.2,0C146.6,147.7,141.1,142.6,134.4,142.6z"/>
						<path class="st3" d="M135.1,143.3h-19.5v-6.1c9.9-3.6,17.2-12,19.4-22.3h0.1c3.9,0,7.1-3.2,7.1-7.1v-1.7
							c0-3.7-2.9-6.8-6.6-7.1v-5c0-4.6-1-9.2-3.1-13.3c4-2.8,6.3-7.4,6.3-12.3c0-8.4-6.8-15.3-15.2-15.3c-6.7,0-12.7,4.4-14.6,10.8
							c-1.2-0.2-2.4-0.2-3.7-0.2l0,0c-0.4,0-0.8,0-1.2,0C88.1,64.4,75.3,77.4,75,93.5v0.3c0,0.1,0,0.2,0,0.4v5
							c-3.7,0.3-6.6,3.3-6.6,7.1v1.7c0,3.9,3.2,7.1,7.1,7.1h0.2c2.2,10.3,9.5,18.8,19.4,22.3v6.1H79.5c-6.7,0-12.2,5.1-12.8,11.7
							c23.4,20,57.9,20,81.3,0C147.4,148.4,141.8,143.3,135.1,143.3z"/>
						<path class="st3" d="M135.9,144h-19.5v-6c9.9-3.6,17.2-12,19.4-22.3h0.1c3.9,0,7.1-3.2,7.1-7.1v-1.7c0-3.7-2.9-6.8-6.6-7.1v-5
							c0-4.6-1-9.2-3.1-13.3c4-2.8,6.3-7.4,6.3-12.3c0-8.4-6.8-15.3-15.2-15.3c-6.7,0-12.7,4.4-14.6,10.8c-1.2-0.2-2.4-0.2-3.7-0.2
							l0,0c-0.4,0-0.8,0-1.2,0c-16.1,0.6-28.9,13.6-29.2,29.6v0.3c0,0.1,0,0.2,0,0.4v5c-3.7,0.3-6.6,3.3-6.6,7.1v1.7
							c0,3.9,3.2,7.1,7.1,7.1h0.2c2.1,10.3,9.5,18.8,19.4,22.4v6H80.2c-6.7,0-12.2,5.1-12.8,11.7c23.4,19.9,57.8,19.9,81.2,0
							C148.1,149.1,142.5,144,135.9,144z"/>
						<path class="st3" d="M136.6,144.8H117v-6.1c9.9-3.6,17.2-12,19.4-22.3h0.1c3.9,0,7.1-3.2,7.1-7.1v-1.7c0-3.7-2.9-6.8-6.6-7.1
							v-5c0-4.6-1-9.2-3-13.3c4-2.8,6.3-7.4,6.3-12.3c0-8.4-6.8-15.3-15.2-15.3c-6.7,0-12.7,4.4-14.6,10.8c-1.2-0.2-2.4-0.2-3.7-0.2
							l0,0c-0.4,0-0.8,0-1.2,0c-16.1,0.6-28.9,13.6-29.2,29.7v0.3c0,0.1,0,0.2,0,0.4v5c-3.7,0.3-6.6,3.3-6.6,7.1v1.7
							c0,3.9,3.2,7.1,7.1,7.1h0.2c2.2,10.3,9.5,18.8,19.4,22.3v6.1H80.9c-6.6,0-12.2,5-12.8,11.7c23.4,19.9,57.8,19.9,81.2,0
							C148.7,149.8,143.2,144.7,136.6,144.8z"/>
						<path class="st3" d="M137.3,145.5h-19.5v-6.1c9.9-3.6,17.2-12,19.4-22.3h0.1c3.9,0,7.1-3.2,7.1-7.1v-1.7
							c0-3.7-2.9-6.8-6.6-7.1v-5c0-4.6-1-9.1-3.1-13.3c4-2.9,6.3-7.5,6.3-12.4c0-8.4-6.8-15.3-15.2-15.3c-6.7,0-12.7,4.4-14.6,10.8
							c-1.2-0.2-2.4-0.2-3.7-0.2h-0.1c-0.4,0-0.8,0-1.2,0c-16,0.6-28.8,13.6-29.1,29.7v0.3c0,0.1,0,0.3,0,0.4v5
							c-3.7,0.3-6.6,3.3-6.6,7.1v1.7c0,3.9,3.2,7.1,7.1,7.1h0.2c2.2,10.3,9.5,18.8,19.4,22.3v6.1H81.7c-6.6,0-12.2,5-12.8,11.7
							c23.4,19.9,57.8,19.9,81.2,0C149.5,150.5,143.9,145.5,137.3,145.5z"/>
						<path class="st3" d="M138,146.2h-19.5v-6c9.9-3.6,17.2-12,19.4-22.3h0.1c3.9,0,7.1-3.2,7.1-7.1V109c0-3.7-2.9-6.8-6.6-7.1V97
							c0-4.6-1-9.2-3.1-13.3c4-2.8,6.3-7.4,6.3-12.3c0-8.4-6.8-15.3-15.2-15.3c-6.7,0-12.7,4.4-14.6,10.8c-1.2-0.2-2.4-0.2-3.7-0.2
							l0,0c-0.4,0-0.8,0-1.2,0c-16,0.6-28.9,13.6-29.2,29.6c0,0.1,0,0.2,0,0.3s0,0.3,0,0.4v5c-3.7,0.3-6.6,3.3-6.6,7.1v1.7
							c0,3.9,3.2,7.1,7.1,7.1h0.2c2.2,10.3,9.5,18.8,19.4,22.3v6H82.4c-6.6,0-12.2,5-12.8,11.7c23.4,19.9,57.8,19.9,81.2,0
							C150.1,151.2,144.6,146.2,138,146.2z"/>
						<path class="st3" d="M138.7,146.9h-19.5v-6c9.9-3.6,17.2-12,19.4-22.3h0.1c3.9,0,7.1-3.2,7.1-7.1v-1.7c0-3.7-2.9-6.8-6.6-7.1
							v-5c0-4.6-1-9.2-3.1-13.3c4-2.9,6.4-7.5,6.3-12.4c0-8.4-6.8-15.3-15.2-15.3c-6.7,0-12.7,4.4-14.6,10.8
							c-1.2-0.2-2.4-0.2-3.7-0.2h-0.1c-0.4,0-0.8,0-1.2,0c-16,0.6-28.8,13.6-29.2,29.7c0,0.1,0,0.2,0,0.3s0,0.3,0,0.4v5
							c-3.7,0.3-6.6,3.3-6.6,7.1v1.7c0,3.9,3.2,7.1,7.1,7.1h0.2c2.1,10.3,9.5,18.8,19.4,22.3v6H83.1c-6.6,0-12.2,5-12.8,11.7
							c23.4,19.9,57.8,19.9,81.2,0C150.8,151.9,145.3,146.9,138.7,146.9z"/>
						<path class="st3" d="M139.4,147.6h-19.5v-6.1c9.9-3.6,17.2-12,19.4-22.3h0.1c3.9,0,7.1-3.2,7.1-7.1v-1.7
							c0-3.7-2.9-6.8-6.6-7.1v-5c0-4.6-1-9.2-3.1-13.3c4-2.8,6.3-7.4,6.3-12.3c0-8.4-6.8-15.3-15.2-15.3c-6.7,0-12.7,4.4-14.6,10.8
							c-1.2-0.2-2.4-0.2-3.7-0.2l0,0c-0.4,0-0.8,0-1.2,0c-16.1,0.6-28.9,13.6-29.2,29.7c0,0.1,0,0.2,0,0.3s0,0.3,0,0.4v5
							c-3.7,0.3-6.6,3.3-6.6,7.1v1.7c0,3.9,3.2,7.1,7.1,7.1h0.2c2.1,10.3,9.5,18.8,19.4,22.4v6.1H83.8c-6.6,0-12.2,5.1-12.8,11.7
							c23.4,19.9,57.8,19.9,81.2,0C151.6,152.6,146.1,147.6,139.4,147.6z"/>
						<path class="st3" d="M140.1,148.3h-19.5v-6.1c9.9-3.6,17.3-12,19.4-22.3h0.1c3.9,0,7.1-3.2,7.1-7.1v-1.7
							c0-3.7-2.9-6.8-6.6-7.1v-5c0-4.6-1-9.2-3.1-13.3c4-2.8,6.3-7.4,6.3-12.3c0.1-8.4-6.6-15.3-15-15.5c-6.9-0.1-12.9,4.4-14.8,11
							c-1.2-0.2-2.4-0.2-3.7-0.2l0,0c-0.4,0-0.8,0-1.2,0C93.1,69.4,80.3,82.4,80,98.4c0,0.1,0,0.2,0,0.3s0,0.3,0,0.4v5
							c-3.7,0.3-6.6,3.3-6.6,7.1v1.7c0,3.9,3.2,7.1,7.1,7.1h0.2c2.1,10.3,9.5,18.8,19.4,22.4v6.1H84.5c-6.7,0-12.2,5.1-12.8,11.7
							c23.4,19.9,57.8,19.9,81.2,0C152.3,153.4,146.8,148.3,140.1,148.3z"/>
						<path class="st3" d="M140.8,149h-19.5v-6c9.9-3.6,17.3-12,19.4-22.3h0.1c3.9,0,7.1-3.2,7.1-7.1c0,0,0,0,0,0v-1.7
							c0-3.7-2.9-6.8-6.6-7.1v-5c0-4.6-1-9.2-3.1-13.3c4-2.8,6.3-7.4,6.3-12.3c0-8.4-6.8-15.3-15.2-15.3c-5.2,0-10,2.6-12.9,7
							c-0.8,1.2-1.4,2.5-1.8,3.8c-1.2-0.2-2.4-0.2-3.7-0.2l0,0c-0.4,0-0.8,0-1.2,0c-16,0.6-28.8,13.6-29.2,29.6c0,0.1,0,0.2,0,0.3
							s0,0.3,0,0.4v5c-3.7,0.3-6.6,3.3-6.6,7.1v1.7c0,3.9,3.2,7.1,7.1,7.1h0.2c2.1,10.3,9.5,18.8,19.4,22.4v6H85.2
							c-6.6,0-12.2,5-12.8,11.7c23.4,19.9,57.8,19.9,81.2,0C153,154,147.5,149,140.8,149z"/>
						<path class="st3" d="M141.5,149.7H122v-6.1c9.9-3.6,17.2-12,19.4-22.3h0.1c3.9,0,7.1-3.2,7.1-7.1c0,0,0,0,0,0v-1.7
							c0-3.7-2.9-6.8-6.6-7.1v-5c0-4.6-1-9.2-3-13.3c4-2.8,6.3-7.4,6.3-12.3c0-8.4-6.8-15.3-15.2-15.3c-5.2,0-10,2.6-12.9,7
							c-0.8,1.2-1.4,2.5-1.8,3.8c-1.2-0.2-2.4-0.2-3.7-0.2l0,0c-0.4,0-0.8,0-1.2,0c-16.1,0.6-28.9,13.6-29.2,29.7c0,0.1,0,0.2,0,0.3
							s0,0.3,0,0.4v5c-3.7,0.3-6.6,3.3-6.6,7.1v1.7c0,3.9,3.2,7.1,7.1,7.1H82c2.1,10.3,9.5,18.8,19.4,22.4v6.1H85.9
							c-6.6,0-12.2,5.1-12.8,11.7c23.4,19.9,57.8,19.9,81.2,0C153.7,154.8,148.2,149.7,141.5,149.7z"/>
						<path class="st3" d="M142.2,150.4h-19.5v-6.1c9.9-3.6,17.3-12.1,19.4-22.4h0.1c3.9,0,7.1-3.2,7.1-7.1c0,0,0,0,0,0v-1.6
							c0-3.7-2.9-6.8-6.6-7.1v-5c0-4.6-1-9.2-3.1-13.3c4-2.8,6.3-7.5,6.3-12.4c0-8.4-6.8-15.3-15.2-15.3c-5.2,0-10,2.6-12.9,7
							c-0.8,1.2-1.4,2.5-1.8,3.8c-1.2-0.1-2.4-0.2-3.7-0.2l0,0c-0.4,0-0.8,0-1.2,0c-16,0.6-28.8,13.6-29.2,29.6c0,0.1,0,0.2,0,0.3
							s0,0.3,0,0.4v5c-3.7,0.3-6.6,3.3-6.6,7.1v1.8c0,3.9,3.2,7,7,7h0.2c2.1,10.3,9.5,18.8,19.4,22.4v6.1H86.6
							c-6.6,0-12.2,5-12.8,11.7c23.4,19.9,57.8,19.9,81.2,0C154.4,155.5,148.9,150.4,142.2,150.4z"/>
						<path class="st3" d="M143,151.1h-19.6v-6c9.9-3.6,17.2-12,19.4-22.3h0.2c3.9,0,7.1-3.2,7.1-7.1c0,0,0,0,0,0V114
							c0-3.7-2.9-6.8-6.6-7.1v-5c0-4.6-1-9.2-3.1-13.3c4-2.8,6.3-7.4,6.3-12.3c0-8.4-6.8-15.3-15.2-15.3c-5.2,0-10,2.6-12.9,7
							c-0.8,1.2-1.4,2.5-1.8,3.8c-1.2-0.1-2.4-0.2-3.7-0.2l0,0c-0.4,0-0.8,0-1.2,0c-16,0.6-28.8,13.6-29.2,29.6c0,0.1,0,0.2,0,0.3
							s0,0.3,0,0.4v5c-3.7,0.3-6.6,3.3-6.6,7.1v1.7c0,3.9,3.2,7.1,7.1,7.1h0.2c2.1,10.3,9.5,18.8,19.4,22.3v6H87.3
							c-6.7,0-12.2,5.1-12.8,11.8c23.4,19.9,57.8,19.9,81.2,0C155.1,156.2,149.6,151.2,143,151.1z"/>
						<path class="st3" d="M143.7,151.9h-19.5v-6c9.9-3.6,17.2-12,19.4-22.3h0.1c3.9,0,7.1-3.2,7.1-7.1c0,0,0,0,0,0v-1.7
							c0-3.7-2.9-6.8-6.6-7.1v-5c0-4.6-1-9.2-3.1-13.3c4-2.9,6.4-7.5,6.3-12.4c0-8.4-6.8-15.3-15.2-15.3c-5.2,0-10,2.6-12.9,7
							c-0.8,1.2-1.4,2.5-1.8,3.8c-1.2-0.1-2.4-0.2-3.7-0.2h-0.1c-0.4,0-0.8,0-1.2,0c-16,0.6-28.8,13.6-29.1,29.7c0,0.1,0,0.2,0,0.3
							s0,0.3,0,0.4v5c-3.7,0.3-6.6,3.3-6.6,7.1v1.7c0,3.9,3.1,7.1,7,7.1h0.2c2.1,10.3,9.5,18.8,19.4,22.4v6H88
							c-6.6,0-12.2,5-12.8,11.7c23.4,19.9,57.8,19.9,81.2,0C155.8,156.9,150.3,151.9,143.7,151.9z"/>
						<path class="st3" d="M144.4,152.6h-19.5v-6.1c9.9-3.6,17.2-12,19.4-22.3h0.1c3.9,0,7.1-3.2,7.1-7.1c0,0,0,0,0,0v-1.7
							c0-3.7-2.9-6.8-6.6-7.1v-5c0-4.6-1-9.2-3.1-13.3c4-2.8,6.3-7.4,6.3-12.3c0-8.4-6.8-15.3-15.2-15.3c-5.2,0-10,2.6-12.9,7
							c-0.8,1.2-1.4,2.5-1.8,3.8c-1.2-0.1-2.4-0.2-3.7-0.2l0,0h-1.2c-16,0.6-28.8,13.6-29.2,29.7c0,0.1,0,0.2,0,0.3s0,0.3,0,0.4v5
							c-3.7,0.3-6.6,3.3-6.6,7.1v1.7c0,3.9,3.2,7.1,7.1,7.1h0.2c2.1,10.3,9.5,18.8,19.4,22.4v6.1H88.8c-6.6,0-12.2,5-12.8,11.7
							c23.4,19.9,57.8,19.9,81.2,0C156.6,157.6,151,152.6,144.4,152.6z"/>
						<path class="st3" d="M145.1,153.3h-19.5v-6.1c9.9-3.6,17.3-12,19.4-22.3h0.1c3.9,0,7.1-3.2,7.1-7.1c0,0,0,0,0,0v-1.7
							c0-3.7-2.9-6.8-6.6-7.1v-5c0-4.6-1-9.2-3.1-13.3c4-2.8,6.3-7.4,6.3-12.3c0-8.4-6.8-15.3-15.2-15.3c-6.7,0-12.7,4.4-14.7,10.9
							c-1.2-0.2-2.4-0.2-3.7-0.2l0,0h-1.2c-16,0.6-28.9,13.6-29.2,29.7c0,0.1,0,0.2,0,0.3c0,0.1,0,0.3,0,0.4v5
							c-3.7,0.3-6.6,3.3-6.6,7.1v1.7c0,3.9,3.2,7.1,7.1,7.1h0.2c2.1,10.3,9.5,18.8,19.4,22.4v6.1H89.5c-6.6,0-12.2,5-12.8,11.7
							c23.4,19.9,57.8,19.9,81.2,0C157.3,158.3,151.7,153.3,145.1,153.3z"/>
						<path class="st3" d="M145.8,154h-19.5v-6c9.9-3.6,17.2-12,19.4-22.3h0.1c3.9,0,7.1-3.2,7.1-7.1c0,0,0,0,0,0v-1.7
							c0-3.7-2.9-6.8-6.6-7.1v-5c0-4.6-1-9.2-3.1-13.3c4-2.8,6.3-7.4,6.3-12.3c0-8.4-6.8-15.3-15.2-15.3c-5.2,0-10,2.6-12.9,7
							c-0.8,1.2-1.3,2.5-1.8,3.8c-1.2-0.2-2.4-0.2-3.7-0.2l0,0h-1.2c-16,0.6-28.8,13.6-29.2,29.7c0,0.1,0,0.2,0,0.3
							c0,0.1,0,0.3,0,0.4v5c-3.7,0.3-6.6,3.3-6.6,7.1v1.7c0,3.9,3.2,7.1,7.1,7.1h0.2c2.1,10.3,9.5,18.8,19.4,22.4v6H90.2
							c-6.6,0-12.2,5-12.8,11.7c23.4,19.9,57.8,19.9,81.2,0C158,159,152.4,154,145.8,154z"/>
						<path class="st3" d="M146.5,154.7H127v-6.1c9.9-3.6,17.2-12,19.4-22.3h0.1c3.9,0,7.1-3.2,7.1-7.1c0,0,0,0,0,0v-1.7
							c0-3.7-2.9-6.8-6.6-7.1v-5c0-4.6-1-9.2-3.1-13.3c1.1-0.8,2.1-1.8,3-2.9c5.2-6.6,4-16.2-2.6-21.4s-16.2-4-21.4,2.6
							c-0.3,0.4-0.6,0.7-0.8,1.1c-0.8,1.2-1.3,2.5-1.8,3.8c-1.2-0.2-2.4-0.2-3.7-0.2l0,0h-1.2c-16,0.6-28.8,13.6-29.2,29.7
							c0,0.1,0,0.2,0,0.3c0,0.1,0,0.3,0,0.4v5c-3.7,0.3-6.6,3.3-6.6,7.1v1.7c0,3.9,3.2,7.1,7.1,7.1c0,0,0,0,0,0H87
							c2.1,10.3,9.5,18.8,19.4,22.3v6.1H90.9c-6.6,0-12.2,5-12.8,11.7c23.4,19.9,57.8,19.9,81.2,0
							C158.7,159.7,153.1,154.7,146.5,154.7z"/>
						<path class="st3" d="M147.2,155.4h-19.5v-6.1c9.9-3.6,17.2-12,19.4-22.3h0.1c3.9,0,7.1-3.2,7.1-7.1c0,0,0,0,0,0v-1.7
							c0-3.7-2.9-6.8-6.6-7.1v-5c0-4.6-1-9.2-3.1-13.3c1.1-0.8,2.1-1.8,3-2.9c5.2-6.6,4-16.2-2.6-21.4c-6.6-5.2-16.2-4-21.4,2.6
							c-0.3,0.4-0.6,0.7-0.8,1.1c-0.8,1.2-1.3,2.5-1.8,3.8c-1.2-0.2-2.4-0.2-3.7-0.2l0,0h-1.2c-16,0.6-28.8,13.6-29.2,29.7
							c0,0.1,0,0.2,0,0.3c0,0.1,0,0.3,0,0.4v5c-3.7,0.3-6.6,3.3-6.6,7.1v1.7c0,3.9,3.1,7.1,7.1,7.1c0,0,0,0,0,0h0.2
							c2.1,10.3,9.5,18.8,19.4,22.4v6.1H91.6c-6.6,0-12.2,5-12.8,11.7c23.4,19.9,57.8,19.9,81.2,0
							C159.4,160.4,153.9,155.4,147.2,155.4z"/>
						<path class="st3" d="M147.9,156.1h-19.5v-6.1c9.9-3.6,17.2-12,19.4-22.3h0.1c3.9,0,7.1-3.2,7.1-7.1c0,0,0,0,0,0V119
							c0-3.7-2.9-6.8-6.6-7.1v-5c0-4.6-1-9.2-3.1-13.3c1.1-0.8,2.1-1.8,3-2.9c5.2-6.7,3.9-16.2-2.7-21.4c-6.7-5.2-16.2-3.9-21.4,2.7
							c-0.2,0.3-0.5,0.6-0.7,0.9c-0.8,1.2-1.3,2.5-1.8,3.8c-1.2-0.2-2.4-0.2-3.7-0.2l0,0H117c-16,0.6-28.8,13.6-29.1,29.7
							c0,0.1,0,0.2,0,0.3c0,0.1,0,0.3,0,0.4v5c-3.7,0.3-6.6,3.3-6.6,7.1v1.7c0,3.9,3.2,7.1,7.1,7.1c0,0,0,0,0,0h0.1
							c2.2,10.3,9.5,18.8,19.4,22.3v6.1H92.3c-6.6,0-12.2,5-12.8,11.7c23.4,19.9,57.8,19.9,81.2,0
							C160.1,161.1,154.5,156.1,147.9,156.1z"/>
						<path class="st3" d="M148.6,156.8h-19.5v-6c9.9-3.6,17.2-12,19.4-22.4h0.1c3.9,0,7.1-3.2,7.1-7.1c0,0,0,0,0,0v-1.7
							c0-3.7-2.9-6.8-6.6-7.1v-5c0-4.6-1-9.2-3.1-13.3c4-2.9,6.3-7.5,6.3-12.4c0-8.4-6.8-15.3-15.2-15.3c-5.2,0-10,2.6-12.9,7
							c-0.8,1.2-1.3,2.5-1.8,3.8c-1.2-0.2-2.4-0.2-3.7-0.2l0,0c-0.4,0-0.8,0-1.2,0c-16.1,0.6-28.9,13.6-29.2,29.7c0,0.1,0,0.2,0,0.3
							c0,0.1,0,0.3,0,0.4v5c-3.7,0.3-6.6,3.3-6.6,7.1v1.7c0,3.9,3.2,7.1,7.1,7.1h0.1c2.2,10.3,9.5,18.8,19.4,22.4v6H93
							c-6.7,0-12.2,5.1-12.8,11.7c23.4,19.9,57.8,19.9,81.2,0C160.8,161.9,155.3,156.8,148.6,156.8z"/>
						<path class="st3" d="M149.3,157.5h-19.5v-6.1c9.9-3.6,17.2-12,19.4-22.4h0.1c3.9,0,7.1-3.2,7.1-7.1c0,0,0,0,0,0v-1.6
							c0-3.7-2.9-6.8-6.6-7.1v-5c0-4.6-1-9.2-3.1-13.3c4-2.8,6.3-7.4,6.3-12.3c0-8.4-6.8-15.3-15.2-15.3c-5.2,0-10.1,2.7-12.9,7
							c-0.8,1.2-1.3,2.5-1.8,3.8c-1.2-0.2-2.4-0.2-3.7-0.2l0,0c-0.4,0-0.8,0-1.2,0c-16,0.6-28.8,13.6-29.1,29.7c0,0.1,0,0.2,0,0.3
							c0,0.1,0,0.3,0,0.4v5c-3.7,0.3-6.6,3.3-6.6,7.1v1.7c0,3.9,3.2,7.1,7.1,7.1c0,0,0,0,0,0h0.1c2.2,10.3,9.5,18.8,19.4,22.4v6.1
							H93.7c-6.6,0-12.2,5-12.8,11.7c23.4,19.9,57.8,19.9,81.2,0C161.5,162.6,156,157.5,149.3,157.5z"/>
						<path class="st3" d="M150.1,158.2h-19.5v-6.1c9.9-3.6,17.2-12,19.4-22.4h0.1c3.9,0,7.1-3.2,7.1-7.1c0,0,0,0,0,0v-1.7
							c0-3.7-2.9-6.8-6.6-7.1v-5c0-4.6-1-9.2-3.1-13.3c4-2.8,6.3-7.4,6.3-12.3c0-8.4-6.8-15.3-15.2-15.3c-5.2,0-10,2.6-12.9,7
							c-0.7,1.2-1.3,2.5-1.7,3.8c-1.2-0.2-2.4-0.2-3.7-0.2l0,0c-0.4,0-0.8,0-1.2,0c-16,0.6-28.8,13.6-29.1,29.7c0,0.1,0,0.2,0,0.3
							c0,0.1,0,0.3,0,0.4v5c-3.7,0.3-6.6,3.3-6.6,7.1v1.7c0,3.9,3.2,7.1,7.1,7.1c0,0,0,0,0,0h0.1c2.1,10.3,9.5,18.7,19.4,22.3v6.1
							H94.4c-6.6,0-12.2,5-12.8,11.7c23.4,19.9,57.8,19.9,81.2,0C162.2,163.3,156.7,158.2,150.1,158.2z"/>
						<path class="st3" d="M150.8,159h-19.5v-6c9.9-3.6,17.2-12,19.4-22.4h0.1c3.9,0,7.1-3.2,7.1-7.1v-1.7c0-3.7-2.9-6.8-6.6-7.1v-5
							c0-4.6-1-9.2-3.1-13.3c6.8-4.9,8.3-14.5,3.4-21.3c-4.9-6.8-14.5-8.3-21.3-3.4c-2.7,1.9-4.7,4.7-5.6,7.9
							c-1.2-0.2-2.4-0.2-3.7-0.2l0,0c-0.4,0-0.8,0-1.2,0c-16,0.6-28.8,13.5-29.2,29.6c0,0.1,0,0.2,0,0.3c0,0.1,0,0.3,0,0.4v5
							c-3.7,0.3-6.6,3.3-6.6,7.1v1.7c0,3.9,3.2,7.1,7.1,7.1c0,0,0,0,0,0h0.1c2.2,10.3,9.5,18.8,19.4,22.4v6H95.1
							c-6.6,0-12.2,5-12.8,11.7c23.4,19.9,57.8,19.9,81.2,0C162.9,164,157.4,159,150.8,159z"/>
						<path class="st3" d="M151.5,159.7H132v-6c9.9-3.6,17.2-12,19.4-22.4h0.1c3.9,0,7.1-3.2,7.1-7.1v-1.7c0-3.7-2.9-6.8-6.6-7.1v-5
							c0-4.6-1-9.2-3.1-13.3c6.8-4.9,8.4-14.5,3.5-21.3c-4.9-6.8-14.5-8.4-21.3-3.5c-1.6,1.1-2.9,2.5-3.9,4.2
							c-0.8,1.2-1.4,2.5-1.8,3.8c-1.2-0.2-2.4-0.2-3.7-0.2l0,0c-0.4,0-0.8,0-1.2,0c-16,0.6-28.8,13.6-29.1,29.7c0,0.1,0,0.2,0,0.3
							c0,0.1,0,0.3,0,0.4v5c-3.7,0.3-6.6,3.3-6.6,7.1v1.7c0,3.9,3.2,7.1,7.1,7.1c0,0,0,0,0,0H92c2.2,10.3,9.5,18.8,19.4,22.4v6H95.8
							c-6.7,0-12.2,5-12.8,11.7c23.4,19.9,57.8,19.9,81.2,0C163.6,164.7,158.1,159.7,151.5,159.7z"/>
						<path class="st3" d="M152.2,160.4h-19.5v-6.1c9.9-3.6,17.2-12,19.4-22.3h0.1c3.9,0,7.1-3.2,7.1-7.1v-1.7
							c0-3.7-2.9-6.8-6.6-7.1v-5c0-4.6-1-9.2-3.1-13.3c6.8-4.9,8.4-14.5,3.5-21.3c-4.9-6.8-14.5-8.4-21.3-3.5
							c-1.6,1.1-2.9,2.5-3.9,4.2c-0.8,1.2-1.4,2.5-1.8,3.8c-1.2-0.2-2.4-0.2-3.7-0.2l0,0c-0.4,0-0.8,0-1.2,0
							c-16,0.6-28.8,13.6-29.1,29.7c0,0.1,0,0.2,0,0.3c0,0.1,0,0.3,0,0.4v5c-3.7,0.3-6.6,3.3-6.6,7.1v1.7c0,3.9,3.1,7.1,7,7.1h0.1
							c2.2,10.3,9.5,18.8,19.4,22.4v6.1H96.6c-6.6,0-12.2,5-12.8,11.6c23.4,20,57.8,20,81.3,0C164.4,165.4,158.8,160.4,152.2,160.4z
							"/>
						<path class="st3" d="M152.9,161.1h-19.5V155c9.9-3.6,17.2-12,19.4-22.4h0.1c3.9,0,7.1-3.2,7.1-7.1V124c0-3.7-2.9-6.8-6.6-7.1
							v-5c0-4.6-1-9.2-3.1-13.3c1.1-0.8,2.1-1.8,3-2.9c5.2-6.6,4.1-16.2-2.5-21.4c-6.6-5.2-16.2-4.1-21.4,2.5
							c-1.2,1.5-2.1,3.2-2.6,5c-1.2-0.2-2.4-0.2-3.7-0.2l0,0c-0.4,0-0.8,0-1.2,0c-16,0.6-28.8,13.6-29.1,29.7c0,0.1,0,0.2,0,0.3
							c0,0.1,0,0.3,0,0.4v5c-3.7,0.3-6.6,3.3-6.6,7.1v1.6c0,3.9,3.2,7.1,7.1,7.1c0,0,0,0,0,0h0.1c2.2,10.3,9.5,18.7,19.4,22.3v6.1
							H97.3c-6.6,0-12.2,5-12.8,11.7c23.4,19.9,57.8,19.9,81.2,0C165.1,166.1,159.5,161.1,152.9,161.1z"/>
						<path class="st3" d="M153.6,161.8h-19.5v-6c9.9-3.6,17.2-12,19.4-22.4h0.1c3.9,0,7.1-3.2,7.1-7.1v-1.6c0-3.7-2.9-6.8-6.6-7.1
							v-5c0-4.6-1.1-9.2-3.1-13.4c1.1-0.8,2.1-1.8,3-2.9c5.2-6.6,4.1-16.2-2.5-21.4c-6.6-5.2-16.2-4.1-21.4,2.5
							c-1.2,1.5-2.1,3.2-2.6,5c-1.2-0.2-2.4-0.2-3.7-0.2l0,0c-0.4,0-0.8,0-1.2,0c-12.3,0.5-23.1,8.3-27.3,19.9
							c-1.2,3.1-1.8,6.4-1.8,9.8c0,0.1,0,0.2,0,0.3c0,0.1,0,0.2,0,0.4v5c-3.7,0.3-6.6,3.3-6.6,7.1v1.6c0,3.9,3.1,7.1,7,7.1
							c0,0,0.1,0,0.1,0h0.1c2.2,10.3,9.5,18.8,19.4,22.4v6H98c-6.6,0-12.2,5-12.8,11.7c23.4,19.9,57.8,19.9,81.2,0
							C165.8,166.8,160.2,161.8,153.6,161.8z"/>
						<path class="st3" d="M154.3,162.5h-19.5v-6.1c9.9-3.6,17.2-12,19.4-22.4h0.1c3.9,0,7.1-3.2,7.1-7.1v-1.7
							c0-3.7-2.9-6.8-6.6-7.1v-5c0-4.6-1-9.2-3.1-13.3c1.1-0.8,2.1-1.8,3-2.9c5.2-6.6,4.1-16.2-2.5-21.4c-6.6-5.2-16.2-4.1-21.4,2.5
							c-1.2,1.5-2.1,3.2-2.6,5c-1.2-0.2-2.4-0.2-3.7-0.2l0,0c-0.4,0-0.8,0-1.2,0c-12.3,0.5-23.1,8.3-27.3,19.9
							c-1.2,3.1-1.8,6.4-1.8,9.8c0,0.1,0,0.2,0,0.3c0,0.1,0,0.2,0,0.4v5c-3.7,0.3-6.6,3.3-6.6,7.1v1.7c0,3.9,3.2,7.1,7.1,7.1
							c0,0,0,0,0,0h0.1c2.2,10.3,9.5,18.8,19.4,22.4v6.1H98.7c-6.6,0-12.2,5-12.8,11.7c23.4,19.9,57.8,19.9,81.2,0
							C166.5,167.5,160.9,162.5,154.3,162.5z"/>
						<path class="st3" d="M155,163.2h-19.5v-6.1c9.9-3.6,17.2-12,19.4-22.4h0.1c3.9,0,7.1-3.2,7.1-7.1v-1.7c0-3.7-2.9-6.8-6.6-7.1
							v-5c0-4.6-1-9.2-3.1-13.3c1.1-0.8,2.1-1.8,3-2.9c5.2-6.6,4.1-16.2-2.5-21.4c-6.6-5.2-16.2-4.1-21.4,2.5
							c-1.2,1.5-2.1,3.2-2.6,5c-1.2-0.2-2.4-0.2-3.7-0.2l0,0c-0.4,0-0.8,0-1.2,0c-16,0.6-28.8,13.6-29.1,29.7v0.3c0,0.1,0,0.2,0,0.4
							v5c-3.7,0.3-6.6,3.3-6.6,7.1v1.7c0,3.9,3.2,7.1,7.1,7.1c0,0,0,0,0,0h0.1c2.2,10.3,9.5,18.8,19.4,22.4v6.1H99.4
							c-6.6,0-12.2,5-12.8,11.7c23.4,19.9,57.8,19.9,81.2,0C167.2,168.2,161.6,163.2,155,163.2z"/>
						<path class="st3" d="M155.7,163.9h-19.5v-6c9.9-3.6,17.2-12,19.4-22.4h0.1c3.9,0,7.1-3.2,7.1-7.1v-1.7c0-3.7-2.9-6.8-6.6-7.1
							v-5c0-4.6-1-9.2-3.1-13.3c1.1-0.8,2.1-1.8,3-2.9c5.2-6.6,4-16.2-2.6-21.4s-16.2-4-21.4,2.6c-0.3,0.4-0.6,0.7-0.8,1.1
							c-0.8,1.2-1.4,2.5-1.8,3.8c-1.2-0.2-2.4-0.2-3.7-0.2l0,0c-0.4,0-0.8,0-1.2,0c-16,0.6-28.8,13.6-29.2,29.7v0.3
							c0,0.1,0,0.2,0,0.4v5c-3.7,0.3-6.6,3.3-6.6,7.1v1.6c0,3.9,3.2,7.1,7.1,7.1c0,0,0,0,0,0h0.1c2.2,10.3,9.5,18.8,19.4,22.4v6
							h-15.5c-6.7,0-12.2,5.1-12.8,11.7c23.4,19.9,57.8,19.9,81.2,0C167.9,169,162.4,163.9,155.7,163.9z"/>
						<path class="st3" d="M156.4,164.6h-19.5v-6c9.9-3.6,17.2-12,19.4-22.4h0.1c3.9,0,7.1-3.2,7.1-7.1v-1.7c0-3.7-2.9-6.8-6.6-7.1
							v-5c0-4.6-1-9.2-3.1-13.3c1.1-0.8,2.1-1.8,3-2.9c5.2-6.6,4-16.2-2.6-21.4s-16.2-4-21.4,2.6c-0.3,0.4-0.6,0.7-0.8,1.1
							c-0.8,1.2-1.4,2.5-1.8,3.8c-1.2-0.2-2.4-0.2-3.7-0.2l0,0c-0.4,0-0.8,0-1.2,0c-16,0.6-28.8,13.6-29.2,29.6v0.2
							c0,0.1,0,0.2,0,0.4v5c-3.7,0.3-6.6,3.3-6.6,7.1v1.7c0,3.9,3.2,7.1,7.1,7.1c0,0,0,0,0,0H97c2.2,10.3,9.5,18.8,19.4,22.4v6
							h-15.5c-6.7,0-12.3,5.1-12.8,11.8c23.4,19.9,57.8,19.9,81.2,0C168.6,169.7,163.1,164.6,156.4,164.6z"/>
						<path class="st3" d="M157.1,165.3h-19.5v-6.1c9.9-3.6,17.2-12,19.4-22.3h0.1c3.9,0,7.1-3.2,7.1-7.1v-1.7
							c0-3.7-2.9-6.8-6.6-7.1v-5c0-4.6-1-9.2-3.1-13.3c1.1-0.8,2.1-1.8,3-2.9c5.2-6.6,4-16.2-2.6-21.4c-6.6-5.2-16.2-4-21.4,2.6
							c-0.3,0.4-0.6,0.7-0.8,1.1c-0.8,1.2-1.4,2.5-1.8,3.8c-1.2-0.2-2.4-0.2-3.7-0.2l0,0c-0.4,0-0.8,0-1.2,0
							c-16,0.6-28.8,13.6-29.2,29.6v0.3c0,0.1,0,0.2,0,0.4v5c-3.7,0.3-6.6,3.3-6.6,7.1v1.6c0,3.9,3.2,7.1,7.1,7.1c0,0,0,0,0,0h0.1
							c2.2,10.3,9.5,18.8,19.4,22.4v6.1h-15.5c-6.6,0-12.2,5.1-12.8,11.7c23.4,20,57.9,20,81.3,0
							C169.4,170.4,163.8,165.3,157.1,165.3z"/>
						<path class="st3" d="M157.9,166h-19.5v-6c9.9-3.6,17.2-12,19.4-22.4h0.1c3.9,0,7.1-3.2,7.1-7.1v-1.6c0-3.7-2.9-6.8-6.6-7.1v-5
							c0-4.6-1-9.2-3.1-13.3c1.1-0.8,2.1-1.8,3-2.9c5.3-6.5,4.4-16.1-2.1-21.5c-6.5-5.3-16.1-4.4-21.5,2.1c-0.4,0.5-0.8,1.1-1.2,1.7
							c-0.8,1.2-1.4,2.5-1.8,3.8c-1.2-0.2-2.4-0.2-3.7-0.2l0,0c-0.4,0-0.8,0-1.2,0c-16,0.6-28.8,13.6-29.2,29.6v0.3
							c0,0.1,0,0.2,0,0.4v5c-3.7,0.3-6.6,3.3-6.6,7.1v1.6c0,3.9,3.2,7.1,7.1,7.1c0,0,0,0,0,0h0.2c2.1,10.3,9.5,18.8,19.3,22.4v6
							h-15.5c-6.7,0-12.2,5.1-12.8,11.7c23.4,19.9,57.8,19.9,81.2,0C170.1,171.1,164.5,166,157.9,166z"/>
						<path class="st3" d="M158.6,166.8H139v-6c9.9-3.6,17.2-12,19.4-22.4h0.1c3.9,0,7.1-3.2,7.1-7.1v-1.6c0-3.7-2.9-6.8-6.6-7.1v-5
							c0-4.6-1-9.2-3-13.4c1.1-0.8,2.1-1.8,3-2.9c5.2-6.6,4-16.2-2.6-21.4s-16.2-4-21.4,2.6c-0.3,0.4-0.6,0.7-0.8,1.1
							c-0.8,1.2-1.4,2.5-1.8,3.8c-1.2-0.2-2.4-0.2-3.7-0.2l0,0c-0.4,0-0.8,0-1.2,0c-16,0.6-28.8,13.6-29.2,29.7v0.3
							c0,0.1,0,0.2,0,0.4v5c-3.7,0.3-6.6,3.3-6.6,7.1v1.6c0,3.9,3.2,7.1,7.1,7.1c0,0,0,0,0,0h0.2c2.2,10.3,9.5,18.8,19.4,22.4v6H103
							c-6.6,0-12.2,5-12.8,11.7c23.4,19.9,57.8,19.9,81.2,0C170.8,171.7,165.2,166.7,158.6,166.8z"/>
						<path class="st3" d="M159.3,167.5h-19.5v-6c9.9-3.6,17.2-12,19.4-22.4h0.1c3.9,0,7.1-3.2,7.1-7.1c0,0,0,0,0,0v-1.6
							c0-3.7-2.9-6.8-6.6-7.1v-5c0-4.6-1-9.2-3.1-13.3c1.1-0.8,2.1-1.8,3-2.9c5.4-6.5,4.5-16.1-2-21.5s-16.1-4.5-21.5,2
							c-0.4,0.5-0.9,1.1-1.2,1.7c-0.8,1.2-1.4,2.5-1.8,3.8c-1.2-0.2-2.4-0.2-3.7-0.2l0,0c-0.4,0-0.8,0-1.2,0
							c-16,0.6-28.8,13.6-29.2,29.6v0.3c0,0.1,0,0.2,0,0.4v5c-3.7,0.3-6.6,3.3-6.6,7.1v1.7c0,3.9,3.2,7.1,7.1,7.1c0,0,0,0,0,0h0.2
							c2.2,10.3,9.5,18.8,19.4,22.4v6h-15.6c-6.6,0-12.2,5-12.8,11.7c23.4,19.9,57.8,19.9,81.2,0
							C171.5,172.5,165.9,167.5,159.3,167.5z"/>
						<path class="st3" d="M160,168.2h-19.5v-6c9.9-3.6,17.2-12,19.4-22.4h0.1c3.9,0,7.1-3.2,7.1-7.1c0,0,0,0,0,0V131
							c0-3.7-2.9-6.7-6.6-7v-5c0-4.6-1-9.2-3.1-13.3c1.1-0.8,2.1-1.8,3-2.9c5.2-6.6,4-16.2-2.6-21.4c-6.6-5.2-16.2-4-21.4,2.6
							c-0.3,0.4-0.6,0.7-0.8,1.1c-0.8,1.2-1.4,2.5-1.8,3.8c-1.2-0.2-2.4-0.2-3.7-0.2l0,0c-0.4,0-0.8,0-1.2,0
							c-16,0.6-28.8,13.6-29.2,29.6v0.3c0,0.1,0,0.2,0,0.4v5c-3.7,0.3-6.6,3.3-6.6,7.1v1.6c0,3.9,3.2,7.1,7.1,7.1c0,0,0,0,0,0h0.2
							c2.2,10.3,9.5,18.8,19.4,22.4v6h-15.5c-6.6,0-12.2,5-12.8,11.7c23.4,19.9,57.8,19.9,81.2,0C172.2,173.2,166.6,168.2,160,168.2
							z"/>
						<path class="st3" d="M160.7,168.9h-19.5v-6c9.9-3.6,17.2-12,19.4-22.4h0.1c3.9,0,7.1-3.2,7.1-7.1c0,0,0,0,0,0v-1.6
							c0-3.7-2.9-6.8-6.6-7.1v-5c0-4.6-1-9.2-3.1-13.3c1.1-0.8,2.1-1.8,3-2.9c5.2-6.6,4-16.2-2.6-21.4c-6.6-5.2-16.2-4-21.4,2.6
							c-0.3,0.4-0.6,0.7-0.8,1.1c-0.8,1.2-1.4,2.5-1.8,3.8c-1.2-0.2-2.4-0.2-3.7-0.2l0,0c-0.4,0-0.8,0-1.2,0
							c-16,0.6-28.8,13.6-29.2,29.6v0.3c0,0.1,0,0.2,0,0.4v5c-3.7,0.3-6.6,3.3-6.6,7.1v1.6c0,3.9,3.2,7.1,7.1,7.1c0,0,0,0,0,0h0.2
							c2.2,10.3,9.5,18.8,19.4,22.4v6h-15.5c-6.6,0-12.2,5-12.8,11.7c23.4,19.9,57.8,19.9,81.2,0
							C172.9,173.9,167.3,168.9,160.7,168.9z"/>
						<path class="st3" d="M161.4,169.6h-19.5v-6c9.9-3.6,17.2-12,19.4-22.4h0.1c3.9,0,7.1-3.2,7.1-7.1c0,0,0,0,0,0v-1.6
							c0-3.7-2.9-6.8-6.6-7.1v-5c0-4.6-1-9.2-3.1-13.3c1.1-0.8,2.1-1.8,3-2.9c5.2-6.6,4-16.2-2.6-21.4c-6.6-5.2-16.2-4-21.4,2.6
							c-0.3,0.4-0.6,0.7-0.8,1.1c-0.8,1.2-1.4,2.5-1.8,3.8c-1.2-0.2-2.4-0.2-3.7-0.2l0,0c-0.4,0-0.8,0-1.2,0
							c-16,0.6-28.8,13.6-29.2,29.6v0.2c0,0.1,0,0.2,0,0.4v5c-3.7,0.3-6.6,3.3-6.6,7.1v1.6c0,3.9,3.2,7.1,7.1,7.1c0,0,0,0,0,0h0.2
							c2.2,10.3,9.5,18.8,19.4,22.4v6h-15.5c-6.7,0-12.2,5.1-12.8,11.7c23.4,19.9,57.8,19.9,81.2,0
							C173.6,174.6,168.1,169.6,161.4,169.6z"/>
						<path class="st3" d="M162.1,170.3h-19.5v-6c9.9-3.6,17.3-12.1,19.4-22.4h0.1c3.9,0,7.1-3.2,7.1-7.1c0,0,0,0,0,0v-1.6
							c0-3.7-2.9-6.8-6.6-7.1v-5c0-4.6-1-9.2-3.1-13.3c1.1-0.8,2.1-1.8,3-2.9c5.2-6.6,4-16.2-2.6-21.4c-6.6-5.2-16.2-4-21.4,2.6
							c-0.3,0.4-0.6,0.7-0.8,1.1c-0.8,1.2-1.4,2.4-1.8,3.8c-1.2-0.2-2.4-0.2-3.7-0.2l0,0c-0.4,0-0.8,0-1.2,0
							c-16.1,0.6-28.9,13.6-29.2,29.7v0.3c0,0.1,0,0.2,0,0.4v5c-3.7,0.3-6.6,3.3-6.6,7.1v1.6c0,3.9,3.2,7.1,7.1,7.1c0,0,0,0,0,0h0.2
							c2.1,10.3,9.5,18.8,19.4,22.4v6h-15.5c-6.7,0-12.2,5.1-12.8,11.7c23.4,19.9,57.8,19.9,81.2,0
							C174.3,175.4,168.8,170.3,162.1,170.3z"/>
						<path class="st3" d="M162.8,171h-19.5v-6c9.9-3.6,17.2-12,19.4-22.4h0.1c3.9,0,7.1-3.2,7.1-7.1c0,0,0,0,0,0v-1.6
							c0-3.7-2.9-6.8-6.6-7.1v-5c0-4.6-1-9.2-3.1-13.3c1.1-0.8,2.1-1.8,3-2.9c5.2-6.6,4-16.2-2.6-21.4c-6.6-5.2-16.2-4-21.4,2.6
							c-0.3,0.4-0.6,0.7-0.8,1.1c-0.8,1.2-1.4,2.5-1.8,3.8c-1.2-0.2-2.4-0.2-3.7-0.2l0,0c-0.4,0-0.8,0-1.2,0
							c-16,0.6-28.8,13.6-29.2,29.6v0.3c0,0.1,0,0.2,0,0.4v5c-3.7,0.3-6.6,3.3-6.6,7.1v1.6c0,3.9,3.2,7.1,7.1,7.1c0,0,0,0,0,0h0.2
							c2.1,10.3,9.5,18.8,19.4,22.4v6h-15.5c-6.6,0-12.2,5-12.8,11.7c23.4,19.9,57.8,19.9,81.2,0C175,176,169.5,171,162.8,171z"/>
						<path class="st3" d="M163.5,171.7H144v-6c9.9-3.6,17.2-12,19.4-22.4h0.1c3.9,0,7.1-3.2,7.1-7.1c0,0,0,0,0,0v-1.6
							c0-3.7-2.9-6.8-6.6-7.1v-5c0-4.6-1-9.2-3.1-13.3c6.8-4.9,8.4-14.5,3.4-21.3c-4.9-6.8-14.5-8.4-21.3-3.4
							c-1.6,1.1-2.9,2.5-3.9,4.1c-0.8,1.2-1.4,2.5-1.8,3.8c-1.2-0.2-2.4-0.2-3.7-0.2l0,0c-0.4,0-0.8,0-1.2,0
							c-16,0.6-28.8,13.6-29.2,29.6v0.3c0,0.1,0,0.2,0,0.4v5c-3.7,0.3-6.6,3.3-6.6,7.1v1.6c0,3.9,3.2,7.1,7.1,7.1c0,0,0,0,0,0h0.1
							c2.2,10.3,9.5,18.8,19.4,22.4v6h-15.5c-6.7,0-12.2,5.1-12.8,11.7c23.4,19.9,57.8,19.9,81.2,0
							C175.7,176.8,170.2,171.7,163.5,171.7z"/>
						<path class="st3" d="M164.2,172.4h-19.5v-6c9.9-3.6,17.3-12.1,19.4-22.4h0.1c3.9,0,7.1-3.2,7.1-7.1v-1.6
							c0-3.7-2.9-6.8-6.6-7.1v-5c0-4.6-1-9.2-3.1-13.3c4-2.8,6.3-7.5,6.3-12.4c0-8.4-6.8-15.3-15.2-15.3c-6.7,0-12.7,4.4-14.6,10.8
							c-1.2-0.2-2.4-0.2-3.7-0.2l0,0c-0.4,0-0.8,0-1.1,0c-16,0.6-28.8,13.6-29.2,29.6v0.3c0,0.1,0,0.2,0,0.4v5
							c-3.7,0.3-6.6,3.3-6.6,7.1v1.8c0,3.9,3.2,7,7,7h0.2c2.2,10.3,9.5,18.8,19.4,22.4v6h-15.5c-6.6,0-12.2,5-12.8,11.7
							c23.4,19.9,57.8,19.9,81.2,0C176.4,177.4,170.9,172.4,164.2,172.4z"/>
						<path class="st3" d="M165,173.1h-19.6v-6c9.9-3.6,17.2-12,19.4-22.4h0.2c3.9,0,7.1-3.2,7.1-7.1V136c0-3.7-2.9-6.8-6.6-7.1v-5
							c0-4.6-1-9.2-3.1-13.3c4-2.8,6.3-7.4,6.3-12.3c0-8.4-6.8-15.3-15.2-15.3c-6.7,0-12.7,4.4-14.6,10.8c-1.2-0.2-2.4-0.2-3.7-0.2
							h-0.1c-0.4,0-0.8,0-1.1,0c-16,0.6-28.8,13.6-29.2,29.6v0.3c0,0.1,0,0.2,0,0.4v5c-3.7,0.2-6.6,3.3-6.6,7.1v1.6
							c0,3.9,3.2,7.1,7.1,7.1h0.2c2.2,10.3,9.5,18.8,19.4,22.4v6h-15.5c-6.7,0-12.2,5.1-12.8,11.7c23.4,19.9,57.8,19.9,81.2,0
							C177.1,178.2,171.6,173.2,165,173.1z"/>
						<path class="st3" d="M165.7,173.9h-19.5v-6c9.9-3.6,17.2-12,19.4-22.4h0.1c3.9,0,7.1-3.2,7.1-7.1v-1.6c0-3.7-2.9-6.8-6.6-7.1
							v-5c0-4.6-1-9.2-3.1-13.3c4-2.9,6.4-7.5,6.3-12.4c0-8.4-6.8-15.3-15.2-15.3c-6.7,0-12.7,4.4-14.6,10.8
							c-1.2-0.2-2.4-0.2-3.7-0.2h-0.1c-0.4,0-0.8,0-1.1,0c-16,0.6-28.8,13.6-29.1,29.7v0.3c0,0.1,0,0.2,0,0.4v5
							c-3.7,0.3-6.6,3.3-6.6,7.1v1.6c0,3.9,3.2,7.1,7.1,7.1h0.2c2.2,10.3,9.5,18.8,19.4,22.4v6H110c-6.6,0-12.2,5-12.8,11.7
							c23.4,19.9,57.8,19.9,81.2,0C177.8,178.9,172.3,173.9,165.7,173.9z"/>
						<path class="st3" d="M166.4,174.6h-19.5v-6.1c9.9-3.6,17.2-12,19.4-22.3h0.1c3.9,0,7.1-3.2,7.1-7.1v-1.6
							c0-3.7-2.9-6.8-6.6-7.1v-5c0-4.6-1-9.2-3.1-13.3c4-2.8,6.3-7.4,6.3-12.3c0-8.4-6.8-15.3-15.2-15.3c-6.7,0-12.7,4.4-14.6,10.8
							c-1.2-0.2-2.4-0.2-3.7-0.2h-0.1c-0.4,0-0.8,0-1.1,0c-16,0.6-28.8,13.6-29.2,29.6v0.3c0,0.1,0,0.2,0,0.4v5
							c-3.7,0.3-6.6,3.3-6.6,7.1v1.6c0,3.9,3.2,7.1,7.1,7.1h0.2c2.2,10.3,9.5,18.8,19.4,22.3v6.1h-15.5c-6.6,0-12.2,5-12.8,11.7
							c23.4,19.9,57.8,19.9,81.2,0C178.6,179.6,173,174.6,166.4,174.6z"/>
						<path class="st3" d="M167.1,175.3h-19.5v-6.1c9.9-3.6,17.3-12,19.4-22.3h0.1c3.9,0,7.1-3.2,7.1-7.1v-1.6
							c0-3.7-2.9-6.8-6.6-7.1v-5c0-4.6-1-9.2-3.1-13.3c4-2.8,6.3-7.4,6.3-12.3c0.1-8.4-6.7-15.3-15.1-15.4
							c-6.8-0.1-12.9,4.4-14.8,11c-1.2-0.2-2.4-0.2-3.7-0.2l0,0c-0.4,0-0.8,0-1.1,0c-16,0.6-28.8,13.6-29.2,29.7v0.3
							c0,0.1,0,0.2,0,0.4v5c-3.7,0.3-6.6,3.3-6.6,7.1v1.6c0,3.9,3.2,7.1,7.1,7.1h0.2c2.1,10.3,9.5,18.8,19.4,22.4v6.1h-15.5
							c-6.6,0-12.2,5-12.8,11.7c23.4,19.9,57.8,19.9,81.2,0C179.3,180.3,173.7,175.3,167.1,175.3z"/>
						<path class="st3" d="M167.8,176h-19.5v-6c9.9-3.6,17.2-12,19.4-22.3h0.1c3.9,0,7.1-3.2,7.1-7.1v-1.6c0-3.7-2.9-6.8-6.6-7.1v-5
							c0-4.6-1-9.2-3.1-13.3c4-2.8,6.3-7.4,6.3-12.3c0-8.4-6.8-15.3-15.2-15.3c-6.7,0-12.7,4.4-14.6,10.8c-1.2-0.2-2.4-0.2-3.7-0.2
							h0c-0.4,0-0.8,0-1.1,0c-16,0.6-28.8,13.6-29.2,29.6v0.3c0,0.1,0,0.2,0,0.4v5c-3.7,0.3-6.6,3.3-6.6,7.1v1.6
							c0,3.9,3.2,7.1,7.1,7.1h0.2c2.2,10.3,9.5,18.8,19.4,22.3v6h-15.6c-6.6,0-12.2,5-12.8,11.7c23.4,19.9,57.8,19.9,81.2,0
							C180,181,174.4,176,167.8,176z"/>
						<path class="st3" d="M168.5,176.7H149v-6.1c9.9-3.6,17.2-12,19.4-22.3h0.1c3.9,0,7.1-3.2,7.1-7.1v-1.6c0-3.7-2.9-6.8-6.6-7.1
							v-5c0-4.6-1-9.2-3.1-13.3c4-2.8,6.3-7.4,6.3-12.3c0-8.4-6.8-15.3-15.2-15.3c-6.7,0-12.7,4.4-14.6,10.8
							c-1.2-0.2-2.4-0.2-3.7-0.2h-0.1c-0.4,0-0.8,0-1.1,0c-16,0.6-28.8,13.6-29.2,29.6v0.3c0,0.1,0,0.2,0,0.4v5
							c-3.7,0.3-6.6,3.3-6.6,7.1v1.6c0,3.9,3.2,7.1,7.1,7.1h0.1c2.2,10.3,9.5,18.8,19.4,22.3v6.1h-15.5c-6.6,0-12.2,5-12.8,11.7
							c23.4,19.9,57.8,19.9,81.2,0C180.7,181.7,175.1,176.7,168.5,176.7z"/>
						<path class="st3" d="M169.2,177.4h-19.5v-6.1c9.9-3.6,17.2-12,19.4-22.3h0.1c3.9,0,7.1-3.2,7.1-7.1v-1.6
							c0-3.7-2.9-6.8-6.6-7.1v-5c0-4.6-1-9.2-3.1-13.3c4-2.8,6.4-7.4,6.4-12.4c0-8.4-6.8-15.3-15.2-15.3c-6.7,0-12.7,4.4-14.6,10.8
							c-1.2-0.2-2.4-0.2-3.7-0.2l0,0c-0.4,0-0.8,0-1.1,0c-16,0.6-28.8,13.6-29.2,29.6v0.3c0,0.1,0,0.2,0,0.4v5
							c-3.7,0.3-6.6,3.3-6.6,7.1v1.6c0,3.9,3.2,7.1,7.1,7.1h0.2c2.2,10.3,9.5,18.8,19.4,22.3v6.1h-15.6c-6.6,0-12.2,5-12.8,11.7
							c23.4,19.9,57.8,19.9,81.2,0C181.4,182.4,175.8,177.4,169.2,177.4z"/>
					</g>
				</g>
			</g>
		</g>
		<g id="icon">
			<path class="st4" d="M103.2,110.3c-23.4,19.9-57.8,19.9-81.2,0c0.6-6.6,6.2-11.7,12.8-11.7h55.6
				C97.1,98.6,102.6,103.7,103.2,110.3z"/>
			<path class="st5" d="M94.2,23.8c0,3.4-1.2,6.8-3.3,9.5C86.5,25,79,18.9,70,16.4c-0.8-0.3-1.6-0.4-2.4-0.6l-1.5-0.3
				c4.5-7.1,14-9.2,21.1-4.6C91.6,13.7,94.2,18.6,94.2,23.8L94.2,23.8z"/>
			<path class="st6" d="M90.9,33.2c-5.2,6.6-14.8,7.8-21.4,2.6c-6.2-4.9-7.7-13.7-3.4-20.3l1.5,0.3c0.7,0.1,1.5,0.3,2.4,0.6
				C78.9,18.9,86.5,25,90.9,33.2L90.9,33.2z"/>
			<rect x="50.3" y="84.1" class="st7" width="20.6" height="14.5"/>
			<path class="st7" d="M30.8,54.4H32l0,0v15.8l0,0h-1.2c-3.9,0-7.1-3.2-7.1-7.1l0,0v-1.7C23.7,57.6,26.9,54.4,30.8,54.4z"/>
			<path class="st7" d="M90.4,70.2h-1.2l0,0V54.4l0,0h1.2c3.9,0,7.1,3.2,7.1,7.1v1.7C97.5,67.1,94.4,70.2,90.4,70.2z"/>
			<path class="st8" d="M90.9,49.4v14.6c-0.3,16.7-14.1,30.1-30.9,29.8c-16.3-0.3-29.5-13.5-29.8-29.8V49.4c0-0.2,0-0.4,0-0.6
				c0.4-16.7,14.2-30,31-29.7c1.9,0,3.7,0.2,5.5,0.6c0.7,0.1,1.3,0.3,2,0.5C81.9,23.9,90.9,35.8,90.9,49.4z"/>
			<path class="st5" d="M49.7,59.1L49.7,59.1c1.3,0,2.3,1,2.3,2.3V64c0,1.3-1,2.3-2.3,2.3l0,0c-1.3,0-2.3-1-2.3-2.3v-2.6
				C47.4,60.2,48.4,59.1,49.7,59.1z"/>
			<path class="st5" d="M71.5,66.3L71.5,66.3c-1.3,0-2.3-1-2.3-2.3v-2.6c0-1.3,1-2.3,2.3-2.3l0,0c1.3,0,2.3,1,2.3,2.3V64
				C73.9,65.3,72.8,66.3,71.5,66.3z"/>
			<path class="st9" d="M60.6,74.4c-2.3,0.1-4.3-1.7-4.4-4c-0.1-2.3,1.7-4.3,4-4.4c0.1,0,0.3,0,0.4,0"/>
			<path class="st9" d="M68.6,80.3c0,2-3.6,3.6-8,3.6s-8-1.6-8-3.6"/>
			<path class="st5" d="M82.1,28c-3.7-3.7-8.3-6.3-13.3-7.8c-0.7-0.2-1.3-0.4-2-0.5C50.4,16.4,34.3,26.9,31,43.3
				c-0.4,1.8-0.6,3.6-0.6,5.5c0,0.2,0,0.4,0,0.6V64c0,1.6,0.1,3.2,0.4,4.8l9.1-25.2c0.4-1.2,1-2.2,1.7-3.3l7.1,7.1
				c3.4,3.4,8.8,3.6,12.4,0.6c3.4,2.9,8.5,2.9,11.9,0c2.9,2.5,7.1,2.9,10.5,1l7.2,19.7c0.2-1.6,0.4-3.1,0.4-4.7V49.4
				C90.9,41.4,87.7,33.7,82.1,28z"/>
			<polygon class="st7" points="60.6,105.9 50.3,98.6 70.9,98.6 			"/>
		</g>
	</g>
</g>
</svg>
