<?xml version="1.0" encoding="utf-8"?>
<!-- Generator: Adobe Illustrator 23.0.0, SVG Export Plug-In . SVG Version: 6.00 Build 0)  -->
<svg version="1.1" id="레이어_1" xmlns="http://www.w3.org/2000/svg" xmlns:xlink="http://www.w3.org/1999/xlink" x="0px"
	 y="0px" viewBox="0 0 124 126.2" style="enable-background:new 0 0 124 126.2;" xml:space="preserve">
<style type="text/css">
	.st0{fill:#F4E3C3;}
	.st1{opacity:0.2;}
	.st2{clip-path:url(#SVGID_2_);}
	.st3{fill:#5D5D5D;}
	.st4{fill:#FFD15D;}
	.st5{fill:#935635;}
	.st6{fill:#FFD0B8;}
	.st7{fill:#FFDDCA;}
	.st8{fill:#324A5E;}
	.st9{fill:none;stroke:#FFB392;stroke-width:2;stroke-linecap:round;stroke-miterlimit:10;}
	.st10{fill:#FC6F58;}
	.st11{fill:none;stroke:#FC6F58;stroke-width:2.5;stroke-linecap:round;stroke-linejoin:round;}
</style>
<title>자산 3</title>
<g>
	<g>
		<g id="circle">
			<circle class="st0" cx="62.6" cy="62.6" r="62.6"/>
		</g>
		<g id="shadow">
			<g class="st1">
				<g>
					<defs>
						<circle id="SVGID_1_" cx="62.6" cy="62.6" r="62.6"/>
					</defs>
					<clipPath id="SVGID_2_">
						<use xlink:href="#SVGID_1_"  style="overflow:visible;"/>
					</clipPath>
					<g class="st2">
						<path class="st3" d="M34.5,89.9c3.6,0,7.1-1.4,9.7-3.8c2.5,1.9,5.2,3.4,8.1,4.4v4.8l-10,3.3h-7.5c-6.6,0-12.2,5-12.8,11.7
							c23.4,19.9,57.8,19.9,81.2,0c-0.6-6.6-6.2-11.7-12.8-11.7h-7.5l-10-3.3l0,0v-4.8c9.9-3.6,17.2-12,19.4-22.3h0.2
							c3.9,0,7.1-3.2,7.1-7.1v-1.7c0-3.7-2.9-6.8-6.6-7.1v-5c0-13.6-9-25.5-22.1-29.2h-0.1c-0.6-0.2-1.3-0.3-2-0.5L68,17.5
							c-1.8-0.3-3.5-0.5-5.3-0.5l0,0c-0.4,0-0.8,0-1.2,0c-16.1,0.6-28.9,13.6-29.2,29.7V47c0,0.1,0,0.3,0,0.4v5
							c-3.7,0.3-6.6,3.3-6.6,7.1v1.7c0,1,0.2,1.9,0.6,2.8c-6.5,4.6-8,13.5-3.4,19.9C25.5,87.6,29.9,89.9,34.5,89.9L34.5,89.9z"/>
						<path class="st3" d="M35.2,90.6c3.6,0,7.1-1.4,9.7-3.8c2.4,1.9,5.2,3.4,8.1,4.4V96l-10,3.3h-7.5c-6.6,0-12.2,5.1-12.8,11.7
							c23.4,20,57.9,20,81.3,0c-0.6-6.6-6.2-11.7-12.9-11.7h-7.5l-10-3.3l0,0v-4.8c9.9-3.6,17.2-12,19.4-22.3h0.2
							c3.9,0,7.1-3.2,7.1-7.1v-1.7c0-3.7-2.9-6.8-6.6-7.1v-5c0-13.6-9-25.5-22.1-29.2h-0.1c-0.6-0.2-1.3-0.3-2-0.5l-0.8-0.1
							c-1.8-0.3-3.5-0.5-5.3-0.5l0,0c-0.4,0-0.8,0-1.2,0c-16,0.6-28.8,13.6-29.2,29.7v0.3c0,0.1,0,0.3,0,0.4v5
							c-3.7,0.3-6.6,3.3-6.6,7.1v1.7c0,1,0.2,1.9,0.6,2.8c-6.5,4.6-8,13.5-3.4,19.9C26.2,88.4,30.6,90.6,35.2,90.6L35.2,90.6z"/>
						<path class="st3" d="M35.9,91.3c3.6,0,7.1-1.4,9.7-3.8c2.5,1.9,5.2,3.4,8.1,4.5v4.8l-10,3.3h-7.5c-6.6,0-12.2,5-12.8,11.6
							c23.4,19.9,57.8,19.9,81.2,0c-0.6-6.6-6.2-11.7-12.8-11.7h-7.5l-10-3.3l0,0V92c9.9-3.6,17.3-12.1,19.4-22.4h0.2
							c3.9,0,7.1-3.1,7.1-7c0,0,0,0,0,0v-1.6c0-3.7-2.9-6.8-6.6-7.1v-5c0-13.6-9.1-25.5-22.2-29.2h-0.1c-0.6-0.2-1.3-0.3-2-0.5
							L69.4,19c-1.8-0.3-3.5-0.5-5.3-0.5l0,0c-0.4,0-0.8,0-1.2,0c-16,0.6-28.8,13.6-29.2,29.6v0.3c0,0.1,0,0.3,0,0.4v5
							c-3.7,0.3-6.6,3.3-6.6,7.1v1.6c0,1,0.2,1.9,0.6,2.8c-6.5,4.6-8,13.5-3.4,19.9C27,89.1,31.3,91.3,35.9,91.3L35.9,91.3z"/>
						<path class="st3" d="M36.7,92.1c3.6,0,7.1-1.4,9.7-3.8c2.5,1.9,5.2,3.4,8.1,4.4v4.8l-10,3.3h-7.5c-6.6,0-12.2,5.1-12.8,11.7
							c23.4,19.9,57.8,19.9,81.2,0c-0.6-6.6-6.2-11.7-12.8-11.7H85l-10-3.3l0,0v-4.8c9.9-3.6,17.3-12,19.4-22.3h0.2
							c3.9,0,7.1-3.2,7.1-7.1v-1.6c0-3.7-2.9-6.8-6.6-7.1v-5c0-13.6-9-25.5-22.1-29.2h-0.1c-0.6-0.2-1.3-0.3-2-0.5l-0.8-0.1
							c-1.8-0.3-3.5-0.5-5.3-0.5l0,0c-0.4,0-0.8,0-1.2,0c-16,0.6-28.9,13.6-29.2,29.7v0.3c0,0.1,0,0.2,0,0.4v5
							c-3.7,0.3-6.6,3.3-6.6,7.1v1.6c0,1,0.2,1.9,0.6,2.8C22,70.6,20.4,79.5,25,86C27.7,89.8,32,92,36.7,92.1L36.7,92.1z"/>
						<path class="st3" d="M37.4,92.8c3.6,0,7.1-1.3,9.7-3.8c2.5,1.9,5.2,3.4,8.1,4.4v4.8l-10,3.3h-7.5c-6.6,0-12.2,5-12.8,11.7
							c23.4,19.9,57.8,19.9,81.2,0c-0.6-6.6-6.2-11.7-12.8-11.7h-7.5l-10-3.3l0,0v-4.8C85.7,89.8,93,81.3,95.1,71h0.2
							c3.9,0,7.1-3.2,7.1-7.1v0v-1.6c0-3.7-2.9-6.8-6.6-7.1v-5c0-13.6-9-25.6-22.1-29.2h-0.1c-0.6-0.2-1.3-0.3-1.9-0.5l-0.8-0.1
							c-1.8-0.3-3.5-0.5-5.3-0.5l0,0c-0.4,0-0.8,0-1.2,0c-16.1,0.6-28.9,13.6-29.2,29.7v0.3c0,0.1,0,0.2,0,0.4v5
							c-3.7,0.3-6.6,3.3-6.6,7.1v1.7c0,1,0.2,1.9,0.6,2.8c-6.5,4.6-8,13.5-3.4,19.9C28.4,90.5,32.7,92.7,37.4,92.8L37.4,92.8z"/>
						<path class="st3" d="M38.1,93.5c3.6,0,7.1-1.4,9.7-3.8c2.5,1.9,5.2,3.4,8.1,4.4v4.8l-10,3.3h-7.5c-6.6,0-12.2,5-12.8,11.7
							c23.4,19.9,57.8,19.9,81.2,0c-0.6-6.6-6.2-11.7-12.8-11.7h-7.5l-10-3.3l0,0v-4.8c9.9-3.6,17.2-12,19.4-22.3H96
							c3.9,0,7.1-3.2,7.1-7.1c0,0,0,0,0,0V63c0-3.7-2.9-6.8-6.6-7.1v-5c0-13.6-9-25.5-22.1-29.2h-0.1c-0.6-0.2-1.3-0.3-2-0.5
							l-0.8-0.1c-1.8-0.3-3.5-0.5-5.3-0.5l0,0c-0.4,0-0.8,0-1.2,0c-16,0.6-28.8,13.6-29.1,29.7v0.3c0,0.1,0,0.2,0,0.4v5
							c-3.7,0.2-6.6,3.3-6.6,7.1v1.7c0,1,0.2,1.9,0.6,2.8c-6.5,4.6-8,13.5-3.4,19.9C29.1,91.2,33.4,93.5,38.1,93.5L38.1,93.5z"/>
						<path class="st3" d="M38.8,94.2c3.6,0,7.1-1.4,9.7-3.8c2.5,1.9,5.2,3.4,8.1,4.4v4.8l-10,3.3h-7.5c-6.6,0-12.2,5-12.8,11.7
							c23.4,19.9,57.8,19.9,81.2,0c-0.6-6.6-6.2-11.7-12.8-11.7h-7.5l-10-3.3l0,0v-4.8c9.9-3.6,17.2-12,19.4-22.3h0.2
							c3.9,0,7.1-3.2,7.1-7.1c0,0,0,0,0,0v-1.7c0-3.7-2.9-6.8-6.6-7.1v-5c0-13.6-9-25.5-22.1-29.2H75c-0.6-0.2-1.3-0.3-1.9-0.5
							l-0.8-0.1c-1.8-0.3-3.5-0.5-5.3-0.5l0,0c-0.4,0-0.8,0-1.2,0C49.7,21.9,36.9,34.9,36.6,51v0.3c0,0.1,0,0.2,0,0.4v5
							C32.9,56.9,30,60,30,63.7v1.7c0,1,0.2,1.9,0.6,2.8c-6.5,4.6-8,13.5-3.4,19.9C29.8,91.9,34.2,94.2,38.8,94.2L38.8,94.2z"/>
						<path class="st3" d="M39.5,94.9c3.6,0,7.1-1.4,9.7-3.8c2.5,1.9,5.2,3.4,8.1,4.4v4.8l-10,3.3h-7.5c-6.6,0-12.2,5.1-12.8,11.7
							c23.4,19.9,57.8,19.9,81.2,0c-0.6-6.6-6.2-11.7-12.8-11.7h-7.5l-10-3.3l0,0v-4.8c9.9-3.6,17.2-12,19.4-22.3h0.2
							c3.9,0,7.1-3.2,7.1-7.1c0,0,0,0,0,0v-1.7c0-3.7-2.9-6.8-6.6-7.1v-5c0-13.6-9-25.5-22.1-29.2h-0.1c-0.6-0.2-1.3-0.3-2-0.5
							L73,22.5c-1.8-0.3-3.6-0.5-5.4-0.5l0,0c-0.4,0-0.8,0-1.2,0c-16.1,0.6-28.9,13.6-29.2,29.7V52c0,0.1,0,0.2,0,0.4v5
							c-3.7,0.3-6.6,3.3-6.6,7.1v1.7c0,1,0.2,1.9,0.6,2.8c-6.5,4.6-8,13.5-3.4,19.9C30.5,92.6,34.9,94.9,39.5,94.9L39.5,94.9z"/>
						<path class="st3" d="M40.2,95.6c3.6,0,7.1-1.4,9.7-3.8c2.5,1.9,5.2,3.4,8.1,4.4v4.8l-10,3.3h-7.5c-6.7,0-12.2,5.1-12.8,11.7
							c23.4,19.9,57.8,19.9,81.2,0c-0.6-6.6-6.2-11.7-12.8-11.7h-7.5l-10-3.3l0,0v-4.8c9.9-3.6,17.3-12,19.4-22.3h0.2
							c3.9,0,7.1-3.2,7.1-7.1c0,0,0,0,0,0v-1.7c0-3.7-2.9-6.8-6.6-7.1v-5c0-13.6-9-25.5-22.1-29.2h-0.1c-0.6-0.2-1.3-0.3-2-0.5
							l-0.8-0.1c-1.8-0.3-3.5-0.5-5.3-0.5l0,0c-0.4,0-0.8,0-1.2,0c-16,0.6-28.8,13.6-29.1,29.6v0.3c0,0.1,0,0.2,0,0.4v5
							c-3.7,0.3-6.6,3.3-6.6,7.1v1.7c0,1,0.2,1.9,0.6,2.8c-6.5,4.5-8,13.5-3.5,19.9C31.2,93.3,35.6,95.6,40.2,95.6L40.2,95.6z"/>
						<path class="st3" d="M40.9,96.3c3.6,0,7.1-1.4,9.7-3.8c2.5,1.9,5.2,3.4,8.1,4.4v4.8l-10,3.3h-7.5c-6.6,0-12.2,5-12.8,11.7
							c23.4,19.9,57.8,19.9,81.2,0C109,110,103.5,105,96.8,105h-7.5l-10-3.3l0,0v-4.8c9.9-3.6,17.2-12,19.4-22.3h0.2
							c3.9,0,7.1-3.2,7.1-7.1c0,0,0,0,0,0v-1.7c0-3.7-2.9-6.8-6.6-7.1v-5c0-13.6-9-25.5-22.1-29.2h-0.1c-0.6-0.2-1.3-0.3-2-0.5
							L74.3,24c-1.8-0.3-3.5-0.5-5.3-0.5l0,0c-0.4,0-0.8,0-1.2,0c-16,0.6-28.8,13.6-29.1,29.6v0.3c0,0.1,0,0.2,0,0.4v5
							c-3.7,0.3-6.6,3.3-6.6,7.1v1.7c0,1,0.2,1.9,0.6,2.8c-6.5,4.5-8,13.5-3.5,19.9C31.9,94,36.3,96.3,40.9,96.3L40.9,96.3z"/>
						<path class="st3" d="M41.6,97c3.6,0,7.1-1.4,9.7-3.8c2.5,1.9,5.2,3.4,8.1,4.4v4.8l-10,3.3h-7.5c-6.6,0-12.2,5.1-12.8,11.7
							c23.4,19.9,57.8,19.9,81.2,0c-0.6-6.6-6.2-11.7-12.8-11.7H90l-10-3.3l0,0v-4.8c9.9-3.6,17.2-12,19.4-22.3h0.2
							c3.9,0,7.1-3.2,7.1-7.1c0,0,0,0,0,0v-1.6c0-3.7-2.9-6.8-6.6-7.1v-5c0-13.6-9-25.5-22.1-29.2h-0.1c-0.6-0.2-1.3-0.3-2-0.5
							L75,24.7c-1.8-0.3-3.5-0.5-5.3-0.5l0,0c-0.4,0-0.8,0-1.2,0c-16,0.6-28.8,13.6-29.1,29.6v0.3c0,0.1,0,0.2,0,0.4v5
							c-3.7,0.3-6.6,3.3-6.6,7.1v1.7c0,1,0.2,1.9,0.6,2.8c-6.5,4.5-8,13.5-3.5,19.9C32.6,94.7,37,97,41.6,97z"/>
						<path class="st3" d="M42.3,97.7c3.6,0,7-1.4,9.7-3.8c2.5,1.9,5.2,3.4,8.1,4.4v4.8l-10,3.3h-7.5c-6.6,0-12.2,5-12.8,11.7
							c23.4,19.9,57.8,19.9,81.2,0c-0.6-6.6-6.2-11.7-12.8-11.7h-7.5l-10-3.3l0,0v-4.8c9.9-3.6,17.2-12,19.4-22.3h0.2
							c3.9,0,7.1-3.2,7.1-7.1c0,0,0,0,0,0v-1.7c0-3.7-2.9-6.8-6.6-7.1v-5c0-13.6-9-25.5-22.1-29.2h-0.1c-0.6-0.2-1.3-0.3-2-0.5
							l-0.8-0.1c-1.8-0.3-3.5-0.5-5.3-0.5l0,0c-0.4,0-0.8,0-1.2,0c-16,0.6-28.8,13.6-29.1,29.6v0.3c0,0.1,0,0.2,0,0.4v5
							c-3.7,0.3-6.6,3.3-6.6,7.1v1.7c0,1,0.2,1.9,0.6,2.8c-6.5,4.5-8,13.5-3.5,19.9C33.3,95.4,37.7,97.7,42.3,97.7L42.3,97.7z"/>
						<path class="st3" d="M43,98.4c3.6,0,7.1-1.4,9.7-3.8c2.5,1.9,5.2,3.4,8.1,4.4v4.8l-10,3.3h-7.5c-6.6,0-12.2,5-12.8,11.7
							c23.4,19.9,57.8,19.9,81.2,0c-0.6-6.6-6.1-11.6-12.8-11.7h-7.6l-10-3.3l0,0v-4.8c9.9-3.6,17.2-12,19.4-22.3h0.2
							c3.9,0,7.1-3.2,7.1-7.1c0,0,0,0,0,0V68c0-3.7-2.9-6.8-6.6-7.1v-5c0-13.6-9-25.6-22.2-29.2h-0.1c-0.6-0.2-1.3-0.3-2-0.5
							l-0.8-0.1c-1.8-0.3-3.5-0.5-5.3-0.5l0,0c-0.4,0-0.8,0-1.2,0c-16,0.6-28.8,13.6-29.1,29.6v0.3c0,0.1,0,0.2,0,0.4v5
							c-3.7,0.2-6.6,3.4-6.6,7.1v1.7c0,1,0.2,1.9,0.6,2.8c-6.5,4.5-8,13.5-3.5,19.9C34,96.2,38.4,98.5,43,98.4L43,98.4z"/>
						<path class="st3" d="M43.8,99.2c3.6,0,7.1-1.4,9.7-3.8c2.5,1.9,5.2,3.4,8.1,4.4v4.8l-10,3.3H44c-6.6,0-12.2,5.1-12.8,11.7
							c23.4,19.9,57.8,19.9,81.2,0c-0.6-6.6-6.2-11.7-12.8-11.7h-7.5l-10-3.3l0,0v-4.8c9.9-3.6,17.2-12,19.4-22.3h0.2
							c3.9,0,7.1-3.2,7.1-7.1c0,0,0,0,0,0v-1.7c0-3.7-2.9-6.8-6.6-7.1v-5c0-13.6-9-25.5-22.1-29.2H80c-0.6-0.2-1.3-0.3-2-0.5
							l-0.8-0.1c-1.8-0.3-3.5-0.5-5.3-0.5l0,0h-1.2C54.7,26.9,41.8,39.9,41.5,56v0.3c0,0.1,0,0.2,0,0.4v5c-3.7,0.3-6.6,3.3-6.6,7.1
							v1.7c0,1,0.2,1.9,0.6,2.8c-6.5,4.5-8,13.5-3.5,19.9C34.7,96.9,39.1,99.2,43.8,99.2L43.8,99.2z"/>
						<path class="st3" d="M44.5,99.9c3.6,0,7.1-1.4,9.7-3.8c2.5,1.9,5.2,3.4,8.1,4.4v4.8l-10,3.3h-7.5c-6.6,0-12.2,5-12.8,11.7
							c23.4,19.9,57.8,19.9,81.2,0c-0.6-6.6-6.2-11.7-12.8-11.7h-7.5l-10-3.3l0,0v-4.8c9.9-3.6,17.2-12,19.4-22.3h0.2
							c3.9,0,7.1-3.2,7.1-7.1c0,0,0,0,0-0.1v-1.6c0-3.7-2.9-6.8-6.6-7.1v-5c0-13.6-9-25.5-22.1-29.2h-0.1c-0.6-0.2-1.3-0.3-2-0.5
							l-0.8-0.1c-1.7-0.3-3.5-0.5-5.3-0.5l0,0h-1.2c-16,0.6-28.8,13.6-29.2,29.7v0.3c0,0.1,0,0.2,0,0.4v5c-3.7,0.3-6.6,3.3-6.6,7.1
							V71c0,1,0.2,1.9,0.6,2.8c-6.5,4.5-8,13.5-3.5,19.9C35.4,97.6,39.8,99.8,44.5,99.9L44.5,99.9z"/>
						<path class="st3" d="M45.2,100.6c3.6,0,7.1-1.4,9.7-3.8c2.5,1.9,5.2,3.4,8.1,4.4v4.8l-10,3.3h-7.5c-6.6,0-12.2,5-12.8,11.7
							c23.4,19.9,57.8,19.9,81.2,0c-0.6-6.6-6.2-11.7-12.8-11.7h-7.5l-10-3.3l0,0v-4.8c9.9-3.6,17.3-12.1,19.4-22.4h0.2
							c3.9,0,7.1-3.2,7.1-7.1c0,0,0,0,0,0v-1.7c0-3.7-2.9-6.8-6.6-7.1v-5c0-13.6-9.1-25.5-22.2-29.2h-0.1c-0.6-0.2-1.3-0.3-2-0.5
							l-0.8-0.1c-1.8-0.3-3.5-0.5-5.3-0.5l0,0h-1.2c-16,0.6-28.8,13.6-29.1,29.6v0.3c0,0.1,0,0.2,0,0.4v5c-3.7,0.3-6.6,3.3-6.6,7.1
							v1.7c0,1,0.2,1.9,0.6,2.8c-6.5,4.5-8,13.5-3.5,19.9C36.2,98.3,40.6,100.6,45.2,100.6L45.2,100.6z"/>
						<path class="st3" d="M45.9,101.3c3.6,0,7.1-1.4,9.7-3.8c2.5,1.9,5.2,3.4,8.1,4.4v4.8l-10,3.3h-7.5c-6.6,0-12.2,5-12.8,11.7
							c23.4,19.9,57.8,19.9,81.2,0c-0.6-6.6-6.2-11.6-12.8-11.6h-7.5l-10-3.3l0,0v-4.8c9.9-3.6,17.2-12,19.4-22.3h0.2
							c3.9,0,7.1-3.2,7.1-7.1c0,0,0,0,0,0v-1.7c0-3.7-2.9-6.8-6.6-7.1v-5c0-13.6-9-25.5-22.1-29.2h-0.1c-0.6-0.2-1.3-0.3-2-0.5
							l-0.8-0.1c-1.8-0.3-3.5-0.5-5.3-0.5l0,0c-0.4,0-0.8,0-1.2,0C56.8,29,44,42,43.7,58.1v0.3c0,0.1,0,0.2,0,0.4v5
							c-3.7,0.3-6.6,3.3-6.6,7.1v1.7c0,1,0.2,1.9,0.6,2.8c-6.5,4.5-8,13.5-3.5,19.9C36.9,99,41.2,101.3,45.9,101.3L45.9,101.3z"/>
						<path class="st3" d="M46.6,102c3.6,0,7.1-1.4,9.7-3.8c2.5,1.9,5.2,3.4,8.1,4.4v4.8l-10,3.3h-7.5c-6.6,0-12.2,5-12.8,11.7
							c23.4,19.9,57.8,19.9,81.2,0c-0.6-6.6-6.2-11.7-12.8-11.7H95l-10-3.3l0,0v-4.8c9.9-3.6,17.2-12,19.4-22.3h0.2
							c3.9,0,7.1-3.2,7.1-7.1c0,0,0,0,0,0v-1.7c0-3.7-2.9-6.8-6.6-7.1v-5c0-13.6-9-25.5-22.2-29.2h-0.1c-0.6-0.2-1.3-0.3-2-0.5
							L80,29.6c-1.8-0.3-3.5-0.5-5.3-0.5l0,0c-0.4,0-0.8,0-1.2,0c-16,0.6-28.8,13.6-29.2,29.6v0.3c0,0.1,0,0.2,0,0.4v5
							c-3.7,0.3-6.6,3.3-6.6,7.1v1.7c0,1,0.2,1.9,0.6,2.8c-6.5,4.5-8,13.5-3.5,19.9C37.6,99.7,41.9,102,46.6,102z"/>
						<path class="st3" d="M47.3,102.7c3.6,0,7.1-1.4,9.7-3.8c2.5,1.9,5.2,3.4,8.1,4.4v4.8l-10,3.3h-7.5c-6.6,0-12.2,5-12.8,11.7
							c23.4,19.9,57.8,19.9,81.2,0c-0.6-6.6-6.2-11.7-12.8-11.7h-7.5l-10-3.3l0,0v-4.8c9.9-3.6,17.2-12,19.4-22.3h0.2
							c3.9,0,7.1-3.2,7.1-7.1c0,0,0,0,0,0v-1.7c0-3.7-2.9-6.8-6.6-7.1v-5c0-13.6-9-25.5-22.1-29.2l0,0l0,0c-0.7-0.2-1.3-0.3-2-0.5
							l-0.8-0.1c-1.8-0.3-3.5-0.5-5.3-0.5l0,0c-0.4,0-0.8,0-1.2,0c-16.1,0.6-28.9,13.5-29.2,29.6v0.3c0,0.1,0,0.2,0,0.4v5
							c-3.7,0.3-6.6,3.3-6.6,7.1v1.7c0,1,0.2,1.9,0.6,2.8c-6.5,4.5-8,13.5-3.5,19.9C38.3,100.4,42.7,102.7,47.3,102.7L47.3,102.7z"
							/>
						<path class="st3" d="M48,103.4c3.6,0,7.1-1.4,9.7-3.8c2.5,1.9,5.2,3.4,8.1,4.4v4.8l-10,3.3h-7.5c-6.6,0-12.2,5-12.8,11.7
							c23.4,19.9,57.8,19.9,81.2,0c-0.6-6.6-6.2-11.7-12.8-11.7h-7.5l-10-3.3l0,0V104c9.9-3.6,17.2-12,19.4-22.3h0.2
							c3.9,0,7-3.2,7.1-7.1v-1.6c0-3.7-2.9-6.8-6.6-7.1v-5c0-13.6-9-25.5-22.1-29.2l0,0l0,0c-0.7-0.2-1.3-0.3-2-0.5L81.5,31
							c-1.8-0.3-3.5-0.5-5.3-0.5h-0.1c-0.4,0-0.8,0-1.2,0c-16.1,0.6-28.9,13.6-29.1,29.7v0.3c0,0.1,0,0.2,0,0.4v5
							c-3.7,0.3-6.6,3.3-6.6,7.1v1.7c0,1,0.2,1.9,0.6,2.8c-6.5,4.5-8,13.5-3.5,19.9C39,101.1,43.4,103.4,48,103.4L48,103.4z"/>
						<path class="st3" d="M48.7,104.1c3.6,0,7.1-1.4,9.7-3.8c2.5,1.9,5.2,3.4,8.1,4.4v4.8l-10,3.3H49c-6.6,0-12.2,5-12.8,11.7
							c23.4,19.9,57.8,19.9,81.2,0c-0.6-6.6-6.2-11.7-12.8-11.7h-7.5l-10-3.3l0,0v-4.8c9.9-3.6,17.2-12,19.4-22.3h0.2
							c3.9,0,7.1-3.2,7.1-7.1v-1.7c0-3.7-2.9-6.8-6.6-7.1v-5c0-13.6-9-25.5-22.1-29.2l0,0l0,0c-0.7-0.2-1.3-0.3-2-0.5l-0.8-0.1
							c-1.8-0.3-3.5-0.5-5.3-0.5l0,0c-0.4,0-0.8,0-1.2,0c-16.1,0.6-28.9,13.6-29.2,29.6v0.3c0,0.1,0,0.2,0,0.4v5
							c-3.7,0.3-6.6,3.3-6.6,7.1v1.7c0,1,0.2,1.9,0.6,2.8C34,82.7,32.5,91.6,37,98C39.7,101.9,44.1,104.1,48.7,104.1L48.7,104.1z"/>
						<path class="st3" d="M49.4,104.8c3.6,0,7.1-1.4,9.7-3.8c2.5,1.9,5.2,3.4,8.1,4.4v4.8l-10,3.3h-7.5c-6.6,0-12.2,5-12.8,11.7
							c23.4,19.9,57.8,19.9,81.2,0c-0.6-6.6-6.2-11.7-12.8-11.7h-7.5l-10-3.3l0,0v-4.8c9.9-3.6,17.2-12,19.4-22.3h0.2
							c3.9,0,7.1-3.2,7.1-7.1c0,0,0,0,0,0v-1.6c0-3.7-2.9-6.8-6.6-7.1v-5c0-13.6-9-25.5-22.1-29.2l0,0l0,0c-0.7-0.2-1.3-0.3-2-0.5
							l-0.8-0.1c-1.8-0.3-3.6-0.5-5.4-0.5l0,0c-0.4,0-0.8,0-1.2,0c-16.1,0.6-28.9,13.6-29.2,29.6c0,0.1,0,0.2,0,0.3s0,0.2,0,0.4v5
							c-3.7,0.3-6.6,3.3-6.6,7.1V76c0,1,0.2,1.9,0.6,2.8c-6.5,4.5-8,13.5-3.5,19.9C40.4,102.6,44.8,104.8,49.4,104.8L49.4,104.8z"/>
						<path class="st3" d="M50.1,105.5c3.6,0,7.1-1.4,9.7-3.8c2.5,1.9,5.2,3.4,8.1,4.4v4.8l-10,3.3h-7.5c-6.6,0-12.2,5-12.8,11.7
							c23.4,19.9,57.8,19.9,81.2,0c-0.6-6.6-6.2-11.7-12.8-11.7h-7.5l-10-3.3l0,0v-4.8c9.9-3.6,17.2-12,19.4-22.3h0.2
							c3.9,0,7.1-3.2,7.1-7.1v-1.7c0-3.7-2.9-6.8-6.6-7.1v-5c0-13.6-9-25.5-22.1-29.2l0,0h-0.1c-0.7-0.2-1.3-0.3-2-0.5l-0.8-0.1
							c-1.8-0.3-3.5-0.5-5.3-0.5l0,0c-0.4,0-0.8,0-1.2,0c-16,0.6-28.9,13.6-29.2,29.6c0,0.1,0,0.2,0,0.3s0,0.2,0,0.4v5
							c-3.7,0.3-6.6,3.3-6.6,7.1v1.7c0,1,0.2,1.9,0.6,2.8c-6.5,4.5-8,13.5-3.5,19.9C41.1,103.3,45.5,105.5,50.1,105.5L50.1,105.5z"
							/>
						<path class="st3" d="M50.8,106.3c3.6,0,7.1-1.4,9.7-3.8c2.5,1.9,5.2,3.4,8.1,4.4v4.8l-10,3.3h-7.5c-6.6,0-12.2,5-12.8,11.7
							c23.4,19.9,57.8,19.9,81.2,0c-0.6-6.6-6.2-11.7-12.8-11.7h-7.5l-10-3.3l0,0v-4.8c9.9-3.6,17.2-12,19.4-22.3h0.1
							c3.9,0,7.1-3.2,7.1-7.1v-1.7c0-3.7-2.9-6.8-6.6-7.1v-5c0-13.6-9-25.5-22.1-29.2l0,0l0,0c-0.7-0.2-1.3-0.3-2-0.5l-0.8-0.1
							c-1.8-0.3-3.6-0.5-5.4-0.5l0,0c-0.4,0-0.8,0-1.2,0C61.8,34,49,47,48.6,63.1c0,0.1,0,0.2,0,0.3s0,0.2,0,0.4v5
							C44.9,68.9,42,72,42,75.8v1.7c0,1,0.2,1.9,0.6,2.8c-6.5,4.5-8,13.5-3.5,19.9C41.8,104,46.2,106.3,50.8,106.3L50.8,106.3z"/>
						<path class="st3" d="M51.5,107c3.6,0,7.1-1.4,9.7-3.8c2.5,1.9,5.2,3.4,8.1,4.4v4.8l-10,3.3h-7.5c-6.6,0-12.2,5-12.8,11.6
							c23.4,19.9,57.8,19.9,81.2,0c-0.6-6.6-6.2-11.7-12.8-11.7h-7.5l-10-3.3l0,0v-4.8c9.9-3.6,17.2-12,19.4-22.3h0.1
							c3.9,0,7.1-3.2,7.1-7.1l0,0v-1.7c0-3.7-2.9-6.8-6.6-7.1v-5c0-13.6-9-25.5-22.1-29.2l0,0l0,0c-0.7-0.2-1.3-0.3-2-0.5L85,34.6
							c-1.8-0.3-3.5-0.5-5.3-0.5l0,0c-0.4,0-0.8,0-1.2,0c-16.1,0.6-28.9,13.6-29.2,29.7c0,0.1,0,0.2,0,0.3c0,0.1,0,0.2,0,0.4v5
							c-3.7,0.3-6.6,3.3-6.6,7.1v1.7c0,1,0.2,2,0.6,2.9c-6.5,4.5-8,13.5-3.5,19.9C42.5,104.7,46.9,107,51.5,107z"/>
						<path class="st3" d="M52.3,107.7c3.6,0,7.1-1.4,9.7-3.8c2.5,1.9,5.2,3.4,8.1,4.4v4.8l-10,3.3h-7.5c-6.6,0-12.2,5-12.8,11.6
							c23.4,20,57.8,20,81.3,0c-0.6-6.6-6.2-11.7-12.8-11.7h-7.5l-10-3.3l0,0v-4.8c9.9-3.6,17.2-12,19.4-22.3h0.1
							c3.9,0,7.1-3.2,7.1-7.1v-1.6c0-3.7-2.9-6.8-6.6-7.1v-5c0-13.6-9-25.5-22.1-29.2l0,0l0,0c-0.7-0.2-1.3-0.3-2-0.5
							c-0.3-0.1-0.5-0.1-0.8-0.1c-1.8-0.3-3.5-0.5-5.3-0.5l0,0c-0.4,0-0.8,0-1.2,0c-16.1,0.6-28.9,13.6-29.2,29.6c0,0.1,0,0.2,0,0.3
							s0,0.3,0,0.4v5c-3.7,0.3-6.6,3.3-6.6,7.1v1.7c0,1,0.2,1.9,0.5,2.8c-6.5,4.5-8,13.5-3.5,19.9C43.2,105.4,47.6,107.7,52.3,107.7
							L52.3,107.7z"/>
						<path class="st3" d="M53,108.4c3.6,0,7.1-1.4,9.7-3.8c2.5,1.9,5.2,3.4,8.1,4.4v4.8l-10,3.3h-7.5c-6.6,0-12.2,5-12.8,11.7
							c23.4,19.9,57.8,19.9,81.2,0c-0.6-6.6-6.2-11.7-12.8-11.7h-7.5l-10-3.3l0,0V109c9.9-3.6,17.2-12,19.4-22.3h0.1
							c3.9,0,7.1-3.2,7.1-7.1c0,0,0,0,0,0v-1.6c0-3.7-2.9-6.8-6.6-7.1v-5c0-13.6-9-25.5-22.1-29.2l0,0l0,0c-0.7-0.2-1.3-0.3-2-0.5
							c-0.3-0.1-0.5-0.1-0.8-0.1c-1.8-0.3-3.5-0.5-5.3-0.5h-0.1c-0.4,0-0.8,0-1.2,0c-16,0.6-28.9,13.6-29.2,29.6c0,0.1,0,0.2,0,0.3
							s0,0.3,0,0.4v5c-3.7,0.3-6.6,3.3-6.6,7.1v1.7c0,1,0.2,1.9,0.6,2.8c-6.5,4.5-8,13.5-3.5,19.9C44,106.1,48.3,108.4,53,108.4
							L53,108.4z"/>
						<path class="st3" d="M53.7,109.1c3.6,0,7.1-1.4,9.7-3.8c2.5,1.9,5.2,3.4,8.1,4.4v4.8l-10,3.3H54c-6.6,0-12.2,5-12.8,11.7
							c23.4,19.9,57.8,19.9,81.2,0c-0.6-6.6-6.2-11.7-12.8-11.7h-7.5l-10-3.3l0,0v-4.8c9.9-3.6,17.2-12,19.4-22.3h0.1
							c3.9,0,7.1-3.2,7.1-7.1v-1.7c0-3.7-2.9-6.8-6.6-7.1v-5c0-13.6-9-25.5-22.1-29.2l0,0l0,0c-0.7-0.2-1.3-0.3-2-0.5
							c-0.3-0.1-0.5-0.1-0.8-0.1c-1.8-0.3-3.5-0.5-5.3-0.5l0,0c-0.4,0-0.8,0-1.2,0c-16.1,0.5-28.9,13.6-29.3,29.6c0,0.1,0,0.2,0,0.3
							s0,0.3,0,0.4v5c-3.7,0.3-6.6,3.3-6.6,7.1v1.7c0,1,0.2,1.9,0.6,2.8c-6.5,4.6-8,13.5-3.4,19.9C44.7,106.8,49.1,109.1,53.7,109.1
							L53.7,109.1z"/>
						<path class="st3" d="M54.4,109.8c3.6,0,7.1-1.4,9.7-3.8c2.5,1.9,5.2,3.4,8.1,4.4v4.8l-10,3.3h-7.5c-6.6,0-12.2,5-12.8,11.7
							c23.4,19.9,57.8,19.9,81.2,0c-0.6-6.6-6.2-11.7-12.8-11.7h-7.5l-10-3.3l0,0v-4.8c9.9-3.6,17.2-12,19.4-22.3h0.1
							c3.9,0,7.1-3.2,7.1-7.1v-1.7c0-3.7-2.9-6.8-6.6-7.1v-5c0-13.6-9-25.5-22.1-29.2l0,0l0,0c-0.7-0.2-1.3-0.3-2-0.5
							c-0.3-0.1-0.5-0.1-0.8-0.1c-1.8-0.3-3.5-0.5-5.3-0.5h-0.1c-0.4,0-0.8,0-1.2,0c-16,0.6-28.9,13.6-29.2,29.6c0,0.1,0,0.2,0,0.3
							s0,0.3,0,0.4v5c-3.7,0.3-6.6,3.3-6.6,7.1V81c0,1,0.2,1.9,0.6,2.8c-6.5,4.6-8,13.5-3.4,19.9C45.4,107.5,49.8,109.8,54.4,109.8
							L54.4,109.8z"/>
						<path class="st3" d="M55.1,110.5c3.6,0,7.1-1.4,9.7-3.8c2.5,1.9,5.2,3.4,8.1,4.4v4.8l-10,3.3h-7.5c-6.6,0-12.2,5-12.8,11.7
							c23.4,19.9,57.8,19.9,81.2,0c-0.6-6.6-6.2-11.7-12.8-11.7h-7.5l-10-3.3l0,0v-4.8c9.9-3.6,17.2-12,19.4-22.3h0.1
							c3.9,0,7.1-3.2,7.1-7.1V80c0-3.7-2.9-6.8-6.6-7.1V68c0-13.6-9-25.5-22.1-29.2l0,0h-0.1c-0.7-0.2-1.3-0.3-2-0.5
							c-0.3-0.1-0.5-0.1-0.8-0.1c-1.8-0.3-3.5-0.5-5.3-0.5l0,0c-0.4,0-0.8,0-1.2,0c-16,0.6-28.9,13.6-29.2,29.6c0,0.1,0,0.2,0,0.3
							s0,0.3,0,0.4v5c-3.7,0.2-6.6,3.3-6.6,7v1.7c0,1,0.2,1.9,0.6,2.8c-6.5,4.6-8,13.5-3.4,19.9C46.1,108.2,50.5,110.5,55.1,110.5
							L55.1,110.5z"/>
						<path class="st3" d="M55.8,111.2c3.6,0,7.1-1.4,9.7-3.8c2.5,1.9,5.2,3.4,8.1,4.4v4.8l-10,3.3h-7.5c-6.6,0-12.2,5-12.8,11.7
							c23.4,19.9,57.8,19.9,81.2,0c-0.6-6.6-6.2-11.7-12.8-11.7h-7.5l-10-3.3l0,0v-4.8c9.9-3.6,17.2-12,19.4-22.3h0.1
							c3.9,0,7.1-3.2,7.1-7.1l0,0v-1.6c0-3.7-2.9-6.8-6.6-7.1v-5c0-13.6-9-25.5-22.1-29.2l0,0h-0.1c-0.6-0.2-1.3-0.3-2-0.5
							c-0.3-0.1-0.5-0.1-0.8-0.1c-1.7-0.3-3.5-0.5-5.3-0.5l0,0c-0.4,0-0.8,0-1.2,0C66.8,38.9,53.9,51.9,53.6,68c0,0.1,0,0.2,0,0.3
							s0,0.3,0,0.4v5C49.9,73.9,47,77,47,80.8v1.7c0,1,0.2,1.9,0.6,2.8c-6.5,4.6-8,13.5-3.4,19.9C46.8,108.9,51.2,111.2,55.8,111.2
							L55.8,111.2z"/>
						<path class="st3" d="M56.5,111.9c3.6,0,7.1-1.4,9.7-3.8c2.5,1.9,5.2,3.4,8.1,4.4v4.8l-10,3.3h-7.5c-6.6,0-12.2,5-12.8,11.7
							c23.4,19.9,57.8,19.9,81.2,0c-0.6-6.6-6.2-11.7-12.8-11.7h-7.5l-10-3.3l0,0v-4.8c9.9-3.6,17.2-12,19.4-22.3h0.1
							c3.9,0,7.1-3.2,7.1-7.1c0,0,0,0,0,0v-1.7c0-3.7-2.9-6.8-6.6-7.1v-5c0-13.6-9-25.5-22.1-29.2l0,0h-0.1c-0.6-0.2-1.3-0.3-2-0.5
							c-0.3-0.1-0.5-0.1-0.8-0.1c-1.8-0.3-3.5-0.5-5.3-0.5l0,0c-0.4,0-0.8,0-1.2,0c-16,0.6-28.8,13.6-29.2,29.6c0,0.1,0,0.2,0,0.3
							s0,0.3,0,0.4v5c-3.7,0.3-6.6,3.3-6.6,7.1v1.7c0,1,0.2,1.9,0.6,2.8c-6.5,4.6-8,13.5-3.4,19.9C47.6,109.6,51.9,111.9,56.5,111.9
							L56.5,111.9z"/>
						<path class="st3" d="M57.2,112.6c3.6,0,7.1-1.4,9.7-3.8c2.5,1.9,5.2,3.4,8.1,4.4v4.8l-10,3.3h-7.5c-6.7,0-12.2,5.1-12.8,11.7
							c23.4,20,57.9,20,81.3,0c-0.6-6.6-6.2-11.7-12.8-11.7h-7.5l-10-3.3l0,0v-4.8c9.9-3.6,17.2-12.1,19.3-22.4h0.1
							c3.9,0,7.1-3.2,7.1-7.1c0,0,0,0,0,0v-1.7c0-3.7-2.9-6.8-6.6-7.1v-5c0-13.6-9-25.5-22.1-29.2l0,0h-0.1c-0.6-0.2-1.3-0.3-2-0.5
							c-0.3-0.1-0.5-0.1-0.8-0.2c-1.8-0.3-3.5-0.5-5.3-0.5l0,0c-0.4,0-0.8,0-1.2,0C68.2,40.4,55.3,53.4,55,69.4c0,0.1,0,0.2,0,0.3
							c0,0.1,0,0.3,0,0.4v5c-3.7,0.3-6.6,3.3-6.6,7.1v1.7c0,1,0.2,1.9,0.6,2.8c-6.5,4.6-8,13.5-3.4,19.9
							C48.2,110.4,52.6,112.6,57.2,112.6L57.2,112.6z"/>
						<path class="st3" d="M57.9,113.3c3.6,0,7.1-1.4,9.7-3.8c2.5,1.9,5.2,3.4,8.1,4.4v4.8l-10,3.3h-7.5c-6.6,0-12.2,5-12.8,11.7
							c23.4,19.9,57.8,19.9,81.2,0c-0.6-6.6-6.2-11.7-12.8-11.7h-7.5l-10-3.3l0,0V114c9.9-3.6,17.2-12,19.4-22.3h0.1
							c3.9,0,7.1-3.1,7.1-7c0,0,0-0.1,0-0.1v-1.7c0-3.7-2.9-6.8-6.6-7.1v-5c0-13.6-9.1-25.5-22.2-29.2l0,0h-0.1
							c-0.6-0.2-1.3-0.3-2-0.5c-0.3-0.1-0.5-0.1-0.8-0.2c-1.8-0.3-3.5-0.5-5.3-0.5l0,0c-0.4,0-0.8,0-1.2,0
							c-16,0.6-28.9,13.6-29.2,29.6c0,0.1,0,0.2,0,0.3c0,0.1,0,0.3,0,0.4v5c-3.7,0.3-6.6,3.3-6.6,7.1v1.7c0,1,0.2,1.9,0.6,2.8
							c-6.5,4.6-8,13.5-3.4,19.9C49,111.1,53.3,113.3,57.9,113.3L57.9,113.3z"/>
						<path class="st3" d="M58.7,114.1c3.6,0,7.1-1.4,9.7-3.8c2.5,1.9,5.2,3.4,8.1,4.4v4.8l-10,3.3h-7.5c-6.6,0-12.2,5-12.8,11.7
							c23.4,19.9,57.8,19.9,81.2,0c-0.6-6.6-6.2-11.7-12.8-11.7H107l-10-3.3l0,0v-4.8c9.9-3.6,17.2-12,19.4-22.3h0.1
							c3.9,0,7.1-3.2,7.1-7.1c0,0,0,0,0,0v-1.6c0-3.7-2.9-6.8-6.6-7.1v-5c0-13.6-9-25.5-22-29.2l0,0h-0.1c-0.6-0.2-1.3-0.3-2-0.5
							c-0.3-0.1-0.5-0.1-0.8-0.2c-1.8-0.3-3.5-0.5-5.3-0.5l0,0c-0.4,0-0.8,0-1.2,0c-16.1,0.5-28.9,13.6-29.2,29.6c0,0.1,0,0.2,0,0.3
							c0,0.1,0,0.3,0,0.4v5c-3.7,0.3-6.6,3.3-6.6,7.1v1.7c0,1,0.2,1.9,0.6,2.8c-6.5,4.6-8,13.5-3.4,19.9
							C49.7,111.8,54,114,58.7,114.1L58.7,114.1z"/>
						<path class="st3" d="M59.4,114.8c3.6,0,7.1-1.3,9.7-3.8c2.5,1.9,5.2,3.4,8.1,4.4v4.8l-10,3.3h-7.5c-6.6,0-12.2,5-12.8,11.7
							c23.4,19.9,57.8,19.9,81.2,0c-0.6-6.6-6.2-11.7-12.8-11.7h-7.5l-10-3.3l0,0v-4.8c9.9-3.6,17.3-12.1,19.4-22.4h0.1
							c3.9,0,7-3.1,7.1-7v-1.7c0-3.7-2.9-6.8-6.6-7.1v-5c0-13.6-9-25.6-22.1-29.2l0,0h-0.1c-0.6-0.2-1.3-0.3-1.9-0.5
							c-0.3-0.1-0.5-0.1-0.8-0.2c-1.8-0.3-3.5-0.5-5.3-0.5h-0.1c-0.4,0-0.8,0-1.2,0c-16.1,0.6-28.9,13.6-29.2,29.7
							c0,0.1,0,0.2,0,0.3c0,0.1,0,0.3,0,0.4v5c-3.7,0.3-6.6,3.3-6.6,7.1V86c0,1,0.2,1.9,0.6,2.8c-6.5,4.6-8,13.5-3.4,19.9
							C50.4,112.5,54.7,114.8,59.4,114.8L59.4,114.8z"/>
						<path class="st3" d="M60.1,115.5c3.6,0,7.1-1.4,9.7-3.8c2.5,1.9,5.2,3.4,8.1,4.4v4.8l-10,3.3h-7.5c-6.6,0-12.2,5-12.8,11.7
							c23.4,19.9,57.8,19.9,81.2,0c-0.6-6.6-6.2-11.7-12.8-11.7h-7.5l-10-3.3l0,0v-4.8c9.9-3.6,17.2-12,19.4-22.3h0.1
							c3.9,0,7.1-3.2,7.1-7.1c0,0,0,0,0,0V85c0-3.7-2.9-6.8-6.6-7.1v-5c0-13.6-9-25.5-22.1-29.2l0,0h-0.1c-0.6-0.2-1.3-0.3-2-0.5
							c-0.3-0.1-0.5-0.1-0.8-0.2c-1.8-0.3-3.5-0.5-5.3-0.5l0,0H87c-16,0.6-28.8,13.6-29.2,29.6c0,0.1,0,0.2,0,0.3c0,0.1,0,0.3,0,0.4
							v5c-3.7,0.2-6.6,3.3-6.6,7.1v1.7c0,1,0.2,1.9,0.6,2.8c-6.5,4.6-8,13.5-3.4,19.9C51.1,113.2,55.4,115.5,60.1,115.5L60.1,115.5z
							"/>
						<path class="st3" d="M60.8,116.2c3.6,0,7.1-1.4,9.7-3.8c2.5,1.9,5.2,3.4,8.1,4.4v4.8l-10,3.3h-7.5c-6.6,0-12.2,5-12.8,11.7
							c23.4,19.9,57.8,19.9,81.2,0c-0.6-6.6-6.2-11.7-12.8-11.7h-7.5l-10-3.3l0,0v-4.8c9.9-3.6,17.2-12,19.4-22.3h0.2
							c3.9,0,7.1-3.2,7.1-7.1c0,0,0,0,0,0v-1.7c0-3.7-2.9-6.8-6.6-7.1v-5c0-13.6-9-25.5-22.1-29.2l0,0H97c-0.6-0.2-1.3-0.3-1.9-0.5
							c-0.3-0.1-0.5-0.1-0.8-0.2c-1.8-0.3-3.5-0.5-5.3-0.5l0,0h-1.2c-16,0.6-28.9,13.6-29.2,29.6c0,0.1,0,0.2,0,0.3
							c0,0.1,0,0.3,0,0.4v5C54.9,78.9,52,82,52,85.7v1.7c0,1,0.2,1.9,0.6,2.8c-6.5,4.6-8,13.5-3.4,19.9
							C51.8,113.9,56.2,116.2,60.8,116.2L60.8,116.2z"/>
						<path class="st3" d="M61.5,116.9c3.6,0,7.1-1.4,9.7-3.8c2.5,1.9,5.2,3.4,8.1,4.4v4.8l-10,3.3h-7.5c-6.6,0-12.2,5.1-12.8,11.7
							c23.4,19.9,57.8,19.9,81.2,0c-0.6-6.6-6.2-11.7-12.8-11.7h-7.5l-10-3.3l0,0v-4.8c9.9-3.6,17.2-12,19.4-22.3h0.2
							c3.9,0,7.1-3.2,7.1-7.1c0,0,0,0,0,0v-1.7c0-3.7-2.9-6.8-6.6-7.1v-5c0-13.6-9-25.5-22.1-29.2l0,0h-0.1c-0.6-0.2-1.3-0.3-2-0.5
							c-0.3-0.1-0.5-0.1-0.8-0.2c-1.7-0.3-3.5-0.5-5.3-0.5l0,0h-1.2c-16.1,0.6-28.9,13.6-29.2,29.7c0,0.1,0,0.2,0,0.3
							c0,0.1,0,0.3,0,0.4v5c-3.7,0.3-6.6,3.3-6.6,7.1v1.7c0,1,0.2,1.9,0.6,2.8c-6.5,4.6-8,13.5-3.4,19.9
							C52.5,114.6,56.9,116.9,61.5,116.9L61.5,116.9z"/>
						<path class="st3" d="M62.2,117.6c3.6,0,7.1-1.4,9.7-3.8c2.5,1.9,5.2,3.4,8.1,4.4v4.8l-10,3.3h-7.5c-6.7,0-12.2,5.1-12.8,11.7
							c23.4,19.9,57.8,19.9,81.2,0c-0.6-6.6-6.2-11.7-12.8-11.7h-7.5l-10-3.3l0,0v-4.8c9.9-3.6,17.3-12.1,19.4-22.4h0.2
							c3.9,0,7.1-3.2,7.1-7.1v-1.7c0-3.7-2.9-6.8-6.6-7.1v-5c0-13.6-9-25.5-22.1-29.2h-0.1c-0.6-0.2-1.3-0.3-2-0.5
							c-0.3-0.1-0.5-0.1-0.8-0.2c-1.8-0.3-3.5-0.5-5.3-0.5l0,0h-1.2c-16,0.6-28.8,13.6-29.1,29.7c0,0.1,0,0.2,0,0.3
							c0,0.1,0,0.3,0,0.4v5c-3.7,0.3-6.6,3.3-6.6,7.1v1.7c0,1,0.2,1.9,0.6,2.8c-6.5,4.6-8,13.5-3.4,19.9
							C53.2,115.3,57.6,117.6,62.2,117.6L62.2,117.6z"/>
						<path class="st3" d="M62.9,118.3c3.6,0,7.1-1.4,9.7-3.8c2.5,1.9,5.2,3.4,8.1,4.4v4.8l-10,3.3h-7.5c-6.6,0-12.2,5-12.8,11.7
							c23.4,19.9,57.8,19.9,81.2,0c-0.6-6.6-6.2-11.7-12.8-11.7h-7.5l-10-3.3l0,0v-4.8c9.9-3.6,17.2-12,19.4-22.3h0.2
							c3.9,0,7.1-3.2,7.1-7.1v-1.6c0-3.7-2.9-6.8-6.6-7.1v-5c0-13.6-9-25.5-22.1-29.2h-0.1c-0.6-0.2-1.3-0.3-2-0.5
							C96.9,46,96.6,46,96.3,46c-1.8-0.3-3.5-0.5-5.3-0.5l0,0h-1.2c-16,0.6-28.8,13.6-29.1,29.6c0,0.1,0,0.2,0,0.3
							c0,0.1,0,0.3,0,0.4v5c-3.7,0.3-6.6,3.3-6.6,7.1v1.7c0,1,0.2,1.9,0.6,2.8c-6.5,4.6-8,13.5-3.4,19.9
							C53.9,116,58.3,118.3,62.9,118.3L62.9,118.3z"/>
						<path class="st3" d="M63.6,119c3.6,0,7.1-1.4,9.7-3.8c2.5,1.9,5.2,3.4,8.1,4.4v4.8l-10,3.3h-7.5c-6.7,0-12.2,5.1-12.8,11.7
							c23.4,19.9,57.8,19.9,81.2,0c-0.6-6.6-6.2-11.7-12.8-11.7H112l-10-3.3l0,0v-4.8c9.9-3.6,17.2-12,19.4-22.4h0.2
							c3.9,0,7.1-3.2,7.1-7.1v-1.7c0-3.7-2.9-6.8-6.6-7.1v-5c0-13.6-9-25.5-22.1-29.2h-0.1c-0.6-0.2-1.3-0.3-2-0.5L97,46.7
							c-1.8-0.3-3.5-0.5-5.3-0.5l0,0c-0.4,0-0.8,0-1.2,0c-16,0.6-28.8,13.6-29.1,29.6c0,0.1,0,0.2,0,0.3c0,0.1,0,0.3,0,0.4v5
							c-3.7,0.3-6.6,3.3-6.6,7.1v1.7c0,1,0.2,1.9,0.6,2.8c-6.5,4.6-8,13.5-3.4,19.9C54.6,116.7,59,119,63.6,119z"/>
						<path class="st3" d="M64.3,119.7c3.6,0,7-1.4,9.7-3.8c2.5,1.9,5.2,3.4,8.1,4.4v4.8l-10,3.3h-7.5c-6.6,0-12.2,5-12.8,11.7
							c23.4,19.9,57.8,19.9,81.2,0c-0.6-6.6-6.2-11.7-12.8-11.7h-7.5l-10-3.3l0,0v-4.8c9.9-3.6,17.2-12,19.4-22.3h0.2
							c3.9,0,7.1-3.2,7.1-7.1v-1.7c0-3.7-2.9-6.8-6.6-7.1v-5c0-13.6-9-25.5-22.1-29.2h-0.1c-0.6-0.2-1.3-0.3-2-0.5l-0.8-0.1
							c-1.8-0.3-3.5-0.5-5.3-0.5l0,0c-0.4,0-0.8,0-1.2,0c-16,0.6-28.8,13.6-29.1,29.7c0,0.1,0,0.2,0,0.3c0,0.1,0,0.3,0,0.4v5
							c-3.7,0.3-6.6,3.3-6.6,7.1v1.7c0,1,0.2,1.9,0.6,2.8c-6.5,4.6-8,13.5-3.4,19.9C55.4,117.4,59.7,119.7,64.3,119.7L64.3,119.7z"
							/>
						<path class="st3" d="M65,120.4c3.6,0,7.1-1.4,9.7-3.8c2.5,1.9,5.2,3.4,8.1,4.4v4.8l-10,3.3h-7.5c-6.6,0-12.2,5-12.8,11.7
							c23.4,19.9,57.8,19.9,81.2,0c-0.6-6.6-6.1-11.6-12.8-11.7h-7.5l-10-3.3l0,0v-4.8c9.9-3.6,17.2-12,19.4-22.3h0.1
							c3.9,0,7.1-3.2,7.1-7.1V90c0-3.7-2.9-6.8-6.6-7.1v-5c0-13.6-9-25.5-22.1-29.2h-0.1c-0.6-0.2-1.3-0.3-2-0.5l-0.8-0.1
							c-1.8-0.3-3.5-0.5-5.3-0.5l0,0c-0.4,0-0.8,0-1.2,0c-16,0.6-28.8,13.6-29.2,29.6c0,0.1,0,0.2,0,0.3c0,0.1,0,0.3,0,0.4v5
							c-3.7,0.2-6.6,3.4-6.6,7.1v1.7c0,1,0.2,1.9,0.6,2.8c-6.5,4.6-8,13.5-3.4,19.9C56,118.2,60.4,120.5,65,120.4L65,120.4z"/>
						<path class="st3" d="M65.8,121.2c3.6,0,7.1-1.4,9.7-3.8c2.5,1.9,5.2,3.4,8.1,4.4v4.8l-10,3.3H66c-6.6,0-12.2,5-12.8,11.7
							c23.4,19.9,57.8,19.9,81.2,0c-0.6-6.6-6.2-11.7-12.8-11.7h-7.5l-10-3.3l0,0v-4.8c9.9-3.6,17.2-12,19.4-22.3h0.2
							c3.9,0,7.1-3.2,7.1-7.1v-1.7c0-3.7-2.9-6.8-6.6-7.1v-5c0-13.6-9-25.5-22.1-29.2h0c-0.6-0.2-1.3-0.3-1.9-0.5l-0.8-0.1
							c-1.8-0.3-3.5-0.5-5.3-0.5l0,0c-0.4,0-0.8,0-1.2,0c-12.3,0.4-23.2,8.3-27.4,19.9c-1.2,3.1-1.8,6.5-1.8,9.8c0,0.1,0,0.2,0,0.3
							c0,0.1,0,0.3,0,0.4v5C59.8,83.9,57,87,57,90.7v1.7c0,1,0.2,1.9,0.6,2.8c-6.5,4.6-8,13.5-3.4,19.9
							C56.8,118.9,61.1,121.2,65.8,121.2L65.8,121.2z"/>
						<path class="st3" d="M66.5,121.9c3.6,0,7.1-1.4,9.7-3.8c2.5,1.9,5.2,3.4,8.1,4.4v4.8l-10,3.3h-7.5c-6.6,0-12.2,5-12.8,11.7
							c23.4,19.9,57.8,19.9,81.2,0c-0.6-6.6-6.2-11.7-12.8-11.7h-7.5l-10-3.3l0,0v-4.8c9.9-3.6,17.2-12,19.4-22.3h0.2
							c3.9,0,7.1-3.2,7.1-7.1v-1.7c0-3.7-2.9-6.8-6.6-7.1v-5c0-13.6-9-25.5-22.1-29.2h-0.1c-0.6-0.2-1.3-0.3-2-0.5l-0.8-0.1
							c-1.7-0.3-3.5-0.5-5.3-0.5l0,0c-0.4,0-0.8,0-1.2,0c-16.1,0.6-28.9,13.6-29.2,29.7v0.3c0,0.1,0,0.3,0,0.4v5
							c-3.7,0.3-6.6,3.3-6.6,7.1V93c0,1,0.2,1.9,0.6,2.8c-6.5,4.6-8,13.5-3.4,19.9C57.5,119.6,61.8,121.8,66.5,121.9L66.5,121.9z"/>
						<path class="st3" d="M67.2,122.6c3.6,0,7.1-1.4,9.7-3.8c2.5,1.9,5.2,3.4,8.1,4.4v4.8l-10,3.3h-7.5c-6.6,0-12.2,5-12.8,11.7
							c23.4,19.9,57.8,19.9,81.2,0c-0.6-6.6-6.2-11.7-12.8-11.7h-7.5l-10-3.3l0,0v-4.8c9.9-3.6,17.3-12.1,19.4-22.4h0.2
							c3.9,0,7.1-3.2,7.1-7.1v-1.6c0-3.7-2.9-6.8-6.6-7.1v-5c0-13.6-9-25.5-22.1-29.2h-0.1c-0.6-0.2-1.3-0.3-1.9-0.5l-0.8-0.1
							c-1.8-0.3-3.5-0.5-5.3-0.5l0,0c-0.4,0-0.8,0-1.2,0C78.1,50.3,65.3,63.3,65,79.4v0.3c0,0.1,0,0.3,0,0.4v5
							c-3.7,0.3-6.6,3.3-6.6,7.1v1.7c0,1,0.2,1.9,0.6,2.8c-6.5,4.6-8,13.5-3.4,19.9C58.2,120.3,62.6,122.5,67.2,122.6L67.2,122.6z"
							/>
						<path class="st3" d="M67.9,123.3c3.6,0,7.1-1.4,9.7-3.8c2.5,1.9,5.2,3.4,8.1,4.4v4.8l-10,3.3h-7.5c-6.6,0-12.2,5-12.8,11.7
							c23.4,19.9,57.8,19.9,81.2,0c-0.6-6.6-6.2-11.6-12.8-11.6h-7.5l-10-3.3l0,0v-4.8c9.9-3.6,17.2-12,19.4-22.3h0.2
							c3.9,0,7.1-3.2,7.1-7.1v-1.7c0-3.7-2.9-6.8-6.6-7.1v-5c0-13.6-9-25.5-22.1-29.2h-0.1c-0.6-0.2-1.3-0.3-2-0.5l-0.8-0.1
							c-1.7-0.3-3.5-0.5-5.3-0.5l0,0c-0.4,0-0.8,0-1.2,0C78.8,51,66,64,65.7,80.1v0.3c0,0.1,0,0.3,0,0.4v5c-3.7,0.3-6.6,3.3-6.6,7.1
							v1.7c0,1,0.2,1.9,0.6,2.8c-6.5,4.6-8,13.5-3.4,19.9C58.9,121,63.2,123.3,67.9,123.3L67.9,123.3z"/>
						<path class="st3" d="M68.6,124c3.6,0,7.1-1.4,9.7-3.8c2.5,1.9,5.2,3.4,8.1,4.4v4.8l-10,3.3h-7.5c-6.6,0-12.2,5-12.8,11.7
							c23.4,19.9,57.8,19.9,81.2,0c-0.6-6.6-6.2-11.7-12.8-11.7H117l-10-3.3l0,0v-4.8c9.9-3.6,17.2-12,19.4-22.3h0.2
							c3.9,0,7.1-3.2,7.1-7.1l0,0v-1.6c0-3.7-2.9-6.8-6.6-7.1v-5c0-13.6-9-25.5-22.1-29.2h-0.1c-0.6-0.2-1.3-0.3-2-0.5l-0.8-0.1
							c-1.8-0.3-3.5-0.5-5.3-0.5l0,0c-0.4,0-0.8,0-1.2,0c-16,0.6-28.8,13.6-29.2,29.6v0.3c0,0.1,0,0.3,0,0.4v5
							c-3.7,0.3-6.6,3.3-6.6,7.1v1.6c0,1,0.2,1.9,0.6,2.8c-6.5,4.6-8,13.5-3.4,19.9C59.6,121.7,63.9,124,68.6,124z"/>
						<path class="st3" d="M69.3,124.7c3.6,0,7.1-1.4,9.7-3.8c2.5,1.9,5.2,3.4,8.1,4.4v4.8l-10,3.3h-7.5c-6.6,0-12.2,5-12.8,11.7
							c23.4,19.9,57.8,19.9,81.2,0c-0.6-6.6-6.2-11.7-12.8-11.7h-7.5l-10-3.3l0,0v-4.8c9.9-3.6,17.2-12,19.4-22.3h0.2
							c3.9,0,7.1-3.2,7.1-7.1l0,0v-1.7c0-3.7-2.9-6.8-6.6-7.1v-5c0-13.6-9-25.5-22.1-29.2h-0.1c-0.6-0.2-1.3-0.3-2-0.5l-0.8-0.1
							c-1.8-0.3-3.5-0.5-5.3-0.5l0,0c-0.4,0-0.8,0-1.2,0c-16,0.6-28.8,13.6-29.1,29.6v0.3c0,0.1,0,0.2,0,0.4v5
							c-3.7,0.3-6.6,3.3-6.6,7.1v1.6c0,1,0.2,1.9,0.6,2.8c-6.5,4.6-8,13.5-3.4,19.9C60.3,122.4,64.7,124.7,69.3,124.7L69.3,124.7z"
							/>
						<path class="st3" d="M70,125.4c3.6,0,7.1-1.4,9.7-3.8c2.5,1.9,5.2,3.4,8.1,4.4v4.8l-10,3.3h-7.5c-6.6,0-12.2,5-12.8,11.7
							c23.4,19.9,57.8,19.9,81.2,0c-0.6-6.6-6.2-11.7-12.8-11.7h-7.5l-10-3.3l0,0V126c9.9-3.6,17.2-12,19.4-22.3h0.2
							c3.9,0,7-3.2,7-7.1v-1.6c0-3.7-2.9-6.8-6.6-7.1v-5c0-13.6-9-25.5-22.1-29.2h-0.1c-0.6-0.2-1.3-0.3-2-0.5l-0.8-0.1
							c-1.8-0.3-3.5-0.5-5.3-0.5l0,0c-0.4,0-0.8,0-1.2,0c-16,0.6-28.8,13.6-29.1,29.6v0.3c0,0.1,0,0.2,0,0.4v5
							c-3.7,0.3-6.6,3.3-6.6,7.1v1.7c0,1,0.2,1.9,0.6,2.8c-6.5,4.6-8,13.5-3.4,19.9C61,123.1,65.4,125.4,70,125.4L70,125.4z"/>
						<path class="st3" d="M70.7,126.1c3.6,0,7.1-1.4,9.7-3.8c2.5,1.9,5.2,3.4,8.1,4.4v4.8l-10,3.3H71c-6.6,0-12.2,5.1-12.8,11.7
							c23.4,19.9,57.8,19.9,81.2,0c-0.6-6.6-6.2-11.7-12.8-11.7h-7.5l-10-3.3l0,0v-4.8c9.9-3.6,17.2-12,19.4-22.3h0.1
							c3.9,0,7.1-3.2,7.1-7.1c0,0,0,0,0,0v-1.7c0-3.7-2.9-6.8-6.6-7.1v-5c0-13.6-9-25.5-22.2-29.2h-0.1c-0.6-0.2-1.3-0.3-2-0.5
							l-0.8-0.1c-1.8-0.3-3.5-0.5-5.3-0.5l0,0c-0.4,0-0.8,0-1.2,0c-16,0.6-28.8,13.6-29.1,29.7v0.3c0,0.1,0,0.2,0,0.4v5
							c-3.7,0.3-6.6,3.3-6.6,7.1v1.7c0,1,0.2,1.9,0.6,2.8c-6.5,4.6-8,13.5-3.4,19.9C61.7,123.9,66.1,126.1,70.7,126.1L70.7,126.1z"
							/>
						<path class="st3" d="M71.4,126.8c3.6,0,7.1-1.4,9.7-3.8c2.5,1.9,5.2,3.4,8.1,4.4v4.8l-10,3.3h-7.5c-6.6,0-12.2,5-12.8,11.7
							c23.4,19.9,57.8,19.9,81.2,0c-0.6-6.6-6.2-11.7-12.8-11.7h-7.5l-10-3.3l0,0v-4.8c9.9-3.6,17.2-12,19.4-22.3h0.1
							c3.9,0,7.1-3.2,7.1-7.1c0,0,0,0,0,0v-1.6c0-3.7-2.9-6.8-6.6-7.1v-5c0-13.6-9-25.5-22.1-29.2h-0.1c-0.6-0.2-1.3-0.3-2-0.5
							l-0.8-0.1c-1.7-0.3-3.5-0.5-5.3-0.5l0,0c-0.4,0-0.8,0-1.2,0c-16.1,0.6-28.9,13.6-29.2,29.7v0.3c0,0.1,0,0.2,0,0.4v5
							c-3.7,0.3-6.6,3.3-6.6,7.1V98c0,1,0.2,1.9,0.6,2.8c-6.5,4.6-8,13.5-3.4,19.9C62.4,124.6,66.8,126.8,71.4,126.8L71.4,126.8z"/>
						<path class="st3" d="M72.1,127.6c3.6,0,7.1-1.4,9.7-3.8c2.5,1.9,5.2,3.4,8.2,4.4v4.8l-10,3.3h-7.6c-6.6,0-12.2,5-12.8,11.7
							c23.4,19.9,57.8,19.9,81.2,0c-0.6-6.6-6.2-11.7-12.8-11.7h-7.5l-10-3.3l0,0v-4.8c9.9-3.6,17.2-12,19.4-22.3h0.1
							c3.9,0,7.1-3.2,7.1-7.1c0,0,0,0,0,0v-1.7c0-3.7-2.9-6.8-6.6-7.1v-5c0-13.6-9-25.5-22.1-29.2h-0.1c-0.6-0.2-1.3-0.3-1.9-0.5
							l-0.8-0.1c-1.8-0.3-3.5-0.5-5.3-0.5l0,0c-0.4,0-0.8,0-1.2,0c-16,0.6-28.9,13.6-29.2,29.6v0.3c0,0.1,0,0.2,0,0.4v5
							c-3.7,0.3-6.6,3.3-6.6,7.1v1.7c0,1,0.2,1.9,0.6,2.8c-6.5,4.6-8,13.5-3.4,19.9C63.2,125.3,67.5,127.5,72.1,127.6L72.1,127.6z"
							/>
						<path class="st3" d="M72.8,128.3c3.6,0,7.1-1.4,9.7-3.8c2.5,1.9,5.2,3.4,8.1,4.4v4.8l-10,3.3h-7.5c-6.6,0-12.2,5-12.8,11.7
							c23.4,19.9,57.8,19.9,81.2,0c-0.6-6.6-6.2-11.7-12.8-11.7h-7.5l-10-3.3l0,0v-4.8c9.9-3.6,17.2-12,19.4-22.3h0.1
							c3.9,0,7.1-3.2,7.1-7.1c0,0,0,0,0,0v-1.6c0-3.7-2.9-6.8-6.6-7.1v-5c0-13.6-9-25.5-22.1-29.2h-0.1c-0.6-0.2-1.3-0.3-2-0.5
							l-0.8-0.1c-1.8-0.3-3.5-0.5-5.3-0.5l0,0c-0.4,0-0.8,0-1.2,0C83.8,56,71,69,70.6,85.1v0.3c0,0.1,0,0.2,0,0.4v5
							C66.9,90.9,64,94,64,97.8v1.7c0,1,0.2,1.9,0.6,2.8c-6.5,4.5-8,13.5-3.5,19.9C63.8,126,68.2,128.3,72.8,128.3L72.8,128.3z"/>
						<path class="st3" d="M73.6,129c3.6,0,7.1-1.4,9.7-3.8c2.5,1.9,5.2,3.4,8.1,4.4v4.8l-10,3.3h-7.5c-6.6,0-12.2,5-12.8,11.6
							c23.4,19.9,57.8,19.9,81.2,0c-0.6-6.6-6.2-11.7-12.8-11.7h-7.5l-10-3.3l0,0v-4.8c9.9-3.6,17.2-12,19.4-22.3h0.1
							c3.9,0,7.1-3.2,7.1-7.1c0,0,0,0,0,0v-1.6c0-3.7-2.8-6.8-6.5-7.1v-5c0-13.6-9-25.5-22.1-29.2h-0.1c-0.6-0.2-1.3-0.3-2-0.5
							l-0.8-0.1c-1.8-0.3-3.5-0.5-5.3-0.5l0,0c-0.4,0-0.8,0-1.2,0c-16,0.6-28.8,13.6-29.2,29.6V86c0,0.1,0,0.2,0,0.4v5
							c-3.7,0.3-6.6,3.3-6.6,7.1v1.7c0,1,0.2,1.9,0.6,2.8c-6.5,4.5-8,13.5-3.5,19.9c2.7,3.8,7.1,6.1,11.7,6.1L73.6,129z"/>
						<path class="st3" d="M74.3,129.7c3.6,0,7.1-1.4,9.7-3.8c2.5,1.9,5.2,3.4,8.1,4.4v4.8l-10,3.3h-7.5c-6.6,0-12.2,5-12.8,11.6
							c23.4,20,57.8,20,81.3,0c-0.6-6.6-6.2-11.7-12.8-11.7h-7.5l-10-3.3l0,0v-4.8c9.9-3.6,17.2-12,19.4-22.3h0.1
							c3.9,0,7.1-3.2,7.1-7.1c0,0,0,0,0,0v-1.6c0-3.7-2.9-6.8-6.6-7.1v-5c0-13.6-9-25.5-22.1-29.2h-0.1c-0.6-0.2-1.3-0.3-2-0.5
							l-0.8-0.1c-1.8-0.3-3.5-0.5-5.3-0.5l0,0c-0.4,0-0.8,0-1.2,0c-16,0.6-28.8,13.6-29.1,29.6v0.3c0,0.1,0,0.2,0,0.4v5
							c-3.7,0.3-6.6,3.3-6.6,7.1v1.7c0,1,0.2,1.9,0.6,2.8c-6.5,4.5-8,13.5-3.5,19.9C65.2,127.4,69.6,129.7,74.3,129.7L74.3,129.7z"
							/>
						<path class="st3" d="M75,130.4c3.6,0,7.1-1.4,9.7-3.8c2.5,1.9,5.2,3.4,8.1,4.4v4.8l-10,3.3h-7.5c-6.6,0-12.2,5-12.8,11.7
							c23.4,19.9,57.8,19.9,81.2,0c-0.6-6.6-6.2-11.7-12.8-11.7h-7.5l-10-3.3l0,0V131c9.9-3.6,17.2-12,19.4-22.3h0.1
							c3.9,0,7.1-3.2,7.1-7.1c0,0,0,0,0,0v-1.6c0-3.7-2.9-6.8-6.6-7.1v-5c0-13.6-9-25.5-22.1-29.2h-0.1c-0.6-0.2-1.3-0.3-2-0.5
							l-0.8-0.1c-1.8-0.3-3.5-0.5-5.3-0.5l0,0c-0.4,0-0.8,0-1.2,0c-16,0.6-28.8,13.6-29.1,29.6v0.3c0,0.1,0,0.2,0,0.4v5
							c-3.7,0.3-6.6,3.3-6.6,7.1v1.7c0,1,0.2,1.9,0.6,2.8c-6.5,4.5-8,13.5-3.5,19.9C66,128.1,70.3,130.4,75,130.4L75,130.4z"/>
						<path class="st3" d="M75.7,131.1c3.6,0,7.1-1.4,9.7-3.8c2.5,1.9,5.2,3.4,8.1,4.4v4.8l-10,3.3H76c-6.6,0-12.2,5-12.8,11.7
							c23.4,19.9,57.8,19.9,81.2,0c-0.6-6.6-6.2-11.7-12.8-11.7h-7.5l-10-3.3l0,0v-4.8c9.9-3.6,17.2-12,19.4-22.3h0.1
							c3.9,0,7.1-3.2,7.1-7.1c0,0,0,0,0,0v-1.7c0-3.7-2.9-6.8-6.6-7.1v-5c0-13.6-9-25.5-22.1-29.2h-0.1c-0.6-0.2-1.3-0.3-2-0.5
							l-0.8-0.1c-1.8-0.3-3.5-0.5-5.3-0.5l0,0h-1.2c-16,0.6-28.8,13.6-29.2,29.7v0.3c0,0.1,0,0.2,0,0.4v5c-3.7,0.3-6.6,3.3-6.6,7.1
							v1.7c0,1,0.2,1.9,0.6,2.8c-6.5,4.5-8,13.5-3.5,19.9C66.7,128.8,71,131.1,75.7,131.1L75.7,131.1z"/>
						<path class="st3" d="M76.4,131.8c3.6,0,7.1-1.4,9.7-3.8c2.5,1.9,5.2,3.4,8.1,4.4v4.8l-10,3.3h-7.5c-6.6,0-12.2,5-12.8,11.7
							c23.4,19.9,57.8,19.9,81.2,0c-0.6-6.6-6.2-11.7-12.8-11.7h-7.5l-10-3.3l0,0v-4.8c9.9-3.6,17.2-12,19.4-22.3h0.1
							c3.9,0,7.1-3.2,7.1-7.1c0,0,0,0,0,0v-1.7c0-3.7-2.9-6.8-6.6-7.1v-5c0-13.6-9-25.5-22.1-29.2h-0.1c-0.6-0.2-1.3-0.3-2-0.5
							l-0.8-0.1c-1.8-0.3-3.5-0.5-5.3-0.5h-0.1h-1.2c-16,0.6-28.8,13.6-29.1,29.7v0.3c0,0.1,0,0.2,0,0.4v5c-3.7,0.3-6.6,3.3-6.6,7.1
							v1.7c0,1,0.2,1.9,0.6,2.8c-6.5,4.5-8,13.5-3.5,19.9C67.4,129.6,71.8,131.8,76.4,131.8L76.4,131.8z"/>
						<path class="st3" d="M77.1,132.5c3.6,0,7.1-1.4,9.7-3.8c2.5,1.9,5.2,3.4,8.1,4.4v4.8l-10,3.3h-7.5c-6.6,0-12.2,5-12.8,11.7
							c23.4,19.9,57.8,19.9,81.2,0c-0.6-6.6-6.2-11.7-12.8-11.7h-7.5l-10-3.3l0,0v-4.8c9.9-3.6,17.2-12,19.4-22.3h0.1
							c3.9,0,7.1-3.2,7.1-7.1c0,0,0,0,0,0V102c0-3.7-2.9-6.8-6.6-7.1V90c0-13.6-9-25.5-22.1-29.2h-0.1c-0.6-0.2-1.3-0.3-2-0.5
							l-0.8-0.1c-1.8-0.3-3.5-0.5-5.3-0.5l0,0H104c-16,0.6-28.8,13.6-29.1,29.6v0.3c0,0.1,0,0.2,0,0.4v5c-3.7,0.2-6.6,3.3-6.6,7v1.7
							c0,1,0.2,1.9,0.6,2.8c-6.5,4.5-8,13.5-3.5,19.9C68.1,130.2,72.4,132.5,77.1,132.5L77.1,132.5z"/>
						<path class="st3" d="M77.8,133.2c3.6,0,7.1-1.4,9.7-3.8c2.5,1.9,5.2,3.4,8.1,4.4v4.8l-10,3.3h-7.5c-6.6,0-12.2,5-12.8,11.7
							c23.4,19.9,57.8,19.9,81.2,0c-0.6-6.6-6.2-11.7-12.8-11.7h-7.5l-10-3.3l0,0v-4.8c9.9-3.6,17.2-12,19.4-22.3h0.1
							c3.9,0,7.1-3.2,7.1-7.1c0,0,0,0,0,0v-1.7c0-3.7-2.9-6.8-6.6-7.1v-5c0-13.6-9-25.5-22.1-29.2H114c-0.6-0.2-1.3-0.3-2-0.5
							l-0.8-0.1c-1.8-0.3-3.5-0.5-5.3-0.5l0,0c-0.4,0-0.8,0-1.2,0C88.7,61,76,74,75.6,90v0.3c0,0.1,0,0.2,0,0.4v5
							c-3.7,0.2-6.6,3.4-6.6,7.1v1.7c0,1,0.2,1.9,0.6,2.8c-6.5,4.5-8,13.5-3.5,19.9C68.8,131,73.2,133.2,77.8,133.2z"/>
						<path class="st3" d="M78.5,133.9c3.6,0,7.1-1.4,9.7-3.8c2.5,1.9,5.2,3.4,8.1,4.4v4.8l-10,3.3h-7.5c-6.6,0-12.2,5-12.8,11.7
							c23.4,19.9,57.8,19.9,81.2,0c-0.6-6.6-6.2-11.7-12.8-11.7h-7.5l-10-3.3l0,0v-4.8c9.9-3.6,17.2-12,19.4-22.3h0.1
							c3.9,0,7.1-3.2,7.1-7.1c0,0,0,0,0,0v-1.7c0-3.7-2.9-6.8-6.6-7.1v-5c0-13.6-9-25.5-22.1-29.2h-0.1c-0.6-0.2-1.3-0.3-2-0.5
							l-0.8-0.1c-1.8-0.3-3.5-0.5-5.3-0.5l0,0c-0.4,0-0.8,0-1.2,0c-16,0.6-28.8,13.6-29.2,29.6V91c0,0.1,0,0.2,0,0.4v5
							c-3.7,0.3-6.6,3.3-6.6,7.1v1.7c0,1,0.2,1.9,0.6,2.8c-6.5,4.5-8,13.5-3.5,19.9C69.5,131.6,73.9,133.9,78.5,133.9L78.5,133.9z"
							/>
						<path class="st3" d="M79.2,134.6c3.6,0,7.1-1.4,9.7-3.8c2.5,1.9,5.2,3.4,8.1,4.4v4.7l-10,3.3h-7.5c-6.7,0-12.2,5.1-12.8,11.7
							c23.4,20,57.9,20,81.3,0c-0.6-6.6-6.2-11.7-12.8-11.7h-7.5l-10-3.3l0,0v-4.8c9.9-3.6,17.2-12.1,19.3-22.4h0.1
							c3.9,0,7.1-3.2,7.1-7.1c0,0,0,0,0,0v-1.7c0-3.7-2.9-6.8-6.6-7.1v-5c0-13.6-9-25.5-22.1-29.2h-0.1c-0.6-0.2-1.3-0.3-2-0.5
							l-0.8-0.1c-1.8-0.3-3.5-0.5-5.3-0.5l0,0c-0.4,0-0.8,0-1.2,0c-16,0.6-28.8,13.6-29.2,29.6v0.3c0,0.1,0,0.2,0,0.4v5
							c-3.7,0.3-6.6,3.3-6.6,7.1v1.7c0,1,0.2,1.9,0.6,2.8c-6.5,4.5-8,13.5-3.5,19.9C70.2,132.4,74.6,134.6,79.2,134.6L79.2,134.6z"
							/>
						<path class="st3" d="M80,135.4c3.6,0,7.1-1.4,9.7-3.8c2.4,1.9,5.2,3.4,8.1,4.5v4.8l-10,3.3h-7.5c-6.6,0-12.2,5-12.8,11.6
							c23.4,19.9,57.8,19.9,81.2,0c-0.6-6.6-6.2-11.7-12.8-11.7h-7.5l-10-3.3l0,0V136c9.9-3.6,17.2-12,19.4-22.3h0.1
							c3.9,0,7.1-3.2,7.1-7.1v-1.7c0-3.7-2.9-6.8-6.6-7.1v-5c0-13.6-9-25.5-22.1-29.2l0,0l0,0c-0.7-0.2-1.3-0.3-2-0.5l-0.8-0.1
							c-1.8-0.3-3.5-0.5-5.3-0.5l0,0c-0.4,0-0.8,0-1.2,0c-16,0.6-28.9,13.5-29.2,29.6v0.3c0,0.1,0,0.2,0,0.4v5
							c-3.7,0.3-6.6,3.3-6.6,7.1v1.7c0,1,0.2,1.9,0.6,2.8c-6.5,4.5-8,13.5-3.5,19.9C70.9,133.1,75.3,135.3,80,135.4L80,135.4z"/>
						<path class="st3" d="M80.7,136.1c3.6,0,7.1-1.4,9.7-3.8c2.5,1.9,5.2,3.4,8.1,4.4v4.8l-10,3.3h-7.5c-6.6,0-12.2,5-12.8,11.7
							c23.4,19.9,57.8,19.9,81.2,0c-0.6-6.6-6.2-11.7-12.8-11.7H129l-10-3.3l0,0v-4.8c9.9-3.6,17.2-12,19.4-22.3h0.1
							c3.9,0,7.1-3.2,7.1-7.1v-1.7c0-3.7-2.9-6.8-6.6-7.1v-5c0-13.6-9-25.5-22-29.2l0,0l0,0c-0.7-0.2-1.3-0.3-2-0.5l-0.8-0.1
							c-1.8-0.3-3.5-0.5-5.3-0.5l0,0c-0.4,0-0.8,0-1.2,0c-16.1,0.5-29,13.5-29.3,29.6v0.3c0,0.1,0,0.2,0,0.4v5
							c-3.7,0.3-6.6,3.3-6.6,7.1v1.7c0,1,0.2,1.9,0.6,2.8c-6.5,4.5-8,13.5-3.5,19.9C71.6,133.8,76,136,80.7,136.1L80.7,136.1z"/>
						<path class="st3" d="M81.4,136.8c3.6,0,7.1-1.4,9.7-3.8c2.5,1.9,5.2,3.4,8.1,4.4v4.8l-10,3.3h-7.5c-6.6,0-12.2,5-12.8,11.7
							c23.4,19.9,57.8,19.9,81.2,0c-0.6-6.6-6.2-11.7-12.8-11.7h-7.5l-10-3.3l0,0v-4.8c9.9-3.6,17.3-12.1,19.4-22.4h0.1
							c3.9,0,7.1-3.2,7.1-7.1v-1.6c0-3.7-2.9-6.8-6.6-7.1v-5c0-13.6-9-25.6-22.1-29.2l0,0l0,0c-0.7-0.2-1.3-0.3-2-0.5l-0.8-0.1
							c-1.8-0.3-3.5-0.5-5.3-0.5h-0.1c-0.4,0-0.8,0-1.2,0c-16.1,0.6-28.9,13.6-29.2,29.7v0.3c0,0.1,0,0.2,0,0.4v5
							c-3.7,0.3-6.6,3.3-6.6,7.1v1.7c0,1,0.2,1.9,0.6,2.8c-6.5,4.5-8,13.5-3.5,19.9C72.4,134.6,76.7,136.8,81.4,136.8L81.4,136.8z"
							/>
						<path class="st3" d="M82.1,137.5c3.6,0,7.1-1.4,9.7-3.8c2.5,1.9,5.2,3.4,8.1,4.4v4.8l-10,3.3h-7.5c-6.6,0-12.2,5-12.8,11.7
							c23.4,19.9,57.8,19.9,81.2,0c-0.6-6.6-6.2-11.7-12.8-11.7h-7.5l-10-3.3l0,0v-4.8c9.9-3.6,17.2-12,19.4-22.3h0.1
							c3.9,0,7.1-3.2,7.1-7.1V107c0-3.7-2.9-6.8-6.6-7.1v-5c0-13.6-9-25.5-22.1-29.2l0,0l0,0c-0.7-0.2-1.3-0.3-2-0.5l-0.8-0.1
							c-1.8-0.3-3.5-0.5-5.3-0.5l0,0c-0.4,0-0.8,0-1.2,0C93,65.2,80.2,78.2,79.9,94.3c0,0.1,0,0.2,0,0.3s0,0.2,0,0.4v5
							c-3.7,0.3-6.6,3.3-6.6,7.1v1.7c0,1,0.2,1.9,0.6,2.8c-6.5,4.5-8,13.5-3.5,19.9C73.1,135.2,77.4,137.5,82.1,137.5L82.1,137.5z"
							/>
						<path class="st3" d="M82.8,138.2c3.6,0,7.1-1.4,9.7-3.8c2.5,1.9,5.2,3.4,8.1,4.4v4.8l-10,3.3h-7.5c-6.6,0-12.2,5-12.8,11.7
							c23.4,19.9,57.8,19.9,81.2,0c-0.6-6.6-6.2-11.7-12.8-11.7h-7.5l-10-3.3l0,0v-4.8c9.9-3.6,17.2-12,19.4-22.3h0.1
							c3.9,0,7.1-3.2,7.1-7.1v-1.7c0-3.7-2.9-6.8-6.6-7.1v-5c0-13.6-9-25.5-22.1-29.2l0,0l0,0c-0.7-0.2-1.3-0.3-2-0.5l-0.8-0.1
							c-1.8-0.3-3.5-0.5-5.3-0.5h-0.1c-0.4,0-0.8,0-1.2,0C93.7,66,80.9,79,80.6,95c0,0.1,0,0.2,0,0.3s0,0.2,0,0.4v5
							c-3.7,0.3-6.6,3.3-6.6,7.1v1.7c0,1,0.2,1.9,0.6,2.8c-6.5,4.5-8,13.5-3.5,19.9C73.8,135.9,78.1,138.2,82.8,138.2L82.8,138.2z"
							/>
						<path class="st3" d="M83.5,138.9c3.6,0,7.1-1.4,9.7-3.8c2.5,1.9,5.2,3.4,8.1,4.4v4.8l-10,3.3h-7.5c-6.6,0-12.2,5.1-12.8,11.7
							c23.4,19.9,57.8,19.9,81.2,0c-0.6-6.6-6.2-11.7-12.8-11.7h-7.5l-10-3.3l0,0v-4.8c9.9-3.6,17.2-12,19.4-22.3h0.1
							c3.9,0,7.1-3.2,7.1-7.1v-1.7c0-3.7-2.9-6.8-6.6-7.1v-5c0-13.6-9-25.5-22.1-29.2l0,0h-0.1c-0.7-0.2-1.3-0.3-2-0.5l-0.8-0.1
							c-1.8-0.3-3.5-0.5-5.3-0.5l0,0c-0.4,0-0.8,0-1.2,0c-16.1,0.6-28.9,13.6-29.2,29.6c0,0.1,0,0.2,0,0.3s0,0.2,0,0.4v5
							c-3.7,0.3-6.6,3.3-6.6,7.1v1.7c0,1,0.2,1.9,0.6,2.8c-6.5,4.5-8,13.5-3.5,19.9C74.5,136.6,78.9,138.9,83.5,138.9L83.5,138.9z"
							/>
						<path class="st3" d="M84.2,139.6c3.6,0,7.1-1.4,9.7-3.8c2.5,1.9,5.2,3.4,8.1,4.4v4.8l-10,3.3h-7.5c-6.7,0-12.2,5.1-12.8,11.7
							c23.4,19.9,57.8,19.9,81.2,0c-0.6-6.6-6.2-11.7-12.8-11.7h-7.5l-10-3.3l0,0v-4.8c9.9-3.6,17.3-12.1,19.4-22.4h0.1
							c3.9,0,7.1-3.2,7.1-7.1l0,0v-1.7c0-3.7-2.9-6.8-6.6-7.1v-5c0-13.6-9-25.5-22.1-29.2l0,0l0,0c-0.7-0.2-1.3-0.3-2-0.5
							c-0.3-0.1-0.5-0.1-0.8-0.1c-1.8-0.3-3.5-0.5-5.3-0.5l0,0c-0.4,0-0.8,0-1.2,0C95.2,67.3,82.3,80.3,82,96.4c0,0.1,0,0.2,0,0.3
							s0,0.2,0,0.4v5c-3.7,0.3-6.6,3.3-6.6,7.1v1.7c0,1,0.2,1.9,0.6,2.8c-6.5,4.5-8,13.5-3.5,19.9C75.2,137.3,79.6,139.6,84.2,139.6
							L84.2,139.6z"/>
						<path class="st3" d="M84.9,140.3c3.6,0,7.1-1.4,9.7-3.8c2.5,1.9,5.2,3.4,8.1,4.4v4.8l-10,3.3h-7.5c-6.6,0-12.2,5-12.8,11.7
							c23.4,19.9,57.8,19.9,81.2,0c-0.6-6.6-6.2-11.7-12.8-11.7h-7.5l-10-3.3l0,0v-4.8c9.9-3.6,17.2-12,19.4-22.3h0.1
							c3.9,0,7.1-3.2,7.1-7.1v-1.7c0-3.7-2.9-6.8-6.6-7.1v-5c0-13.6-9-25.5-22.1-29.2l0,0h-0.1c-0.7-0.2-1.3-0.3-2-0.5
							c-0.3-0.1-0.5-0.1-0.8-0.1c-1.8-0.3-3.5-0.5-5.3-0.5l0,0c-0.4,0-0.8,0-1.2,0c-16,0.6-28.9,13.6-29.2,29.6c0,0.1,0,0.2,0,0.3
							s0,0.3,0,0.4v5c-3.7,0.3-6.6,3.3-6.6,7.1v1.7c0,1,0.2,1.9,0.6,2.8c-6.5,4.5-8,13.5-3.5,19.9C75.9,138,80.3,140.3,84.9,140.3
							L84.9,140.3z"/>
						<path class="st3" d="M85.6,141c3.6,0,7.1-1.4,9.7-3.8c2.5,1.9,5.2,3.4,8.1,4.4v4.8l-10,3.3h-7.5c-6.7,0-12.2,5.1-12.8,11.7
							c23.4,19.9,57.8,19.9,81.2,0c-0.6-6.6-6.2-11.7-12.8-11.7H134l-10-3.3l0,0v-4.8c9.9-3.6,17.2-12,19.4-22.3h0.1
							c3.9,0,7.1-3.2,7.1-7.1v-1.7c0-3.7-2.9-6.8-6.6-7.1v-5c0-13.6-9-25.5-22.1-29.2l0,0l0,0c-0.7-0.2-1.3-0.3-2-0.5
							c-0.3-0.1-0.5-0.1-0.8-0.1c-1.8-0.3-3.5-0.5-5.3-0.5l0,0c-0.4,0-0.8,0-1.2,0c-16.1,0.6-28.9,13.6-29.2,29.6c0,0.1,0,0.2,0,0.3
							s0,0.3,0,0.4v5c-3.7,0.3-6.6,3.3-6.6,7.1v1.7c0,1,0.2,1.9,0.6,2.8c-6.5,4.6-8,13.5-3.4,19.9C76.7,138.7,81,141,85.6,141
							L85.6,141z"/>
						<path class="st3" d="M86.3,141.7c3.6,0,7-1.4,9.7-3.8c2.5,1.9,5.2,3.4,8.1,4.4v4.8l-10,3.3h-7.5c-6.6,0-12.2,5-12.8,11.7
							c23.4,19.9,57.8,19.9,81.2,0c-0.6-6.6-6.2-11.7-12.8-11.7h-7.5l-10-3.3l0,0v-4.8c9.9-3.6,17.2-12,19.4-22.3h0.1
							c3.9,0,7.1-3.2,7.1-7.1v-1.7c0-3.7-2.9-6.8-6.6-7.1v-5c0-13.6-9-25.5-22.1-29.2l0,0l0,0c-0.7-0.2-1.3-0.3-2-0.5
							c-0.3-0.1-0.5-0.1-0.8-0.1c-1.8-0.3-3.5-0.5-5.3-0.5l0,0c-0.4,0-0.8,0-1.2,0c-16.1,0.6-28.9,13.6-29.2,29.7c0,0.1,0,0.2,0,0.3
							s0,0.3,0,0.4v5c-3.7,0.3-6.6,3.3-6.6,7.1v1.7c0,1,0.2,1.9,0.6,2.8c-6.5,4.6-8,13.5-3.4,19.9C77.4,139.4,81.7,141.7,86.3,141.7
							L86.3,141.7z"/>
						<path class="st3" d="M87,142.4c3.6,0,7.1-1.4,9.7-3.8c2.5,1.9,5.2,3.4,8.1,4.4v4.8l-10,3.3h-7.5c-6.6,0-12.2,5-12.8,11.7
							c23.4,19.9,57.8,19.9,81.2,0c-0.6-6.6-6.1-11.6-12.8-11.7h-7.5l-10-3.3l0,0v-4.8c9.9-3.6,17.2-12,19.4-22.3h0.1
							c3.9,0,7.1-3.2,7.1-7.1V112c0-3.7-2.9-6.8-6.6-7.1v-5c0-13.6-9-25.5-22.1-29.2l0,0l0,0c-0.7-0.2-1.3-0.3-2-0.5
							c-0.3-0.1-0.5-0.1-0.8-0.1c-1.8-0.3-3.5-0.5-5.3-0.5l0,0c-0.4,0-0.8,0-1.2,0C98,70.2,85.2,83.2,84.8,99.3c0,0.1,0,0.2,0,0.3
							s0,0.3,0,0.4v5c-3.7,0.3-6.6,3.3-6.6,7.1v1.7c0,1,0.2,1.9,0.6,2.8c-6.5,4.6-8,13.5-3.4,19.9C78.1,140.2,82.4,142.4,87,142.4
							L87,142.4z"/>
						<path class="st3" d="M87.8,143.2c3.6,0,7.1-1.4,9.7-3.8c2.5,1.9,5.2,3.4,8.1,4.4v4.8l-10,3.3H88c-6.6,0-12.2,5-12.8,11.7
							c23.4,19.9,57.8,19.9,81.2,0c-0.6-6.6-6.2-11.7-12.8-11.7h-7.5l-10-3.3l0,0v-4.8c9.9-3.6,17.2-12,19.4-22.3h0.1
							c3.9,0,7.1-3.2,7.1-7.1v-1.7c0-3.7-2.9-6.8-6.6-7.1v-5c0-13.6-9-25.5-22.1-29.2l0,0l0,0c-0.7-0.2-1.3-0.3-2-0.5
							c-0.3-0.1-0.5-0.1-0.8-0.1c-1.8-0.3-3.5-0.5-5.3-0.5h-0.1c-0.4,0-0.8,0-1.2,0C98.7,71,85.9,84,85.6,100c0,0.1,0,0.2,0,0.3
							s0,0.3,0,0.4v5c-3.7,0.3-6.6,3.3-6.6,7.1v1.7c0,1,0.2,1.9,0.6,2.8c-6.5,4.6-8,13.5-3.4,19.9C78.8,140.9,83.1,143.2,87.8,143.2
							L87.8,143.2z"/>
						<path class="st3" d="M88.5,143.9c3.6,0,7.1-1.4,9.7-3.8c2.5,1.9,5.2,3.4,8.1,4.4v4.8l-10,3.3h-7.5c-6.6,0-12.2,5-12.8,11.7
							c23.4,19.9,57.8,19.9,81.2,0c-0.6-6.6-6.2-11.7-12.8-11.7h-7.5l-10-3.3l0,0v-4.8c9.9-3.6,17.3-12,19.4-22.3h0.1
							c3.9,0,7.1-3.2,7.1-7.1c0,0,0,0,0,0v-1.6c0-3.7-2.9-6.8-6.6-7.1v-5c0-13.6-9-25.5-22.1-29.2l0,0h-0.1c-0.6-0.2-1.3-0.3-2-0.5
							c-0.3-0.1-0.5-0.1-0.8-0.1c-1.8-0.3-3.5-0.5-5.3-0.5l0,0c-0.4,0-0.8,0-1.2,0c-16,0.6-28.8,13.6-29.2,29.6c0,0.1,0,0.2,0,0.3
							s0,0.3,0,0.4v5c-3.7,0.3-6.6,3.3-6.6,7.1v1.7c0,1,0.2,1.9,0.6,2.8c-6.5,4.6-8,13.5-3.4,19.9C79.5,141.6,83.9,143.9,88.5,143.9
							L88.5,143.9z"/>
						<path class="st3" d="M89.2,144.6c3.6,0,7.1-1.4,9.7-3.8c2.5,1.9,5.2,3.4,8.1,4.4v4.8l-10,3.3h-7.5c-6.6,0-12.2,5-12.8,11.7
							c23.4,19.9,57.8,19.9,81.2,0c-0.6-6.6-6.2-11.7-12.8-11.7h-7.5l-10-3.3l0,0v-4.8c9.9-3.6,17.3-12.1,19.4-22.4h0.1
							c3.9,0,7.1-3.2,7.1-7.1c0,0,0,0,0,0v-1.7c0-3.7-2.9-6.8-6.6-7.1v-5c0-13.6-9-25.5-22.1-29.2l0,0h-0.1
							c-0.6-0.2-1.3-0.3-1.9-0.5c-0.3-0.1-0.5-0.1-0.8-0.1c-1.8-0.3-3.5-0.5-5.3-0.5l0,0c-0.4,0-0.8,0-1.2,0
							c-16.1,0.6-28.9,13.6-29.2,29.6c0,0.1,0,0.2,0,0.3c0,0.1,0,0.3,0,0.4v5c-3.7,0.3-6.6,3.3-6.6,7.1v1.7c0,1,0.2,1.9,0.6,2.8
							c-6.5,4.6-8,13.5-3.4,19.9C80.2,142.3,84.6,144.5,89.2,144.6L89.2,144.6z"/>
						<path class="st3" d="M89.9,145.3c3.6,0,7.1-1.4,9.7-3.8c2.5,1.9,5.2,3.4,8.1,4.4v4.8l-10,3.3h-7.5c-6.6,0-12.2,5-12.8,11.7
							c23.4,19.9,57.8,19.9,81.2,0c-0.6-6.6-6.2-11.6-12.8-11.6h-7.5l-10-3.3l0,0v-4.8c9.9-3.6,17.2-12,19.4-22.3h0.1
							c3.9,0,7.1-3.2,7.1-7.1c0,0,0,0,0,0v-1.7c0-3.7-2.9-6.8-6.6-7.1v-5c0-13.6-9-25.5-22.1-29.2l0,0h-0.1c-0.6-0.2-1.3-0.3-2-0.5
							c-0.3-0.1-0.5-0.1-0.8-0.2c-1.8-0.3-3.5-0.5-5.3-0.5l0,0c-0.4,0-0.8,0-1.2,0c-16,0.6-28.8,13.6-29.2,29.6c0,0.1,0,0.2,0,0.3
							c0,0.1,0,0.3,0,0.4v5c-3.7,0.3-6.6,3.3-6.6,7.1v1.7c0,1,0.2,1.9,0.6,2.8c-6.5,4.6-8,13.5-3.4,19.9
							C80.9,143,85.3,145.3,89.9,145.3L89.9,145.3z"/>
						<path class="st3" d="M90.6,146c3.6,0,7.1-1.4,9.7-3.8c2.5,1.9,5.2,3.4,8.1,4.4v4.8l-10,3.3h-7.5c-6.6,0-12.2,5-12.8,11.7
							c23.4,19.9,57.8,19.9,81.2,0c-0.6-6.6-6.2-11.7-12.8-11.7H139l-10-3.3l0,0v-4.8c9.9-3.6,17.2-12,19.4-22.3h0.1
							c3.9,0,7.1-3.2,7.1-7.1c0,0,0,0,0,0v-1.7c0-3.7-2.9-6.8-6.6-7.1v-5c0-13.6-9-25.5-22.1-29.2l0,0h-0.1c-0.6-0.2-1.3-0.3-2-0.5
							c-0.3-0.1-0.5-0.1-0.8-0.2c-1.8-0.3-3.5-0.5-5.3-0.5l0,0c-0.4,0-0.8,0-1.2,0c-16,0.6-28.8,13.6-29.2,29.6c0,0.1,0,0.2,0,0.3
							c0,0.1,0,0.3,0,0.4v5c-3.7,0.3-6.6,3.3-6.6,7.1v1.7c0,1,0.2,1.9,0.6,2.8c-6.5,4.6-8,13.5-3.4,19.9C81.7,143.7,86,146,90.6,146
							L90.6,146z"/>
						<path class="st3" d="M91.3,146.7c3.6,0,7.1-1.4,9.7-3.8c2.5,1.9,5.2,3.4,8.1,4.4v4.8l-10,3.3h-7.5c-6.6,0-12.2,5-12.8,11.7
							c23.4,19.9,57.8,19.9,81.2,0c-0.6-6.6-6.2-11.7-12.8-11.7h-7.5l-10-3.3l0,0v-4.8c9.9-3.6,17.2-12,19.4-22.3h0.1
							c3.9,0,7.1-3.2,7.1-7.1c0,0,0,0,0,0v-1.7c0-3.7-2.9-6.8-6.6-7.1v-5c0-13.6-9-25.5-22.1-29.2l0,0h-0.1c-0.6-0.2-1.3-0.3-2-0.5
							c-0.3-0.1-0.5-0.1-0.8-0.2c-1.8-0.3-3.5-0.5-5.3-0.5l0,0c-0.4,0-0.8,0-1.2,0c-16,0.6-28.8,13.6-29.2,29.6c0,0.1,0,0.2,0,0.3
							c0,0.1,0,0.3,0,0.4v5c-3.7,0.3-6.6,3.3-6.6,7.1v1.7c0,1,0.2,1.9,0.6,2.8c-6.5,4.6-8,13.5-3.4,19.9
							C82.3,144.4,86.7,146.7,91.3,146.7L91.3,146.7z"/>
						<path class="st3" d="M92,147.4c3.6,0,7.1-1.4,9.7-3.8c2.5,1.9,5.2,3.4,8.1,4.4v4.8l-10,3.3h-7.5c-6.6,0-12.2,5-12.8,11.7
							c23.4,19.9,57.8,19.9,81.2,0c-0.6-6.6-6.2-11.7-12.8-11.7h-7.5l-10-3.3l0,0V148c9.9-3.6,17.2-12,19.4-22.3h0.1
							c3.9,0,7-3.2,7.1-7.1V117c0-3.7-2.9-6.8-6.6-7.1v-5c0-13.6-9-25.5-22.1-29.2l0,0h-0.1c-0.6-0.2-1.3-0.3-2-0.5
							c-0.3-0.1-0.5-0.1-0.8-0.2c-1.8-0.3-3.5-0.5-5.3-0.5l0,0h-1.2c-16,0.6-28.8,13.6-29.1,29.7c0,0.1,0,0.2,0,0.3
							c0,0.1,0,0.3,0,0.4v5c-3.7,0.3-6.6,3.3-6.6,7.1v1.7c0,1,0.2,1.9,0.6,2.8c-6.5,4.6-8,13.5-3.4,19.9
							C83,145.2,87.4,147.5,92,147.4L92,147.4z"/>
						<path class="st3" d="M92.7,148.1c3.6,0,7.1-1.4,9.7-3.8c2.5,1.9,5.2,3.4,8.1,4.4v4.8l-10,3.3H93c-6.6,0-12.2,5.1-12.8,11.7
							c23.4,19.9,57.8,19.9,81.2,0c-0.6-6.6-6.2-11.7-12.8-11.7h-7.5l-10-3.3l0,0v-4.8c9.9-3.6,17.2-12,19.4-22.3h0.1
							c3.9,0,7.1-3.2,7.1-7.1c0,0,0,0,0,0v-1.7c0-3.7-2.9-6.8-6.6-7.1v-5c0-13.6-9-25.5-22.1-29.2l0,0h-0.1c-0.6-0.2-1.3-0.3-2-0.5
							c-0.3-0.1-0.5-0.1-0.8-0.2c-1.8-0.3-3.5-0.5-5.3-0.5l0,0h-1.2c-16,0.6-28.8,13.6-29.1,29.7c0,0.1,0,0.2,0,0.3
							c0,0.1,0,0.3,0,0.4v5c-3.7,0.3-6.6,3.3-6.6,7.1v1.7c0,1,0.2,1.9,0.6,2.8c-6.5,4.6-8,13.5-3.4,19.9
							C83.8,145.8,88.1,148.1,92.7,148.1L92.7,148.1z"/>
						<path class="st3" d="M93.4,148.8c3.6,0,7.1-1.4,9.7-3.8c2.5,1.9,5.2,3.4,8.1,4.4v4.8l-10,3.3h-7.5c-6.6,0-12.2,5-12.8,11.7
							c23.4,19.9,57.8,19.9,81.2,0c-0.6-6.6-6.2-11.7-12.8-11.7h-7.5l-10-3.3l0,0v-4.8c9.9-3.6,17.2-12,19.4-22.3h0.1
							c3.9,0,7.1-3.2,7.1-7.1c0,0,0,0,0,0v-1.7c0-3.7-2.9-6.8-6.6-7.1v-5c0-13.6-9-25.5-22.1-29.2l0,0h-0.1
							c-0.6-0.2-1.3-0.3-1.9-0.5c-0.3-0.1-0.5-0.1-0.8-0.2c-1.8-0.3-3.5-0.5-5.3-0.5l0,0h-1.2c-16,0.6-28.8,13.6-29.1,29.7
							c0,0.1,0,0.2,0,0.3c0,0.1,0,0.3,0,0.4v5c-3.7,0.3-6.6,3.3-6.6,7.1v1.6c0,1,0.2,1.9,0.6,2.8c-6.5,4.6-8,13.5-3.4,19.9
							C84.5,146.5,88.9,148.8,93.4,148.8L93.4,148.8z"/>
						<path class="st3" d="M94.1,149.6c3.6,0,7.1-1.4,9.7-3.8c2.5,1.9,5.2,3.4,8.1,4.4v4.8l-10,3.3h-7.5c-6.6,0-12.2,5-12.8,11.7
							c23.4,19.9,57.8,19.9,81.2,0c-0.6-6.6-6.2-11.7-12.8-11.7h-7.5l-10-3.3l0,0v-4.8c9.9-3.6,17.2-12,19.4-22.3h0.1
							c3.9,0,7.1-3.2,7.1-7.1c0,0,0,0,0,0v-1.7c0-3.7-2.9-6.8-6.6-7.1v-5c0-13.6-9-25.5-22.1-29.2l0,0h-0.1
							c-0.6-0.2-1.3-0.3-1.9-0.5c-0.3-0.1-0.5-0.1-0.8-0.2c-1.8-0.3-3.5-0.5-5.3-0.5l0,0h-1.2c-16,0.6-28.8,13.6-29.1,29.7
							c0,0.1,0,0.2,0,0.3c0,0.1,0,0.3,0,0.4v5c-3.7,0.3-6.6,3.3-6.6,7.1v1.7c0,1,0.2,1.9,0.6,2.8c-6.5,4.6-8,13.5-3.4,19.9
							C85.2,147.3,89.6,149.5,94.1,149.6L94.1,149.6z"/>
						<path class="st3" d="M94.8,150.3c3.6,0,7.1-1.4,9.7-3.8c2.5,1.9,5.2,3.4,8.1,4.4v4.8l-10,3.3h-7.5c-6.6,0-12.2,5-12.8,11.7
							c23.4,19.9,57.8,19.9,81.2,0c-0.6-6.6-6.2-11.6-12.8-11.6h-7.5l-10-3.3l0,0v-4.8c9.9-3.6,17.2-12,19.4-22.4h0.1
							c3.9,0,7.1-3.2,7.1-7.1v-1.7c0-3.7-2.9-6.8-6.6-7.1v-5c0-13.6-9-25.5-22.1-29.2h-0.1c-0.6-0.2-1.3-0.3-1.9-0.5
							c-0.3-0.1-0.5-0.1-0.8-0.2c-1.8-0.3-3.5-0.5-5.3-0.6l0,0h-1.2C105.8,78,93,91,92.7,107.1c0,0.1,0,0.2,0,0.3c0,0.1,0,0.3,0,0.4
							v5c-3.7,0.3-6.6,3.3-6.6,7.1v1.7c0,1,0.2,1.9,0.6,2.8c-6.5,4.6-8,13.5-3.4,19.9C85.9,147.9,90.3,150.2,94.8,150.3L94.8,150.3z
							"/>
						<path class="st3" d="M95.6,151c3.6,0,7.1-1.4,9.7-3.8c2.5,1.9,5.2,3.4,8.1,4.4v4.8l-10,3.3h-7.5c-6.6,0-12.2,5-12.8,11.6
							c23.4,19.9,57.8,19.9,81.2,0c-0.6-6.6-6.2-11.7-12.8-11.7H144l-10-3.3l0,0v-4.8c9.9-3.6,17.2-12,19.4-22.4h0.1
							c3.9,0,7.1-3.2,7.1-7.1v-1.6c0-3.7-2.9-6.8-6.6-7.1v-5c0-13.6-9-25.5-22.1-29.2h-0.1c-0.6-0.2-1.3-0.3-2-0.5
							c-0.3-0.1-0.5-0.1-0.8-0.2c-1.8-0.3-3.5-0.5-5.3-0.5l0,0h-1.2c-16,0.6-28.8,13.6-29.1,29.7c0,0.1,0,0.2,0,0.3
							c0,0.1,0,0.3,0,0.4v5c-3.7,0.3-6.6,3.3-6.6,7.1v1.7c0,1,0.2,1.9,0.6,2.8c-6.5,4.6-8,13.5-3.4,19.9C86.6,148.7,91,151,95.6,151
							L95.6,151z"/>
						<path class="st3" d="M96.3,151.7c3.6,0,7.1-1.4,9.7-3.8c2.5,1.9,5.2,3.4,8.1,4.4v4.8l-10,3.3h-7.5c-6.6,0-12.2,5-12.8,11.6
							c23.4,20,57.8,20,81.3,0c-0.6-6.6-6.2-11.7-12.8-11.7h-7.5l-10-3.3l0,0v-4.8c9.9-3.6,17.2-12,19.4-22.4h0.1
							c3.9,0,7.1-3.2,7.1-7.1v-1.7c0-3.7-2.9-6.8-6.6-7.1v-5c0-13.6-9-25.5-22.1-29.2h-0.1c-0.6-0.2-1.3-0.3-1.9-0.5l-0.8-0.1
							c-1.8-0.3-3.5-0.5-5.3-0.5l0,0c-0.4,0-0.8,0-1.2,0c-16,0.6-28.8,13.6-29.1,29.7c0,0.1,0,0.2,0,0.3c0,0.1,0,0.3,0,0.4v5
							c-3.7,0.3-6.6,3.3-6.6,7.1v1.7c0,1,0.2,1.9,0.6,2.8c-6.5,4.6-8,13.5-3.4,19.9C87.3,149.4,91.7,151.6,96.3,151.7L96.3,151.7z"
							/>
						<path class="st3" d="M97,152.4c3.6,0,7.1-1.4,9.7-3.8c2.5,1.9,5.2,3.4,8.1,4.4v4.8l-10,3.3h-7.5c-6.6,0-12.2,5-12.8,11.7
							c23.4,19.9,57.8,19.9,81.2,0c-0.6-6.6-6.2-11.7-12.8-11.7h-7.5l-10-3.3l0,0V153c9.9-3.6,17.2-12,19.4-22.4h0.1
							c3.9,0,7.1-3.2,7.1-7.1v-1.7c0-3.7-2.9-6.8-6.6-7.1v-5c0-13.6-9-25.5-22.1-29.2h-0.1c-0.6-0.2-1.3-0.3-1.9-0.5l-0.8-0.1
							c-1.8-0.3-3.5-0.5-5.3-0.5l0,0c-0.4,0-0.8,0-1.2,0c-16,0.6-28.8,13.6-29.2,29.6c0,0.1,0,0.2,0,0.3c0,0.1,0,0.3,0,0.4v5
							c-3.7,0.3-6.6,3.3-6.6,7.1v1.7c0,1,0.2,1.9,0.6,2.8c-6.5,4.6-8,13.5-3.4,19.9C88,150.1,92.4,152.4,97,152.4L97,152.4z"/>
						<path class="st3" d="M97.7,153.1c3.6,0,7.1-1.4,9.7-3.8c2.5,1.9,5.2,3.4,8.1,4.4v4.8l-10,3.3H98c-6.6,0-12.2,5-12.8,11.7
							c23.4,19.9,57.8,19.9,81.2,0c-0.6-6.6-6.2-11.7-12.8-11.7h-7.5l-10-3.3l0,0v-4.8c9.9-3.6,17.2-12,19.4-22.4h0.1
							c3.9,0,7.1-3.2,7.1-7.1v-1.7c0-3.7-2.9-6.8-6.6-7.1v-5c0-13.6-9-25.5-22.1-29.2h-0.1c-0.6-0.2-1.3-0.3-2-0.5l-0.8-0.1
							c-1.8-0.3-3.5-0.5-5.3-0.5l0,0c-0.4,0-0.8,0-1.2,0c-12.3,0.5-23.1,8.3-27.3,19.9c-1.2,3.1-1.8,6.4-1.8,9.8c0,0.1,0,0.2,0,0.3
							c0,0.1,0,0.3,0,0.4v5c-3.7,0.3-6.6,3.3-6.6,7.1v1.7c0,1,0.2,1.9,0.6,2.8c-6.5,4.6-8,13.5-3.4,19.9
							C88.7,150.8,93.1,153.1,97.7,153.1L97.7,153.1z"/>
						<path class="st3" d="M98.4,153.8c3.6,0,7.1-1.4,9.7-3.8c2.5,1.9,5.2,3.4,8.1,4.4v4.8l-10,3.3h-7.5c-6.6,0-12.2,5-12.8,11.7
							c23.4,19.9,57.8,19.9,81.2,0c-0.6-6.6-6.2-11.7-12.8-11.7h-7.5l-10-3.3l0,0v-4.8c9.9-3.6,17.2-12,19.4-22.4h0.1
							c3.9,0,7.1-3.2,7.1-7.1v-1.7c0-3.7-2.9-6.8-6.6-7.1v-5c0-13.6-9-25.5-22.1-29.2h-0.1c-0.6-0.2-1.3-0.3-2-0.5l-0.8-0.1
							c-1.8-0.3-3.5-0.5-5.3-0.5l0,0c-0.4,0-0.8,0-1.2,0c-12.3,0.5-23.1,8.3-27.3,19.9c-1.2,3.1-1.8,6.4-1.8,9.8c0,0.1,0,0.2,0,0.3
							c0,0.1,0,0.3,0,0.4v5c-3.7,0.3-6.6,3.3-6.6,7.1v1.7c0,1,0.2,1.9,0.6,2.8c-6.5,4.6-8,13.5-3.4,19.9
							C89.4,151.5,93.7,153.8,98.4,153.8L98.4,153.8z"/>
						<path class="st3" d="M99.1,154.5c3.6,0,7.1-1.4,9.7-3.8c2.5,1.9,5.2,3.4,8.1,4.4v4.8l-10,3.3h-7.5c-6.6,0-12.2,5-12.8,11.7
							c23.4,19.9,57.8,19.9,81.2,0c-0.6-6.6-6.2-11.7-12.8-11.7h-7.5l-10-3.3l0,0v-4.8c9.9-3.6,17.2-12,19.4-22.4h0.1
							c3.9,0,7.1-3.2,7.1-7.1V124c0-3.7-2.9-6.8-6.6-7.1v-5c0-13.6-9-25.5-22.1-29.2h-0.1c-0.6-0.2-1.3-0.3-1.9-0.5l-0.8-0.1
							c-1.8-0.3-3.5-0.5-5.3-0.5l0,0c-0.4,0-0.8,0-1.2,0c-16,0.6-28.8,13.6-29.2,29.6v0.3c0,0.1,0,0.3,0,0.4v5
							c-3.7,0.3-6.6,3.3-6.6,7.1v1.7c0,1,0.2,1.9,0.6,2.8c-6.5,4.6-8,13.5-3.4,19.9C90.1,152.2,94.5,154.5,99.1,154.5L99.1,154.5z"
							/>
						<path class="st3" d="M99.8,155.2c3.6,0,7.1-1.4,9.7-3.8c2.5,1.9,5.2,3.4,8.1,4.4v4.8l-10,3.3h-7.5c-6.6,0-12.2,5-12.8,11.7
							c23.4,19.9,57.8,19.9,81.2,0c-0.6-6.6-6.2-11.7-12.8-11.7h-7.5l-10-3.3l0,0v-4.8c9.9-3.6,17.2-12,19.4-22.4h0.1
							c3.9,0,7.1-3.2,7.1-7.1v-1.7c0-3.7-2.9-6.8-6.6-7.1v-5c0-13.6-9-25.5-22.1-29.2H136c-0.6-0.2-1.3-0.3-1.9-0.5l-0.8-0.1
							c-1.8-0.3-3.5-0.5-5.3-0.5l0,0c-0.4,0-0.8,0-1.2,0C110.8,83,98,96,97.6,112v0.3c0,0.1,0,0.3,0,0.4v5c-3.7,0.3-6.6,3.3-6.6,7.1
							v1.7c0,1,0.2,1.9,0.6,2.8c-6.5,4.6-8,13.5-3.4,19.9C90.8,152.9,95.2,155.2,99.8,155.2L99.8,155.2z"/>
						<path class="st3" d="M100.5,155.9c3.6,0,7.1-1.4,9.7-3.8c2.5,1.9,5.2,3.4,8.1,4.4v4.8l-10,3.3h-7.5c-6.6,0-12.2,5-12.8,11.7
							c23.4,19.9,57.8,19.9,81.2,0c-0.6-6.6-6.2-11.7-12.8-11.7h-7.5l-10-3.3l0,0v-4.8c9.9-3.6,17.2-12,19.4-22.4h0.1
							c3.9,0,7.1-3.2,7.1-7.1v-1.7c0-3.7-2.9-6.8-6.6-7.1v-5c0-13.6-9-25.5-22.1-29.2h-0.1c-0.6-0.2-1.3-0.3-2-0.5l-0.8-0.1
							c-1.8-0.3-3.5-0.5-5.3-0.5l0,0c-0.4,0-0.8,0-1.2,0c-16,0.6-28.8,13.6-29.2,29.7v0.3c0,0.1,0,0.3,0,0.4v5
							c-3.7,0.3-6.6,3.3-6.6,7.1v1.7c0,1,0.2,1.9,0.6,2.8c-6.5,4.6-8,13.5-3.4,19.9C91.5,153.6,95.9,155.9,100.5,155.9L100.5,155.9z
							"/>
						<path class="st3" d="M101.2,156.6c3.6,0,7.1-1.4,9.7-3.8c2.5,1.9,5.2,3.4,8.1,4.4v4.7l-10,3.3h-7.5c-6.7,0-12.2,5.1-12.8,11.7
							c23.4,20,57.9,20,81.3,0c-0.6-6.6-6.2-11.7-12.8-11.7h-7.5l-10-3.3l0,0v-4.8c9.9-3.6,17.2-12.1,19.3-22.3h0.1
							c3.9,0,7.1-3.2,7.1-7.1v-1.6c0-3.7-2.9-6.8-6.6-7.1v-5c0-13.6-9-25.5-22.1-29.2h-0.1c-0.6-0.2-1.3-0.3-1.9-0.5l-0.8-0.1
							c-1.8-0.3-3.5-0.5-5.3-0.5l0,0c-0.4,0-0.8,0-1.2,0c-16,0.6-28.9,13.6-29.2,29.6v0.3c0,0.1,0,0.2,0,0.4v5
							c-3.7,0.3-6.6,3.3-6.6,7.1v1.6c0,1,0.2,1.9,0.6,2.8c-6.5,4.6-8,13.5-3.4,19.9C92.2,154.4,96.6,156.6,101.2,156.6L101.2,156.6z
							"/>
						<path class="st3" d="M102,157.4c3.6,0,7.1-1.4,9.7-3.8c2.5,1.9,5.2,3.4,8.1,4.4v4.8l-10,3.3h-7.5c-6.7,0-12.2,5-12.9,11.7
							c23.4,19.9,57.8,19.9,81.2,0c-0.6-6.6-6.2-11.7-12.8-11.7h-7.5l-10-3.3l0,0V158c9.9-3.6,17.2-12,19.4-22.4h0.1
							c3.9,0,7.1-3.2,7.1-7.1v-1.6c0-3.7-2.9-6.8-6.6-7.1v-5c0-13.6-9-25.5-22.1-29.2h-0.1c-0.6-0.2-1.3-0.3-1.9-0.5l-0.8-0.1
							c-1.8-0.3-3.5-0.5-5.3-0.5l0,0c-0.4,0-0.8,0-1.2,0c-16,0.6-28.8,13.6-29.2,29.7v0.3c0,0.1,0,0.2,0,0.4v5
							c-3.7,0.3-6.6,3.3-6.6,7.1v1.6c0,1,0.2,1.9,0.6,2.8c-6.5,4.6-8,13.5-3.4,19.9C93,155.1,97.4,157.4,102,157.4L102,157.4z"/>
						<path class="st3" d="M102.7,158.1c3.6,0,7.1-1.4,9.7-3.8c2.5,1.9,5.2,3.4,8.1,4.4v4.8l-10,3.3H103c-6.6,0-12.2,5-12.8,11.7
							c23.4,19.9,57.8,19.9,81.2,0c-0.6-6.6-6.2-11.7-12.8-11.7h-7.5l-10-3.3l0,0v-4.8c9.9-3.6,17.2-12,19.4-22.4h0.1
							c3.9,0,7.1-3.2,7.1-7.1v-1.7c0-3.7-2.9-6.8-6.6-7.1v-5c0-13.6-9-25.5-22.1-29.2h-0.1c-0.6-0.2-1.3-0.3-2-0.5l-0.8-0.1
							c-1.8-0.3-3.5-0.5-5.3-0.5l0,0c-0.4,0-0.8,0-1.2,0c-16,0.6-28.8,13.6-29.2,29.7v0.3c0,0.1,0,0.2,0,0.4v5
							c-3.7,0.3-6.6,3.3-6.6,7.1v1.7c0,1,0.2,1.9,0.6,2.8c-6.5,4.6-8,13.5-3.4,19.9C93.7,155.8,98.1,158,102.7,158.1L102.7,158.1z"
							/>
						<path class="st3" d="M103.4,158.8c3.6,0,7.1-1.4,9.7-3.8c2.5,1.9,5.2,3.4,8.1,4.4v4.8l-10,3.3h-7.5c-6.6,0-12.2,5-12.8,11.7
							c23.4,19.9,57.8,19.9,81.2,0c-0.6-6.6-6.2-11.7-12.8-11.7h-7.5l-10-3.3l0,0v-4.8c9.9-3.6,17.2-12.1,19.4-22.4h0.1
							c3.9,0,7.1-3.2,7.1-7.1c0,0,0,0,0,0v-1.6c0-3.7-2.9-6.8-6.6-7.1v-5c0-13.6-9-25.6-22.1-29.2h-0.1c-0.6-0.2-1.3-0.3-2-0.5
							l-0.8-0.1c-1.8-0.3-3.5-0.5-5.3-0.5l0,0c-0.4,0-0.8,0-1.2,0c-16,0.6-28.8,13.6-29.2,29.7v0.3c0,0.1,0,0.2,0,0.4v5
							c-3.7,0.3-6.6,3.3-6.6,7.1v1.8c0,1,0.2,1.9,0.6,2.8c-6.5,4.6-8,13.5-3.4,19.9C94.4,156.6,98.7,158.8,103.4,158.8L103.4,158.8z
							"/>
						<path class="st3" d="M104.1,159.5c3.6,0,7.1-1.4,9.7-3.8c2.5,1.9,5.2,3.4,8.1,4.4v4.8l-10,3.3h-7.5c-6.6,0-12.2,5-12.8,11.7
							c23.4,19.9,57.8,19.9,81.2,0c-0.6-6.6-6.2-11.7-12.8-11.7h-7.5l-10-3.3l0,0v-4.8c9.9-3.6,17.2-12,19.4-22.4h0.1
							c3.9,0,7.1-3.2,7.1-7.1c0,0,0,0,0,0V129c0-3.7-2.9-6.7-6.6-7v-5c0-13.6-9-25.5-22.1-29.2h-0.1c-0.6-0.2-1.3-0.3-1.9-0.5
							l-0.8-0.1c-1.8-0.3-3.5-0.5-5.3-0.5l0,0c-0.4,0-0.8,0-1.2,0c-16,0.6-28.8,13.6-29.2,29.7v0.3c0,0.1,0,0.2,0,0.4v5
							c-3.7,0.3-6.6,3.3-6.6,7.1v1.6c0,1,0.2,1.9,0.6,2.8c-6.5,4.6-8,13.5-3.4,19.9C95.1,157.3,99.5,159.5,104.1,159.5L104.1,159.5z
							"/>
						<path class="st3" d="M104.8,160.2c3.6,0,7.1-1.4,9.7-3.8c2.5,1.9,5.2,3.4,8.1,4.4v4.8l-10,3.3h-7.5c-6.6,0-12.2,5-12.8,11.7
							c23.4,19.9,57.8,19.9,81.2,0c-0.6-6.6-6.2-11.7-12.8-11.7h-7.5l-10-3.3l0,0v-4.8c9.9-3.6,17.2-12,19.4-22.4h0.1
							c3.9,0,7.1-3.2,7.1-7.1c0,0,0,0,0,0v-1.6c0-3.7-2.9-6.8-6.6-7.1v-5c0-13.6-9-25.5-22.1-29.2H141c-0.6-0.2-1.3-0.3-1.9-0.5
							l-0.8-0.1c-1.8-0.3-3.5-0.5-5.3-0.5l0,0c-0.4,0-0.8,0-1.2,0c-16,0.6-28.9,13.6-29.2,29.6v0.3c0,0.1,0,0.2,0,0.4v5
							c-3.7,0.3-6.6,3.3-6.6,7.1v1.6c0,1,0.2,1.9,0.6,2.8c-6.5,4.6-8,13.5-3.4,19.9C95.8,157.9,100.2,160.2,104.8,160.2L104.8,160.2
							z"/>
						<path class="st3" d="M105.5,160.9c3.6,0,7.1-1.4,9.7-3.8c2.5,1.9,5.2,3.4,8.1,4.4v4.8l-10,3.3h-7.5c-6.6,0-12.2,5.1-12.8,11.7
							c23.4,19.9,57.8,19.9,81.2,0c-0.6-6.6-6.2-11.7-12.8-11.7h-7.5l-10-3.3l0,0v-4.8c9.9-3.6,17.2-12,19.4-22.4h0.1
							c3.9,0,7.1-3.2,7.1-7.1c0,0,0,0,0,0v-1.6c0-3.7-2.9-6.8-6.6-7.1v-5c0-13.6-9-25.5-22.1-29.2h-0.1c-0.6-0.2-1.3-0.3-2-0.5
							l-0.8-0.1c-1.8-0.3-3.5-0.5-5.3-0.5l0,0c-0.4,0-0.8,0-1.2,0c-16,0.6-28.8,13.6-29.2,29.6v0.3c0,0.1,0,0.2,0,0.4v5
							c-3.7,0.3-6.6,3.3-6.6,7.1v1.6c0,1,0.2,1.9,0.6,2.8c-6.5,4.5-8,13.5-3.5,19.9C96.5,158.6,100.8,160.9,105.5,160.9L105.5,160.9
							z"/>
						<path class="st3" d="M106.2,161.6c3.6,0,7.1-1.4,9.7-3.8c2.5,1.9,5.2,3.4,8.1,4.4v4.8l-10,3.3h-7.5c-6.7,0-12.2,5.1-12.8,11.7
							c23.4,19.9,57.8,19.9,81.2,0c-0.6-6.6-6.2-11.7-12.8-11.7h-7.5l-10-3.3l0,0v-4.8c9.9-3.6,17.3-12.1,19.4-22.4h0.1
							c3.9,0,7.1-3.2,7.1-7.1c0,0,0,0,0,0v-1.6c0-3.7-2.9-6.8-6.6-7.1v-5c0-13.6-9-25.5-22.1-29.2h-0.1c-0.6-0.2-1.3-0.3-1.9-0.5
							l-0.8-0.1c-1.8-0.3-3.5-0.5-5.3-0.5l0,0c-0.4,0-0.8,0-1.2,0c-16,0.6-28.9,13.6-29.2,29.6v0.3c0,0.1,0,0.2,0,0.4v5
							c-3.7,0.3-6.6,3.3-6.6,7.1v1.6c0,1,0.2,1.9,0.6,2.8c-6.5,4.5-8,13.5-3.5,19.9C97.2,159.3,101.6,161.6,106.2,161.6L106.2,161.6
							z"/>
						<path class="st3" d="M106.9,162.3c3.6,0,7.1-1.4,9.7-3.8c2.5,1.9,5.2,3.4,8.1,4.4v4.8l-10,3.3h-7.5c-6.6,0-12.2,5-12.8,11.7
							c23.4,19.9,57.8,19.9,81.2,0c-0.6-6.6-6.2-11.7-12.8-11.7h-7.5l-10-3.3l0,0v-4.8c9.9-3.6,17.2-12,19.4-22.4h0.1
							c3.9,0,7.1-3.2,7.1-7.1c0,0,0,0,0,0v-1.6c0-3.7-2.9-6.8-6.6-7.1v-5c0-13.6-9-25.5-22.1-29.2h-0.1c-0.6-0.2-1.3-0.3-1.9-0.5
							l-0.8-0.1c-1.8-0.3-3.5-0.5-5.3-0.5l0,0c-0.4,0-0.8,0-1.2,0c-16,0.6-28.8,13.6-29.2,29.6v0.3c0,0.1,0,0.2,0,0.4v5
							c-3.7,0.3-6.6,3.3-6.6,7.1v1.6c0,1,0.2,1.9,0.6,2.8c-6.5,4.5-8,13.5-3.5,19.9C97.9,160,102.3,162.3,106.9,162.3L106.9,162.3z"
							/>
						<path class="st3" d="M107.6,163c3.6,0,7.1-1.4,9.7-3.8c2.5,1.9,5.2,3.4,8.1,4.4v4.8l-10,3.3h-7.5c-6.6,0-12.2,5-12.8,11.7
							c23.4,19.9,57.8,19.9,81.2,0c-0.6-6.6-6.2-11.7-12.8-11.7H156l-10-3.3l0,0v-4.8c9.9-3.6,17.2-12,19.4-22.4h0.1
							c3.9,0,7.1-3.2,7.1-7.1c0,0,0,0,0,0v-1.6c0-3.7-2.9-6.8-6.6-7.1v-5c0-13.6-9-25.5-22.1-29.2h-0.1c-0.6-0.2-1.3-0.3-2-0.5
							l-0.8-0.1c-1.8-0.3-3.5-0.5-5.3-0.5l0,0c-0.4,0-0.8,0-1.2,0c-16,0.6-28.8,13.6-29.2,29.6v0.3c0,0.1,0,0.2,0,0.4v5
							c-3.7,0.3-6.6,3.3-6.6,7.1v1.6c0,1,0.2,1.9,0.6,2.8c-6.5,4.5-8,13.5-3.5,19.9C98.6,160.7,103,163,107.6,163z"/>
						<path class="st3" d="M108.3,163.7c3.6,0,7.1-1.4,9.7-3.8c2.5,1.9,5.2,3.4,8.1,4.4v4.8l-10,3.3h-7.5c-6.6,0-12.2,5-12.8,11.7
							c23.4,19.9,57.8,19.9,81.2,0c-0.6-6.6-6.2-11.7-12.8-11.7h-7.5l-10-3.3l0,0v-4.8c9.9-3.6,17.2-12,19.4-22.4h0.1
							c3.9,0,7.1-3.2,7.1-7.1c0,0,0,0,0,0v-1.6c0-3.7-2.9-6.8-6.6-7.1v-5c0-13.6-9-25.5-22.1-29.2h-0.1c-0.6-0.2-1.3-0.3-2-0.5
							l-0.8-0.1c-1.8-0.3-3.5-0.5-5.3-0.5l0,0h-1.1c-16,0.6-28.8,13.6-29.2,29.6v0.3c0,0.1,0,0.2,0,0.4v5c-3.7,0.3-6.6,3.3-6.6,7.1
							v1.6c0,1,0.2,1.9,0.6,2.8c-6.5,4.5-8,13.5-3.5,19.9C99.3,161.4,103.7,163.7,108.3,163.7L108.3,163.7z"/>
						<path class="st3" d="M109.1,164.4c3.6,0,7.1-1.4,9.7-3.8c2.5,1.9,5.2,3.4,8.1,4.4v4.8l-10,3.3h-7.5c-6.6,0-12.2,5-12.8,11.7
							c23.4,19.9,57.8,19.9,81.2,0c-0.6-6.6-6.1-11.6-12.8-11.7h-7.5l-10-3.3l0,0v-4.8c9.9-3.6,17.2-12,19.4-22.4h0.1
							c3.9,0,7.1-3.2,7.1-7.1c0,0,0,0,0,0V134c0-3.7-2.9-6.8-6.6-7.1v-5c0-13.6-9-25.5-22.1-29.2h-0.1c-0.6-0.2-1.3-0.3-2-0.5
							l-0.8-0.1c-1.8-0.3-3.5-0.5-5.3-0.5h-0.1H136c-16,0.6-28.8,13.6-29.2,29.6v0.3c0,0.1,0,0.2,0,0.4v5c-3.7,0.3-6.6,3.3-6.6,7.1
							v1.6c0,1,0.2,1.9,0.6,2.8c-6.5,4.5-8,13.5-3.5,19.9C100,162.2,104.4,164.5,109.1,164.4L109.1,164.4z"/>
						<path class="st3" d="M109.8,165.2c3.6,0,7.1-1.4,9.7-3.8c2.5,1.9,5.2,3.4,8.1,4.4v4.8l-10,3.3h-7.5c-6.6,0-12.2,5-12.8,11.7
							c23.4,19.9,57.8,19.9,81.2,0c-0.6-6.6-6.2-11.7-12.8-11.7h-7.5l-10-3.3l0,0v-4.8c9.9-3.6,17.2-12,19.4-22.4h0.1
							c3.9,0,7.1-3.2,7.1-7.1c0,0,0,0,0,0v-1.6c0-3.7-2.9-6.8-6.6-7.1v-5c0-13.6-9-25.5-22.1-29.2H146c-0.6-0.2-1.3-0.3-2-0.5
							l-0.8-0.1c-1.8-0.3-3.5-0.5-5.3-0.5h-0.1h-1.1c-16,0.6-28.8,13.6-29.1,29.7v0.3c0,0.1,0,0.2,0,0.4v5c-3.7,0.3-6.6,3.3-6.6,7.1
							v1.6c0,1,0.2,1.9,0.6,2.8c-6.5,4.5-8,13.5-3.5,19.9C100.7,162.9,105.1,165.2,109.8,165.2L109.8,165.2z"/>
						<path class="st3" d="M110.5,165.9c3.6,0,7.1-1.4,9.7-3.8c2.5,1.9,5.2,3.4,8.1,4.4v4.8l-10,3.3h-7.5c-6.6,0-12.1,5.1-12.8,11.7
							c23.4,19.9,57.8,19.9,81.2,0c-0.6-6.6-6.2-11.7-12.8-11.7h-7.5l-10-3.3l0,0v-4.8c9.9-3.6,17.2-12,19.4-22.4h0.1
							c3.9,0,7.1-3.2,7.1-7.1c0,0,0,0,0,0v-1.6c0-3.7-2.9-6.8-6.6-7.1v-5c0-13.6-9-25.5-22.1-29.2h-0.1c-0.6-0.2-1.3-0.3-2-0.5
							l-0.8-0.1c-1.8-0.3-3.5-0.5-5.3-0.5h-0.1c-0.4,0-0.8,0-1.1,0c-16,0.6-28.8,13.6-29.2,29.6v0.3c0,0.1,0,0.2,0,0.4v5
							c-3.7,0.3-6.6,3.3-6.6,7.1v1.6c0,1,0.2,1.9,0.6,2.8c-6.5,4.5-8,13.5-3.5,19.9C101.5,163.6,105.8,165.9,110.5,165.9
							L110.5,165.9z"/>
						<path class="st3" d="M111.2,166.6c3.6,0,7.1-1.4,9.7-3.8c2.5,1.9,5.2,3.4,8.1,4.4v4.8l-10,3.3h-7.5c-6.6,0-12.2,5-12.8,11.7
							c23.4,19.9,57.8,19.9,81.2,0c-0.6-6.6-6.2-11.7-12.8-11.7h-7.5l-10-3.3l0,0v-4.8c9.9-3.6,17.3-12,19.4-22.3h0.1
							c3.9,0,7.1-3.2,7.1-7.1c0,0,0,0,0,0v-1.6c0-3.7-2.9-6.8-6.6-7.1v-5c0-13.6-9-25.5-22.1-29.2h-0.1c-0.6-0.2-1.3-0.3-2-0.5
							l-0.8-0.1c-1.8-0.3-3.5-0.5-5.3-0.5l0,0c-0.4,0-0.8,0-1.1,0c-16,0.6-28.8,13.6-29.2,29.6v0.3c0,0.1,0,0.2,0,0.4v5
							c-3.7,0.3-6.6,3.3-6.6,7.1v1.6c0,1,0.2,1.9,0.6,2.8c-6.5,4.5-8,13.5-3.5,19.9C102.2,164.3,106.6,166.6,111.2,166.6
							L111.2,166.6z"/>
						<path class="st3" d="M111.9,167.3c3.6,0,7.1-1.4,9.7-3.8c2.5,1.9,5.2,3.4,8.1,4.4v4.8l-10,3.3h-7.5c-6.6,0-12.2,5-12.8,11.7
							c23.4,19.9,57.8,19.9,81.2,0c-0.6-6.6-6.2-11.6-12.8-11.6h-7.5l-10-3.3l0,0v-4.8c9.9-3.6,17.2-12,19.4-22.4h0.1
							c3.9,0,7.1-3.2,7.1-7.1c0,0,0,0,0,0v-1.6c0-3.7-2.9-6.8-6.6-7.1v-5c0-13.6-9-25.5-22.1-29.2l0,0h-0.1c-0.6-0.2-1.3-0.3-2-0.5
							l-0.8-0.1c-1.8-0.3-3.5-0.5-5.3-0.5h0c-0.4,0-0.8,0-1.1,0c-16,0.6-28.8,13.6-29.2,29.6v0.3c0,0.1,0,0.2,0,0.4v5
							c-3.7,0.3-6.6,3.3-6.6,7.1v1.6c0,1,0.2,1.9,0.6,2.8c-6.5,4.5-8,13.5-3.5,19.9C102.9,165,107.3,167.3,111.9,167.3L111.9,167.3z
							"/>
						<path class="st3" d="M112.6,168c3.6,0,7.1-1.4,9.7-3.8c2.5,1.9,5.2,3.4,8.1,4.4v4.8l-10,3.3h-7.5c-6.6,0-12.2,5-12.8,11.7
							c23.4,19.9,57.8,19.9,81.2,0c-0.6-6.6-6.2-11.7-12.8-11.7H161l-10-3.3l0,0v-4.8c9.9-3.6,17.2-12,19.4-22.4h0.1
							c3.9,0,7.1-3.2,7.1-7.1v-1.6c0-3.7-2.9-6.8-6.6-7.1v-5c0-13.6-9-25.5-22.1-29.2l0,0h-0.1c-0.6-0.2-1.3-0.3-2-0.5l-0.8-0.1
							c-1.8-0.3-3.5-0.5-5.3-0.5h-0.1c-0.4,0-0.8,0-1.1,0c-16,0.6-28.8,13.6-29.2,29.6v0.3c0,0.1,0,0.2,0,0.4v5
							c-3.7,0.3-6.6,3.3-6.6,7.1v1.6c0,1,0.2,1.9,0.6,2.8c-6.5,4.5-8,13.5-3.5,19.9C103.6,165.7,108,168,112.6,168L112.6,168z"/>
						<path class="st3" d="M113.3,168.7c3.6,0,7.1-1.4,9.7-3.8c2.5,1.9,5.2,3.4,8.1,4.4v4.8l-10,3.3h-7.5c-6.6,0-12.2,5-12.8,11.7
							c23.4,19.9,57.8,19.9,81.2,0c-0.6-6.6-6.2-11.7-12.8-11.7h-7.5l-10-3.3l0,0v-4.8c9.9-3.6,17.2-12,19.4-22.3h0.1
							c3.9,0,7.1-3.2,7.1-7.1v-1.6c0-3.7-2.9-6.8-6.6-7.1v-5c0-13.6-9-25.5-22.1-29.2l0,0l0,0c-0.6-0.2-1.3-0.3-2-0.5l-0.8-0.1
							c-1.8-0.3-3.5-0.5-5.3-0.5l0,0c-0.4,0-0.8,0-1.1,0c-16,0.6-28.8,13.6-29.2,29.6v0.3c0,0.1,0,0.2,0,0.4v5
							c-3.7,0.3-6.6,3.3-6.6,7.1v1.6c0,1,0.2,1.9,0.6,2.8c-6.5,4.5-8,13.5-3.5,19.9c2.7,3.8,7.1,6.1,11.7,6.1L113.3,168.7z"/>
					</g>
				</g>
			</g>
		</g>
		<g id="icon">
			<path class="st4" d="M103.2,110.3c-23.4,19.9-57.8,19.9-81.2,0c0.6-6.6,6.2-11.7,12.8-11.7h55.6
				C97.1,98.6,102.6,103.7,103.2,110.3z"/>
			<circle class="st5" cx="34.5" cy="75.6" r="14.3"/>
			<rect x="52.3" y="82" class="st6" width="20.6" height="20.6"/>
			<path class="st6" d="M32.8,52.4H34l0,0v15.8l0,0h-1.2c-3.9,0-7.1-3.2-7.1-7.1l0,0v-1.6C25.7,55.5,28.9,52.4,32.8,52.4L32.8,52.4z
				"/>
			<path class="st6" d="M92.4,68.2h-1.2l0,0V52.4l0,0h1.2c3.9,0,7.1,3.2,7.1,7.1v1.6C99.5,65,96.4,68.2,92.4,68.2z"/>
			<path class="st7" d="M92.9,47.4V62c-0.3,16.7-14.1,30.1-30.9,29.8C45.8,91.5,32.6,78.3,32.3,62V47.4c0-0.2,0-0.4,0-0.6
				c0.4-16.7,14.3-30,31-29.6c1.8,0,3.7,0.3,5.4,0.6c0.7,0.1,1.3,0.3,2,0.5C83.9,21.9,92.9,33.8,92.9,47.4L92.9,47.4z"/>
			<path class="st8" d="M51.7,57.1L51.7,57.1c1.3,0,2.3,1,2.3,2.3V62c0,1.3-1,2.3-2.3,2.3l0,0c-1.3,0-2.3-1-2.3-2.3v-2.6
				C49.4,58.1,50.4,57.1,51.7,57.1z"/>
			<path class="st8" d="M73.5,64.3L73.5,64.3c-1.3,0-2.3-1-2.3-2.3v-2.6c0-1.3,1-2.3,2.3-2.3l0,0c1.3,0,2.3,1,2.3,2.3V62
				C75.9,63.3,74.8,64.3,73.5,64.3z"/>
			<path class="st9" d="M62.6,72.4c-2.3,0.1-4.3-1.7-4.4-4c-0.1-2.3,1.7-4.3,4-4.4c0.1,0,0.3,0,0.4,0"/>
			<path class="st9" d="M70.6,78.3c0,2-3.6,3.6-8,3.6s-8-1.6-8-3.6"/>
			<polygon class="st10" points="62.6,102.6 52.3,95.3 42.3,98.6 54.6,112.9 			"/>
			<polygon class="st10" points="62.6,102.6 72.9,95.3 82.9,98.6 70.6,112.9 			"/>
			<path class="st5" d="M92.9,47.4V62c0,1.5-0.1,3.1-0.3,4.6L80,40.6H45.3L32.7,66.8c-0.3-1.6-0.4-3.2-0.4-4.8V47.4
				c0-0.2,0-0.4,0-0.6c0.4-16.7,14.3-30,31-29.6c1.8,0,3.7,0.2,5.5,0.6c0.7,0.1,1.3,0.3,2,0.5C83.9,21.9,92.9,33.8,92.9,47.4z"/>
			<polygon class="st5" points="80.9,49 44.3,49 42.4,35.5 82.8,35.5 			"/>
			<path class="st11" d="M48.9,54.7h5.6c2.1,0,3.8,1.7,3.8,3.8v5.1c0,2.1-1.7,3.8-3.8,3.8h-5.6c-2.1,0-3.8-1.7-3.8-3.8v-5.1
				C45.1,56.4,46.8,54.7,48.9,54.7z"/>
			<path class="st11" d="M70.7,54.7h5.6c2.1,0,3.8,1.7,3.8,3.8v5.1c0,2.1-1.7,3.8-3.8,3.8h-5.6c-2.1,0-3.8-1.7-3.8-3.8v-5.1
				C67,56.4,68.6,54.7,70.7,54.7z"/>
			<line class="st11" x1="58.3" y1="61" x2="67" y2="61"/>
		</g>
	</g>
</g>
</svg>
