<?xml version="1.0" encoding="utf-8"?>
<!-- Generator: Adobe Illustrator 23.0.0, SVG Export Plug-In . SVG Version: 6.00 Build 0)  -->
<svg version="1.1" id="레이어_1" xmlns="http://www.w3.org/2000/svg" xmlns:xlink="http://www.w3.org/1999/xlink" x="0px"
	 y="0px" viewBox="0 0 125.5 123.6" style="enable-background:new 0 0 125.5 123.6;" xml:space="preserve">
<style type="text/css">
	.st0{fill:#FFDDCA;}
	.st1{opacity:0.2;}
	.st2{clip-path:url(#SVGID_2_);}
	.st3{fill:#5D5D5D;}
	.st4{fill:#324A5E;}
	.st5{fill:#935635;}
	.st6{fill:#FFD0B8;}
	.st7{fill:none;stroke:#FFB392;stroke-width:2;stroke-linecap:round;stroke-miterlimit:10;}
	.st8{fill:#B5F1F4;}
</style>
<title>자산 1</title>
<g>
	<g>
		<g id="circle">
			<circle class="st0" cx="62.6" cy="62.6" r="62.6"/>
		</g>
		<g id="shadow">
			<g class="st1">
				<g>
					<defs>
						<circle id="SVGID_1_" cx="62.6" cy="62.6" r="62.6"/>
					</defs>
					<clipPath id="SVGID_2_">
						<use xlink:href="#SVGID_1_"  style="overflow:visible;"/>
					</clipPath>
					<g class="st2">
						<path class="st3" d="M100.4,71.1c1.8-3.2,2.1-7.2,0.7-10.6c0.3-0.8,0.4-1.6,0.4-2.4v-1.7c0-2.6-1.4-4.9-3.6-6.2l-3.6-13.2l0,0
							c-3.4-16.4-19.5-26.9-35.8-23.5c-0.7,0.1-1.3,0.3-2,0.5c-10.9,3-19.2,11.9-21.5,23l0,0l-3.6,13.2c-2.2,1.3-3.6,3.6-3.6,6.2
							v1.7c0,0.8,0.1,1.6,0.4,2.4c-1.4,3.5-1.1,7.4,0.7,10.6c-6.7,1.2-11.1,7.6-9.9,14.3c1.2,6.7,7.6,11.1,14.3,9.9
							c2.5-0.4,4.7-1.6,6.5-3.4c2.3,2.3,5.4,3.5,8.6,3.5c0.4,0,0.7,0,1.1,0l-4.8,3.1h-9.8c-6.6,0-12.2,5-12.8,11.6
							c23.4,19.9,57.8,19.9,81.2,0c-0.6-6.6-6.2-11.7-12.8-11.7h-5.9l-4.8-3.1c0.3,0,0.7,0,1.1,0c3.2,0,6.3-1.3,8.6-3.5
							c4.8,4.8,12.6,4.7,17.4-0.1c4.8-4.8,4.7-12.6-0.1-17.4C105.1,72.7,102.8,71.6,100.4,71.1L100.4,71.1z"/>
						<path class="st3" d="M101.1,71.8c1.8-3.2,2.1-7.2,0.7-10.6c0.3-0.8,0.4-1.6,0.4-2.4v-1.7c0-2.6-1.4-4.9-3.6-6.2L95,37.8l0,0
							c-3.4-16.4-19.5-26.9-35.8-23.5c-0.7,0.1-1.3,0.3-2,0.5c-5,1.4-9.6,4.1-13.3,7.7c-4.2,4.2-7,9.5-8.3,15.2l0,0L32,51
							c-2.2,1.3-3.6,3.6-3.6,6.2v1.7c0,0.8,0.1,1.6,0.4,2.4c-1.4,3.5-1.1,7.4,0.7,10.6c-6.7,1.2-11.1,7.7-9.9,14.3
							c1.2,6.7,7.7,11.1,14.3,9.9c2.4-0.4,4.7-1.6,6.4-3.3c2.3,2.3,5.4,3.5,8.6,3.5c0.4,0,0.7,0,1.1,0l-4.8,3.1h-9.8
							c-6.6,0-12.2,5-12.8,11.6c23.4,20,57.9,20,81.3,0c-0.6-6.6-6.2-11.7-12.9-11.7h-5.9l-4.8-3.1c0.3,0,0.7,0,1.1,0
							c3.2,0,6.3-1.3,8.6-3.5c4.8,4.8,12.6,4.8,17.4,0c4.8-4.8,4.8-12.6,0-17.4C105.9,73.5,103.6,72.3,101.1,71.8z"/>
						<path class="st3" d="M101.8,72.6c1.8-3.2,2.1-7.1,0.7-10.6c0.3-0.8,0.4-1.6,0.4-2.4v-1.7c0-2.6-1.4-4.9-3.6-6.2l-3.6-13.2l0,0
							C92.3,22.1,76.2,11.6,59.9,15c-0.7,0.1-1.3,0.3-2,0.5c-5,1.4-9.6,4.1-13.3,7.8c-4.2,4.2-7,9.5-8.3,15.2l0,0l-3.6,13.2
							c-2.2,1.3-3.6,3.6-3.6,6.2v1.6c0,0.8,0.1,1.7,0.4,2.5c-1.4,3.5-1.1,7.4,0.7,10.6c-6.7,1.2-11.2,7.6-10,14.3
							c1.2,6.7,7.6,11.2,14.3,10c2.5-0.4,4.8-1.6,6.5-3.4c2.3,2.3,5.4,3.6,8.6,3.6c0.4,0,0.7,0,1.1,0l-4.8,3h-9.8
							c-6.7,0-12.2,5.1-12.8,11.7c23.4,19.9,57.8,19.9,81.2,0c-0.6-6.6-6.2-11.7-12.8-11.7H86l-4.8-3.1c0.3,0,0.7,0,1.1,0
							c3.2,0,6.3-1.3,8.6-3.5c4.8,4.8,12.6,4.7,17.4-0.1c4.8-4.8,4.7-12.6-0.1-17.4C106.5,74.1,104.3,72.9,101.8,72.6L101.8,72.6z"
							/>
						<path class="st3" d="M102.5,73.3c1.8-3.2,2.1-7.2,0.7-10.6c0.3-0.8,0.4-1.6,0.4-2.4v-1.6c0-2.6-1.4-4.9-3.6-6.2l-3.6-13.2l0,0
							C93,22.8,76.9,12.3,60.6,15.7c-0.7,0.1-1.3,0.3-2,0.5c-5,1.4-9.6,4.1-13.3,7.8c-4.2,4.2-7,9.4-8.3,15.2l0,0l-3.6,13.2
							c-2.2,1.3-3.6,3.6-3.6,6.2v1.6c0,0.8,0.1,1.7,0.4,2.4c-1.4,3.5-1.1,7.4,0.7,10.6c-6.7,1.2-11.1,7.7-9.9,14.3
							c1.2,6.7,7.7,11.1,14.3,9.9c2.4-0.4,4.7-1.6,6.4-3.3c2.3,2.3,5.4,3.5,8.6,3.5c0.4,0,0.7,0,1.1,0l-4.8,3.1h-9.8
							c-6.6,0-12.2,5.1-12.8,11.7c23.4,19.9,57.8,19.9,81.2,0c-0.6-6.6-6.2-11.7-12.8-11.7h-5.9l-4.8-3.1c0.3,0,0.7,0,1.1,0
							c3.2,0,6.3-1.3,8.6-3.5c4.8,4.8,12.6,4.7,17.4-0.1c4.8-4.8,4.7-12.6-0.1-17.4C107.2,74.9,104.9,73.7,102.5,73.3z"/>
						<path class="st3" d="M103.2,74c1.8-3.2,2.1-7.2,0.7-10.6c0.3-0.8,0.4-1.6,0.4-2.4v-1.7c0-2.6-1.4-4.9-3.6-6.2l-3.6-13.2l0,0
							C93.7,23.5,77.6,13,61.3,16.4c-0.7,0.1-1.3,0.3-2,0.5c-5,1.4-9.6,4.1-13.3,7.8c-4.2,4.2-7,9.5-8.3,15.2l0,0l-3.6,13.2
							c-2.2,1.3-3.6,3.6-3.6,6.2v1.7c0,0.8,0.2,1.7,0.5,2.4c-1.4,3.5-1.2,7.4,0.6,10.6c-6.7,1.2-11.1,7.6-9.9,14.3
							s7.6,11.1,14.3,9.9c2.4-0.4,4.7-1.6,6.5-3.4c2.3,2.3,5.4,3.5,8.6,3.5c0.4,0,0.7,0,1.1,0l-4.8,3.1h-9.8
							c-6.6,0-12.2,5-12.8,11.7c23.4,19.9,57.8,19.9,81.2,0c-0.6-6.6-6.2-11.7-12.8-11.7h-5.9l-4.8-3.1c0.3,0,0.7,0,1.1,0
							c3.2,0,6.3-1.3,8.6-3.5c4.8,4.8,12.6,4.8,17.4-0.1s4.8-12.6-0.1-17.4C107.9,75.6,105.7,74.4,103.2,74z"/>
						<path class="st3" d="M103.9,74.7c1.8-3.2,2.1-7.2,0.7-10.6c0.3-0.8,0.4-1.6,0.4-2.4V60c0-2.6-1.4-4.9-3.6-6.2l-3.6-13.2l0,0
							C94.4,24.2,78.4,13.7,62,17.1c-0.7,0.1-1.3,0.3-2,0.5c-5,1.4-9.6,4.1-13.3,7.8c-4.2,4.2-7,9.5-8.2,15.2l0,0l-3.6,13.2
							c-2.2,1.3-3.6,3.6-3.6,6.2v1.7c0,0.8,0.1,1.7,0.4,2.4c-1.4,3.5-1.1,7.4,0.7,10.6c-6.7,1.2-11.1,7.7-9.9,14.3
							s7.7,11.1,14.3,9.9c2.4-0.4,4.7-1.6,6.4-3.3c2.3,2.3,5.4,3.5,8.6,3.5c0.4,0,0.7,0,1.1-0.1l-4.8,3.1h-9.8
							c-6.6,0-12.2,5-12.8,11.7c23.4,19.9,57.8,19.9,81.2,0c-0.6-6.6-6.2-11.7-12.8-11.7h-5.9l-4.8-3.1c0.3,0,0.7,0.1,1.1,0.1
							c3.2,0,6.3-1.3,8.6-3.5c4.8,4.8,12.6,4.7,17.4-0.1c4.8-4.8,4.7-12.6-0.1-17.4C108.6,76.3,106.4,75.1,103.9,74.7z"/>
						<path class="st3" d="M104.7,75.4c1.8-3.2,2.1-7.2,0.7-10.6c0.3-0.8,0.4-1.6,0.4-2.4v-1.7c0-2.6-1.4-4.9-3.6-6.2l-3.6-13.2l0,0
							c-3.4-16.4-19.5-26.9-35.8-23.5c-0.7,0.1-1.3,0.3-2,0.5c-5,1.4-9.6,4.1-13.3,7.8c-4.2,4.2-7,9.5-8.2,15.2l0,0l-3.6,13.2
							c-2.2,1.3-3.6,3.6-3.6,6.2v1.7c0,0.8,0.1,1.7,0.4,2.4c-1.4,3.5-1.1,7.4,0.7,10.6c-6.7,1.2-11.1,7.7-9.9,14.3
							s7.7,11.1,14.3,9.9c2.4-0.4,4.7-1.6,6.4-3.3c2.3,2.3,5.4,3.5,8.6,3.5c0.4,0,0.7,0,1.1,0l-4.8,3.1h-9.8
							c-6.6,0-12.2,5-12.8,11.7c23.4,19.9,57.8,19.9,81.2,0c-0.6-6.6-6.2-11.7-12.8-11.7h-5.9l-4.8-3.1c0.3,0,0.7,0,1.1,0
							c3.2,0,6.3-1.3,8.6-3.5c4.8,4.8,12.6,4.7,17.4-0.1c4.8-4.8,4.7-12.6-0.1-17.4C109.3,77,107.1,75.8,104.7,75.4z"/>
						<path class="st3" d="M105.4,76.1c1.8-3.2,2.1-7.2,0.7-10.6c0.3-0.8,0.4-1.6,0.4-2.4v-1.7c0-2.6-1.4-4.9-3.6-6.2L99.2,42l0,0
							c-3.4-16.4-19.5-26.9-35.8-23.5c-0.7,0.1-1.3,0.3-2,0.5c-5,1.4-9.6,4.1-13.3,7.8c-4.2,4.2-7,9.4-8.3,15.2l0,0l-3.6,13.3
							c-2.2,1.3-3.6,3.6-3.6,6.2v1.7c0,0.8,0.1,1.7,0.4,2.4c-1.4,3.5-1.1,7.4,0.7,10.6c-6.7,1.2-11.1,7.7-9.9,14.3
							s7.7,11.1,14.3,9.9c2.4-0.4,4.7-1.6,6.4-3.3c2.3,2.3,5.4,3.5,8.6,3.5c0.4,0,0.7,0,1.1-0.1l-4.8,3.1h-9.8
							c-6.6,0-12.2,5.1-12.8,11.7c23.4,19.9,57.8,19.9,81.2,0c-0.6-6.6-6.2-11.7-12.8-11.7h-5.9l-4.8-3.1c0.4,0,0.7,0.1,1.1,0.1
							c3.2,0,6.3-1.3,8.6-3.5c4.8,4.8,12.6,4.7,17.4-0.1s4.7-12.6-0.1-17.4C110,77.7,107.8,76.6,105.4,76.1z"/>
						<path class="st3" d="M106.1,76.8c1.8-3.2,2.1-7.2,0.7-10.6c0.3-0.8,0.4-1.6,0.4-2.4v-1.6c0-2.5-1.4-4.9-3.6-6.1L100,42.7l0,0
							c-3.4-16.4-19.5-26.9-35.9-23.5c0,0,0,0,0,0c-0.7,0.1-1.3,0.3-2,0.5c-5,1.4-9.6,4.1-13.3,7.8c-4.2,4.2-7,9.5-8.2,15.2l0,0
							L37,56c-2.2,1.3-3.6,3.6-3.6,6.2v1.7c0,0.8,0.1,1.7,0.4,2.4c-1.4,3.5-1.1,7.4,0.7,10.6c-6.7,1.2-11.2,7.6-10,14.3
							s7.6,11.2,14.3,10c2.5-0.4,4.8-1.6,6.6-3.4c2.3,2.3,5.4,3.5,8.6,3.5c0.4,0,0.7,0,1.1-0.1l-4.8,3.1h-9.8
							c-6.7,0-12.2,5.1-12.8,11.7c23.4,19.9,57.8,19.9,81.2,0c-0.6-6.6-6.2-11.7-12.8-11.7h-5.9l-4.8-3.1c0.4,0,0.7,0.1,1.1,0.1
							c3.2,0,6.3-1.3,8.6-3.5c4.8,4.8,12.6,4.7,17.4-0.1s4.7-12.6-0.1-17.4C110.7,78.5,108.5,77.3,106.1,76.8L106.1,76.8z"/>
						<path class="st3" d="M106.8,77.5c1.8-3.2,2.1-7.2,0.7-10.6c0.3-0.8,0.4-1.6,0.4-2.4v-1.6c0-2.6-1.4-4.9-3.6-6.2l-3.6-13.2l0,0
							C97.2,27.1,81.2,16.6,64.8,20c-0.7,0.1-1.3,0.3-2,0.5c-5,1.4-9.6,4.1-13.3,7.8c-4.2,4.2-7,9.4-8.3,15.2l0,0l-3.6,13.2
							c-2.2,1.3-3.6,3.6-3.6,6.2v1.7c0,0.8,0.2,1.7,0.4,2.4c-1.4,3.5-1.1,7.4,0.7,10.6c-6.7,1.2-11.1,7.7-9.9,14.3
							c1.2,6.7,7.7,11.1,14.3,9.9c2.4-0.4,4.7-1.6,6.4-3.3c2.3,2.3,5.4,3.6,8.6,3.6c0.4,0,0.7,0,1.1-0.1L51,105h-9.8
							c-6.6,0-12.2,5-12.8,11.7c23.4,19.9,57.8,19.9,81.2,0C109,110,103.5,105,96.8,105H91l-4.8-3.1c0.4,0,0.7,0.1,1.1,0.1
							c3.2,0,6.3-1.3,8.6-3.5c4.8,4.8,12.6,4.7,17.4-0.1s4.7-12.6-0.1-17.4C111.5,79.1,109.2,78,106.8,77.5L106.8,77.5z"/>
						<path class="st3" d="M107.5,78.2c1.8-3.2,2.1-7.2,0.7-10.6c0.3-0.8,0.4-1.6,0.4-2.4v-1.6c0-2.6-1.4-4.9-3.6-6.2l-3.6-13.2l0,0
							c-3.4-16.4-19.5-26.9-35.8-23.5c-0.7,0.1-1.3,0.3-2,0.5c-5,1.4-9.6,4.1-13.3,7.8c-4.2,4.2-7,9.5-8.3,15.2l0,0l-3.6,13.2
							c-2.2,1.3-3.6,3.6-3.6,6.2v1.6c0,0.8,0.2,1.7,0.4,2.4c-1.4,3.5-1.1,7.4,0.7,10.6c-6.7,1.2-11.1,7.7-9.9,14.3
							s7.7,11.1,14.3,9.9c2.4-0.4,4.7-1.6,6.4-3.3c2.3,2.3,5.4,3.5,8.6,3.5c0.4,0,0.7,0,1.1-0.1l-4.8,3.1h-9.8
							c-6.6,0-12.2,5-12.8,11.7c23.4,19.9,57.8,19.9,81.2,0c-0.6-6.6-6.2-11.7-12.8-11.7h-5.9l-4.8-3.1c0.4,0,0.7,0.1,1.1,0.1
							c3.2,0,6.3-1.3,8.6-3.5c4.8,4.8,12.6,4.7,17.4-0.1s4.7-12.6-0.1-17.4C112.1,79.9,109.9,78.7,107.5,78.2z"/>
						<path class="st3" d="M108.2,79c1.8-3.2,2.1-7.2,0.7-10.6c0.3-0.8,0.4-1.6,0.4-2.4v-1.7c0-2.6-1.4-4.9-3.6-6.2l-3.6-13.2l0,0
							C98.7,28.5,82.6,18,66.2,21.4c-0.7,0.1-1.3,0.3-2,0.5c-5,1.4-9.5,4.1-13.2,7.8c-4.2,4.2-7,9.5-8.2,15.2l0,0l-3.7,13.2
							c-2.2,1.3-3.6,3.6-3.6,6.2v1.7c0,0.8,0.2,1.7,0.4,2.4c-1.4,3.5-1.2,7.4,0.7,10.7c-6.7,1.2-11.2,7.6-10,14.3s7.6,11.2,14.3,10
							c2.5-0.4,4.8-1.6,6.5-3.4c2.3,2.3,5.4,3.5,8.6,3.5c0.4,0,0.7,0,1.1-0.1l-4.8,3.1h-9.8c-6.6,0-12.2,5-12.8,11.7
							c23.4,19.9,57.8,19.9,81.2,0c-0.6-6.6-6.2-11.7-12.8-11.7h-5.9l-4.8-3.1c0.4,0,0.7,0.1,1.1,0.1c3.2,0,6.3-1.3,8.6-3.5
							c4.8,4.8,12.6,4.8,17.4,0c4.8-4.8,4.8-12.6,0-17.4C112.9,80.6,110.7,79.4,108.2,79z"/>
						<path class="st3" d="M108.9,79.7c1.8-3.2,2.1-7.2,0.7-10.6c0.3-0.8,0.4-1.6,0.4-2.4V65c0-2.6-1.4-4.9-3.6-6.2l-3.6-13.2l0,0
							C99.4,29.3,83.4,18.7,67,22.1c-0.7,0.1-1.3,0.3-2,0.5c-5,1.4-9.6,4.1-13.3,7.8c-4.2,4.2-7,9.5-8.2,15.2l0,0l-3.7,13.2
							c-2.2,1.3-3.6,3.6-3.6,6.2v1.7c0,0.8,0.2,1.7,0.4,2.4c-1.4,3.5-1.1,7.4,0.7,10.6c-6.7,1.2-11.1,7.6-9.9,14.3
							c1.2,6.7,7.6,11.1,14.3,9.9c2.5-0.4,4.7-1.6,6.5-3.4c2.3,2.3,5.4,3.5,8.6,3.5c0.4,0,0.7,0,1.1-0.1l-4.8,3.1h-9.8
							c-6.6,0-12.2,5-12.8,11.7c23.4,19.9,57.8,19.9,81.2,0c-0.6-6.6-6.1-11.6-12.8-11.7h-5.9l-4.8-3.1c0.3,0,0.7,0.1,1.1,0.1
							c3.2,0,6.3-1.3,8.6-3.5c4.8,4.8,12.6,4.7,17.4-0.1s4.7-12.6-0.1-17.4C113.5,81.3,111.3,80.1,108.9,79.7L108.9,79.7z"/>
						<path class="st3" d="M109.6,80.4c1.8-3.2,2.1-7.2,0.7-10.6c0.3-0.8,0.4-1.6,0.4-2.4v-1.7c0-2.6-1.4-4.9-3.6-6.2l-3.6-13.2l0,0
							C100.1,29.9,84,19.4,67.7,22.8c-0.7,0.1-1.3,0.3-2,0.5c-5,1.4-9.6,4.1-13.3,7.8c-4.2,4.2-7,9.5-8.2,15.2l0,0l-3.6,13.2
							c-2.2,1.3-3.6,3.6-3.6,6.2v1.7c0,0.8,0.2,1.7,0.4,2.4c-1.4,3.5-1.2,7.4,0.7,10.6c-6.7,1.2-11.1,7.7-9.9,14.3
							s7.7,11.1,14.3,9.9c2.4-0.4,4.7-1.6,6.4-3.3c2.3,2.3,5.4,3.5,8.6,3.5c0.4,0,0.7,0,1.1-0.1l-4.8,3.1H44
							c-6.6,0-12.2,5.1-12.8,11.7c23.4,19.9,57.8,19.9,81.2,0c-0.6-6.6-6.2-11.7-12.8-11.7h-5.9l-4.8-3.1c0.3,0,0.7,0.1,1.1,0.1
							c3.2,0,6.3-1.3,8.6-3.5c4.8,4.8,12.6,4.7,17.4-0.1s4.7-12.6-0.1-17.4C114.2,82,112,80.8,109.6,80.4L109.6,80.4z"/>
						<path class="st3" d="M110.3,81.1c1.8-3.3,2.1-7.2,0.7-10.6c0.3-0.8,0.4-1.6,0.4-2.4v-1.7c0-2.6-1.4-4.9-3.6-6.2L104.2,47l0,0
							c-3.4-16.4-19.5-26.9-35.8-23.5c-0.7,0.1-1.3,0.3-2,0.5c-5,1.4-9.6,4.1-13.3,7.8c-4.2,4.2-7,9.5-8.3,15.2l0,0l-3.6,13.2
							c-2.2,1.3-3.6,3.6-3.6,6.2V68c0,0.8,0.2,1.7,0.4,2.4c-1.4,3.5-1.1,7.4,0.7,10.6c-6.7,1.3-11.1,7.7-9.8,14.4
							c1.3,6.7,7.7,11.1,14.4,9.8c2.4-0.5,4.5-1.6,6.2-3.2c2.3,2.3,5.4,3.5,8.6,3.5c0.4,0,0.7,0,1.1-0.1l-4.8,3.1h-9.8
							c-6.6,0-12.2,5-12.8,11.7c23.4,19.9,57.8,19.9,81.2,0c-0.6-6.6-6.2-11.7-12.8-11.7h-5.9l-4.8-3.1c0.3,0,0.7,0.1,1.1,0.1
							c3.2,0,6.3-1.3,8.6-3.5c4.8,4.8,12.6,4.7,17.4-0.1s4.7-12.6-0.1-17.4C115,82.7,112.7,81.6,110.3,81.1L110.3,81.1z"/>
						<path class="st3" d="M111,81.8c1.8-3.2,2.1-7.2,0.7-10.6c0.3-0.8,0.4-1.6,0.4-2.4v-1.7c0-2.6-1.4-4.9-3.6-6.2l-3.6-13.2l0,0
							c-3.4-16.3-19.4-26.8-35.8-23.5c-0.7,0.1-1.3,0.3-2,0.5c-5,1.4-9.6,4.1-13.3,7.8c-4.2,4.2-7,9.5-8.2,15.2l0,0l-3.6,13.2
							c-2.2,1.3-3.6,3.6-3.6,6.2v1.7c0,0.8,0.2,1.7,0.4,2.4c-1.4,3.5-1.1,7.4,0.7,10.6c-6.7,1.2-11.1,7.7-9.9,14.3
							s7.7,11.1,14.3,9.9c2.4-0.4,4.7-1.6,6.4-3.3c2.3,2.3,5.4,3.5,8.7,3.5c0.4,0,0.7,0,1.1-0.1l-4.8,3.1h-9.9
							c-6.6,0-12.2,5-12.8,11.7c23.4,19.9,57.8,19.9,81.2,0c-0.6-6.6-6.2-11.7-12.8-11.7h-5.9l-4.8-3.1c0.3,0,0.7,0.1,1.1,0.1
							c3.2,0,6.3-1.3,8.6-3.5c4.8,4.8,12.6,4.7,17.4-0.1c4.8-4.8,4.7-12.6-0.1-17.4C115.7,83.4,113.4,82.2,111,81.8z"/>
						<path class="st3" d="M111.8,82.5c1.8-3.2,2.1-7.2,0.7-10.6c0.3-0.8,0.4-1.6,0.4-2.4v-1.7c0-2.6-1.4-4.9-3.6-6.2l-3.6-13.2l0,0
							c-3.4-16.4-19.5-26.9-35.8-23.5c-0.7,0.1-1.3,0.3-2,0.5c-5,1.4-9.6,4.1-13.3,7.8c-4.2,4.2-7,9.5-8.2,15.2l0,0l-3.6,13.2
							c-2.2,1.2-3.6,3.6-3.6,6.2v1.7c0,0.8,0.2,1.6,0.4,2.4c-1.4,3.5-1.1,7.4,0.7,10.6c-6.7,1.2-11.1,7.6-9.9,14.3
							c1.2,6.7,7.6,11.1,14.3,9.9c2.4-0.4,4.7-1.6,6.4-3.3c2.3,2.3,5.4,3.5,8.6,3.5c0.4,0,0.7,0,1.1-0.1L56,110h-9.8
							c-6.6,0-12.2,5-12.8,11.7c23.4,19.9,57.8,19.9,81.2,0c-0.6-6.6-6.2-11.7-12.8-11.7h-5.9l-4.8-3.1c0.3,0,0.7,0.1,1.1,0.1
							c3.2,0,6.3-1.3,8.6-3.5c4.9,4.8,12.7,4.7,17.4-0.2s4.7-12.7-0.2-17.4C116.3,84.1,114.1,82.9,111.8,82.5z"/>
						<path class="st3" d="M112.5,83.2c1.8-3.2,2.1-7.2,0.7-10.6c0.3-0.8,0.4-1.6,0.4-2.4v-1.7c0-2.6-1.4-4.9-3.6-6.2l-3.6-13.2l0,0
							c-3.4-16.4-19.5-26.9-35.9-23.5c-0.7,0.1-1.3,0.3-2,0.5c-5,1.4-9.6,4.1-13.3,7.8c-4.2,4.2-7,9.5-8.2,15.2l0,0l-3.7,13.2
							c-2.2,1.3-3.6,3.6-3.6,6.2v1.7c0,0.8,0.2,1.6,0.4,2.4c-1.4,3.5-1.1,7.4,0.7,10.6c-6.7,1.2-11.1,7.7-9.9,14.3
							c1.2,6.7,7.7,11.1,14.3,9.9c2.4-0.4,4.7-1.6,6.4-3.3c2.3,2.3,5.4,3.5,8.6,3.5c0.4,0,0.7,0,1.1-0.1l-4.8,3.1h-9.8
							c-6.6,0-12.2,5-12.8,11.7c23.4,19.9,57.8,19.9,81.2,0c-0.6-6.6-6.2-11.7-12.8-11.7h-5.9l-4.8-3.1c0.3,0,0.7,0.1,1.1,0.1
							c3.2,0,6.3-1.3,8.6-3.5c4.8,4.8,12.6,4.7,17.4-0.1s4.7-12.6-0.1-17.4C117.1,84.8,114.9,83.7,112.5,83.2z"/>
						<path class="st3" d="M113.2,83.9c1.8-3.2,2.1-7.2,0.7-10.6c0.3-0.8,0.4-1.6,0.4-2.4v-1.6c0-2.6-1.4-4.9-3.6-6.2L107,49.8l0,0
							C103.6,33.5,87.6,23,71.2,26.4c-0.7,0.1-1.3,0.3-2,0.5c-5,1.4-9.6,4.1-13.3,7.7c-4.2,4.2-7,9.5-8.2,15.2l0,0l-3.6,13.2
							c-2.2,1.3-3.6,3.6-3.6,6.2v1.7c0,0.8,0.2,1.6,0.4,2.4c-1.4,3.5-1.1,7.4,0.7,10.6c-6.7,1.2-11.1,7.7-9.9,14.3
							c1.2,6.7,7.7,11.1,14.3,9.9c2.4-0.4,4.7-1.6,6.4-3.3c2.3,2.3,5.4,3.5,8.6,3.5c0.4,0,0.7,0,1.1-0.1l-4.8,3.1h-9.8
							c-6.6,0-12.2,5-12.8,11.7c23.4,19.9,57.8,19.9,81.2,0c-0.6-6.6-6.2-11.7-12.8-11.7h-5.9l-4.8-3.1c0.3,0,0.7,0.1,1.1,0.1
							c3.2,0,6.3-1.3,8.6-3.5c4.8,4.8,12.6,4.7,17.4-0.1s4.7-12.6-0.1-17.4C117.8,85.5,115.6,84.4,113.2,83.9z"/>
						<path class="st3" d="M113.9,84.6c1.8-3.3,2.1-7.2,0.7-10.6c0.3-0.8,0.4-1.6,0.4-2.4v-1.6c0-2.6-1.4-4.9-3.6-6.2l-3.6-13.2l0,0
							c-3.4-16.4-19.5-26.9-35.8-23.5c-0.7,0.1-1.3,0.3-2,0.5c-5,1.4-9.6,4.1-13.3,7.7c-4.2,4.2-7,9.5-8.2,15.2l0,0l-3.6,13.2
							c-2.2,1.3-3.6,3.6-3.6,6.2v1.7c0,0.8,0.2,1.6,0.4,2.4c-1.4,3.5-1.2,7.4,0.7,10.6c-6.7,1.2-11.1,7.7-9.9,14.3
							c1.2,6.7,7.7,11.1,14.3,9.9c2.4-0.4,4.7-1.6,6.4-3.3c2.3,2.3,5.4,3.5,8.6,3.5c0.4,0,0.7,0,1.1-0.1l-4.8,3.1h-9.8
							c-6.6,0-12.2,5-12.8,11.7c23.4,19.9,57.8,19.9,81.2,0c-0.6-6.6-6.2-11.7-12.8-11.7h-5.9l-4.8-3.1c0.3,0,0.7,0.1,1.1,0.1
							c3.2,0,6.3-1.3,8.6-3.5c4.8,4.8,12.6,4.7,17.4-0.1s4.7-12.6-0.1-17.4C118.5,86.2,116.3,85.1,113.9,84.6z"/>
						<path class="st3" d="M114.6,85.3c1.8-3.3,2.1-7.2,0.7-10.6c0.3-0.8,0.4-1.6,0.4-2.4v-1.6c0-2.6-1.4-4.9-3.6-6.2l-3.6-13.2l0,0
							C105,34.9,89,24.4,72.6,27.8c-0.7,0.1-1.3,0.3-2,0.5c-5,1.4-9.6,4.1-13.3,7.7c-4.2,4.2-7,9.5-8.2,15.2l0,0l-3.6,13.2
							c-2.2,1.3-3.6,3.6-3.6,6.2v1.7c0,0.8,0.2,1.6,0.4,2.4c-1.4,3.5-1.2,7.4,0.7,10.6c-6.7,1.2-11.1,7.7-9.9,14.3
							c1.2,6.7,7.7,11.1,14.3,9.9c2.4-0.4,4.7-1.6,6.4-3.3c2.3,2.3,5.4,3.5,8.6,3.5c0.4,0,0.7,0,1.1-0.1l-4.8,3.1H49
							c-6.6,0-12.2,5-12.8,11.7c23.4,19.9,57.8,19.9,81.2,0c-0.6-6.6-6.2-11.7-12.8-11.7h-5.9l-4.8-3.1c0.3,0,0.7,0.1,1.1,0.1
							c3.2,0,6.3-1.3,8.6-3.5c4.8,4.8,12.6,4.7,17.4-0.1s4.7-12.6-0.1-17.4C119.2,87,117,85.8,114.6,85.3z"/>
						<path class="st3" d="M115.3,86.1c1.8-3.2,2.1-7.2,0.7-10.6c0.3-0.8,0.4-1.6,0.4-2.4v-1.7c0-2.6-1.4-4.9-3.6-6.2L109.2,52l0,0
							c-3.4-16.4-19.4-26.9-35.8-23.5c-0.7,0.1-1.3,0.3-2,0.5c-5,1.4-9.6,4.1-13.3,7.8c-4.2,4.2-7.1,9.5-8.2,15.3l0,0l-3.6,13.2
							c-2.2,1.3-3.6,3.6-3.6,6.2V73c0,0.8,0.1,1.7,0.4,2.4c-1.4,3.5-1.2,7.4,0.7,10.6c-6.7,1.2-11.1,7.6-9.9,14.3
							c1.2,6.7,7.6,11.1,14.3,9.9c2.4-0.4,4.7-1.6,6.4-3.4c2.3,2.3,5.4,3.6,8.6,3.6c0.3,0,0.7,0,1.1-0.1l-4.8,3.1h-9.8
							c-6.6,0-12.2,5-12.8,11.7c23.4,19.9,57.8,19.9,81.2,0c-0.6-6.6-6.2-11.7-12.8-11.7h-5.9l-4.8-3.1c0.3,0,0.7,0.1,1.1,0.1
							c3.2,0,6.3-1.3,8.6-3.6c4.8,4.8,12.6,4.7,17.4-0.1c4.8-4.8,4.7-12.6-0.1-17.4C119.9,87.7,117.7,86.5,115.3,86.1z"/>
						<path class="st3" d="M116,86.8c1.8-3.2,2.1-7.2,0.7-10.6c0.3-0.8,0.4-1.6,0.4-2.4v-1.7c0-2.6-1.4-4.9-3.6-6.2l-3.6-13.2l0,0
							c-3.4-16.4-19.5-26.9-35.8-23.5c-0.7,0.1-1.3,0.3-2,0.5c-5,1.4-9.6,4.1-13.3,7.8c-4.2,4.2-7,9.5-8.2,15.2l0,0l-3.6,13.2
							c-2.2,1.3-3.6,3.6-3.6,6.2v1.7c0,0.8,0.2,1.6,0.4,2.4c-1.4,3.5-1.2,7.4,0.7,10.6c-6.7,1.2-11.1,7.6-9.9,14.3
							c1.2,6.7,7.6,11.1,14.3,9.9c2.4-0.4,4.7-1.6,6.4-3.4c2.3,2.3,5.4,3.6,8.6,3.6c0.4,0,0.7,0,1.1-0.1l-4.8,3.1h-9.8
							c-6.6,0-12.2,5-12.8,11.7c23.4,19.9,57.8,19.9,81.2,0c-0.6-6.6-6.2-11.7-12.8-11.7h-5.9l-4.8-3.1c0.3,0,0.7,0.1,1.1,0.1
							c3.2,0,6.3-1.3,8.6-3.6c4.9,4.8,12.6,4.7,17.4-0.2c4.8-4.9,4.7-12.6-0.2-17.4C120.6,88.4,118.4,87.2,116,86.8z"/>
						<path class="st3" d="M116.7,87.5c1.8-3.2,2.1-7.2,0.7-10.6c0.3-0.8,0.4-1.6,0.4-2.4v-1.7c0-2.6-1.4-4.9-3.6-6.2l-3.6-13.2l0,0
							C107.2,37,91.1,26.5,74.8,29.9c-0.7,0.1-1.3,0.3-2,0.5c-5,1.4-9.6,4.1-13.3,7.8c-4.2,4.2-7,9.5-8.2,15.2l0,0l-3.6,13.2
							c-2.2,1.3-3.6,3.6-3.6,6.2v1.7c0,0.8,0.2,1.6,0.4,2.4c-1.4,3.5-1.2,7.4,0.7,10.6c-6.7,1.2-11.1,7.6-9.9,14.3
							c1.2,6.7,7.6,11.1,14.3,9.9c2.4-0.4,4.7-1.6,6.5-3.4c2.3,2.3,5.4,3.6,8.6,3.6c0.3,0,0.7,0,1.1-0.1l-4.7,3.1h-9.9
							c-6.6,0-12.2,5-12.8,11.7c23.4,19.9,57.8,19.9,81.2,0c-0.6-6.6-6.2-11.7-12.8-11.7h-5.9l-4.8-3.1c0.3,0,0.7,0.1,1.1,0.1
							c3.2,0,6.3-1.3,8.6-3.6c4.8,4.8,12.6,4.7,17.4-0.1s4.7-12.6-0.1-17.4C121.3,89.1,119.1,87.9,116.7,87.5z"/>
						<path class="st3" d="M117.4,88.2c1.8-3.2,2.1-7.2,0.7-10.6c0.3-0.8,0.4-1.6,0.4-2.4v-1.7c0-2.6-1.4-4.9-3.6-6.2l-3.6-13.2l0,0
							c-3.4-16.4-19.5-26.9-35.8-23.5c-0.7,0.1-1.3,0.3-2,0.5c-5,1.4-9.6,4.1-13.3,7.7c-4.2,4.2-7,9.5-8.2,15.2l0,0l-3.7,13.2
							c-2.2,1.3-3.6,3.6-3.6,6.2v1.7c0,0.8,0.2,1.6,0.4,2.4c-1.4,3.5-1.2,7.4,0.7,10.6c-6.7,1.2-11.1,7.7-9.9,14.4
							s7.7,11.1,14.4,9.9c2.4-0.4,4.6-1.6,6.4-3.3c2.3,2.3,5.4,3.5,8.6,3.5c0.3,0,0.7,0,1.1,0l-4.8,3.1h-9.8
							c-6.6,0-12.2,5-12.8,11.6c23.4,19.9,57.8,19.9,81.2,0c-0.6-6.6-6.2-11.7-12.8-11.7h-5.8l-4.8-3.1c0.3,0,0.7,0,1.1,0
							c3.2,0,6.3-1.3,8.6-3.5c4.8,4.8,12.6,4.7,17.4-0.1c4.8-4.8,4.7-12.6-0.1-17.4C122.1,89.7,119.8,88.6,117.4,88.2L117.4,88.2z"
							/>
						<path class="st3" d="M118.1,88.9c1.8-3.2,2.1-7.2,0.7-10.6c0.3-0.8,0.4-1.6,0.4-2.4v-1.7c0-2.6-1.4-4.9-3.6-6.2L112,54.8l0,0
							c-3.4-16.4-19.4-26.9-35.8-23.5c-0.7,0.1-1.3,0.3-2,0.5c-5,1.4-9.6,4.1-13.3,7.8c-4.2,4.2-7,9.5-8.2,15.2l0,0L49,68
							c-2.2,1.3-3.6,3.6-3.6,6.2v1.7c0,0.8,0.2,1.6,0.4,2.4c-1.4,3.5-1.2,7.4,0.7,10.6c-6.7,1.2-11.1,7.7-9.8,14.4
							s7.7,11.1,14.4,9.8c2.4-0.4,4.6-1.6,6.4-3.3c2.3,2.3,5.4,3.5,8.6,3.5c0.3,0,0.7,0,1.1,0l-4.8,3.1h-9.8
							c-6.6,0-12.2,5-12.8,11.6c23.4,20,57.8,20,81.3,0c-0.6-6.6-6.2-11.7-12.8-11.7h-5.9l-4.8-3.1c0.3,0,0.7,0,1.1,0
							c3.2,0,6.3-1.3,8.6-3.5c4.8,4.8,12.6,4.7,17.4-0.1s4.7-12.6-0.1-17.4C122.8,90.4,120.6,89.3,118.1,88.9L118.1,88.9z"/>
						<path class="st3" d="M118.8,89.6c1.8-3.2,2.1-7.1,0.7-10.6c0.3-0.8,0.4-1.6,0.4-2.4v-1.7c0-2.6-1.4-4.9-3.6-6.2l-3.6-13.2l0,0
							C109.3,39.1,93.3,28.6,76.9,32c-0.7,0.1-1.3,0.3-2,0.5c-5,1.4-9.6,4.1-13.3,7.8c-4.2,4.2-7,9.5-8.2,15.2l0,0l-3.6,13.3
							c-2.2,1.3-3.6,3.6-3.6,6.2v1.7c0,0.8,0.1,1.7,0.4,2.4c-1.4,3.5-1.2,7.4,0.7,10.6c-6.7,1.2-11.1,7.7-9.8,14.4
							s7.7,11.1,14.4,9.8c2.4-0.4,4.6-1.6,6.4-3.3c2.3,2.3,5.4,3.5,8.6,3.5c0.4,0,0.7,0,1.1,0l-4.8,3.1h-9.8
							c-6.6,0-12.2,5-12.8,11.7c23.4,19.9,57.8,19.9,81.2,0c-0.6-6.6-6.2-11.7-12.8-11.7H103l-4.7-3.1c0.3,0,0.7,0,1.1,0
							c3.2,0,6.3-1.3,8.6-3.5c4.8,4.8,12.6,4.7,17.4-0.1c4.8-4.8,4.7-12.6-0.1-17.4C123.5,91.2,121.3,90,118.8,89.6z"/>
						<path class="st3" d="M119.6,90.3c1.8-3.3,2.1-7.2,0.7-10.6c0.3-0.8,0.4-1.6,0.4-2.4v-1.6c0-2.6-1.4-4.9-3.6-6.2l-3.6-13.2l0,0
							C110,39.9,94,29.3,77.6,32.7c-0.7,0.1-1.3,0.3-2,0.5c-5,1.4-9.6,4.1-13.3,7.8c-4.2,4.2-7,9.5-8.2,15.2l0,0l-3.6,13.2
							c-2.2,1.3-3.6,3.6-3.6,6.2v1.7c0,0.8,0.2,1.6,0.4,2.4c-0.6,1.5-0.9,3-0.9,4.6c0,2.1,0.5,4.2,1.6,6c-6.7,1.2-11.1,7.7-9.8,14.4
							s7.7,11.1,14.4,9.8c2.4-0.4,4.6-1.6,6.4-3.3c2.3,2.3,5.4,3.5,8.6,3.5c0.4,0,0.7,0,1.1,0l-4.8,3.1H54c-6.6,0-12.2,5-12.8,11.7
							c23.4,19.9,57.8,19.9,81.2,0c-0.6-6.6-6.2-11.7-12.8-11.7h-5.9l-4.8-3.1c0.3,0,0.7,0,1.1,0c3.2,0,6.3-1.3,8.6-3.5
							c4.8,4.8,12.6,4.7,17.4-0.1c4.8-4.8,4.7-12.6-0.1-17.4C124.2,91.9,122,90.7,119.6,90.3L119.6,90.3z"/>
						<path class="st3" d="M120.3,91c1.8-3.2,2.1-7.1,0.7-10.6c0.3-0.8,0.4-1.6,0.4-2.4v-1.7c0-2.6-1.4-4.9-3.6-6.2l-3.6-13.2l0,0
							C110.8,40.5,94.7,30,78.3,33.4c0,0,0,0,0,0c-0.7,0.1-1.3,0.3-2,0.5c-5,1.4-9.6,4.1-13.3,7.7c-4.2,4.2-7,9.5-8.2,15.2l0,0
							l-3.6,13.2c-2.2,1.3-3.6,3.6-3.6,6.2V78c0,0.8,0.2,1.6,0.5,2.4c-1.4,3.5-1.1,7.4,0.7,10.6c-6.7,1.3-11.1,7.7-9.8,14.4
							c1.3,6.7,7.7,11.1,14.4,9.8c2.4-0.5,4.6-1.6,6.3-3.3c2.3,2.3,5.4,3.5,8.6,3.5c0.4,0,0.7,0,1.1,0l-4.8,3.1h-9.8
							c-6.6,0-12.2,5-12.8,11.7c23.4,19.9,57.8,19.9,81.2,0c-0.6-6.6-6.2-11.7-12.8-11.7h-5.9l-4.8-3.1c0.3,0,0.7,0,1.1,0
							c3.2,0,6.3-1.3,8.6-3.5c4.9,4.8,12.7,4.7,17.4-0.2c4.8-4.9,4.7-12.7-0.2-17.4C124.9,92.6,122.6,91.4,120.3,91z"/>
						<path class="st3" d="M121,91.7c1.8-3.3,2.1-7.2,0.7-10.6c0.3-0.8,0.4-1.6,0.4-2.4V77c0-2.6-1.4-4.9-3.6-6.2l-3.6-13.2l0,0
							C111.4,41.2,95.4,30.7,79,34.2c-0.7,0.1-1.3,0.3-2,0.5c-5,1.4-9.6,4.1-13.3,7.8c-4.2,4.2-7,9.5-8.2,15.2l0,0l-3.6,13.2
							c-2.2,1.2-3.6,3.6-3.6,6.1v1.7c0,0.8,0.1,1.6,0.4,2.4c-1.4,3.5-1.1,7.4,0.7,10.6c-6.7,1.2-11.1,7.7-9.8,14.4
							s7.7,11.1,14.4,9.8c2.4-0.4,4.6-1.6,6.4-3.3c2.3,2.3,5.4,3.5,8.6,3.5c0.4,0,0.7,0,1.1-0.1l-4.8,3.1h-9.8
							c-6.6,0-12.2,5-12.8,11.7c23.4,19.9,57.8,19.9,81.2,0c-0.6-6.6-6.2-11.6-12.8-11.6h-5.9l-4.8-3.1c0.3,0,0.7,0.1,1.1,0.1
							c3.2,0,6.3-1.3,8.6-3.5c4.9,4.8,12.6,4.7,17.4-0.2c4.8-4.9,4.7-12.6-0.2-17.4C125.6,93.3,123.4,92.2,121,91.7z"/>
						<path class="st3" d="M121.7,92.4c1.8-3.3,2.1-7.2,0.7-10.6c0.3-0.8,0.4-1.6,0.4-2.4v-1.7c0-2.6-1.4-4.9-3.6-6.2l-3.6-13.2l0,0
							C112.1,42,96.1,31.5,79.7,34.9c-0.7,0.1-1.3,0.3-2,0.5c-5,1.4-9.6,4.1-13.3,7.8c-4.2,4.2-7,9.5-8.2,15.2l0,0l-3.6,13.2
							c-2.2,1.3-3.6,3.6-3.6,6.2v1.7c0,0.8,0.1,1.6,0.4,2.4c-1.4,3.5-1.1,7.4,0.7,10.6c-6.7,1.2-11.1,7.7-9.9,14.4
							s7.7,11.1,14.4,9.9c2.4-0.4,4.6-1.6,6.4-3.3c2.3,2.3,5.4,3.5,8.6,3.5c0.4,0,0.7,0,1.1,0l-4.8,3.1h-9.8
							c-6.6,0-12.2,5-12.8,11.7c23.4,19.9,57.8,19.9,81.2,0c-0.6-6.6-6.2-11.7-12.8-11.7h-5.9l-4.8-3.1c0.3,0,0.7,0,1.1,0
							c3.2,0,6.3-1.3,8.6-3.5c4.8,4.8,12.6,4.7,17.4-0.1c4.8-4.8,4.7-12.6-0.1-17.4C126.3,94,124.1,92.9,121.7,92.4z"/>
						<path class="st3" d="M122.4,93.2c1.8-3.3,2.1-7.2,0.7-10.6c0.3-0.8,0.4-1.6,0.4-2.4v-1.7c0-2.6-1.4-4.9-3.6-6.2l-3.6-13.2l0,0
							c-3.4-16.4-19.5-26.9-35.8-23.5c-0.7,0.1-1.3,0.3-2,0.5c-5,1.4-9.6,4.1-13.3,7.8c-4.2,4.2-7,9.5-8.2,15.2l0,0l-3.6,13.2
							c-2.2,1.3-3.6,3.6-3.6,6.2v1.7c0,0.8,0.1,1.6,0.4,2.4c-1.4,3.5-1.1,7.4,0.7,10.6c-6.7,1.2-11.1,7.6-9.9,14.3
							c1.2,6.7,7.6,11.1,14.3,9.9c2.4-0.4,4.7-1.6,6.4-3.4c2.3,2.3,5.4,3.5,8.6,3.5c0.4,0,0.7,0,1.1,0l-4.8,3.1h-9.8
							c-6.6,0-12.2,5-12.8,11.6c23.4,19.9,57.8,19.9,81.2,0c-0.6-6.6-6.2-11.7-12.8-11.7h-5.9l-4.8-3.1c0.3,0,0.7,0,1.1,0
							c3.2,0,6.3-1.3,8.6-3.5c4.8,4.8,12.6,4.7,17.4-0.1c4.8-4.8,4.7-12.6-0.1-17.4C127,94.7,124.8,93.5,122.4,93.2L122.4,93.2z"/>
						<path class="st3" d="M123.1,93.9c1.8-3.3,2.1-7.2,0.7-10.6c0.3-0.8,0.4-1.6,0.4-2.4v-1.7c0-2.6-1.4-4.9-3.6-6.2L117,59.8l0,0
							c-3.4-16.4-19.5-26.9-35.8-23.5c-0.7,0.1-1.3,0.3-2,0.5c-5,1.4-9.6,4.1-13.3,7.8c-4.2,4.2-7,9.5-8.2,15.2l0,0L54,73
							c-2.2,1.3-3.6,3.6-3.6,6.2v1.7c0,0.8,0.1,1.6,0.4,2.4c-1.4,3.5-1.1,7.4,0.7,10.6c-6.7,1.2-11.1,7.7-9.8,14.4
							s7.7,11.1,14.4,9.8c2.4-0.4,4.6-1.6,6.4-3.3c2.3,2.3,5.4,3.5,8.6,3.5c0.4,0,0.7,0,1.1,0l-4.8,3.1h-9.8
							c-6.6,0-12.2,5-12.8,11.6c23.4,20,57.9,20,81.3,0c-0.6-6.6-6.2-11.7-12.8-11.7h-5.9l-4.8-3.1c0.3,0,0.7,0,1.1,0
							c3.2,0,6.3-1.3,8.6-3.5c4.8,4.8,12.6,4.8,17.4,0c4.8-4.8,4.8-12.6,0-17.4C127.9,95.5,125.6,94.3,123.1,93.9z"/>
						<path class="st3" d="M123.8,94.6c1.8-3.2,2.1-7.1,0.7-10.6c0.3-0.8,0.4-1.6,0.4-2.4v-1.7c0-2.6-1.4-4.9-3.6-6.2l-3.6-13.2l0,0
							C114.3,44.1,98.2,33.6,81.9,37c-0.7,0.1-1.3,0.3-2,0.5c-5,1.4-9.6,4.1-13.3,7.8c-4.2,4.2-7,9.5-8.2,15.2l0,0l-3.6,13.2
							c-2.2,1.3-3.6,3.6-3.6,6.2v1.7c0,0.8,0.1,1.7,0.4,2.5c-1.4,3.5-1.1,7.4,0.7,10.6c-6.7,1.2-11.1,7.7-9.8,14.4
							s7.7,11.1,14.4,9.8c2.4-0.4,4.6-1.6,6.4-3.3c2.3,2.3,5.4,3.5,8.6,3.5c0.4,0,0.7,0,1.1,0l-4.8,3h-9.8
							c-6.7,0-12.2,5.1-12.8,11.7c23.4,19.9,57.8,19.9,81.2,0c-0.6-6.6-6.2-11.7-12.8-11.7H108l-4.8-3.1c0.3,0,0.7,0,1.1,0
							c3.2,0,6.3-1.3,8.6-3.5c4.8,4.8,12.6,4.7,17.4-0.1c4.8-4.8,4.7-12.6-0.1-17.4C128.5,96.1,126.2,94.9,123.8,94.6L123.8,94.6z"
							/>
						<path class="st3" d="M124.5,95.3c1.8-3.3,2.1-7.2,0.7-10.6c0.3-0.8,0.4-1.6,0.4-2.4v-1.7c0-2.6-1.4-4.9-3.7-6.2l-3.6-13.2l0,0
							C115,44.8,98.9,34.3,82.6,37.7c-0.7,0.1-1.3,0.3-2,0.5c-5,1.4-9.6,4.1-13.3,7.8c-4.2,4.2-7,9.5-8.2,15.2l0,0l-3.6,13.2
							c-2.2,1.3-3.6,3.6-3.6,6.2v1.7c0,0.8,0.1,1.6,0.4,2.4c-1.4,3.5-1.1,7.4,0.7,10.6c-6.7,1.2-11.1,7.7-9.8,14.4
							s7.7,11.1,14.4,9.8c2.4-0.4,4.6-1.6,6.4-3.3c2.3,2.3,5.4,3.5,8.6,3.5c0.4,0,0.7,0,1.1,0l-4.8,3.1h-9.8
							c-6.6,0-12.2,5-12.8,11.7c23.4,19.9,57.8,19.9,81.2,0c-0.6-6.6-6.2-11.7-12.8-11.7h-5.9l-4.8-3.1c0.3,0,0.7,0,1.1,0
							c3.2,0,6.3-1.3,8.6-3.5c4.8,4.8,12.6,4.7,17.4-0.1c4.8-4.8,4.7-12.6-0.1-17.4C129.2,96.9,126.9,95.7,124.5,95.3z"/>
						<path class="st3" d="M125.2,96c1.8-3.3,2.1-7.2,0.7-10.6c0.3-0.8,0.4-1.6,0.4-2.4v-1.7c0-2.6-1.4-4.9-3.6-6.2l-3.6-13.2l0,0
							C115.7,45.5,99.7,35,83.3,38.4c-0.7,0.1-1.3,0.3-2,0.5c-5,1.4-9.6,4.1-13.3,7.8c-4.2,4.2-7,9.5-8.2,15.2l0,0l-3.6,13.2
							c-2.2,1.3-3.6,3.6-3.6,6.2V83c0,0.8,0.2,1.6,0.5,2.4c-1.4,3.5-1.2,7.4,0.6,10.6c-6.7,1.2-11.1,7.7-9.8,14.4s7.7,11.1,14.4,9.8
							c2.4-0.4,4.6-1.6,6.4-3.3c2.3,2.3,5.4,3.5,8.6,3.5c0.4,0,0.7,0,1.1,0l-4.8,3.1h-9.8c-6.6,0-12.2,5-12.8,11.7
							c23.4,19.9,57.8,19.9,81.2,0c-0.6-6.6-6.2-11.7-12.8-11.7h-5.9l-4.8-3.1c0.3,0,0.7,0,1.1,0c3.2,0,6.3-1.3,8.6-3.5
							c4.8,4.8,12.6,4.7,17.4-0.1c4.8-4.8,4.7-12.6-0.1-17.4C129.9,97.6,127.6,96.4,125.2,96z"/>
						<path class="st3" d="M125.9,96.7c1.8-3.3,2.1-7.2,0.7-10.6c0.3-0.8,0.4-1.6,0.4-2.4V82c0-2.6-1.4-4.9-3.6-6.2l-3.6-13.2l0,0
							c-3.4-16.4-19.5-26.9-35.8-23.5c-0.7,0.1-1.3,0.3-2,0.5c-5,1.4-9.6,4.1-13.3,7.8c-4.2,4.2-7,9.5-8.2,15.2l0,0l-3.6,13.2
							c-2.2,1.2-3.6,3.6-3.6,6.2v1.7c0,0.8,0.1,1.6,0.4,2.4c-1.4,3.5-1.1,7.4,0.7,10.6c-6.7,1.2-11.1,7.7-9.8,14.4
							s7.7,11.1,14.4,9.8c2.4-0.4,4.6-1.6,6.4-3.3c2.3,2.3,5.4,3.5,8.6,3.5c0.4,0,0.7,0,1.1-0.1l-4.8,3.1h-9.8
							c-6.6,0-12.2,5-12.8,11.7c23.4,19.9,57.8,19.9,81.2,0c-0.6-6.6-6.2-11.6-12.8-11.6h-5.9l-4.8-3.1c0.3,0,0.7,0.1,1.1,0.1
							c3.2,0,6.3-1.3,8.6-3.5c4.8,4.8,12.6,4.7,17.4-0.1c4.8-4.8,4.7-12.6-0.1-17.4C130.6,98.3,128.4,97.1,125.9,96.7z"/>
						<path class="st3" d="M126.7,97.4c1.8-3.3,2.1-7.2,0.7-10.6c0.3-0.8,0.4-1.6,0.4-2.4v-1.7c0-2.6-1.4-4.9-3.6-6.2l-3.6-13.2l0,0
							c-3.4-16.4-19.5-26.9-35.8-23.5c-0.7,0.1-1.3,0.3-2,0.5c-5,1.4-9.6,4.1-13.3,7.8c-4.2,4.2-7,9.5-8.2,15.2l0,0l-3.6,13.2
							c-2.2,1.3-3.6,3.6-3.6,6.2v1.7c0,0.8,0.1,1.6,0.4,2.4c-1.4,3.5-1.1,7.4,0.7,10.6c-6.7,1.3-11,7.7-9.8,14.4
							c1.3,6.7,7.7,11,14.4,9.8c2.4-0.5,4.6-1.6,6.3-3.3c2.3,2.3,5.4,3.5,8.6,3.5c0.4,0,0.7,0,1.1,0l-4.8,3.1h-9.9
							c-6.6,0-12.2,5-12.8,11.7c23.4,19.9,57.8,19.9,81.2,0c-0.6-6.6-6.2-11.7-12.8-11.7h-5.9l-4.8-3.1c0.3,0,0.7,0,1.1,0
							c3.2,0,6.3-1.3,8.6-3.5c4.8,4.8,12.6,4.7,17.4-0.1c4.8-4.8,4.7-12.6-0.1-17.4C131.3,99,129.1,97.9,126.7,97.4z"/>
						<path class="st3" d="M127.4,98.1c1.8-3.3,2.1-7.2,0.7-10.6c0.3-0.8,0.4-1.6,0.4-2.4v-1.7c0-2.6-1.4-4.9-3.6-6.2L121.2,64l0,0
							c-3.4-16.4-19.5-26.9-35.8-23.5c-0.7,0.1-1.3,0.3-2,0.5c-5,1.4-9.6,4.1-13.3,7.8c-4.2,4.2-7,9.4-8.3,15.2l0,0l-3.6,13.3
							c-2.2,1.3-3.6,3.6-3.6,6.2v1.7c0,0.8,0.1,1.6,0.4,2.4c-1.4,3.5-1.1,7.4,0.7,10.6c-6.7,1.2-11.1,7.7-9.8,14.4
							c1.2,6.7,7.7,11.1,14.4,9.8c2.4-0.4,4.6-1.6,6.4-3.3c2.3,2.3,5.4,3.5,8.6,3.5c0.4,0,0.7,0,1.1-0.1l-4.8,3.1h-9.8
							c-6.6,0-12.2,5.1-12.8,11.7c23.4,19.9,57.8,19.9,81.2,0c-0.6-6.6-6.2-11.7-12.8-11.7h-5.9l-4.8-3.1c0.3,0,0.7,0.1,1.1,0.1
							c3.2,0,6.3-1.3,8.6-3.5c4.8,4.8,12.6,4.7,17.4-0.1c4.8-4.8,4.7-12.6-0.1-17.4C132,99.7,129.8,98.6,127.4,98.1L127.4,98.1z"/>
						<path class="st3" d="M128.1,98.8c1.8-3.3,2.1-7.2,0.7-10.6c0.3-0.8,0.4-1.6,0.4-2.4v-1.7c0-2.5-1.4-4.9-3.6-6.1L122,64.7l0,0
							c-3.4-16.4-19.5-26.9-35.9-23.5c0,0,0,0,0,0c-0.7,0.1-1.3,0.3-2,0.5c-5,1.4-9.6,4.1-13.3,7.8c-4.2,4.2-7,9.5-8.3,15.2l0,0
							L59,78c-2.2,1.3-3.6,3.6-3.6,6.2v1.7c0,0.8,0.1,1.6,0.4,2.4c-1.4,3.5-1.1,7.4,0.7,10.6c-6.7,1.2-11.1,7.7-9.9,14.4
							s7.7,11.1,14.4,9.9c2.4-0.4,4.6-1.6,6.4-3.3c2.3,2.3,5.4,3.5,8.6,3.5c0.4,0,0.7,0,1.1,0l-4.8,3.1h-9.8
							c-6.6,0-12.2,5-12.8,11.7c23.4,19.9,57.8,19.9,81.2,0c-0.6-6.6-6.2-11.7-12.8-11.7h-5.9l-4.8-3.1c0.3,0,0.7,0,1.1,0
							c3.2,0,6.3-1.3,8.6-3.5c4.8,4.8,12.6,4.7,17.4-0.1c4.8-4.8,4.7-12.6-0.1-17.4C132.7,100.4,130.5,99.3,128.1,98.8L128.1,98.8z"
							/>
						<path class="st3" d="M128.8,99.5c1.8-3.3,2.1-7.2,0.7-10.6c0.3-0.8,0.4-1.6,0.4-2.4v-1.7c0-2.6-1.4-4.9-3.6-6.2l-3.6-13.2l0,0
							c-3.4-16.4-19.5-26.9-35.8-23.4c-0.7,0.1-1.3,0.3-2,0.5c-5,1.4-9.6,4.1-13.3,7.8c-4.2,4.2-7,9.4-8.3,15.2l0,0l-3.6,13.2
							c-2.2,1.3-3.6,3.6-3.6,6.2v1.7c0,0.8,0.1,1.6,0.4,2.4c-1.4,3.5-1.1,7.4,0.7,10.6c-6.7,1.2-11.1,7.7-9.9,14.4
							s7.7,11.1,14.4,9.9c2.4-0.4,4.6-1.6,6.4-3.3c2.3,2.3,5.4,3.6,8.6,3.6c0.4,0,0.7,0,1.1,0l-4.8,3h-9.8c-6.6,0-12.2,5-12.8,11.7
							c23.4,19.9,57.8,19.9,81.2,0c-0.6-6.6-6.2-11.7-12.8-11.7H113l-4.8-3.1c0.3,0,0.7,0,1.1,0c3.2,0,6.3-1.3,8.6-3.5
							c4.8,4.8,12.6,4.7,17.4-0.1c4.8-4.8,4.7-12.6-0.1-17.4C133.5,101.1,131.2,99.9,128.8,99.5L128.8,99.5z"/>
						<path class="st3" d="M129.5,100.2c1.8-3.2,2.1-7.2,0.7-10.6c0.3-0.8,0.4-1.6,0.4-2.4v-1.7c0-2.6-1.4-4.9-3.6-6.2l-3.6-13.2
							l0,0c-3.4-16.4-19.5-26.9-35.8-23.5c-0.7,0.1-1.3,0.3-2,0.5c-5,1.4-9.6,4.1-13.3,7.8c-4.2,4.2-7.1,9.5-8.3,15.2l0,0l-3.6,13.2
							c-2.2,1.3-3.6,3.6-3.6,6.2v1.7c0,0.8,0.1,1.6,0.4,2.4c-1.4,3.5-1.1,7.4,0.7,10.6c-6.7,1.2-11.1,7.7-9.9,14.3
							c1.2,6.7,7.7,11.1,14.3,9.9c2.4-0.4,4.7-1.6,6.4-3.3c2.3,2.3,5.4,3.5,8.6,3.5c0.4,0,0.7,0,1.1,0l-4.8,3.1h-9.8
							c-6.6,0-12.2,5-12.8,11.6c23.4,19.9,57.8,19.9,81.2,0c-0.6-6.6-6.2-11.7-12.8-11.7h-5.9l-4.8-3.1c0.3,0,0.7,0,1.1,0
							c3.2,0,6.3-1.3,8.6-3.5c4.8,4.8,12.6,4.7,17.4-0.1c4.8-4.8,4.7-12.6-0.1-17.4C134.2,101.8,131.9,100.6,129.5,100.2
							L129.5,100.2z"/>
						<path class="st3" d="M130.2,101c1.8-3.2,2.1-7.2,0.7-10.6c0.3-0.8,0.4-1.6,0.4-2.4v-1.7c0-2.6-1.4-4.9-3.6-6.2l-3.6-13.2l0,0
							c-3.4-16.4-19.5-26.9-35.8-23.5c-0.7,0.1-1.3,0.3-2,0.5c-5,1.4-9.6,4.1-13.3,7.8c-4.2,4.2-7,9.5-8.3,15.2l0,0l-3.7,13.2
							c-2.2,1.3-3.6,3.6-3.6,6.2v1.7c0,0.8,0.1,1.6,0.4,2.4c-1.4,3.5-1.2,7.4,0.7,10.7c-6.7,1.2-11.1,7.7-9.9,14.3
							c1.2,6.7,7.7,11.1,14.3,9.9c2.4-0.4,4.7-1.6,6.4-3.3c2.3,2.3,5.4,3.5,8.6,3.5c0.4,0,0.7,0,1.1,0l-4.8,3.1h-9.8
							c-6.6,0-12.2,5-12.8,11.7c23.4,19.9,57.8,19.9,81.2,0c-0.6-6.6-6.2-11.7-12.8-11.7h-5.9l-4.8-3.1c0.3,0,0.7,0,1.1,0
							c3.2,0,6.3-1.3,8.6-3.5c4.8,4.8,12.6,4.7,17.4-0.1c4.8-4.8,4.7-12.6-0.1-17.4C134.9,102.6,132.6,101.4,130.2,101z"/>
						<path class="st3" d="M130.9,101.7c1.8-3.2,2.1-7.2,0.7-10.6c0.3-0.8,0.4-1.6,0.4-2.4V87c0-2.6-1.4-4.9-3.6-6.2l-3.6-13.2l0,0
							c-3.4-16.4-19.4-26.9-35.8-23.5c-0.7,0.1-1.3,0.3-2,0.5c-5,1.4-9.6,4.1-13.3,7.8c-4.2,4.2-7,9.5-8.3,15.2l0,0l-3.7,13.2
							c-2.2,1.3-3.6,3.6-3.6,6.2v1.7c0,0.8,0.1,1.6,0.4,2.4c-1.4,3.5-1.1,7.4,0.7,10.6c-6.7,1.2-11.1,7.6-9.9,14.3
							c1.2,6.7,7.6,11.1,14.3,9.9c2.4-0.4,4.7-1.6,6.5-3.4c2.3,2.3,5.4,3.5,8.6,3.5c0.4,0,0.7,0,1.1,0l-4.8,3.1h-9.8
							c-6.6,0-12.2,5-12.8,11.6c23.4,19.9,57.8,19.9,81.2,0c-0.6-6.6-6.1-11.6-12.8-11.7h-5.9l-4.8-3.1c0.3,0,0.7,0,1.1,0
							c3.2,0,6.3-1.3,8.6-3.5c4.8,4.8,12.6,4.7,17.4-0.1c4.8-4.8,4.7-12.6-0.1-17.4C135.6,103.2,133.4,102.1,130.9,101.7
							L130.9,101.7z"/>
						<path class="st3" d="M131.6,102.4c1.8-3.2,2.1-7.2,0.7-10.6c0.3-0.8,0.4-1.6,0.4-2.4v-1.7c0-2.6-1.4-4.9-3.6-6.2l-3.6-13.2
							l0,0c-3.4-16.4-19.5-26.9-35.8-23.5c-0.7,0.1-1.3,0.3-2,0.5c-5,1.4-9.6,4.1-13.3,7.8c-4.2,4.2-7,9.5-8.3,15.2l0,0l-3.6,13.2
							c-2.2,1.3-3.6,3.6-3.6,6.2v1.7c0,0.8,0.1,1.6,0.4,2.4c-1.4,3.5-1.2,7.4,0.7,10.6c-6.7,1.2-11.1,7.7-9.9,14.3
							c1.2,6.7,7.7,11.1,14.3,9.9c2.4-0.4,4.7-1.6,6.4-3.3c2.3,2.3,5.4,3.5,8.6,3.5c0.4,0,0.7,0,1.1,0l-4.8,3.1H66
							c-6.6,0-12.2,5-12.8,11.7c23.4,19.9,57.8,19.9,81.2,0c-0.6-6.6-6.2-11.7-12.8-11.7h-5.9l-4.8-3.1c0.3,0,0.7,0,1.1,0
							c3.2,0,6.3-1.3,8.6-3.5c4.8,4.8,12.6,4.7,17.4-0.1c4.8-4.8,4.7-12.6-0.1-17.4C136.2,104,134,102.8,131.6,102.4L131.6,102.4z"
							/>
						<path class="st3" d="M132.3,103.1c1.8-3.3,2.1-7.2,0.7-10.6c0.3-0.8,0.4-1.6,0.4-2.4v-1.7c0-2.6-1.4-4.9-3.6-6.2L126.2,69l0,0
							c-3.4-16.4-19.5-26.9-35.8-23.5c-0.7,0.1-1.3,0.3-2,0.5c-5,1.4-9.6,4.1-13.3,7.7c-4.2,4.2-7,9.5-8.3,15.2l0,0l-3.6,13.2
							c-2.2,1.3-3.6,3.6-3.6,6.2v1.7c0,0.8,0.1,1.6,0.4,2.4c-1.4,3.5-1.1,7.4,0.7,10.6c-6.7,1.3-11.1,7.7-9.8,14.4
							c1.3,6.7,7.7,11.1,14.4,9.8c2.4-0.4,4.6-1.6,6.3-3.3c2.3,2.3,5.4,3.5,8.6,3.5c0.4,0,0.7,0,1.1-0.1l-4.8,3.1h-9.8
							c-6.6,0-12.2,5-12.8,11.7c23.4,19.9,57.8,19.9,81.2,0c-0.6-6.6-6.2-11.7-12.8-11.7h-5.9l-4.8-3.1c0.3,0,0.7,0.1,1.1,0.1
							c3.2,0,6.3-1.3,8.6-3.5c4.8,4.8,12.6,4.7,17.4-0.1c4.8-4.8,4.7-12.6-0.1-17.4C137,104.7,134.8,103.6,132.3,103.1L132.3,103.1z
							"/>
						<path class="st3" d="M133,103.8c1.8-3.2,2.1-7.2,0.7-10.6c0.3-0.8,0.4-1.6,0.4-2.4v-1.7c0-2.6-1.4-4.9-3.6-6.2l-3.6-13.2l0,0
							c-3.4-16.4-19.4-26.9-35.8-23.5c-0.7,0.1-1.3,0.3-2,0.5c-5,1.4-9.6,4.1-13.3,7.8c-4.2,4.2-7,9.5-8.3,15.2l0,0l-3.6,13.2
							c-2.2,1.3-3.6,3.6-3.6,6.2v1.7c0,0.8,0.1,1.6,0.4,2.4c-1.4,3.5-1.1,7.4,0.7,10.6c-6.7,1.2-11.1,7.7-9.9,14.3
							c1.2,6.7,7.7,11.1,14.3,9.9c2.4-0.4,4.7-1.6,6.4-3.3c2.3,2.3,5.4,3.6,8.7,3.5c0.4,0,0.7,0,1.1-0.1l-4.8,3.1h-9.8
							c-6.6,0-12.2,5-12.8,11.7c23.4,19.9,57.8,19.9,81.2,0c-0.6-6.6-6.2-11.7-12.8-11.7h-5.9l-4.8-3.1c0.3,0,0.7,0.1,1.1,0.1
							c3.2,0,6.3-1.3,8.6-3.5c4.8,4.8,12.6,4.7,17.4-0.1c4.8-4.8,4.7-12.6-0.1-17.4C137.7,105.4,135.4,104.2,133,103.8z"/>
						<path class="st3" d="M133.8,104.5c1.8-3.2,2.1-7.2,0.7-10.6c0.3-0.8,0.4-1.6,0.4-2.4v-1.7c0-2.6-1.4-4.9-3.6-6.2l-3.6-13.2
							l0,0c-3.4-16.4-19.5-26.9-35.8-23.5c-0.7,0.1-1.3,0.3-2,0.5c-5,1.4-9.6,4.1-13.3,7.8c-4.2,4.2-7,9.5-8.3,15.2l0,0l-3.6,13.2
							c-2.2,1.2-3.6,3.6-3.7,6.2v1.7c0,0.8,0.1,1.6,0.4,2.4c-1.4,3.5-1.1,7.4,0.7,10.6c-6.7,1.2-11.1,7.7-9.9,14.3
							c1.2,6.7,7.7,11.1,14.3,9.9c2.4-0.4,4.7-1.6,6.4-3.3c2.3,2.3,5.4,3.5,8.6,3.5c0.4,0,0.7,0,1.1-0.1L78,132h-9.8
							c-6.6,0-12.2,5-12.8,11.7c23.4,19.9,57.8,19.9,81.2,0c-0.6-6.6-6.2-11.7-12.8-11.7h-5.9l-4.8-3.1c0.3,0,0.7,0.1,1.1,0.1
							c3.2,0,6.3-1.3,8.6-3.5c4.8,4.8,12.6,4.7,17.4-0.1c4.8-4.8,4.7-12.6-0.1-17.4C138.4,106.1,136.2,105,133.8,104.5L133.8,104.5z
							"/>
						<path class="st3" d="M134.5,105.2c1.8-3.2,2.1-7.2,0.7-10.6c0.3-0.8,0.4-1.6,0.4-2.4v-1.6c0-2.6-1.4-4.9-3.6-6.2l-3.6-13.2
							l0,0c-3.4-16.4-19.5-26.9-35.9-23.5c-0.7,0.1-1.3,0.3-2,0.5c-5,1.4-9.6,4.1-13.3,7.8c-4.2,4.2-7,9.5-8.2,15.2l0,0l-3.6,13.2
							c-2.2,1.3-3.6,3.6-3.6,6.2v1.6c0,0.8,0.1,1.7,0.4,2.4c-1.4,3.5-1.1,7.4,0.7,10.6c-6.7,1.2-11.1,7.7-9.9,14.3
							c1.2,6.7,7.7,11.1,14.3,9.9c2.4-0.4,4.7-1.6,6.4-3.3c2.3,2.3,5.4,3.5,8.6,3.5c0.4,0,0.7,0,1.1,0l-4.8,3.1h-9.8
							c-6.6,0-12.2,5-12.8,11.7c23.4,19.9,57.8,19.9,81.2,0c-0.6-6.6-6.2-11.7-12.8-11.7h-5.9l-4.8-3.1c0.3,0,0.7,0,1.1,0
							c3.2,0,6.3-1.3,8.6-3.5c4.8,4.8,12.6,4.7,17.4-0.1c4.8-4.8,4.7-12.6-0.1-17.4C139.1,106.8,136.9,105.7,134.5,105.2
							L134.5,105.2z"/>
						<path class="st3" d="M135.2,105.9c1.8-3.2,2.1-7.2,0.7-10.6c0.3-0.8,0.4-1.6,0.4-2.4v-1.6c0-2.6-1.4-4.9-3.6-6.2L129,71.8l0,0
							c-3.4-16.4-19.5-26.9-35.8-23.5c-0.7,0.1-1.3,0.3-2,0.5c-5,1.4-9.6,4.1-13.3,7.7c-4.2,4.2-7,9.5-8.2,15.2l0,0l-3.6,13.2
							c-2.2,1.3-3.6,3.6-3.6,6.2v1.6c0,0.8,0.1,1.7,0.4,2.4c-1.4,3.5-1.1,7.4,0.7,10.6c-6.7,1.2-11.1,7.7-9.9,14.3
							c1.2,6.7,7.7,11.1,14.3,9.9c2.4-0.4,4.7-1.6,6.4-3.3c2.3,2.3,5.4,3.5,8.6,3.5c0.4,0,0.7,0,1.1,0l-4.8,3.1h-9.8
							c-6.6,0-12.2,5-12.8,11.7c23.4,19.9,57.8,19.9,81.2,0c-0.6-6.6-6.2-11.7-12.8-11.7h-5.9l-4.8-3.1c0.3,0,0.7,0,1.1,0
							c3.2,0,6.3-1.3,8.6-3.5c4.8,4.8,12.6,4.7,17.4-0.1c4.8-4.8,4.7-12.6-0.1-17.4C139.8,107.5,137.6,106.4,135.2,105.9
							L135.2,105.9z"/>
						<path class="st3" d="M135.9,106.6c1.8-3.3,2.1-7.2,0.7-10.6c0.3-0.8,0.4-1.6,0.4-2.4v-1.6c0-2.6-1.4-4.9-3.6-6.2l-3.6-13.2
							l0,0c-3.4-16.4-19.5-26.9-35.8-23.5c-0.7,0.1-1.3,0.3-2,0.5c-5,1.4-9.6,4.1-13.3,7.8c-4.2,4.2-7,9.5-8.2,15.2l0,0l-3.6,13.2
							c-2.2,1.3-3.6,3.6-3.6,6.2v1.7c0,0.8,0.1,1.6,0.4,2.4c-1.4,3.5-1.1,7.4,0.7,10.6c-6.7,1.2-11.1,7.7-9.9,14.3
							c1.2,6.7,7.7,11.1,14.3,9.9c2.4-0.4,4.7-1.6,6.4-3.3c2.3,2.3,5.4,3.5,8.6,3.5c0.4,0,0.7,0,1.1-0.1l-4.8,3.1h-9.8
							c-6.6,0-12.2,5-12.8,11.7c23.4,19.9,57.8,19.9,81.2,0c-0.6-6.6-6.2-11.7-12.8-11.7H120l-4.7-3.1c0.3,0,0.7,0.1,1.1,0.1
							c3.2,0,6.3-1.3,8.6-3.5c4.8,4.8,12.6,4.7,17.4-0.1c4.8-4.8,4.7-12.6-0.1-17.4C140.5,108.2,138.3,107.1,135.9,106.6
							L135.9,106.6z"/>
						<path class="st3" d="M136.6,107.3c1.8-3.2,2.1-7.2,0.7-10.6c0.3-0.8,0.4-1.6,0.4-2.4v-1.6c0-2.6-1.4-4.9-3.6-6.2l-3.6-13.2
							l0,0C127,56.9,111,46.4,94.6,49.8c-0.7,0.1-1.3,0.3-2,0.5c-5,1.4-9.6,4.1-13.3,7.7c-4.2,4.2-7,9.5-8.2,15.2l0,0l-3.6,13.2
							c-2.2,1.3-3.6,3.6-3.6,6.2v1.7c0,0.8,0.1,1.7,0.4,2.4c-1.4,3.5-1.1,7.4,0.7,10.6c-6.7,1.2-11.1,7.7-9.9,14.3
							c1.2,6.7,7.7,11.1,14.3,9.9c2.4-0.4,4.7-1.6,6.4-3.3c2.3,2.3,5.4,3.5,8.6,3.5c0.4,0,0.7,0,1.1-0.1l-4.8,3.1H71
							c-6.6,0-12.2,5.1-12.8,11.7c23.4,19.9,57.8,19.9,81.2,0c-0.6-6.6-6.2-11.7-12.8-11.7h-5.9l-4.8-3.1c0.3,0,0.7,0.1,1.1,0.1
							c3.2,0,6.3-1.3,8.6-3.5c4.8,4.8,12.6,4.7,17.4-0.1c4.8-4.8,4.7-12.6-0.1-17.4C141.2,109,139,107.8,136.6,107.3L136.6,107.3z"
							/>
						<path class="st3" d="M137.3,108.1c1.8-3.2,2.1-7.2,0.7-10.6c0.3-0.8,0.4-1.6,0.4-2.4v-1.7c0-2.6-1.4-4.9-3.6-6.2L131.2,74l0,0
							c-3.4-16.4-19.5-26.9-35.8-23.5c-0.7,0.1-1.3,0.3-2,0.5c-5,1.4-9.6,4.1-13.3,7.8c-4.2,4.2-7,9.5-8.2,15.3l0,0l-3.6,13.2
							c-2.2,1.3-3.6,3.6-3.6,6.2V95c0,0.8,0.1,1.7,0.4,2.4c-1.4,3.5-1.1,7.4,0.7,10.6c-6.7,1.2-11.1,7.7-9.9,14.3
							c1.2,6.7,7.7,11.1,14.3,9.9c2.4-0.4,4.7-1.6,6.4-3.3c2.3,2.3,5.4,3.5,8.6,3.5c0.4,0,0.7,0,1.1-0.1l-4.8,3.1h-9.8
							c-6.6,0-12.2,5-12.8,11.7c23.4,19.9,57.8,19.9,81.2,0c-0.6-6.6-6.2-11.7-12.8-11.7h-5.9l-4.8-3.1c0.3,0,0.7,0,1.1,0
							c3.2,0,6.3-1.3,8.6-3.5c4.8,4.8,12.6,4.7,17.4-0.1c4.8-4.8,4.7-12.6-0.1-17.4C142,109.6,139.7,108.4,137.3,108.1L137.3,108.1z
							"/>
						<path class="st3" d="M138,108.8c1.8-3.2,2.1-7.2,0.7-10.6c0.3-0.8,0.4-1.6,0.4-2.4v-1.7c0-2.6-1.4-4.9-3.6-6.2l-3.6-13.2l0,0
							c-3.4-16.4-19.5-26.9-35.8-23.5c-0.7,0.1-1.3,0.3-2,0.5c-5,1.4-9.6,4.1-13.3,7.8c-4.2,4.2-7,9.5-8.2,15.2l0,0l-3.6,13.2
							c-2.2,1.3-3.6,3.6-3.6,6.2v1.7c0,0.8,0.1,1.7,0.4,2.4c-1.4,3.5-1.1,7.4,0.7,10.6c-6.7,1.2-11.1,7.7-9.9,14.3
							c1.2,6.7,7.7,11.1,14.3,9.9c2.4-0.4,4.7-1.6,6.4-3.3c2.3,2.3,5.4,3.5,8.6,3.5c0.4,0,0.7,0,1.1-0.1l-4.8,3.1h-9.8
							c-6.6,0-12.2,5-12.8,11.7c23.4,19.9,57.8,19.9,81.2,0c-0.6-6.6-6.2-11.7-12.8-11.7h-5.9l-4.8-3.1c0.4,0,0.7,0.1,1.1,0.1
							c3.2,0,6.3-1.3,8.6-3.5c4.8,4.8,12.6,4.7,17.4-0.1c4.8-4.8,4.7-12.6-0.1-17.4C142.7,110.4,140.4,109.2,138,108.8z"/>
						<path class="st3" d="M138.7,109.5c1.8-3.2,2.1-7.2,0.7-10.6c0.3-0.8,0.4-1.6,0.4-2.4v-1.7c0-2.6-1.4-4.9-3.6-6.2l-3.6-13.2
							l0,0c-3.4-16.4-19.5-26.9-35.8-23.5c-0.7,0.1-1.3,0.3-2,0.5c-5,1.4-9.6,4.1-13.3,7.8c-4.2,4.2-7,9.5-8.2,15.2l0,0l-3.6,13.2
							c-2.2,1.3-3.6,3.6-3.6,6.2v1.7c0,0.8,0.1,1.7,0.4,2.4c-1.4,3.5-1.1,7.4,0.7,10.6c-6.7,1.2-11.1,7.7-9.9,14.3
							c1.2,6.7,7.7,11.1,14.3,9.9c2.4-0.4,4.7-1.6,6.4-3.3c2.3,2.3,5.4,3.5,8.6,3.5c0.4,0,0.7,0,1.1-0.1l-4.7,3.1h-9.9
							c-6.6,0-12.2,5-12.8,11.7c23.4,19.9,57.8,19.9,81.2,0c-0.6-6.6-6.2-11.7-12.8-11.7h-5.9l-4.8-3.1c0.4,0,0.7,0.1,1.1,0.1
							c3.2,0,6.3-1.3,8.6-3.5c4.8,4.8,12.6,4.7,17.4-0.1c4.8-4.8,4.7-12.6-0.1-17.4C143.4,111.1,141.1,109.9,138.7,109.5z"/>
						<path class="st3" d="M139.4,110.2c1.8-3.2,2.1-7.2,0.7-10.6c0.3-0.8,0.4-1.6,0.4-2.4v-1.7c0-2.6-1.4-4.9-3.6-6.2l-3.6-13.2
							l0,0c-3.4-16.4-19.5-26.9-35.8-23.5c-0.7,0.1-1.3,0.3-2,0.5c-5,1.4-9.6,4.1-13.3,7.8c-4.2,4.2-7,9.5-8.2,15.2l0,0l-3.7,13.2
							c-2.2,1.3-3.6,3.6-3.6,6.2v1.7c0,0.8,0.2,1.7,0.4,2.4c-1.4,3.5-1.1,7.4,0.7,10.6c-6.7,1.2-11.1,7.7-9.9,14.3
							c1.2,6.7,7.7,11.1,14.3,9.9c2.4-0.4,4.7-1.6,6.4-3.3c2.3,2.3,5.4,3.5,8.6,3.5c0.4,0,0.7,0,1.1-0.1l-4.8,3.1h-9.8
							c-6.7,0-12.2,5-12.8,11.7c23.4,19.9,57.8,19.9,81.2,0c-0.6-6.6-6.2-11.7-12.8-11.7h-5.8l-4.8-3.1c0.4,0,0.7,0.1,1.1,0.1
							c3.2,0,6.3-1.3,8.6-3.5c4.8,4.8,12.6,4.7,17.4-0.1c4.8-4.8,4.7-12.6-0.1-17.4C144.1,111.8,141.8,110.6,139.4,110.2z"/>
						<path class="st3" d="M140.1,110.9c1.8-3.2,2.1-7.2,0.7-10.6c0.3-0.8,0.4-1.6,0.4-2.4v-1.7c0-2.6-1.4-4.9-3.6-6.2L134,76.8l0,0
							c-3.4-16.4-19.4-26.9-35.8-23.5c-0.7,0.1-1.3,0.3-2,0.5c-5,1.4-9.6,4.1-13.3,7.7c-4.2,4.2-7,9.5-8.2,15.2l0,0L71,90
							c-2.2,1.3-3.6,3.6-3.6,6.2v1.7c0,0.8,0.2,1.7,0.4,2.4c-1.4,3.5-1.1,7.4,0.7,10.6c-6.7,1.2-11.1,7.7-9.9,14.3
							c1.2,6.7,7.7,11.1,14.3,9.9c2.4-0.4,4.7-1.6,6.4-3.3c2.3,2.3,5.4,3.5,8.6,3.5c0.4,0,0.7,0,1.1-0.1l-4.8,3.1h-9.8
							c-6.6,0-12.2,5.1-12.8,11.7c23.4,20,57.8,20,81.3,0c-0.6-6.6-6.2-11.7-12.8-11.7h-5.9l-4.8-3.1c0.4,0,0.7,0.1,1.1,0.1
							c3.2,0,6.3-1.3,8.6-3.5c4.8,4.8,12.6,4.7,17.4-0.1c4.8-4.8,4.7-12.6-0.1-17.4C144.8,112.5,142.6,111.3,140.1,110.9
							L140.1,110.9z"/>
						<path class="st3" d="M140.9,111.6c1.8-3.2,2.1-7.2,0.7-10.6c0.3-0.8,0.4-1.6,0.4-2.4v-1.6c0-2.6-1.4-4.9-3.6-6.2l-3.6-13.2
							l0,0c-3.4-16.4-19.4-26.9-35.8-23.5c-0.7,0.1-1.3,0.3-2,0.5c-5,1.4-9.6,4.1-13.3,7.8c-4.2,4.2-7,9.5-8.2,15.2l0,0l-3.6,13.3
							c-2.2,1.3-3.6,3.6-3.6,6.2v1.7c0,0.8,0.2,1.7,0.4,2.4c-1.4,3.5-1.1,7.4,0.7,10.6c-6.7,1.2-11.1,7.7-9.9,14.3
							c1.2,6.7,7.7,11.1,14.3,9.9c2.4-0.4,4.7-1.6,6.4-3.3c2.3,2.3,5.4,3.5,8.6,3.5c0.4,0,0.7,0,1.1-0.1l-4.8,3.1h-9.8
							c-6.6,0-12.2,5-12.8,11.7c23.4,19.9,57.8,19.9,81.2,0c-0.6-6.6-6.2-11.7-12.8-11.7H125l-4.8-3.1c0.4,0,0.7,0.1,1.1,0.1
							c3.2,0,6.3-1.3,8.6-3.5c4.8,4.8,12.6,4.7,17.4-0.1c4.8-4.8,4.7-12.6-0.1-17.4C145.5,113.2,143.2,112,140.9,111.6L140.9,111.6z
							"/>
						<path class="st3" d="M141.6,112.3c1.8-3.2,2.1-7.2,0.7-10.6c0.3-0.8,0.4-1.6,0.4-2.4v-1.6c0-2.6-1.4-4.9-3.6-6.2l-3.6-13.2
							l0,0C132,61.9,116,51.4,99.6,54.8c-0.7,0.1-1.3,0.3-2,0.5c-5,1.4-9.6,4.1-13.3,7.8c-4.2,4.2-7,9.5-8.2,15.2l0,0l-3.6,13.2
							c-2.2,1.3-3.6,3.6-3.6,6.2v1.7c0,0.8,0.2,1.7,0.4,2.4c-1.4,3.5-1.1,7.4,0.7,10.6c-6.7,1.2-11.1,7.6-9.9,14.3
							c1.2,6.7,7.6,11.1,14.3,9.9c2.4-0.4,4.7-1.6,6.5-3.4c2.3,2.3,5.4,3.5,8.6,3.5c0.4,0,0.7,0,1.1-0.1l-4.8,3.1H76
							c-6.6,0-12.2,5-12.8,11.7c23.4,19.9,57.8,19.9,81.2,0c-0.6-6.6-6.2-11.7-12.8-11.7h-5.9l-4.8-3.1c0.3,0,0.7,0.1,1.1,0.1
							c3.2,0,6.3-1.3,8.6-3.5c4.8,4.8,12.6,4.7,17.4-0.1c4.8-4.8,4.7-12.6-0.1-17.4C146.2,113.9,144,112.8,141.6,112.3L141.6,112.3z
							"/>
						<path class="st3" d="M142.3,113c1.8-3.2,2.1-7.2,0.7-10.6c0.3-0.8,0.4-1.6,0.4-2.4v-1.6c0-2.6-1.4-4.9-3.6-6.2l-3.6-13.2l0,0
							c-3.4-16.4-19.5-26.9-35.8-23.5c-0.7,0.1-1.3,0.3-2,0.5c-5,1.4-9.6,4.1-13.3,7.7c-4.2,4.2-7,9.5-8.2,15.2l0,0l-3.6,13.2
							c-2.2,1.3-3.6,3.6-3.6,6.2v1.7c0,0.8,0.2,1.7,0.4,2.4c-1.4,3.4-1.1,7.3,0.7,10.6c-6.7,1.2-11.1,7.7-9.9,14.3
							c1.2,6.7,7.7,11.1,14.3,9.9c2.4-0.4,4.7-1.6,6.4-3.3c2.3,2.3,5.4,3.5,8.6,3.5c0.4,0,0.7,0,1.1-0.1l-4.8,3.1h-9.8
							c-6.6,0-12.2,5-12.8,11.7c23.4,19.9,57.8,19.9,81.2,0c-0.6-6.6-6.2-11.7-12.8-11.7h-5.9l-4.8-3.1c0.3,0,0.7,0.1,1.1,0.1
							c3.2,0,6.3-1.3,8.6-3.5c4.8,4.8,12.6,4.7,17.4-0.1c4.8-4.8,4.7-12.6-0.1-17.4C146.9,114.6,144.7,113.4,142.3,113z"/>
						<path class="st3" d="M143,113.7c1.8-3.2,2.1-7.2,0.7-10.6c0.3-0.8,0.4-1.6,0.4-2.4V99c0-2.6-1.4-4.9-3.6-6.2l-3.6-13.2l0,0
							c-3.4-16.4-19.5-26.9-35.9-23.4c-0.7,0.1-1.3,0.3-2,0.5c-5,1.4-9.6,4.1-13.3,7.8c-4.2,4.2-7,9.5-8.2,15.2l0,0l-3.6,13.2
							c-2.2,1.2-3.6,3.6-3.6,6.1v1.7c0,0.8,0.2,1.7,0.4,2.4c-1.4,3.5-1.1,7.4,0.7,10.6c-6.7,1.2-11.1,7.7-9.9,14.3
							c1.2,6.7,7.7,11.1,14.3,9.9c2.4-0.4,4.7-1.6,6.4-3.3c2.3,2.3,5.4,3.5,8.6,3.5c0.4,0,0.7,0,1.1-0.1l-4.8,3.1h-9.8
							c-6.6,0-12.2,5-12.8,11.7c23.4,19.9,57.8,19.9,81.2,0c-0.6-6.6-6.2-11.6-12.8-11.6h-5.9l-4.8-3.1c0.3,0,0.7,0.1,1.1,0.1
							c3.2,0,6.3-1.3,8.6-3.5c4.9,4.8,12.7,4.7,17.4-0.1c4.8-4.9,4.7-12.7-0.1-17.4C147.6,115.3,145.4,114.2,143,113.7z"/>
						<path class="st3" d="M143.7,114.4c1.8-3.2,2.1-7.2,0.7-10.6c0.3-0.8,0.4-1.6,0.4-2.4v-1.7c0-2.6-1.4-4.9-3.6-6.2l-3.6-13.2
							l0,0c-3.4-16.4-19.5-26.9-35.8-23.5c-0.7,0.1-1.3,0.3-2,0.5c-5,1.4-9.6,4.1-13.3,7.8c-4.2,4.2-7,9.5-8.2,15.2l0,0l-3.6,13.2
							c-2.2,1.3-3.6,3.6-3.6,6.2v1.7c0,0.8,0.2,1.7,0.4,2.4c-1.4,3.5-1.1,7.4,0.7,10.6c-6.7,1.2-11.1,7.6-9.9,14.3
							c1.2,6.7,7.6,11.1,14.3,9.9c2.4-0.4,4.7-1.6,6.4-3.3c2.3,2.3,5.4,3.5,8.6,3.5c0.4,0,0.7,0,1.1-0.1l-4.8,3.1h-9.8
							c-6.6,0-12.2,5-12.8,11.7c23.4,19.9,57.8,19.9,81.2,0c-0.6-6.6-6.2-11.7-12.8-11.7h-5.9l-4.8-3.1c0.3,0,0.7,0.1,1.1,0.1
							c3.2,0,6.3-1.3,8.6-3.5c4.8,4.8,12.6,4.7,17.4-0.1c4.8-4.8,4.7-12.6-0.1-17.4C148.3,116.1,146.1,114.9,143.7,114.4z"/>
						<path class="st3" d="M144.4,115.2c1.8-3.2,2.1-7.2,0.7-10.6c0.3-0.8,0.4-1.6,0.4-2.4v-1.7c0-2.6-1.4-4.9-3.6-6.2l-3.6-13.2
							l0,0c-3.4-16.4-19.5-26.9-35.8-23.5c-0.7,0.1-1.3,0.3-2,0.5c-5,1.4-9.6,4.1-13.3,7.8c-4.2,4.2-7,9.5-8.2,15.2l0,0l-3.6,13.2
							c-2.2,1.3-3.6,3.6-3.6,6.2v1.7c0,0.8,0.2,1.6,0.4,2.4c-1.4,3.5-1.1,7.4,0.7,10.6c-6.7,1.2-11.1,7.6-9.9,14.3
							c1.2,6.7,7.6,11.1,14.3,9.9c2.5-0.4,4.7-1.6,6.5-3.4c2.3,2.3,5.4,3.5,8.6,3.5c0.4,0,0.7,0,1.1-0.1l-4.8,3.1h-9.8
							c-6.7,0-12.2,5.1-12.8,11.7c23.4,19.9,57.8,19.9,81.2,0c-0.6-6.6-6.2-11.7-12.8-11.7h-5.9l-4.8-3.1c0.3,0,0.7,0.1,1.1,0.1
							c3.2,0,6.3-1.3,8.6-3.5c4.8,4.8,12.6,4.7,17.4-0.1c4.8-4.8,4.7-12.6-0.1-17.4C149.1,116.8,146.8,115.6,144.4,115.2z"/>
						<path class="st3" d="M145.1,115.9c1.8-3.2,2.1-7.2,0.7-10.6c0.3-0.8,0.4-1.6,0.4-2.4v-1.7c0-2.6-1.4-4.9-3.6-6.2L139,81.8l0,0
							c-3.4-16.4-19.5-26.9-35.8-23.5c-0.7,0.1-1.3,0.3-2,0.5c-5,1.4-9.6,4.1-13.3,7.8c-4.2,4.2-7,9.5-8.2,15.2l0,0L76,95
							c-2.2,1.3-3.6,3.6-3.6,6.2v1.7c0,0.8,0.2,1.6,0.4,2.4c-1.4,3.5-1.1,7.4,0.7,10.6c-6.7,1.2-11.1,7.7-9.9,14.3
							c1.2,6.7,7.7,11.1,14.3,9.9c2.4-0.4,4.7-1.6,6.4-3.3c2.3,2.3,5.4,3.5,8.6,3.5c0.4,0,0.7,0,1.1-0.1l-4.8,3.1h-9.8
							c-6.6,0-12.2,5.1-12.8,11.7c23.4,20,57.9,20,81.3,0c-0.6-6.6-6.2-11.7-12.8-11.7h-5.9l-4.8-3.1c0.3,0,0.7,0.1,1.1,0.1
							c3.2,0,6.3-1.3,8.6-3.5c4.8,4.8,12.6,4.7,17.4-0.1c4.8-4.8,4.7-12.6-0.1-17.4C149.8,117.5,147.6,116.3,145.1,115.9
							L145.1,115.9z"/>
						<path class="st3" d="M145.8,116.6c1.8-3.3,2.1-7.2,0.7-10.6c0.3-0.8,0.4-1.6,0.4-2.4v-1.7c0-2.6-1.4-4.9-3.6-6.2l-3.6-13.2
							l0,0c-3.4-16.4-19.5-26.9-35.8-23.5c-0.7,0.1-1.3,0.3-2,0.5c-5,1.4-9.6,4.1-13.3,7.8c-4.2,4.2-7,9.5-8.2,15.2l0,0l-3.6,13.2
							c-2.2,1.3-3.6,3.6-3.6,6.2v1.7c0,0.8,0.2,1.6,0.4,2.4c-1.4,3.5-1.2,7.4,0.7,10.6c-6.7,1.2-11.1,7.7-9.9,14.3
							c1.2,6.7,7.7,11.1,14.3,9.9c2.4-0.4,4.7-1.6,6.4-3.3c2.3,2.3,5.4,3.5,8.6,3.5c0.4,0,0.7,0,1.1-0.1l-4.8,3.1h-9.8
							c-6.7,0-12.2,5.1-12.8,11.7c23.4,19.9,57.8,19.9,81.2,0c-0.6-6.6-6.2-11.7-12.8-11.7H130l-4.8-3.1c0.3,0,0.7,0.1,1.1,0.1
							c3.2,0,6.3-1.3,8.6-3.5c4.8,4.8,12.6,4.7,17.4-0.1c4.8-4.8,4.7-12.6-0.1-17.4C150.5,118.1,148.2,117,145.8,116.6L145.8,116.6z
							"/>
						<path class="st3" d="M146.5,117.3c1.8-3.3,2.1-7.2,0.7-10.6c0.3-0.8,0.4-1.6,0.4-2.4v-1.7c0-2.6-1.4-4.9-3.6-6.2l-3.6-13.2
							l0,0c-3.4-16.4-19.5-26.9-35.8-23.5c-0.7,0.1-1.3,0.3-2,0.5c-5,1.4-9.6,4.1-13.3,7.8c-4.2,4.2-7,9.4-8.2,15.2l0,0l-3.6,13.2
							c-2.2,1.3-3.6,3.6-3.6,6.2v1.7c0,0.8,0.2,1.6,0.4,2.4c-1.4,3.5-1.2,7.4,0.7,10.6c-6.7,1.2-11.1,7.7-9.9,14.3
							c1.2,6.7,7.7,11.1,14.3,9.9c2.4-0.4,4.7-1.6,6.4-3.3c2.3,2.3,5.4,3.5,8.6,3.5c0.4,0,0.7,0,1.1-0.1l-4.8,3.1h-9.8
							c-6.6,0-12.2,5-12.8,11.7c23.4,19.9,57.8,19.9,81.2,0c-0.6-6.6-6.2-11.7-12.8-11.7h-5.9l-4.8-3.1c0.3,0,0.7,0.1,1.1,0.1
							c3.2,0,6.3-1.3,8.6-3.5c4.8,4.8,12.6,4.7,17.4-0.1c4.8-4.8,4.7-12.6-0.1-17.4C151.2,118.9,148.9,117.7,146.5,117.3z"/>
						<path class="st3" d="M147.2,118c1.8-3.3,2.1-7.2,0.7-10.6c0.3-0.8,0.4-1.6,0.4-2.4v-1.7c0-2.6-1.4-4.9-3.6-6.2l-3.6-13.2l0,0
							c-3.4-16.4-19.5-26.9-35.8-23.5c-0.7,0.1-1.3,0.3-2,0.5c-5,1.4-9.6,4.1-13.3,7.7c-4.2,4.2-7,9.5-8.2,15.2l0,0l-3.6,13.2
							c-2.2,1.3-3.6,3.6-3.6,6.2v1.7c0,0.8,0.2,1.6,0.4,2.4c-1.4,3.4-1.1,7.3,0.7,10.6c-6.7,1.2-11.1,7.6-9.9,14.3
							c1.2,6.7,7.6,11.1,14.3,9.9c2.4-0.4,4.7-1.6,6.4-3.4c2.3,2.3,5.4,3.6,8.6,3.6c0.4,0,0.7,0,1.1-0.1l-4.8,3.1h-9.8
							c-6.6,0-12.2,5-12.8,11.7c23.4,19.9,57.8,19.9,81.2,0c-0.6-6.6-6.2-11.7-12.8-11.7h-5.9l-4.8-3.1c0.3,0,0.7,0.1,1.1,0.1
							c3.2,0,6.3-1.3,8.6-3.6c4.8,4.8,12.6,4.7,17.4-0.1c4.8-4.8,4.7-12.6-0.1-17.4C151.9,119.6,149.7,118.4,147.2,118z"/>
						<path class="st3" d="M147.9,118.7c1.8-3.2,2.1-7.2,0.7-10.6c0.3-0.8,0.4-1.6,0.4-2.4V104c0-2.6-1.4-4.9-3.6-6.2l-3.6-13.2l0,0
							c-3.4-16.4-19.5-26.9-35.8-23.5c-0.7,0.1-1.3,0.3-2,0.5c-5,1.4-9.6,4.1-13.3,7.8c-4.2,4.2-7,9.5-8.2,15.2l0,0l-3.7,13.2
							c-2.2,1.3-3.6,3.6-3.6,6.2v1.7c0,0.8,0.2,1.6,0.4,2.4c-1.4,3.5-1.2,7.4,0.7,10.6c-6.7,1.2-11.1,7.6-9.9,14.3
							c1.2,6.7,7.6,11.1,14.3,9.9c2.4-0.4,4.7-1.6,6.4-3.4c2.3,2.3,5.4,3.6,8.6,3.6c0.3,0,0.7,0,1.1-0.1l-4.8,3.1h-9.8
							c-6.6,0-12.2,5-12.8,11.7c23.4,19.9,57.8,19.9,81.2,0c-0.6-6.6-6.2-11.6-12.8-11.7h-5.9l-4.8-3.1c0.3,0,0.7,0.1,1.1,0.1
							c3.2,0,6.3-1.3,8.6-3.6c4.8,4.8,12.6,4.7,17.4-0.1c4.8-4.8,4.7-12.6-0.1-17.4C152.6,120.3,150.4,119.1,147.9,118.7
							L147.9,118.7z"/>
						<path class="st3" d="M148.6,119.4c1.8-3.2,2.1-7.2,0.7-10.6c0.3-0.8,0.4-1.6,0.4-2.4v-1.7c0-2.6-1.4-4.9-3.6-6.2l-3.6-13.2
							l0,0c-3.4-16.4-19.5-26.9-35.8-23.5c-0.7,0.1-1.3,0.3-2,0.5c-5,1.4-9.6,4.1-13.3,7.7c-4.2,4.2-7,9.5-8.2,15.2l0,0l-3.6,13.2
							c-2.2,1.3-3.6,3.6-3.6,6.2v1.7c0,0.8,0.2,1.6,0.4,2.4c-1.4,3.5-1.2,7.4,0.7,10.6c-6.7,1.3-11.1,7.7-9.8,14.4
							c1.3,6.7,7.7,11.1,14.4,9.8c2.4-0.5,4.6-1.6,6.4-3.3c2.3,2.3,5.4,3.6,8.6,3.6c0.3,0,0.7,0,1.1-0.1l-4.8,3.1h-9.9
							c-6.6,0-12.2,5-12.8,11.7c23.4,19.9,57.8,19.9,81.2,0c-0.6-6.6-6.2-11.7-12.8-11.7h-5.9l-4.8-3.1c0.4,0,0.7,0.1,1.1,0.1
							c3.2,0,6.3-1.3,8.6-3.6c4.8,4.8,12.6,4.7,17.4-0.1c4.8-4.8,4.7-12.6-0.1-17.4C153.3,121,151.1,119.9,148.6,119.4L148.6,119.4z
							"/>
						<path class="st3" d="M149.4,120.1c1.8-3.2,2.1-7.2,0.7-10.6c0.3-0.8,0.4-1.6,0.4-2.4v-1.7c0-2.6-1.4-4.9-3.6-6.2L143.2,86l0,0
							c-3.4-16.4-19.5-26.9-35.8-23.5c-0.7,0.1-1.3,0.3-2,0.5c-5,1.4-9.6,4.1-13.3,7.8c-4.2,4.2-7,9.5-8.3,15.2l0,0l-3.6,13.3
							c-2.2,1.3-3.6,3.6-3.6,6.2v1.7c0,0.8,0.2,1.6,0.4,2.4c-1.4,3.5-1.2,7.4,0.7,10.6c-6.7,1.2-11.1,7.7-9.9,14.4
							c1.2,6.7,7.7,11.1,14.4,9.9c2.4-0.4,4.6-1.6,6.4-3.3c2.3,2.3,5.4,3.5,8.6,3.5c0.3,0,0.7,0,1.1,0l-4.8,3.1h-9.8
							c-6.6,0-12.1,5-12.8,11.6c23.4,19.9,57.8,19.9,81.2,0c-0.6-6.6-6.2-11.7-12.8-11.7h-5.9l-4.8-3.1c0.4,0,0.7,0,1.1,0
							c3.2,0,6.3-1.3,8.6-3.5c4.8,4.8,12.6,4.7,17.4-0.1c4.8-4.8,4.7-12.6-0.1-17.4C154,121.7,151.8,120.5,149.4,120.1L149.4,120.1z
							"/>
						<path class="st3" d="M150.1,120.8c1.8-3.2,2.1-7.2,0.7-10.6c0.3-0.8,0.4-1.6,0.4-2.4v-1.7c0-2.6-1.4-4.9-3.6-6.2L144,86.7l0,0
							c-3.4-16.4-19.5-26.9-35.8-23.5c-0.7,0.1-1.3,0.3-2,0.5c-5,1.4-9.6,4.1-13.3,7.8c-4.2,4.2-7,9.5-8.2,15.2l0,0L81,100
							c-2.2,1.3-3.6,3.6-3.6,6.2v1.7c0,0.8,0.2,1.6,0.4,2.4c-1.4,3.5-1.2,7.4,0.7,10.6c-6.7,1.2-11.1,7.7-9.9,14.4
							s7.7,11.1,14.4,9.9c2.4-0.4,4.6-1.6,6.4-3.3c2.3,2.3,5.4,3.5,8.6,3.5c0.3,0,0.7,0,1.1-0.1l-4.8,3.1h-9.8
							c-6.7,0-12.2,5.1-12.8,11.7c23.4,19.9,57.8,19.9,81.2,0c-0.6-6.6-6.2-11.7-12.8-11.7h-5.9l-4.8-3.1c0.4,0,0.7,0.1,1.1,0.1
							c3.2,0,6.3-1.3,8.6-3.5c4.8,4.8,12.6,4.7,17.4-0.1c4.8-4.8,4.7-12.6-0.1-17.4C154.7,122.5,152.5,121.3,150.1,120.8
							L150.1,120.8z"/>
						<path class="st3" d="M150.8,121.5c1.8-3.2,2.1-7.2,0.7-10.6c0.3-0.8,0.4-1.6,0.4-2.4v-1.7c0-2.6-1.4-4.9-3.6-6.2l-3.6-13.2
							l0,0c-3.4-16.4-19.5-26.8-35.8-23.4c-0.7,0.1-1.3,0.3-2,0.5c-5,1.4-9.6,4.1-13.3,7.8c-4.2,4.2-7,9.5-8.2,15.2l0,0l-3.6,13.2
							c-2.2,1.3-3.6,3.6-3.6,6.2v1.7c0,0.8,0.2,1.6,0.4,2.4c-1.4,3.5-1.2,7.4,0.7,10.6c-6.7,1.2-11.1,7.7-9.8,14.4
							c1.2,6.7,7.7,11.1,14.4,9.8c2.4-0.4,4.6-1.6,6.4-3.3c2.3,2.3,5.4,3.5,8.6,3.6c0.4,0,0.7,0,1.1-0.1L95,149h-9.8
							c-6.6,0-12.2,5-12.8,11.7c23.4,19.9,57.8,19.9,81.2,0c-0.6-6.6-6.2-11.7-12.8-11.7H135l-4.8-3.1c0.4,0,0.7,0.1,1.1,0.1
							c3.2,0,6.3-1.3,8.6-3.5c4.8,4.8,12.6,4.7,17.4-0.1c4.8-4.8,4.7-12.6-0.1-17.4C155.5,123.1,153.2,122,150.8,121.5L150.8,121.5z
							"/>
						<path class="st3" d="M151.5,122.3c1.8-3.2,2.1-7.2,0.7-10.6c0.3-0.8,0.4-1.6,0.4-2.4v-1.7c0-2.6-1.4-4.9-3.6-6.2l-3.6-13.2
							l0,0c-3.4-16.4-19.5-26.9-35.8-23.5c-0.7,0.1-1.3,0.3-2,0.5c-5,1.4-9.6,4.1-13.3,7.8c-4.2,4.2-7.1,9.5-8.3,15.2l0,0l-3.6,13.2
							c-2.2,1.3-3.6,3.6-3.6,6.2v1.7c0,0.8,0.2,1.6,0.4,2.4c-1.4,3.5-1.2,7.4,0.7,10.6c-6.7,1.2-11.1,7.7-9.8,14.4
							c1.2,6.7,7.7,11.1,14.4,9.8c2.4-0.4,4.6-1.6,6.4-3.3c2.3,2.3,5.4,3.5,8.6,3.5c0.4,0,0.7,0,1.1,0l-4.8,3.1h-9.8
							c-6.6,0-12.2,5-12.8,11.6c23.4,19.9,57.8,19.9,81.2,0c-0.6-6.6-6.2-11.7-12.8-11.7h-5.9l-4.8-3.1c0.4,0,0.7,0,1.1,0
							c3.2,0,6.3-1.3,8.6-3.5c4.8,4.8,12.6,4.7,17.4-0.1c4.8-4.8,4.7-12.6-0.1-17.4C156.1,123.8,153.9,122.6,151.5,122.3
							L151.5,122.3z"/>
						<path class="st3" d="M152.2,123c1.8-3.3,2.1-7.2,0.7-10.6c0.3-0.8,0.4-1.6,0.4-2.4v-1.7c0-2.6-1.4-4.9-3.6-6.2l-3.6-13.2l0,0
							c-3.4-16.4-19.5-26.9-35.8-23.5c-0.7,0.1-1.3,0.3-2,0.5c-5,1.4-9.5,4.1-13.3,7.7c-4.2,4.2-7,9.5-8.2,15.2l0,0l-3.7,13.2
							c-2.2,1.3-3.6,3.6-3.6,6.2v1.7c0,0.8,0.2,1.6,0.4,2.4c-0.6,1.5-0.9,3-0.9,4.6c0,2.1,0.5,4.2,1.6,6c-6.7,1.3-11.1,7.7-9.8,14.4
							c1.3,6.7,7.7,11.1,14.4,9.8c2.4-0.5,4.6-1.6,6.3-3.3c2.3,2.3,5.4,3.5,8.6,3.5c0.4,0,0.7,0,1.1,0l-4.8,3.1h-9.8
							c-6.6,0-12.2,5-12.8,11.7c23.4,19.9,57.8,19.9,81.2,0c-0.6-6.6-6.2-11.7-12.8-11.7h-5.9l-4.8-3.1c0.4,0,0.7,0,1.1,0
							c3.2,0,6.3-1.3,8.6-3.5c4.8,4.8,12.6,4.8,17.4,0c4.8-4.8,4.8-12.6,0-17.4C156.9,124.6,154.7,123.4,152.2,123z"/>
						<path class="st3" d="M152.9,123.7c1.8-3.3,2.1-7.2,0.7-10.6c0.3-0.8,0.4-1.6,0.4-2.4V109c0-2.6-1.4-4.9-3.6-6.2l-3.6-13.2l0,0
							c-3.4-16.4-19.4-26.9-35.8-23.5c-0.7,0.1-1.3,0.3-2,0.5c-5,1.4-9.6,4.1-13.3,7.8c-4.2,4.2-7,9.5-8.2,15.2l0,0l-3.6,13.2
							c-2.3,1.2-3.7,3.6-3.7,6.2v1.7c0,0.8,0.1,1.6,0.4,2.4c-1.4,3.5-1.1,7.4,0.7,10.6c-6.7,1.2-11.1,7.7-9.8,14.4
							c1.2,6.7,7.7,11.1,14.4,9.8c2.4-0.4,4.6-1.6,6.4-3.3c2.3,2.3,5.4,3.5,8.6,3.5c0.4,0,0.7,0,1.1-0.1l-4.8,3.1h-9.8
							c-6.6,0-12.2,5-12.8,11.6c23.4,19.9,57.8,19.9,81.2,0c-0.6-6.6-6.1-11.6-12.8-11.7h-5.9l-4.8-3.1c0.4,0,0.7,0.1,1.1,0.1
							c3.2,0,6.3-1.3,8.6-3.5c4.8,4.8,12.6,4.7,17.4-0.1c4.8-4.8,4.7-12.6-0.1-17.4C157.6,125.3,155.4,124.1,152.9,123.7
							L152.9,123.7z"/>
						<path class="st3" d="M153.6,124.4c1.8-3.3,2.1-7.2,0.7-10.6c0.3-0.8,0.4-1.6,0.4-2.4v-1.7c0-2.6-1.4-4.9-3.6-6.2l-3.6-13.2
							l0,0c-3.4-16.4-19.5-26.9-35.8-23.5c-0.7,0.1-1.3,0.3-2,0.5c-5,1.4-9.6,4.1-13.3,7.8c-4.2,4.2-7,9.5-8.2,15.2l0,0l-3.6,13.2
							c-2.2,1.3-3.6,3.6-3.6,6.2v1.7c0,0.8,0.1,1.6,0.4,2.4c-1.4,3.5-1.2,7.4,0.7,10.6c-6.7,1.2-11.1,7.7-9.8,14.4
							c1.2,6.7,7.7,11.1,14.4,9.8c2.4-0.4,4.6-1.6,6.4-3.3c2.3,2.3,5.4,3.5,8.6,3.5c0.4,0,0.7,0,1.1-0.1l-4.8,3.1H88
							c-6.6,0-12.2,5-12.8,11.7c23.4,19.9,57.8,19.9,81.2,0c-0.6-6.6-6.2-11.7-12.8-11.7h-5.8l-4.8-3.1c0.4,0,0.7,0.1,1.1,0.1
							c3.2,0,6.3-1.3,8.6-3.5c4.8,4.8,12.6,4.7,17.4-0.1c4.8-4.8,4.7-12.6-0.1-17.4C158.3,126,156,124.8,153.6,124.4L153.6,124.4z"
							/>
						<path class="st3" d="M154.3,125.1c1.8-3.3,2.1-7.2,0.7-10.6c0.3-0.8,0.4-1.6,0.4-2.4v-1.6c0-2.6-1.4-4.9-3.6-6.2L148.2,91l0,0
							c-3.4-16.4-19.5-26.9-35.8-23.5c-0.7,0.1-1.3,0.3-2,0.5c-5,1.4-9.6,4.1-13.3,7.8c-4.2,4.2-7,9.5-8.2,15.2l0,0l-3.6,13.2
							c-2.2,1.3-3.6,3.6-3.6,6.2v1.7c0,0.8,0.1,1.6,0.4,2.4c-1.4,3.5-1.1,7.4,0.7,10.6c-6.7,1.3-11.1,7.7-9.8,14.4
							s7.7,11.1,14.4,9.8c2.4-0.5,4.6-1.6,6.3-3.3c2.3,2.3,5.4,3.5,8.6,3.5c0.4,0,0.7,0,1.1,0l-4.8,3.1h-9.8
							c-6.6,0-12.2,5-12.8,11.7c23.4,19.9,57.8,19.9,81.2,0c-0.6-6.6-6.2-11.7-12.8-11.7h-5.9l-4.8-3.1c0.4,0,0.7,0,1.1,0
							c3.2,0,6.3-1.3,8.6-3.5c4.8,4.8,12.6,4.7,17.4-0.1c4.8-4.8,4.7-12.6-0.1-17.4C159,126.7,156.7,125.6,154.3,125.1L154.3,125.1z
							"/>
						<path class="st3" d="M155,125.8c1.8-3.3,2.1-7.2,0.7-10.6c0.3-0.8,0.4-1.6,0.4-2.4v-1.7c0-2.6-1.4-4.9-3.6-6.2l-3.6-13.2l0,0
							c-3.4-16.4-19.5-26.9-35.8-23.5c-0.7,0.1-1.3,0.3-2,0.5c-5,1.4-9.6,4.1-13.3,7.8c-4.2,4.2-7,9.5-8.2,15.2l0,0l-3.6,13.2
							c-2.2,1.3-3.6,3.6-3.6,6.2v1.7c0,0.8,0.1,1.6,0.4,2.4c-1.4,3.5-1.1,7.4,0.7,10.6c-6.7,1.2-11.1,7.7-9.8,14.4
							c1.2,6.7,7.7,11.1,14.4,9.8c2.4-0.4,4.6-1.6,6.4-3.3c2.3,2.3,5.4,3.5,8.6,3.5c0.4,0,0.7,0,1.1-0.1l-4.8,3.1h-9.8
							c-6.6,0-12.2,5-12.8,11.7c23.4,19.9,57.8,19.9,81.2,0c-0.6-6.6-6.2-11.7-12.8-11.7h-5.9l-4.8-3.1c0.4,0,0.7,0.1,1.1,0.1
							c3.2,0,6.3-1.3,8.6-3.5c4.8,4.8,12.6,4.7,17.4-0.1c4.8-4.8,4.7-12.6-0.1-17.4C159.7,127.4,157.4,126.2,155,125.8z"/>
						<path class="st3" d="M155.8,126.5c1.8-3.3,2.1-7.2,0.7-10.6c0.3-0.8,0.4-1.6,0.4-2.4v-1.7c0-2.6-1.4-4.9-3.6-6.2l-3.6-13.2
							l0,0c-3.4-16.4-19.5-26.9-35.8-23.5c-0.7,0.1-1.3,0.3-2,0.5c-5,1.4-9.6,4.1-13.3,7.8c-4.2,4.2-7,9.5-8.2,15.2l0,0l-3.6,13.2
							c-2.2,1.2-3.6,3.6-3.7,6.2v1.7c0,0.8,0.1,1.6,0.4,2.4c-1.4,3.5-1.1,7.4,0.7,10.6c-6.7,1.2-11.1,7.7-9.8,14.4
							c1.2,6.7,7.7,11.1,14.4,9.8c2.4-0.4,4.6-1.6,6.4-3.3c2.3,2.3,5.4,3.5,8.6,3.5c0.4,0,0.7,0,1.1-0.1L100,154h-9.8
							c-6.6,0-12.2,5-12.8,11.7c23.4,19.9,57.8,19.9,81.2,0c-0.6-6.6-6.2-11.7-12.8-11.7h-5.9l-4.8-3.1c0.4,0,0.7,0.1,1.1,0.1
							c3.2,0,6.3-1.3,8.6-3.5c4.8,4.8,12.6,4.7,17.4-0.1c4.8-4.8,4.7-12.6-0.1-17.4C160.4,128.1,158.2,127,155.8,126.5L155.8,126.5z
							"/>
						<path class="st3" d="M156.5,127.2c1.8-3.3,2.1-7.2,0.7-10.6c0.3-0.8,0.4-1.6,0.4-2.4v-1.7c0-2.6-1.4-4.9-3.6-6.2l-3.6-13.2
							l0,0c-3.4-16.4-19.5-26.9-35.8-23.5c-0.7,0.1-1.3,0.3-2,0.5c-5,1.4-9.6,4.1-13.3,7.8c-4.2,4.2-7,9.5-8.2,15.2l0,0l-3.6,13.2
							c-2.2,1.3-3.6,3.6-3.6,6.2v1.7c0,0.8,0.1,1.6,0.4,2.4c-1.4,3.5-1.1,7.4,0.7,10.6c-6.7,1.2-11.1,7.7-9.9,14.4
							s7.7,11.1,14.4,9.9c2.4-0.4,4.6-1.6,6.4-3.3c2.3,2.3,5.4,3.5,8.6,3.5c0.4,0,0.7,0,1.1,0l-4.8,3.1h-9.8
							c-6.6,0-12.2,5-12.8,11.7c23.4,19.9,57.8,19.9,81.2,0c-0.6-6.6-6.2-11.7-12.8-11.7h-5.9l-4.8-3.1c0.4,0,0.7,0,1.1,0
							c3.2,0,6.3-1.3,8.6-3.5c4.8,4.8,12.6,4.7,17.4-0.1c4.8-4.8,4.7-12.6-0.1-17.4C161.1,128.8,158.9,127.7,156.5,127.2z"/>
						<path class="st3" d="M157.2,127.9c1.8-3.3,2.1-7.2,0.7-10.6c0.3-0.8,0.4-1.6,0.4-2.4v-1.7c0-2.6-1.4-4.9-3.6-6.2l-3.6-13.2
							l0,0c-3.4-16.4-19.5-26.9-35.8-23.5c-0.7,0.1-1.3,0.3-2,0.5c-5,1.4-9.6,4.1-13.3,7.8c-4.2,4.2-7,9.5-8.2,15.2l0,0l-3.6,13.2
							c-2.2,1.3-3.6,3.6-3.6,6.2v1.7c0,0.8,0.1,1.6,0.4,2.4c-1.4,3.5-1.1,7.4,0.7,10.6c-6.7,1.2-11.1,7.7-9.8,14.4
							c1.2,6.7,7.7,11.1,14.4,9.8c2.4-0.4,4.6-1.6,6.4-3.3c2.3,2.3,5.4,3.5,8.6,3.5c0.4,0,0.7,0,1.1,0l-4.8,3.1h-9.8
							c-6.6,0-12.2,5-12.8,11.7c23.4,19.9,57.8,19.9,81.2,0c-0.6-6.6-6.2-11.7-12.8-11.7h-5.9l-4.8-3.1c0.4,0,0.7,0,1.1,0
							c3.2,0,6.3-1.3,8.6-3.5c4.8,4.8,12.6,4.7,17.4-0.1c4.8-4.8,4.7-12.6-0.1-17.4C161.8,129.5,159.6,128.4,157.2,127.9z"/>
						<path class="st3" d="M157.9,128.6c1.8-3.3,2.1-7.2,0.7-10.6c0.3-0.8,0.4-1.6,0.4-2.4V114c0-2.6-1.4-4.9-3.6-6.2l-3.6-13.2l0,0
							c-3.4-16.4-19.5-26.9-35.8-23.5c-0.7,0.1-1.3,0.3-2,0.5c-5,1.4-9.6,4.1-13.3,7.8c-4.2,4.2-7,9.5-8.2,15.2l0,0l-3.6,13.2
							c-2.2,1.2-3.6,3.6-3.6,6.2v1.7c0,0.8,0.2,1.6,0.4,2.3c-1.4,3.5-1.1,7.4,0.7,10.6c-6.7,1.2-11.1,7.7-9.8,14.4
							c1.2,6.7,7.7,11.1,14.4,9.8c2.4-0.4,4.6-1.6,6.4-3.3c2.3,2.3,5.4,3.5,8.6,3.5c0.4,0,0.7,0,1.1-0.1l-4.8,3.1h-9.8
							c-6.6,0-12.2,5-12.8,11.7c23.4,19.9,57.8,19.9,81.2,0c-0.6-6.6-6.2-11.7-12.8-11.7h-5.9l-4.8-3.1c0.4,0,0.7,0.1,1.1,0.1
							c3.2,0,6.3-1.3,8.6-3.5c4.8,4.8,12.6,4.7,17.4-0.1c4.8-4.8,4.7-12.6-0.1-17.4C162.5,130.2,160.3,129.1,157.9,128.6
							L157.9,128.6z"/>
						<path class="st3" d="M158.6,129.4c1.8-3.3,2.1-7.2,0.7-10.6c0.3-0.8,0.4-1.6,0.4-2.4v-1.7c0-2.6-1.4-4.9-3.6-6.2l-3.6-13.2
							l0,0C149,78.9,133,68.4,116.6,71.8c-0.7,0.1-1.3,0.3-2,0.5c-5,1.4-9.6,4.1-13.3,7.7c-4.2,4.2-7,9.5-8.2,15.2l0,0l-3.6,13.2
							c-2.2,1.3-3.6,3.6-3.6,6.2v1.7c0,0.8,0.1,1.6,0.4,2.4c-1.4,3.5-1.2,7.4,0.7,10.6c-6.7,1.2-11.1,7.7-9.8,14.4
							c1.2,6.7,7.7,11.1,14.4,9.8c2.4-0.4,4.6-1.6,6.4-3.3c2.3,2.3,5.4,3.5,8.6,3.5c0.4,0,0.7,0,1.1-0.1l-4.8,3.1H93
							c-6.6,0-12.2,5.1-12.8,11.7c23.4,19.9,57.8,19.9,81.2,0c-0.6-6.6-6.2-11.7-12.8-11.7h-5.9l-4.8-3.1c0.4,0,0.7,0.1,1.1,0.1
							c3.2,0,6.3-1.3,8.6-3.5c4.8,4.8,12.6,4.7,17.4-0.1c4.8-4.8,4.7-12.6-0.1-17.4C163.2,131,161,129.8,158.6,129.4L158.6,129.4z"
							/>
						<path class="st3" d="M159.3,130.1c1.8-3.3,2.1-7.2,0.7-10.6c0.3-0.8,0.4-1.6,0.4-2.4v-1.7c0-2.6-1.4-4.9-3.6-6.2L153.2,96l0,0
							c-3.4-16.4-19.4-26.9-35.8-23.5c-0.7,0.1-1.3,0.3-2,0.5c-5,1.4-9.6,4.1-13.3,7.8c-4.2,4.2-7,9.5-8.3,15.2l0,0l-3.6,13.2
							c-2.2,1.3-3.6,3.6-3.6,6.2v1.6c0,0.8,0.1,1.6,0.4,2.4c-1.4,3.5-1.1,7.4,0.7,10.6c-6.7,1.3-11.1,7.7-9.8,14.4
							c1.3,6.7,7.7,11.1,14.4,9.8c2.4-0.5,4.6-1.6,6.3-3.3c2.3,2.3,5.4,3.5,8.6,3.5c0.4,0,0.7,0,1.1,0l-4.8,3.1h-9.8
							c-6.6,0-12.2,5-12.8,11.7c23.4,19.9,57.8,19.9,81.2,0c-0.6-6.6-6.2-11.7-12.8-11.7h-5.9l-4.8-3.1c0.4,0,0.7,0,1.1,0
							c3.2,0,6.3-1.3,8.6-3.5c4.8,4.8,12.6,4.7,17.4-0.1c4.8-4.8,4.7-12.6-0.1-17.4C163.9,131.7,161.7,130.5,159.3,130.1z"/>
						<path class="st3" d="M160,130.8c1.8-3.3,2.1-7.2,0.7-10.6c0.3-0.8,0.4-1.6,0.4-2.4v-1.7c0-2.6-1.4-4.9-3.6-6.2l-3.6-13.2l0,0
							c-3.4-16.4-19.4-26.9-35.8-23.5c-0.7,0.1-1.3,0.3-2,0.5c-5,1.4-9.6,4.1-13.3,7.8c-4.2,4.2-7,9.5-8.2,15.2l0,0l-3.6,13.2
							c-2.2,1.3-3.6,3.6-3.6,6.2v1.7c0,0.8,0.1,1.6,0.4,2.4c-1.4,3.5-1.1,7.4,0.7,10.6c-6.7,1.2-11.1,7.7-9.8,14.4
							c1.2,6.7,7.7,11.1,14.4,9.8c2.4-0.4,4.6-1.6,6.4-3.3c2.3,2.3,5.4,3.5,8.6,3.5c0.4,0,0.7,0,1.1-0.1l-4.8,3.1h-9.8
							c-6.6,0-12.2,5-12.8,11.7c23.4,19.9,57.8,19.9,81.2,0c-0.6-6.6-6.2-11.7-12.8-11.7h-5.9l-4.8-3.1c0.4,0,0.7,0.1,1.1,0.1
							c3.2,0,6.3-1.3,8.6-3.5c4.8,4.8,12.6,4.7,17.4-0.1c4.8-4.8,4.7-12.6-0.1-17.4C164.6,132.4,162.4,131.2,160,130.8z"/>
						<path class="st3" d="M160.7,131.5c1.8-3.3,2.1-7.2,0.7-10.6c0.3-0.8,0.4-1.6,0.4-2.4v-1.7c0-2.6-1.4-4.9-3.6-6.2l-3.6-13.2
							l0,0c-3.4-16.4-19.4-26.9-35.8-23.5c-0.7,0.1-1.3,0.3-2,0.5c-5,1.4-9.6,4.1-13.3,7.8c-4.2,4.2-7,9.5-8.3,15.2l0,0l-3.6,13.2
							c-2.2,1.2-3.6,3.6-3.6,6.2v1.7c0,0.8,0.1,1.6,0.4,2.4c-1.4,3.5-1.1,7.4,0.7,10.6c-6.7,1.2-11.1,7.7-9.9,14.4
							s7.7,11.1,14.4,9.9c2.4-0.4,4.6-1.6,6.4-3.3c2.3,2.3,5.4,3.5,8.6,3.5c0.4,0,0.7,0,1.1-0.1L105,159h-9.9
							c-6.6,0-12.2,5-12.8,11.7c23.4,19.9,57.8,19.9,81.2,0c-0.6-6.6-6.2-11.7-12.8-11.7h-5.9l-4.8-3.1c0.4,0,0.7,0.1,1.1,0.1
							c3.2,0,6.3-1.3,8.6-3.5c4.8,4.8,12.6,4.7,17.4-0.1c4.8-4.8,4.7-12.6-0.1-17.4C165.4,133.1,163.1,132,160.7,131.5L160.7,131.5z
							"/>
						<path class="st3" d="M161.4,132.2c1.8-3.3,2.1-7.2,0.7-10.6c0.3-0.8,0.4-1.6,0.4-2.4v-1.7c0-2.6-1.4-4.9-3.6-6.2l-3.6-13.2
							l0,0c-3.4-16.4-19.4-26.9-35.8-23.5c-0.7,0.1-1.3,0.3-2,0.5c-5,1.4-9.6,4.1-13.3,7.8c-4.2,4.2-7,9.5-8.2,15.2l0,0l-3.6,13.2
							c-2.2,1.3-3.6,3.6-3.6,6.2v1.7c0,0.8,0.1,1.6,0.4,2.4c-1.4,3.5-1.1,7.4,0.7,10.6c-6.7,1.2-11.1,7.7-9.9,14.4
							s7.7,11.1,14.4,9.9c2.4-0.4,4.6-1.6,6.4-3.3c2.3,2.3,5.4,3.5,8.6,3.5c0.4,0,0.7,0,1.1-0.1l-4.8,3.1h-9.9
							c-6.7,0-12.2,5-12.8,11.7c23.4,19.9,57.8,19.9,81.2,0c-0.6-6.6-6.2-11.7-12.8-11.7h-5.8l-4.8-3.1c0.4,0,0.7,0.1,1.1,0.1
							c3.2,0,6.3-1.3,8.6-3.5c4.8,4.8,12.6,4.7,17.4-0.1c4.8-4.8,4.7-12.6-0.1-17.4C166.1,133.8,163.8,132.6,161.4,132.2
							L161.4,132.2z"/>
						<path class="st3" d="M162.1,132.9c1.8-3.2,2.1-7.2,0.7-10.6c0.3-0.8,0.4-1.6,0.4-2.4v-1.7c0-2.6-1.4-4.9-3.6-6.2L156,98.8l0,0
							c-3.4-16.4-19.4-26.9-35.8-23.5c-0.7,0.1-1.3,0.3-2,0.5c-5,1.4-9.6,4.1-13.3,7.8c-4.2,4.2-7,9.5-8.3,15.2l0,0L93,112
							c-2.2,1.3-3.6,3.6-3.6,6.2v1.7c0,0.8,0.1,1.6,0.4,2.4c-1.4,3.5-1.1,7.4,0.7,10.6c-6.7,1.2-11.1,7.7-9.9,14.3
							s7.7,11.1,14.3,9.9c2.4-0.4,4.7-1.6,6.4-3.3c2.3,2.3,5.4,3.5,8.6,3.5c0.4,0,0.7,0,1.1,0l-4.8,3.1h-9.8
							c-6.6,0-12.2,5-12.8,11.6c23.4,20,57.8,20,81.3,0c-0.6-6.6-6.2-11.7-12.8-11.7h-5.9l-4.8-3.1c0.4,0,0.7,0,1.1,0
							c3.2,0,6.3-1.3,8.6-3.5c4.8,4.8,12.6,4.7,17.4-0.1c4.8-4.8,4.7-12.6-0.1-17.4C166.8,134.4,164.6,133.3,162.1,132.9
							L162.1,132.9z"/>
						<path class="st3" d="M162.9,133.6c1.8-3.2,2.1-7.2,0.7-10.6c0.3-0.8,0.4-1.6,0.4-2.4v-1.7c0-2.6-1.4-4.9-3.6-6.2l-3.6-13.2
							l0,0c-3.4-16.4-19.4-26.9-35.8-23.5c-0.7,0.1-1.3,0.3-2,0.5c-5,1.4-9.6,4.1-13.3,7.8c-4.2,4.2-7,9.5-8.3,15.2l0,0l-3.6,13.2
							c-2.2,1.3-3.6,3.6-3.6,6.2v1.7c0,0.8,0.1,1.6,0.4,2.4c-1.4,3.5-1.1,7.4,0.7,10.6c-6.7,1.2-11.1,7.7-9.9,14.3
							s7.7,11.1,14.3,9.9c2.4-0.4,4.7-1.6,6.4-3.3c2.3,2.3,5.4,3.5,8.6,3.5c0.4,0,0.7,0,1.1-0.1l-4.8,3.1h-9.8
							c-6.6,0-12.2,5-12.8,11.7c23.4,19.9,57.8,19.9,81.2,0c-0.6-6.6-6.2-11.7-12.8-11.7H147l-4.8-3.1c0.4,0,0.7,0.1,1.1,0.1
							c3.2,0,6.3-1.3,8.6-3.5c4.8,4.8,12.6,4.7,17.4-0.1c4.8-4.8,4.7-12.6-0.1-17.4C167.5,135.2,165.3,134,162.9,133.6L162.9,133.6z
							"/>
						<path class="st3" d="M163.6,134.3c1.8-3.2,2.1-7.2,0.7-10.6c0.3-0.8,0.4-1.6,0.4-2.4v-1.7c0-2.6-1.4-4.9-3.6-6.2l-3.6-13.2
							l0,0C154,83.9,138,73.4,121.6,76.8c-0.7,0.1-1.3,0.3-2,0.5c-5,1.4-9.6,4.1-13.3,7.8c-4.2,4.2-7,9.5-8.3,15.2l0,0l-3.6,13.2
							c-2.2,1.3-3.6,3.6-3.6,6.2v1.7c0,0.8,0.1,1.6,0.4,2.4c-1.4,3.5-1.1,7.4,0.7,10.6c-6.7,1.2-11.1,7.7-9.9,14.3
							s7.7,11.1,14.3,9.9c2.4-0.4,4.7-1.6,6.4-3.3c2.3,2.3,5.4,3.5,8.6,3.5c0.4,0,0.7,0,1.1-0.1l-4.8,3.1H98
							c-6.6,0-12.2,5-12.8,11.7c23.4,19.9,57.8,19.9,81.2,0c-0.6-6.6-6.2-11.7-12.8-11.7h-5.9l-4.8-3.1c0.4,0,0.7,0.1,1.1,0.1
							c3.2,0,6.3-1.3,8.6-3.5c4.8,4.8,12.6,4.7,17.4-0.1c4.8-4.8,4.7-12.6-0.1-17.4C168.2,135.9,166,134.8,163.6,134.3L163.6,134.3z
							"/>
						<path class="st3" d="M164.3,135c1.8-3.2,2.1-7.2,0.7-10.6c0.3-0.8,0.4-1.6,0.4-2.4v-1.7c0-2.6-1.4-4.9-3.6-6.2l-3.6-13.2l0,0
							c-3.4-16.4-19.4-26.9-35.8-23.5c-0.7,0.1-1.3,0.3-2,0.5c-5,1.4-9.6,4.1-13.3,7.8c-4.2,4.2-7,9.5-8.3,15.2l0,0l-3.6,13.2
							c-2.2,1.3-3.6,3.6-3.6,6.2v1.7c0,0.8,0.1,1.6,0.4,2.4c-1.4,3.5-1.1,7.3,0.7,10.6c-6.7,1.2-11.1,7.7-9.9,14.3
							s7.7,11.1,14.3,9.9c2.4-0.4,4.7-1.6,6.4-3.3c2.3,2.3,5.4,3.5,8.6,3.5c0.4,0,0.7,0,1.1,0l-4.8,3.1h-9.8
							c-6.6,0-12.2,5-12.8,11.7c23.4,19.9,57.8,19.9,81.2,0c-0.6-6.6-6.2-11.7-12.8-11.7h-5.9l-4.8-3.1c0.4,0,0.7,0,1.1,0
							c3.2,0,6.3-1.3,8.6-3.5c4.8,4.8,12.6,4.7,17.4-0.1c4.8-4.8,4.7-12.6-0.1-17.4C168.9,136.6,166.7,135.4,164.3,135z"/>
						<path class="st3" d="M165,135.7c1.8-3.2,2.1-7.2,0.7-10.6c0.3-0.8,0.4-1.6,0.4-2.4V121c0-2.6-1.4-4.9-3.6-6.2l-3.6-13.2l0,0
							c-3.4-16.4-19.5-26.9-35.9-23.5c0,0,0,0,0,0c-0.7,0.1-1.3,0.3-2,0.5c-5,1.4-9.6,4.1-13.3,7.8c-4.2,4.2-7,9.5-8.3,15.2l0,0
							l-3.6,13.2c-2.2,1.3-3.6,3.6-3.6,6.2v1.7c0,0.8,0.1,1.6,0.4,2.4c-1.4,3.5-1.1,7.4,0.7,10.6c-6.7,1.2-11.1,7.7-9.9,14.3
							s7.7,11.1,14.3,9.9c2.4-0.4,4.7-1.6,6.4-3.3c2.3,2.3,5.4,3.5,8.6,3.5c0.4,0,0.7,0,1.1,0l-4.8,3.1h-9.8
							c-6.6,0-12.2,5-12.8,11.7c23.4,19.9,57.8,19.9,81.2,0c-0.6-6.6-6.2-11.7-12.8-11.7h-5.9l-4.8-3.1c0.4,0,0.7,0,1.1,0
							c3.2,0,6.3-1.3,8.6-3.5c4.8,4.8,12.6,4.8,17.4,0c4.8-4.8,4.8-12.6,0-17.4C169.7,137.4,167.5,136.2,165,135.7z"/>
						<path class="st3" d="M165.7,136.4c1.8-3.2,2.1-7.2,0.7-10.6c0.3-0.8,0.4-1.6,0.4-2.4v-1.7c0-2.6-1.4-4.9-3.6-6.2l-3.6-13.2
							l0,0c-3.4-16.4-19.4-26.9-35.8-23.5c-0.7,0.1-1.3,0.3-2,0.5c-5,1.4-9.6,4.1-13.3,7.8c-4.2,4.2-7,9.5-8.3,15.2l0,0l-3.6,13.2
							c-2.2,1.3-3.6,3.6-3.6,6.2v1.7c0,0.8,0.1,1.6,0.4,2.4c-1.4,3.5-1.1,7.4,0.7,10.6c-6.7,1.2-11.1,7.7-9.9,14.3
							s7.7,11.1,14.3,9.9c2.4-0.4,4.7-1.6,6.4-3.3c2.3,2.3,5.4,3.5,8.6,3.5c0.4,0,0.7,0,1.1-0.1l-4.8,3.1h-9.8
							c-6.6,0-12.2,5-12.8,11.7c23.4,19.9,57.8,19.9,81.2,0c-0.6-6.6-6.2-11.7-12.8-11.7h-5.9l-4.8-3.1c0.4,0,0.7,0.1,1.1,0.1
							c3.2,0,6.3-1.3,8.6-3.5c4.8,4.8,12.6,4.7,17.4-0.1c4.8-4.8,4.7-12.6-0.1-17.4C170.4,138.1,168.1,136.9,165.7,136.4
							L165.7,136.4z"/>
						<path class="st3" d="M166.4,137.1c1.8-3.2,2.1-7.2,0.7-10.6c0.3-0.8,0.4-1.6,0.4-2.4v-1.7c0-2.6-1.4-4.9-3.6-6.2l-3.6-13.2
							l0,0c-3.4-16.4-19.4-26.9-35.8-23.5c-0.7,0.1-1.3,0.3-2,0.5c-5,1.4-9.6,4.1-13.3,7.8c-4.2,4.2-7,9.5-8.3,15.2l0,0l-3.6,13.2
							c-2.2,1.3-3.6,3.6-3.6,6.2v1.7c0,0.8,0.1,1.6,0.4,2.4c-1.4,3.5-1.1,7.4,0.7,10.6c-6.7,1.2-11.1,7.6-9.9,14.3
							c1.2,6.7,7.6,11.1,14.3,9.9c2.5-0.4,4.7-1.6,6.5-3.4c2.3,2.3,5.4,3.5,8.6,3.5c0.4,0,0.7,0,1.1-0.1l-4.8,3.1h-9.8
							c-6.7,0-12.2,5.1-12.8,11.7c23.4,19.9,57.8,19.9,81.2,0c-0.6-6.6-6.2-11.7-12.8-11.7h-5.9l-4.8-3.1c0.4,0,0.7,0.1,1.1,0.1
							c3.2,0,6.3-1.3,8.6-3.5c4.8,4.8,12.6,4.7,17.4-0.1c4.8-4.8,4.7-12.6-0.1-17.4C171.1,138.8,168.8,137.6,166.4,137.1
							L166.4,137.1z"/>
						<path class="st3" d="M167.1,137.9c1.8-3.2,2.1-7.2,0.7-10.6c0.3-0.8,0.4-1.6,0.4-2.4v-1.6c0-2.6-1.4-4.9-3.6-6.2l-3.6-13.2
							l0,0c-3.4-16.4-19.5-26.9-35.8-23.5c-0.7,0.1-1.3,0.3-2,0.5c-5,1.4-9.6,4.1-13.3,7.8c-4.2,4.2-7,9.5-8.3,15.2l0,0L98,117
							c-2.2,1.3-3.6,3.6-3.6,6.2v1.6c0,0.8,0.1,1.7,0.4,2.4c-1.4,3.5-1.1,7.4,0.7,10.6c-6.7,1.2-11.1,7.7-9.9,14.3
							s7.7,11.1,14.3,9.9c2.4-0.4,4.7-1.6,6.4-3.3c2.3,2.3,5.4,3.5,8.6,3.5c0.4,0,0.7,0,1.1,0l-4.8,3.1h-9.8
							c-6.6,0-12.2,5-12.8,11.6c23.4,20,57.9,20,81.3,0c-0.6-6.6-6.2-11.7-12.8-11.7h-5.9l-4.8-3.1c0.4,0,0.7,0,1.1,0
							c3.2,0,6.3-1.3,8.6-3.5c4.8,4.8,12.6,4.7,17.4-0.1c4.8-4.8,4.7-12.6-0.1-17.4C171.8,139.4,169.6,138.3,167.1,137.9
							L167.1,137.9z"/>
						<path class="st3" d="M167.8,138.6c1.8-3.2,2.1-7.2,0.7-10.6c0.3-0.8,0.4-1.6,0.4-2.4v-1.6c0-2.6-1.4-4.9-3.6-6.2l-3.6-13.2
							l0,0c-3.4-16.4-19.5-26.9-35.8-23.5c-0.7,0.1-1.3,0.3-2,0.5c-5,1.4-9.6,4.1-13.3,7.8c-4.2,4.2-7,9.5-8.2,15.2l0,0l-3.6,13.2
							c-2.2,1.3-3.6,3.6-3.6,6.2v1.6c0,0.8,0.1,1.7,0.4,2.4c-1.4,3.5-1.1,7.4,0.7,10.6c-6.7,1.2-11.1,7.7-9.9,14.3
							s7.7,11.1,14.3,9.9c2.4-0.4,4.7-1.6,6.4-3.3c2.3,2.3,5.4,3.5,8.6,3.5c0.4,0,0.7,0,1.1-0.1l-4.8,3.1h-9.8
							c-6.7,0-12.2,5.1-12.8,11.7c23.4,19.9,57.8,19.9,81.2,0c-0.6-6.6-6.2-11.7-12.8-11.7H152l-4.8-3c0.4,0,0.7,0.1,1.1,0.1
							c3.2,0,6.3-1.3,8.6-3.5c4.8,4.8,12.6,4.7,17.4-0.1c4.8-4.8,4.7-12.6-0.1-17.4C172.5,140.2,170.2,139.1,167.8,138.6
							L167.8,138.6z"/>
						<path class="st3" d="M168.5,139.3c1.8-3.2,2.1-7.2,0.7-10.6c0.3-0.8,0.4-1.6,0.4-2.4v-1.7c0-2.6-1.4-4.9-3.6-6.2l-3.6-13.2
							l0,0C159,88.8,143,78.3,126.6,81.7c-0.7,0.1-1.3,0.3-2,0.5c-5,1.4-9.6,4.1-13.3,7.8c-4.2,4.2-7,9.5-8.2,15.2l0,0l-3.6,13.2
							c-2.2,1.3-3.6,3.6-3.6,6.2v1.7c0,0.8,0.1,1.7,0.4,2.4c-1.4,3.5-1.1,7.4,0.7,10.6c-6.7,1.2-11.1,7.7-9.9,14.3
							s7.7,11.1,14.3,9.9c2.4-0.4,4.7-1.6,6.4-3.3c2.3,2.3,5.4,3.5,8.6,3.5c0.4,0,0.7,0,1.1-0.1l-4.8,3.1H103
							c-6.6,0-12.2,5-12.8,11.7c23.4,19.9,57.8,19.9,81.2,0c-0.6-6.6-6.2-11.7-12.8-11.7h-5.9l-4.7-3.1c0.4,0,0.7,0.1,1.1,0.1
							c3.2,0,6.3-1.3,8.6-3.5c4.8,4.8,12.6,4.7,17.4-0.1c4.8-4.8,4.7-12.6-0.1-17.4C173.2,140.9,171,139.7,168.5,139.3L168.5,139.3z
							"/>
						<path class="st3" d="M169.2,140c1.8-3.2,2.1-7.2,0.7-10.6c0.3-0.8,0.4-1.6,0.4-2.4v-1.7c0-2.6-1.4-4.9-3.6-6.2l-3.6-13.2l0,0
							c-3.4-16.4-19.5-26.9-35.8-23.5c-0.7,0.1-1.3,0.3-2,0.5c-5,1.4-9.6,4.1-13.3,7.7c-4.2,4.2-7,9.5-8.2,15.2l0,0l-3.6,13.2
							c-2.2,1.3-3.6,3.6-3.6,6.2v1.7c0,0.8,0.1,1.7,0.4,2.4c-1.4,3.4-1.1,7.3,0.7,10.6c-6.7,1.2-11.1,7.7-9.9,14.3
							s7.7,11.1,14.3,9.9c2.4-0.4,4.7-1.6,6.4-3.3c2.3,2.3,5.4,3.5,8.6,3.5c0.4,0,0.7,0,1.1,0l-4.8,3.1h-9.8
							c-6.6,0-12.2,5-12.8,11.7c23.4,19.9,57.8,19.9,81.2,0c-0.6-6.6-6.2-11.7-12.8-11.7h-5.9l-4.8-3.1c0.4,0,0.7,0,1.1,0
							c3.2,0,6.3-1.3,8.6-3.5c4.8,4.8,12.6,4.7,17.4-0.1c4.8-4.8,4.7-12.6-0.1-17.4C173.9,141.6,171.7,140.4,169.2,140z"/>
						<path class="st3" d="M170,140.7c1.8-3.2,2.1-7.2,0.7-10.6c0.3-0.8,0.4-1.6,0.4-2.4V126c0-2.6-1.4-4.9-3.6-6.2l-3.6-13.2l0,0
							c-3.4-16.4-19.5-26.9-35.9-23.5c-0.7,0.1-1.3,0.3-2,0.5c-5,1.4-9.6,4.1-13.3,7.8c-4.2,4.2-7,9.5-8.2,15.2l0,0l-3.6,13.2
							c-2.2,1.3-3.6,3.6-3.6,6.2v1.7c0,0.8,0.1,1.7,0.4,2.4c-1.4,3.5-1.1,7.4,0.7,10.6c-6.7,1.2-11.1,7.7-9.9,14.3
							s7.7,11.1,14.3,9.9c2.4-0.4,4.7-1.6,6.4-3.3c2.3,2.3,5.4,3.5,8.6,3.5c0.4,0,0.7,0,1.1-0.1l-4.8,3.1h-9.8
							c-6.6,0-12.2,5-12.8,11.7c23.4,19.9,57.8,19.9,81.2,0c-0.6-6.6-6.2-11.7-12.8-11.7h-5.9l-4.8-3.1c0.4,0,0.7,0.1,1.1,0.1
							c3.2,0,6.3-1.3,8.6-3.5c4.9,4.8,12.7,4.7,17.4-0.1c4.8-4.9,4.7-12.7-0.1-17.4C174.6,142.3,172.4,141.2,170,140.7z"/>
						<path class="st3" d="M170.7,141.4c1.8-3.2,2.1-7.2,0.7-10.6c0.3-0.8,0.4-1.6,0.4-2.4v-1.7c0-2.6-1.4-4.9-3.6-6.2l-3.6-13.2
							l0,0c-3.4-16.4-19.5-26.9-35.8-23.5c-0.7,0.1-1.3,0.3-2,0.5c-5,1.4-9.6,4.1-13.3,7.8c-4.2,4.2-7,9.5-8.2,15.2l0,0l-3.6,13.2
							c-2.2,1.3-3.6,3.6-3.6,6.2v1.7c0,0.8,0.1,1.7,0.4,2.4c-1.4,3.5-1.1,7.4,0.7,10.6c-6.7,1.3-11.1,7.7-9.8,14.4
							c1.3,6.7,7.7,11.1,14.4,9.8c2.4-0.5,4.6-1.6,6.4-3.3c2.3,2.3,5.4,3.5,8.6,3.5c0.4,0,0.7,0,1.1-0.1l-4.8,3.1h-9.8
							c-6.6,0-12.2,5-12.8,11.7c23.4,19.9,57.8,19.9,81.2,0c-0.6-6.6-6.2-11.7-12.8-11.7h-5.9l-4.8-3.1c0.4,0,0.7,0.1,1.1,0.1
							c3.2,0,6.3-1.3,8.6-3.5c4.8,4.8,12.6,4.7,17.4-0.1c4.8-4.8,4.7-12.6-0.1-17.4C175.4,143,173.1,141.9,170.7,141.4L170.7,141.4z
							"/>
						<path class="st3" d="M171.4,142.1c1.8-3.2,2.1-7.2,0.7-10.6c0.3-0.8,0.4-1.6,0.4-2.4v-1.7c0-2.6-1.4-4.9-3.6-6.2l-3.6-13.3
							l0,0c-3.4-16.4-19.5-26.9-35.8-23.5c-0.7,0.1-1.3,0.3-2,0.5c-5,1.4-9.6,4.1-13.3,7.8c-4.2,4.2-7,9.5-8.3,15.2l0,0l-3.6,13.2
							c-2.2,1.3-3.6,3.6-3.6,6.2v1.6c0,0.8,0.1,1.7,0.4,2.4c-1.4,3.5-1.1,7.4,0.7,10.6c-6.7,1.3-11.1,7.7-9.8,14.4
							c1.3,6.7,7.7,11.1,14.4,9.8c2.4-0.4,4.6-1.6,6.3-3.3c2.3,2.3,5.4,3.5,8.6,3.5c0.4,0,0.7,0,1.1-0.1l-4.8,3.1h-9.8
							c-6.6,0-12.2,5.1-12.8,11.7c23.4,19.9,57.8,19.9,81.2,0c-0.6-6.6-6.2-11.7-12.8-11.7h-5.9l-4.8-3.1c0.4,0,0.7,0.1,1.1,0.1
							c3.2,0,6.3-1.3,8.6-3.5c4.8,4.8,12.6,4.7,17.4-0.1c4.8-4.8,4.7-12.6-0.1-17.4C176,143.7,173.8,142.6,171.4,142.1L171.4,142.1z
							"/>
						<path class="st3" d="M172.1,142.8c1.8-3.2,2.1-7.2,0.7-10.6c0.3-0.8,0.4-1.6,0.4-2.4v-1.6c0-2.6-1.4-4.9-3.6-6.2l-3.6-13.2
							l0,0c-3.4-16.4-19.5-26.9-35.8-23.5c-0.7,0.1-1.3,0.3-2,0.5c-5,1.4-9.6,4.1-13.3,7.8c-4.2,4.2-7,9.5-8.2,15.2l0,0L103,122
							c-2.2,1.3-3.6,3.6-3.6,6.2v1.6c0,0.8,0.2,1.7,0.4,2.4c-1.4,3.5-1.1,7.4,0.7,10.6c-6.7,1.2-11.1,7.7-9.9,14.3
							s7.7,11.1,14.3,9.9c2.4-0.4,4.7-1.6,6.4-3.3c2.3,2.3,5.4,3.5,8.6,3.5c0.4,0,0.7,0,1.1-0.1l-4.8,3.1h-9.8
							c-6.6,0-12.2,5.1-12.8,11.7c23.4,19.9,57.8,19.9,81.2,0c-0.6-6.6-6.2-11.7-12.8-11.7h-5.9l-4.8-3.1c0.4,0,0.7,0.1,1.1,0.1
							c3.2,0,6.3-1.3,8.6-3.5c4.8,4.8,12.6,4.7,17.4-0.1c4.8-4.8,4.7-12.6-0.1-17.4C176.7,144.5,174.5,143.3,172.1,142.8
							L172.1,142.8z"/>
						<path class="st3" d="M172.8,143.5c1.8-3.2,2.1-7.2,0.7-10.6c0.3-0.8,0.4-1.6,0.4-2.4v-1.6c0-2.6-1.4-4.9-3.6-6.2l-3.6-13.2
							l0,0c-3.4-16.4-19.5-26.9-35.8-23.5c-0.7,0.1-1.3,0.3-2,0.5c-5,1.4-9.6,4.1-13.3,7.8c-4.2,4.2-7,9.5-8.2,15.2l0,0l-3.6,13.2
							c-2.2,1.3-3.6,3.6-3.6,6.2v1.6c0,0.8,0.2,1.7,0.4,2.4c-1.4,3.5-1.1,7.4,0.7,10.6c-6.7,1.2-11.1,7.7-9.9,14.3
							s7.7,11.1,14.3,9.9c2.4-0.4,4.7-1.6,6.4-3.3c2.3,2.3,5.4,3.5,8.6,3.5c0.4,0,0.7,0,1.1-0.1L117,171h-9.8
							c-6.6,0-12.2,5.1-12.8,11.7c23.4,19.9,57.8,19.9,81.2,0c-0.6-6.6-6.2-11.7-12.8-11.7H157l-4.8-3.1c0.4,0,0.7,0.1,1.1,0.1
							c3.2,0,6.3-1.3,8.6-3.5c4.8,4.8,12.6,4.7,17.4-0.1c4.8-4.8,4.7-12.6-0.1-17.4C177.5,145.1,175.2,144,172.8,143.5L172.8,143.5z
							"/>
						<path class="st3" d="M173.5,144.3c1.8-3.2,2.1-7.2,0.7-10.6c0.3-0.8,0.4-1.6,0.4-2.4v-1.6c0-2.6-1.4-4.9-3.6-6.2l-3.6-13.2
							l0,0c-3.4-16.4-19.5-26.9-35.8-23.5c-0.7,0.1-1.3,0.3-2,0.5c-5,1.4-9.6,4.1-13.3,7.8c-4.2,4.2-7.1,9.5-8.3,15.2l0,0l-3.6,13.2
							c-2.2,1.3-3.6,3.6-3.6,6.2v1.6c0,0.8,0.2,1.7,0.4,2.4c-1.4,3.5-1.1,7.4,0.7,10.6c-6.7,1.2-11.1,7.7-9.9,14.3
							s7.7,11.1,14.3,9.9c2.4-0.4,4.7-1.6,6.4-3.3c2.3,2.3,5.4,3.5,8.6,3.5c0.4,0,0.7,0,1.1-0.1l-4.8,3.1h-9.8
							c-6.6,0-12.2,5-12.8,11.7c23.4,19.9,57.8,19.9,81.2,0c-0.6-6.6-6.2-11.7-12.8-11.7h-5.9l-4.8-3.1c0.4,0,0.7,0.1,1.1,0.1
							c3.2,0,6.3-1.3,8.6-3.5c4.8,4.8,12.6,4.7,17.4-0.1c4.8-4.8,4.7-12.6-0.1-17.4C178.1,145.9,175.9,144.7,173.5,144.3
							L173.5,144.3z"/>
						<path class="st3" d="M174.2,145c1.8-3.2,2.1-7.2,0.7-10.6c0.3-0.8,0.4-1.6,0.4-2.4v-1.6c0-2.6-1.4-4.9-3.6-6.2l-3.6-13.2l0,0
							c-3.4-16.4-19.4-26.9-35.8-23.5c-0.7,0.1-1.3,0.3-2,0.5c-5,1.4-9.6,4.1-13.3,7.8c-4.2,4.2-7,9.5-8.2,15.2l0,0l-3.7,13.2
							c-2.2,1.3-3.6,3.6-3.6,6.2v1.6c0,0.8,0.2,1.7,0.4,2.4c-1.4,3.5-1.1,7.4,0.7,10.6c-6.7,1.2-11.1,7.7-9.9,14.3
							s7.7,11.1,14.3,9.9c2.4-0.4,4.7-1.6,6.4-3.3c2.3,2.3,5.4,3.5,8.6,3.5c0.4,0,0.7,0,1.1-0.1l-4.8,3.1h-9.8
							c-6.6,0-12.2,5-12.8,11.7c23.4,19.9,57.8,19.9,81.2,0c-0.6-6.6-6.2-11.7-12.8-11.7h-5.9l-4.8-3.1c0.4,0,0.7,0.1,1.1,0.1
							c3.2,0,6.3-1.3,8.6-3.5c4.8,4.8,12.6,4.8,17.4,0c4.8-4.8,4.8-12.6,0-17.4C178.9,146.6,176.7,145.4,174.2,145z"/>
						<path class="st3" d="M174.9,145.7c1.8-3.2,2.1-7.2,0.7-10.6c0.3-0.8,0.4-1.6,0.4-2.4V131c0-2.6-1.4-4.9-3.6-6.2l-3.6-13.2l0,0
							c-3.4-16.4-19.4-26.9-35.8-23.5c-0.7,0.1-1.4,0.3-2,0.5c-5,1.4-9.6,4.1-13.3,7.8c-4.2,4.2-7,9.5-8.2,15.2l0,0l-3.6,13.2
							c-2.3,1.2-3.7,3.6-3.7,6.2v1.6c0,0.8,0.2,1.7,0.4,2.4c-1.4,3.5-1.1,7.4,0.7,10.6c-6.7,1.2-11.1,7.7-9.9,14.3
							s7.7,11.1,14.3,9.9c2.4-0.4,4.7-1.6,6.4-3.3c2.3,2.3,5.4,3.5,8.6,3.5c0.4,0,0.7,0,1.1-0.1l-4.8,3.1h-9.8
							c-6.6,0-12.2,5-12.8,11.6c23.4,19.9,57.8,19.9,81.2,0c-0.6-6.6-6.1-11.6-12.8-11.7h-5.9l-4.8-3.1c0.4,0,0.7,0.1,1.1,0.1
							c3.2,0,6.3-1.3,8.6-3.5c4.8,4.8,12.6,4.7,17.4-0.1c4.8-4.8,4.7-12.6-0.1-17.4C179.6,147.3,177.4,146.1,174.9,145.7
							L174.9,145.7z"/>
						<path class="st3" d="M175.6,146.4c1.8-3.2,2.1-7.2,0.7-10.6c0.3-0.8,0.4-1.6,0.4-2.4v-1.6c0-2.6-1.4-4.9-3.6-6.2l-3.6-13.2
							l0,0c-3.4-16.4-19.5-26.9-35.8-23.5c-0.7,0.1-1.4,0.3-2,0.5c-5,1.4-9.6,4.1-13.3,7.8c-4.2,4.2-7,9.5-8.2,15.2l0,0l-3.6,13.2
							c-2.2,1.3-3.6,3.6-3.6,6.2v1.6c0,0.8,0.2,1.7,0.4,2.4c-1.4,3.5-1.1,7.4,0.7,10.6c-6.7,1.2-11.1,7.7-9.9,14.3
							s7.7,11.1,14.3,9.9c2.4-0.4,4.7-1.6,6.4-3.3c2.3,2.3,5.4,3.5,8.6,3.5c0.4,0,0.7,0,1.1-0.1l-4.8,3.1H110
							c-6.6,0-12.2,5-12.8,11.7c23.4,19.9,57.8,19.9,81.2,0c-0.6-6.6-6.2-11.7-12.8-11.7h-5.8l-4.8-3.1c0.4,0,0.7,0.1,1.1,0.1
							c3.2,0,6.3-1.3,8.6-3.5c4.8,4.8,12.6,4.7,17.4-0.1c4.8-4.8,4.7-12.6-0.1-17.4C180.3,148,178,146.8,175.6,146.4L175.6,146.4z"
							/>
						<path class="st3" d="M176.3,147.1c1.8-3.2,2.1-7.2,0.7-10.6c0.3-0.8,0.4-1.6,0.4-2.4v-1.7c0-2.6-1.4-4.9-3.6-6.2l-3.6-13.2
							l0,0c-3.4-16.4-19.5-26.9-35.8-23.5c-0.7,0.1-1.4,0.3-2,0.5c-5,1.4-9.6,4.1-13.3,7.8c-4.2,4.2-7,9.5-8.3,15.2l0,0l-3.6,13.2
							c-2.2,1.3-3.6,3.6-3.6,6.2v1.6c0,0.8,0.2,1.7,0.4,2.4c-1.4,3.5-1.1,7.4,0.7,10.6c-6.7,1.3-11.1,7.7-9.8,14.4
							c1.3,6.7,7.7,11.1,14.4,9.8c2.4-0.4,4.6-1.6,6.3-3.3c2.3,2.3,5.4,3.5,8.6,3.5c0.4,0,0.7,0,1.1-0.1l-4.8,3.1h-9.8
							c-6.6,0-12.2,5-12.8,11.7c23.4,19.9,57.8,19.9,81.2,0c-0.6-6.6-6.2-11.7-12.8-11.7h-5.9l-4.8-3.1c0.4,0,0.7,0.1,1.1,0.1
							c3.2,0,6.3-1.3,8.6-3.5c4.8,4.8,12.6,4.7,17.4-0.1c4.8-4.8,4.7-12.6-0.1-17.4C181,148.7,178.8,147.6,176.3,147.1L176.3,147.1z
							"/>
						<path class="st3" d="M177.1,147.8c1.8-3.2,2.1-7.2,0.7-10.6c0.3-0.8,0.4-1.6,0.4-2.4v-1.6c0-2.6-1.4-4.9-3.6-6.2l-3.6-13.2
							l0,0c-3.4-16.4-19.5-26.9-35.8-23.5c-0.7,0.1-1.4,0.3-2,0.5c-5,1.4-9.6,4.1-13.3,7.8c-4.2,4.2-7,9.5-8.2,15.2l0,0l-3.6,13.2
							c-2.2,1.3-3.6,3.6-3.6,6.2v1.6c0,0.8,0.2,1.6,0.4,2.4c-1.4,3.5-1.1,7.4,0.7,10.6c-6.7,1.2-11.1,7.7-9.9,14.3
							s7.7,11.1,14.3,9.9c2.4-0.4,4.7-1.6,6.4-3.3c2.3,2.3,5.4,3.5,8.6,3.5c0.4,0,0.7,0,1.1-0.1l-4.8,3.1h-9.8
							c-6.6,0-12.2,5-12.8,11.7c23.4,19.9,57.8,19.9,81.2,0c-0.6-6.6-6.2-11.7-12.8-11.7h-5.9l-4.8-3.1c0.4,0,0.7,0.1,1.1,0.1
							c3.2,0,6.3-1.3,8.6-3.5c4.8,4.8,12.6,4.7,17.4-0.1c4.8-4.8,4.7-12.6-0.1-17.4C181.7,149.4,179.5,148.2,177.1,147.8
							L177.1,147.8z"/>
						<path class="st3" d="M177.8,148.5c1.8-3.2,2.1-7.2,0.7-10.6c0.3-0.8,0.4-1.6,0.4-2.4v-1.6c0-2.6-1.4-4.9-3.6-6.2l-3.6-13.2
							l0,0c-3.4-16.3-19.5-26.8-35.8-23.4c-0.7,0.1-1.4,0.3-2,0.5c-5,1.4-9.6,4.1-13.3,7.8c-4.2,4.2-7,9.5-8.2,15.2l0,0l-3.6,13.2
							c-2.2,1.3-3.6,3.6-3.6,6.2v1.6c0,0.8,0.2,1.6,0.4,2.4c-1.4,3.5-1.1,7.4,0.7,10.6c-6.7,1.2-11.1,7.7-9.9,14.3
							s7.7,11.1,14.3,9.9c2.4-0.4,4.7-1.6,6.4-3.3c2.3,2.3,5.4,3.5,8.6,3.5c0.4,0,0.7,0,1.1-0.1L122,176h-9.8
							c-6.6,0-12.2,5-12.8,11.7c23.4,19.9,57.8,19.9,81.2,0c-0.6-6.6-6.2-11.7-12.8-11.7h-5.9l-4.8-3.1c0.4,0,0.7,0.1,1.1,0.1
							c3.2,0,6.3-1.3,8.6-3.5c4.8,4.8,12.6,4.7,17.4-0.1c4.8-4.8,4.7-12.6-0.1-17.4C182.4,150.1,180.2,149,177.8,148.5L177.8,148.5z
							"/>
						<path class="st3" d="M178.5,149.2c1-1.8,1.6-3.9,1.6-6c0-1.6-0.3-3.1-0.9-4.6c0.3-0.8,0.4-1.6,0.4-2.4v-1.6
							c0-2.6-1.4-4.9-3.6-6.2l-3.6-13.2l0,0c-3.4-16.4-19.5-26.9-35.8-23.5c-0.7,0.1-1.4,0.3-2,0.5c-5,1.4-9.6,4.1-13.3,7.8
							c-4.2,4.2-7,9.4-8.2,15.2l0,0l-3.6,13.2c-2.2,1.3-3.6,3.6-3.6,6.2v1.6c0,0.8,0.2,1.6,0.4,2.4c-1.4,3.5-1.2,7.4,0.7,10.6
							c-6.7,1.2-11.1,7.7-9.9,14.3s7.7,11.1,14.3,9.9c2.4-0.4,4.7-1.6,6.4-3.3c2.3,2.3,5.4,3.5,8.6,3.5c0.4,0,0.7,0,1.1-0.1
							l-4.8,3.1h-9.8c-6.6,0-12.2,5-12.8,11.7c23.4,19.9,57.8,19.9,81.2,0c-0.6-6.6-6.2-11.7-12.8-11.7h-5.9l-4.8-3.1
							c0.4,0,0.7,0.1,1.1,0.1c3.2,0,6.3-1.3,8.6-3.5c4.8,4.8,12.6,4.7,17.4-0.1c4.8-4.8,4.7-12.6-0.1-17.4
							C183.1,150.8,180.9,149.7,178.5,149.2L178.5,149.2z"/>
						<path class="st3" d="M179.2,149.9c1.8-3.3,2.1-7.2,0.7-10.6c0.3-0.8,0.4-1.6,0.4-2.4v-1.6c0-2.6-1.4-4.9-3.6-6.2l-3.6-13.2
							l0,0c-3.4-16.4-19.5-26.9-35.8-23.5c-0.7,0.1-1.4,0.3-2,0.5c-10.9,3-19.2,11.9-21.5,23l0,0l-3.6,13.2
							c-2.2,1.3-3.6,3.6-3.6,6.2v1.6c0,0.8,0.2,1.6,0.4,2.4c-1.4,3.5-1.2,7.4,0.7,10.6c-6.7,1.2-11.1,7.7-9.9,14.3
							s7.7,11.1,14.3,9.9c2.4-0.4,4.7-1.6,6.4-3.3c2.3,2.3,5.4,3.5,8.6,3.5c0.4,0,0.7,0,1.1-0.1l-4.8,3.1h-9.8
							c-6.6,0-12.2,5-12.8,11.7c23.4,19.9,57.8,19.9,81.2,0c-0.6-6.6-6.2-11.7-12.8-11.7h-5.9l-4.8-3.1c0.4,0,0.7,0.1,1.1,0.1
							c3.2,0,6.3-1.3,8.6-3.5c4.8,4.8,12.6,4.7,17.4-0.1c4.8-4.8,4.7-12.6-0.1-17.4C183.8,151.6,181.6,150.4,179.2,149.9
							L179.2,149.9z"/>
					</g>
				</g>
			</g>
		</g>
		<g id="icon">
			<path class="st4" d="M103.2,110.3c-23.4,19.9-57.8,19.9-81.2,0c0.6-6.6,6.2-11.7,12.8-11.7h55.6
				C97.1,98.6,102.6,103.7,103.2,110.3z"/>
			<polygon class="st5" points="27.2,65.1 34.9,37.1 94.3,37.1 102,65.1 			"/>
			<circle class="st5" cx="39.5" cy="65.1" r="12.3"/>
			<circle class="st5" cx="31" cy="83.3" r="12.3"/>
			<circle class="st5" cx="48.3" cy="83.3" r="12.3"/>
			<circle class="st5" cx="89.7" cy="65.1" r="12.3"/>
			<circle class="st5" cx="98.1" cy="83.3" r="12.3"/>
			<circle class="st5" cx="80.9" cy="83.3" r="12.3"/>
			<rect x="54.3" y="79" class="st6" width="20.6" height="20.6"/>
			<path class="st6" d="M34.8,49.4H36l0,0v15.8l0,0h-1.2c-3.9,0-7.1-3.2-7.1-7.1l0,0v-1.6C27.7,52.5,30.8,49.4,34.8,49.4L34.8,49.4z
				"/>
			<path class="st6" d="M94.4,65.2h-1.2l0,0V49.4l0,0h1.2c3.9,0,7.1,3.2,7.1,7.1v1.6C101.5,62,98.3,65.2,94.4,65.2z"/>
			<path class="st0" d="M94.9,44.4V59C94.6,75.7,80.8,89.1,64,88.8C47.7,88.5,34.6,75.3,34.3,59V44.4c0-0.2,0-0.4,0-0.6
				c0.3-16.5,13.8-29.7,30.3-29.7c2.1,0,4.1,0.2,6.2,0.6c0.7,0.1,1.3,0.3,2,0.5C85.9,18.8,94.9,30.8,94.9,44.4L94.9,44.4z"/>
			<path class="st4" d="M53.7,54.1L53.7,54.1c1.3,0,2.3,1,2.3,2.3V59c0,1.3-1,2.3-2.3,2.3l0,0c-1.3,0-2.3-1-2.3-2.3v-2.6
				C51.3,55.1,52.4,54.1,53.7,54.1z"/>
			<path class="st4" d="M75.5,61.3L75.5,61.3c-1.3,0-2.3-1-2.3-2.3v-2.6c0-1.3,1-2.3,2.3-2.3l0,0c1.3,0,2.3,1,2.3,2.3V59
				C77.8,60.3,76.8,61.3,75.5,61.3z"/>
			<path class="st7" d="M64.6,69.4c-2.3-0.1-4.1-2.1-4-4.4c0.1-2.2,1.8-3.9,4-4"/>
			<path class="st7" d="M72.6,75.3c0,2-3.6,3.6-8,3.6s-8-1.6-8-3.6"/>
			<polygon class="st8" points="64.6,99.6 54.3,92.3 44.3,98.8 56.6,109.9 			"/>
			<polygon class="st8" points="64.6,99.6 74.9,92.3 84.9,98.8 72.6,109.9 			"/>
			<path class="st5" d="M94.9,42.6c-0.4-16.7-14.3-30-31-29.6c-1.8,0-3.7,0.2-5.5,0.6c-0.7,0.1-1.3,0.3-2,0.5
				c-13.1,3.6-22.1,15.6-22.2,29.1v11.6c0,1.5,0.1,3.1,0.3,4.6l0,0C37.7,53,43.9,48.6,51,47.6l3.4-0.5c3.5-0.5,6.9-1.3,10.2-2.5
				c6.5-2.4,12.5-6.2,17.4-11.2l12.5,26.2c0.3-1.6,0.4-3.2,0.4-4.8V43.3C94.9,43,94.9,42.8,94.9,42.6z"/>
		</g>
	</g>
</g>
</svg>
