<?xml version="1.0" encoding="utf-8"?>
<!-- Generator: Adobe Illustrator 23.1.0, SVG Export Plug-In . SVG Version: 6.00 Build 0)  -->
<svg version="1.1" id="Layer_1" xmlns="http://www.w3.org/2000/svg" xmlns:xlink="http://www.w3.org/1999/xlink" x="0px" y="0px"
	 viewBox="0 0 150 150" style="enable-background:new 0 0 150 150;" xml:space="preserve">
<style type="text/css">
	.st0{fill:#FC6F58;}
	.st1{fill:#324A5E;}
	.st2{fill:#2B3B4E;}
	.st3{fill:#FFD0B8;}
	.st4{fill:#FFDDCA;}
	.st5{fill:none;stroke:#FFB392;stroke-width:2;stroke-linecap:round;stroke-miterlimit:10;}
</style>
<path class="st0" d="M119.7,105.53c-10.94,9.33-25.12,14.96-40.62,14.96s-29.68-5.63-40.62-14.96c0.6-6.55,6.11-11.66,12.81-11.66
	h55.62C113.59,93.87,119.1,98.98,119.7,105.53z"/>
<path class="st1" d="M110.65,19.02c0,3.57-1.23,6.86-3.29,9.46c-1.57-2.94-3.59-5.67-6.02-8.1c-4.2-4.18-9.4-7.21-14.93-8.74
	c-0.83-0.25-1.63-0.43-2.37-0.58c-0.49-0.1-0.98-0.19-1.48-0.28c2.7-4.22,7.44-7.02,12.83-7.02
	C103.82,3.76,110.65,10.59,110.65,19.02z"/>
<path class="st2" d="M107.36,28.48c-2.79,3.53-7.12,5.8-11.97,5.8c-8.42,0-15.25-6.84-15.25-15.26c0-3.04,0.89-5.87,2.42-8.24
	c0.5,0.09,0.99,0.18,1.48,0.28c0.74,0.15,1.54,0.33,2.37,0.58c5.53,1.53,10.73,4.56,14.93,8.74
	C103.77,22.81,105.79,25.54,107.36,28.48z"/>
<rect x="66.79" y="79.33" class="st3" width="20.58" height="14.54"/>
<path class="st3" d="M47.25,65.48h1.24V49.65h-1.24c-3.91,0-7.09,3.17-7.09,7.09v1.65C40.16,62.3,43.33,65.48,47.25,65.48z"/>
<path class="st3" d="M106.91,65.48h-1.24V49.65h1.24c3.91,0,7.09,3.17,7.09,7.09v1.65C114,62.3,110.82,65.48,106.91,65.48z"/>
<path class="st4" d="M107.39,44.66V59.3c0,16.75-13.57,30.32-30.32,30.32c-16.75,0-30.32-13.57-30.32-30.32V44.66
	c0-0.22,0-0.44,0.01-0.64c0.33-16.45,13.78-29.67,30.3-29.67c2.11,0,4.17,0.22,6.16,0.63c0.68,0.14,1.35,0.3,2.01,0.49
	c5.09,1.41,9.63,4.13,13.27,7.76C104,28.72,107.39,36.29,107.39,44.66z"/>
<path class="st1" d="M66.15,61.6L66.15,61.6c-1.28,0-2.32-1.04-2.32-2.32V56.7c0-1.28,1.04-2.32,2.32-2.32h0
	c1.28,0,2.32,1.04,2.32,2.32v2.58C68.47,60.56,67.43,61.6,66.15,61.6z"/>
<path class="st1" d="M88,61.6L88,61.6c1.28,0,2.32-1.04,2.32-2.32V56.7c0-1.28-1.04-2.32-2.32-2.32h0c-1.28,0-2.32,1.04-2.32,2.32
	v2.58C85.68,60.56,86.72,61.6,88,61.6z"/>
<path class="st5" d="M77.08,69.68c-2.32,0-4.21-1.88-4.21-4.21c0-2.32,1.88-4.21,4.21-4.21"/>
<path class="st5" d="M85.07,75.57c0,2-3.58,3.63-7.99,3.63c-4.41,0-7.99-1.62-7.99-3.63"/>
<path class="st1" d="M98.52,23.22c-3.64-3.62-8.18-6.34-13.27-7.75c-0.66-0.2-1.33-0.35-2.01-0.49c-1.99-0.41-4.05-0.63-6.16-0.63
	c-16.53,0-29.97,13.22-30.3,29.67c-0.02,0.21-0.02,0.42-0.02,0.64V59.3c0,1.62,0.13,3.21,0.38,4.76l9.09-25.17
	c0.42-1.17,0.99-2.26,1.68-3.26l7.1,7.1c3.42,3.42,8.85,3.58,12.47,0.49c3.43,2.93,8.49,2.93,11.92,0c2.98,2.54,7.19,2.87,10.5,1
	l7.16,19.71c0.23-1.51,0.35-3.06,0.35-4.63V44.66C107.4,36.29,104,28.71,98.52,23.22z"/>
<polygon class="st3" points="77.08,101.19 66.79,93.87 87.37,93.87 "/>
</svg>
