<?xml version="1.0" encoding="utf-8"?>
<!-- Generator: Adobe Illustrator 23.1.0, SVG Export Plug-In . SVG Version: 6.00 Build 0)  -->
<svg version="1.1" id="Layer_1" xmlns="http://www.w3.org/2000/svg" xmlns:xlink="http://www.w3.org/1999/xlink" x="0px" y="0px"
	 viewBox="0 0 150 150" style="enable-background:new 0 0 150 150;" xml:space="preserve">
<style type="text/css">
	.st0{fill:#FFD15D;}
	.st1{fill:#935635;}
	.st2{fill:#FFD0B8;}
	.st3{fill:#FFDDCA;}
	.st4{fill:#324A5E;}
	.st5{fill:none;stroke:#FFB392;stroke-width:2;stroke-linecap:round;stroke-miterlimit:10;}
	.st6{fill:#FC6F58;}
	.st7{fill:none;stroke:#FC6F58;stroke-width:2.5;stroke-linecap:round;stroke-linejoin:round;stroke-miterlimit:10;}
</style>
<path class="st0" d="M117.7,107.53c-10.94,9.33-25.12,14.96-40.62,14.96s-29.68-5.63-40.62-14.96c0.6-6.55,6.11-11.66,12.81-11.66
	h55.62C111.59,95.87,117.1,100.98,117.7,107.53z"/>
<circle class="st1" cx="48.98" cy="72.87" r="14.31"/>
<rect x="66.79" y="79.3" class="st2" width="20.58" height="20.58"/>
<path class="st2" d="M47.24,65.45h1.24V49.63h-1.24c-3.91,0-7.09,3.17-7.09,7.09v1.65C40.16,62.27,43.33,65.45,47.24,65.45z"/>
<path class="st2" d="M106.91,65.45h-1.24V49.63h1.24c3.91,0,7.09,3.17,7.09,7.09v1.65C113.99,62.27,110.82,65.45,106.91,65.45z"/>
<path class="st3" d="M107.39,44.64v14.64c0,16.75-13.57,30.32-30.32,30.32c-16.75,0-30.32-13.57-30.32-30.32V44.64
	c0-0.22,0-0.44,0.01-0.64c0.33-16.45,13.78-29.67,30.3-29.67c2.11,0,4.17,0.22,6.16,0.63c0.68,0.14,1.35,0.3,2.01,0.49
	c5.09,1.41,9.63,4.13,13.27,7.76C104,28.69,107.39,36.26,107.39,44.64z"/>
<path class="st4" d="M66.15,61.57L66.15,61.57c-1.28,0-2.32-1.04-2.32-2.32v-2.58c0-1.28,1.04-2.32,2.32-2.32l0,0
	c1.28,0,2.32,1.04,2.32,2.32v2.58C68.47,60.53,67.43,61.57,66.15,61.57z"/>
<path class="st4" d="M88,61.57L88,61.57c1.28,0,2.32-1.04,2.32-2.32v-2.58c0-1.28-1.04-2.32-2.32-2.32l0,0
	c-1.28,0-2.32,1.04-2.32,2.32v2.58C85.68,60.53,86.72,61.57,88,61.57z"/>
<path class="st5" d="M77.08,69.65c-2.32,0-4.21-1.88-4.21-4.21c0-2.32,1.88-4.21,4.21-4.21"/>
<path class="st5" d="M85.07,75.55c0,2-3.58,3.63-7.99,3.63s-7.99-1.62-7.99-3.63"/>
<polygon class="st6" points="77.08,99.88 66.79,92.56 56.79,95.87 69.09,110.16 "/>
<polygon class="st6" points="77.08,99.88 87.37,92.56 97.37,95.87 85.07,110.16 "/>
<path class="st1" d="M107.4,44.63v14.64c0,1.57-0.12,3.12-0.35,4.63l-12.6-26.03H59.71L47.14,64.03c-0.25-1.55-0.38-3.14-0.38-4.76
	V44.63c0-0.22,0-0.43,0.02-0.64c0.33-16.45,13.77-29.67,30.3-29.67c2.11,0,4.17,0.22,6.16,0.63c0.68,0.14,1.35,0.29,2.01,0.49
	c5.09,1.41,9.63,4.13,13.27,7.75C104,28.68,107.4,36.26,107.4,44.63z"/>
<polygon class="st1" points="95.37,46.23 58.78,46.23 56.86,32.75 97.29,32.75 "/>
<path class="st7" d="M68.97,64.54h-5.64c-2.07,0-3.76-1.68-3.76-3.76v-5.07c0-2.07,1.68-3.76,3.76-3.76h5.64
	c2.07,0,3.76,1.68,3.76,3.76v5.07C72.73,62.86,71.05,64.54,68.97,64.54z"/>
<path class="st7" d="M90.82,64.54h-5.64c-2.07,0-3.76-1.68-3.76-3.76v-5.07c0-2.07,1.68-3.76,3.76-3.76h5.64
	c2.07,0,3.76,1.68,3.76,3.76v5.07C94.58,62.86,92.9,64.54,90.82,64.54z"/>
<line class="st7" x1="72.73" y1="58.25" x2="81.42" y2="58.25"/>
</svg>
