<?xml version="1.0" encoding="utf-8"?>
<!-- Generator: Adobe Illustrator 23.0.0, SVG Export Plug-In . SVG Version: 6.00 Build 0)  -->
<svg version="1.1" id="Layer_1" xmlns="http://www.w3.org/2000/svg" xmlns:xlink="http://www.w3.org/1999/xlink" x="0px" y="0px"
	 viewBox="0 0 190 257" style="enable-background:new 0 0 190 257;" xml:space="preserve">
<style type="text/css">
	.st0{clip-path:url(#SVGID_2_);}
	.st1{fill:#FFFFFF;}
</style>
<g>
	<g>
		<g>
			<defs>
				<rect id="SVGID_1_" x="-1140.5" y="-1536.5" width="2475" height="2025"/>
			</defs>
			<clipPath id="SVGID_2_">
				<use xlink:href="#SVGID_1_"  style="overflow:visible;"/>
			</clipPath>
			<g class="st0">
				<g>
					<g>
						<polygon class="st1" points="141.7,143 97.1,119.6 62.8,137.6 57.5,127.5 97.1,106.6 126.5,122.1 120.9,89.4 144.6,66.2 
							111.8,61.4 97.1,31.7 82.4,61.4 49.6,66.2 73.3,89.4 69.3,112.6 58.1,110.7 61,93.4 25,58.2 74.8,51 97.1,5.8 119.4,51 
							169.2,58.2 133.1,93.4 						"/>
					</g>
					<g>
						<polygon class="st1" points="170.8,251.2 23.4,251.2 23.4,218.1 34.9,218.1 34.9,239.7 159.3,239.7 159.3,218.1 170.8,218.1 
													"/>
					</g>
					<g>
						<path class="st1" d="M34.9,207.6H23.4c0-1.8-0.1-3.8-0.1-5.9c-0.4-19.7-1.3-56.3,34.2-74.3l5.2,10.2
							c-29.1,14.7-28.4,44.3-27.9,63.9C34.8,203.7,34.9,205.7,34.9,207.6z"/>
					</g>
					<g>
						<path class="st1" d="M170.4,210.8c-25.4,0-59.6-12.7-73-36.2c-5.5-9.7-9.7-25.3,1.9-45l9.8,5.8c-7.1,12-7.7,23.3-1.8,33.5
							c10.7,18.8,41.1,30.4,63,30.4L170.4,210.8L170.4,210.8z"/>
					</g>
					<g>
						<rect x="46.8" y="218.5" class="st1" width="101.8" height="11.4"/>
					</g>
				</g>
			</g>
		</g>
	</g>
</g>
</svg>
