<?xml version="1.0" encoding="utf-8"?>
<!-- Generator: Adobe Illustrator 23.0.0, SVG Export Plug-In . SVG Version: 6.00 Build 0)  -->
<svg version="1.1" id="Layer_1" xmlns="http://www.w3.org/2000/svg" xmlns:xlink="http://www.w3.org/1999/xlink" x="0px" y="0px"
	 viewBox="0 0 80 80" style="enable-background:new 0 0 80 80;" xml:space="preserve">
<style type="text/css">
	.st0{fill:#888888;}
</style>
<g>
	<g>
		<path class="st0" d="M62.3,77.1c-5,0-9.2-3.7-10.1-8.5H5.8c0.8,2.8,3.4,4.9,6.4,4.9v3.6C6.6,77.1,2,72.5,2,66.8v-1.8h53.6v1.8
			c0,3.7,3,6.7,6.7,6.7c3.7,0,6.7-3,6.7-6.7h3.6C72.6,72.5,68,77.1,62.3,77.1z"/>
	</g>
	<g>
		<rect x="12.3" y="73.5" class="st0" width="50.1" height="3.6"/>
	</g>
	<g>
		<path class="st0" d="M72.6,66.8H69v-55c0-2,0.7-3.9,1.8-5.4H23.6c-3,0-5.4,2.4-5.4,5.4v55h-3.6v-55c0-4.9,4-8.9,8.9-8.9H78v3.6
			c-3,0-5.4,2.4-5.4,5.4V66.8z"/>
	</g>
	<g>
		<g>
			<path class="st0" d="M43.7,52.7c-9.3,0-16.9-7.6-16.9-16.9c0-9.3,7.6-16.9,16.9-16.9c3.5,0,6.9,1.1,9.8,3.1l-2.1,2.9
				c-2.3-1.6-4.9-2.5-7.7-2.5c-7.3,0-13.3,6-13.3,13.3c0,7.3,6,13.3,13.3,13.3c7.3,0,13.3-6,13.3-13.3c0-1.6-0.3-3.2-0.8-4.7
				l3.3-1.3c0.7,1.9,1.1,3.9,1.1,5.9C60.5,45.1,53,52.7,43.7,52.7z"/>
		</g>
		<g>
			<path class="st0" d="M55,28.8c-0.5-0.8-1-1.5-1.6-2.1l2.6-2.4c0.8,0.8,1.5,1.7,2.1,2.7L55,28.8z"/>
		</g>
		<g>
			<polygon class="st0" points="42.5,42.9 34.9,35.3 37.4,32.8 42.5,37.9 51.1,29.2 53.7,31.7 			"/>
		</g>
	</g>
</g>
</svg>
