<?xml version="1.0" encoding="utf-8"?>
<!-- Generator: Adobe Illustrator 23.0.0, SVG Export Plug-In . SVG Version: 6.00 Build 0)  -->
<svg version="1.1" id="Layer_1" xmlns="http://www.w3.org/2000/svg" xmlns:xlink="http://www.w3.org/1999/xlink" x="0px" y="0px"
	 viewBox="0 0 268 246" style="enable-background:new 0 0 268 246;" xml:space="preserve">
<style type="text/css">
	.st0{fill:#888888;}
</style>
<g>
	<g>
		<polygon class="st0" points="249.8,240.2 238.7,240.2 238.7,231.4 220.9,231.4 220.9,92 241.1,105.3 247.4,95.8 134.2,21.4 
			21.1,95.8 27.3,105.3 47.5,92 47.5,231.4 29.8,231.4 29.8,240.2 18.7,240.2 18.7,220.4 36.4,220.4 36.4,112.5 24.2,120.6 
			5.7,92.6 134.2,8.1 262.7,92.6 244.3,120.6 232,112.5 232,220.4 249.8,220.4 		"/>
	</g>
	<g>
		<rect x="59.3" y="220.4" class="st0" width="149.9" height="11.1"/>
	</g>
	<g>
		<g>
			<path class="st0" d="M134.2,192.8c-26.2,0-47.6-21.4-47.6-47.6c0-24.8,39.2-65.3,43.6-69.8l3.9-4l3.9,4
				c4.5,4.5,43.6,45,43.6,69.8C181.8,171.5,160.5,192.8,134.2,192.8z M134.2,87.4c-12.9,13.9-36.5,42.4-36.5,57.9
				c0,20.1,16.4,36.5,36.5,36.5s36.5-16.4,36.5-36.5C170.7,129.8,147.2,101.3,134.2,87.4z"/>
		</g>
		<g>
			<rect x="128.7" y="120.5" class="st0" width="11.1" height="66.8"/>
		</g>
		<g>
			
				<rect x="118" y="137.4" transform="matrix(0.7071 -0.7071 0.7071 0.7071 -71.6866 132.0428)" class="st0" width="11.1" height="30.3"/>
		</g>
	</g>
</g>
</svg>
