<?xml version="1.0" encoding="utf-8"?>
<!-- Generator: Adobe Illustrator 23.0.0, SVG Export Plug-In . SVG Version: 6.00 Build 0)  -->
<svg version="1.1" id="Layer_1" xmlns="http://www.w3.org/2000/svg" xmlns:xlink="http://www.w3.org/1999/xlink" x="0px" y="0px"
	 viewBox="0 0 216 201.6" style="enable-background:new 0 0 216 201.6;" xml:space="preserve">
<style type="text/css">
	.st0{clip-path:url(#SVGID_2_);}
	.st1{fill:#FFFFFF;}
</style>
<g>
	<g>
		<g>
			<defs>
				<rect id="SVGID_1_" x="-8.4" width="235" height="230.7"/>
			</defs>
			<clipPath id="SVGID_2_">
				<use xlink:href="#SVGID_1_"  style="overflow:visible;"/>
			</clipPath>
			<g class="st0">
				<g>
					<g>
						<g>
							<path d="M128.5,1203.2H46.1c-8.5,0-15.4-6.8-15.4-15.2V1021c0-8.3,6.9-15.2,15.4-15.2h82.3c8.5,0,15.4,6.8,15.4,15.2v29.3
								H135V1021c0-3.6-3-6.5-6.6-6.5H46.1c-3.7,0-6.6,2.9-6.6,6.5v167.1c0,3.6,3,6.5,6.6,6.5h82.3c3.6,0,6.6-2.9,6.6-6.5v-31.1h8.9
								v31.1C143.9,1196.5,136.9,1203.2,128.5,1203.2z"/>
						</g>
						<g>
							<rect x="57.5" y="1022.9" width="41.5" height="8.7"/>
						</g>
						<g>
							<rect x="105.8" y="1022.9" width="11.3" height="8.7"/>
						</g>
					</g>
					<g>
						<g>
							<path d="M163.6,1102.6c-8.9,0-16.3-7.2-16.3-16c0-8.8,7.3-16,16.3-16c9,0,16.3,7.2,16.3,16
								C179.9,1095.5,172.6,1102.6,163.6,1102.6z M163.6,1079.3c-4.1,0-7.4,3.3-7.4,7.3c0,4,3.4,7.3,7.4,7.3c4.1,0,7.4-3.3,7.4-7.3
								S167.8,1079.3,163.6,1079.3z"/>
						</g>
						<g>
							<path d="M163.6,1134.8l-24.5-24.1c-6.6-6.4-10.2-15-10.2-24.1s3.6-17.6,10.2-24.1l0,0c13.5-13.2,35.5-13.2,49,0
								c6.5,6.4,10.2,15,10.2,24.1s-3.6,17.6-10.2,24.1L163.6,1134.8z M145.4,1068.7c-4.9,4.8-7.6,11.2-7.6,17.9s2.7,13.2,7.6,17.9
								l18.3,17.9l18.3-17.9c4.9-4.8,7.6-11.2,7.6-17.9s-2.7-13.2-7.6-17.9C171.9,1058.8,155.4,1058.8,145.4,1068.7L145.4,1068.7z"
								/>
						</g>
					</g>
					<g>
						<path d="M108.6,1177.4H63.8v-8.7h44.9c5.8,0,10.6-4.6,10.6-10.4c0-10.5,8.7-19,19.3-19h28.3v8.7h-28.3
							c-5.8,0-10.6,4.6-10.6,10.4C127.9,1168.8,119.2,1177.4,108.6,1177.4z"/>
					</g>
					<g>
						<g>
							<path d="M84.5,1113.1c-11.4,0-20.7-9.2-20.7-20.3c0-11.2,9.3-20.3,20.7-20.3c11.4,0,20.7,9.2,20.7,20.3
								C105.2,1103.9,95.9,1113.1,84.5,1113.1z M84.5,1081.1c-6.6,0-11.9,5.2-11.9,11.7s5.3,11.7,11.9,11.7
								c6.6,0,11.9-5.2,11.9-11.7C96.3,1086.3,91,1081.1,84.5,1081.1z"/>
						</g>
						<g>
							<polygon points="92.9,1107.1 99.1,1101 112.1,1113.9 105.9,1120 							"/>
						</g>
					</g>
				</g>
				<g>
					<g>
						<rect x="104.2" y="119" class="st1" width="8.9" height="66.9"/>
					</g>
					<g>
						<path class="st1" d="M209.8,193.8L155.2,172l-46.5,18.6L62.1,172L7.5,193.8l35.4-84.1l40.7-16.4l-16.4,71.3l41.4,16.6
							l41.4-16.6l-16.4-71.3l40.7,16.4L209.8,193.8z M158.9,164.1l34.6,13.8l-25.9-61.6l-21.7-8.7L158.9,164.1z M49.6,116.4
							L23.7,178l34.6-13.8l12.9-56.5L49.6,116.4z"/>
					</g>
					<g>
						<g>
							<g>
								<polygon class="st1" points="130.8,30.4 137,24.2 137,24.2 								"/>
							</g>
							<g>
								<path class="st1" d="M108.6,107.9L80.2,80c-7.6-7.5-11.8-17.4-11.8-27.9s4.2-20.5,11.8-27.9c7.6-7.5,17.7-11.5,28.4-11.5
									s20.8,4.1,28.4,11.5l0,0c7.6,7.5,11.8,17.4,11.8,27.9s-4.2,20.5-11.8,27.9L108.6,107.9z M108.6,21.4c-8.4,0-16.3,3.2-22.2,9
									c-6,5.8-9.2,13.5-9.2,21.8s3.3,16,9.2,21.8l22.2,21.8l22.2-21.8c6-5.8,9.2-13.5,9.2-21.8s-3.3-15.9-9.2-21.8l0,0
									C124.9,24.5,117,21.4,108.6,21.4z"/>
							</g>
						</g>
						<g>
							<path class="st1" d="M108.6,70.9c-5.1,0-9.9-1.9-13.6-5.5l4.4-4.3l-4.4,4.3c-3.6-3.5-5.6-8.2-5.6-13.3s2-9.8,5.6-13.3
								c3.6-3.5,8.4-5.5,13.6-5.5c5.1,0,9.9,1.9,13.6,5.5c3.6,3.5,5.6,8.2,5.6,13.3c0,5-2,9.8-5.6,13.3
								C118.5,69,113.7,70.9,108.6,70.9z M101.4,59.3c3.9,3.8,10.7,3.8,14.6,0c2-1.9,3.1-4.5,3.1-7.2c0-2.7-1.1-5.2-3.1-7.2
								c-3.9-3.8-10.7-3.8-14.6,0c-2,1.9-3.1,4.5-3.1,7.2C98.3,54.8,99.4,57.4,101.4,59.3L101.4,59.3z"/>
						</g>
					</g>
				</g>
				<g>
					<g>
						<g>
							<path d="M743.5,1176.9l-36.7-0.5c-9.5-0.2-18.3-5.2-23-13.4l-19.5-34.1l28-8.3l28.5,23.6l123.3-36.7
								c14.2-4.2,29.5-0.5,39.9,9.8c2.9,2.8,4,6.9,3,10.8c-1,4.1-4.1,7.2-8.1,8.5l-84.8,25.2l-2.6-8.3l84.8-25.2
								c1.1-0.3,1.9-1.2,2.2-2.3c0.2-0.6,0.2-1.7-0.7-2.6c-8.1-8-20.1-11-31.1-7.7l-127.8,38l-28.5-23.6l-13,3.8l14.1,24.8
								c3.1,5.5,9,8.8,15.4,9l35.4,0.5l2.4-0.7l2.6,8.3L743.5,1176.9z"/>
						</g>
						<g>
							<polygon points="737,1208.2 743.4,1156.8 752.1,1157.9 747.3,1196 758.1,1192.8 804.4,1136.7 811.2,1142.2 763.3,1200.3 
															"/>
						</g>
						<g>
							<polygon points="772.8,1176.4 800.6,1168.1 803.2,1176.4 775.3,1184.7 							"/>
						</g>
					</g>
					<g>
						<path d="M902.5,1204.6h-76.2c-7.2,0-13.1-5.8-13.1-12.8c0-6.3,4.7-11.6,10.8-12.6c0.2-3.1,0.9-6,2.2-8.8l8,3.6
							c-0.9,2.1-1.4,4.2-1.4,6.5c0,0.8,0.1,1.6,0.2,2.5l1.2,6.8l-6.7-2c-0.5-0.2-0.9-0.2-1.2-0.2c-2.3,0-4.2,1.8-4.2,4.2
							s1.9,4.2,4.2,4.2h76.2c1.4,0,2.6-1.2,2.6-2.5s-1.2-2.5-2.6-2.5c-0.5,0-1.2,0.1-1.8,0.2c-2,0.2-4,0.5-5.7-1l-1.5-1.3l-0.1-2.1
							c0-5-4-9.1-9.2-9.3l-4.2-0.2v-4.4c-0.1-3.4-2.9-6.1-6.3-6.1c-2.3,0-4.4,1.2-5.5,3.2l-3.1,5.5l-4.1-4.8
							c-1.5-1.8-3.4-3.3-5.6-4.2l3.7-7.8c1.8,0.8,3.4,1.8,5,3.1c2.7-2.2,6-3.4,9.6-3.4c7,0,13,4.8,14.7,11.2
							c6.6,1.6,11.7,6.6,13.3,13c0.3,0,0.5,0,0.9,0c6.3,0,11.4,5,11.4,11.2C913.9,1199.6,908.7,1204.6,902.5,1204.6z"/>
					</g>
					<g>
						<g>
							<g>
								<ellipse cx="782.8" cy="1038" rx="4.4" ry="4.3"/>
							</g>
							<g>
								<ellipse cx="732.3" cy="1038" rx="4.4" ry="4.3"/>
							</g>
							<g>
								<path d="M757.6,1118.6l-28.4-27.9c-7.6-7.5-11.8-17.4-11.8-27.9c0-10.5,4.2-20.5,11.8-27.9c7.6-7.5,17.7-11.5,28.4-11.5
									s20.8,4.1,28.4,11.5l0,0c7.6,7.5,11.8,17.4,11.8,27.9c0,10.5-4.2,20.5-11.8,27.9L757.6,1118.6z M757.6,1032
									c-8.4,0-16.3,3.2-22.2,9c-6,5.8-9.2,13.5-9.2,21.8c0,8.2,3.3,16,9.2,21.8l22.2,21.8l22.2-21.8c6-5.8,9.2-13.5,9.2-21.8
									c0-8.2-3.3-16-9.2-21.8C773.8,1035.2,765.9,1032,757.6,1032z"/>
							</g>
						</g>
						<g>
							<path d="M757.6,1081.6c-5.1,0-9.9-1.9-13.6-5.5l5.7-5.6l-5.7,5.6c-3.6-3.5-5.6-8.2-5.6-13.3c0-5,2-9.7,5.6-13.3
								c3.6-3.5,8.4-5.5,13.6-5.5c5.1,0,9.9,1.9,13.6,5.5c3.7,3.6,5.6,8.2,5.6,13.3c0,5.1-2,9.8-5.6,13.3
								C767.4,1079.6,762.6,1081.6,757.6,1081.6z M750.3,1069.9c3.9,3.8,10.7,3.8,14.6,0c2-1.9,3-4.5,3-7.2s-1.1-5.2-3-7.2
								c-3.9-3.8-10.7-3.8-14.6,0c-2,1.9-3.1,4.5-3.1,7.2C747.2,1065.5,748.3,1068,750.3,1069.9L750.3,1069.9z"/>
						</g>
					</g>
				</g>
				<g>
					<g>
						<g>
							<g>
								<path d="M374.1,200.3l16.2-45.7h-13.2c-8.7,0-15.7-6.9-15.7-15.5V37.3c0-8.5,7-15.5,15.7-15.5h150.1
									c8.7,0,15.7,6.9,15.7,15.5v101.9c0,8.5-7,15.5-15.7,15.5h-83.9L374.1,200.3z M377.1,30.5c-3.8,0-7,3.1-7,6.8v101.9
									c0,3.8,3.1,6.8,7,6.8h25.7l-11.6,32.7l49.4-32.7h86.6c3.8,0,6.9-3.1,6.9-6.8V37.3c0-3.8-3.1-6.8-6.9-6.8H377.1z"/>
							</g>
						</g>
					</g>
					<g>
						<g>
							<g>
								<ellipse cx="475.1" cy="59" rx="4.4" ry="4.3"/>
							</g>
							<g>
								<path d="M452.1,132.7l-26.1-25.6c-7-6.8-10.8-15.9-10.8-25.6s3.8-18.8,10.8-25.6c7-6.8,16.2-10.6,26.1-10.6
									c9.9,0,19.1,3.8,26.1,10.6l0,0c7,6.8,10.8,15.9,10.8,25.6s-3.8,18.8-10.8,25.6L452.1,132.7z M452.1,54
									c-7.5,0-14.6,2.8-19.8,8.1c-5.3,5.2-8.2,12.2-8.2,19.5s2.9,14.3,8.2,19.5l19.8,19.5L472,101c5.3-5.2,8.2-12.2,8.2-19.5
									s-2.9-14.3-8.2-19.5C466.7,56.8,459.7,54,452.1,54z"/>
							</g>
						</g>
						<g>
							<path d="M452.1,99c-4.7,0-9.2-1.8-12.5-5.1l5.6-5.5l-5.6,5.5c-3.4-3.3-5.2-7.7-5.2-12.3c0-4.7,1.9-9.1,5.2-12.3
								c3.4-3.3,7.8-5.1,12.5-5.1c4.7,0,9.2,1.8,12.5,5.1c3.4,3.3,5.2,7.7,5.2,12.3c0,4.7-1.9,9.1-5.2,12.3
								C461.4,97.1,456.9,99,452.1,99z M445.9,87.8c3.4,3.3,9.2,3.3,12.7,0c1.7-1.7,2.6-3.8,2.6-6.2c0-2.4-0.9-4.5-2.6-6.2
								c-3.4-3.3-9.2-3.3-12.7,0c-1.7,1.7-2.6,3.8-2.6,6.2C443.2,83.8,444.1,86.1,445.9,87.8L445.9,87.8z"/>
						</g>
					</g>
				</g>
				<g>
					<g>
						<g>
							<polygon points="882.3,528.6 867.5,528.6 860.7,515.5 847.2,504.9 842.3,492.1 827,478.8 825.4,469.1 812.5,462.2 
								794.7,432.8 782.5,455.7 766.6,471.7 752.3,497.8 736.6,502.1 721.6,528.6 707.5,528.6 707.5,520 716.4,520 730.6,494.7 
								746.4,490.4 759.9,466.1 775.3,450.5 794.2,415.1 818.9,455.8 833.5,463.6 835.2,474.4 849.8,487.1 854.6,499.6 867.7,509.9 
								872.9,520 882.3,520 							"/>
						</g>
						<g>
							<rect x="719" y="520" width="151.2" height="8.7"/>
						</g>
						<g>
							<polygon points="755.2,525.8 747,522.7 753.4,506.2 773.5,500.1 779.1,483.1 785,478.7 790.8,465.3 798.9,468.8 792.1,484.1 
								786.6,488.3 780.4,507.1 760.1,513.2 							"/>
						</g>
						<g>
							<polygon points="827.3,525.2 824.6,513.4 807.2,503.4 802.1,485.4 810.5,483.1 814.7,497.7 832.4,507.7 835.9,523.4 							
								"/>
						</g>
					</g>
					<g>
						<g>
							<g>
								<ellipse cx="815.1" cy="342.5" rx="4.4" ry="4.3"/>
							</g>
							<g>
								<path d="M794.8,408.1l-23.3-22.8c-6.2-6.1-9.6-14.2-9.6-22.8c0-8.6,3.4-16.8,9.6-22.8c6.2-6.2,14.5-9.5,23.3-9.5
									c8.8,0,17.1,3.4,23.3,9.5l0,0c6.2,6.1,9.6,14.2,9.6,22.8c0,8.6-3.4,16.8-9.6,22.8L794.8,408.1z M794.8,338.6
									c-6.4,0-12.5,2.5-17.1,6.9s-7,10.4-7,16.8s2.5,12.3,7,16.8l17.1,16.8l17.1-16.8c4.5-4.5,7-10.4,7-16.8s-2.5-12.3-7-16.8l0,0
									C807.4,341.2,801.3,338.6,794.8,338.6z"/>
							</g>
						</g>
						<g>
							<path d="M794.8,378.2c-4.3,0-8.4-1.6-11.4-4.6l5.2-5.2l-5.2,5.2c-3.1-3-4.7-7-4.7-11.2s1.6-8.2,4.7-11.2
								c3.1-3,7.1-4.6,11.4-4.6c4.3,0,8.4,1.6,11.4,4.6c3.1,3,4.7,7,4.7,11.2s-1.6,8.2-4.7,11.2
								C803.2,376.5,799.2,378.2,794.8,378.2z M789.7,367.5c2.7,2.7,7.6,2.7,10.3,0c1.4-1.4,2.1-3.2,2.1-5.1s-0.8-3.8-2.1-5.1
								c-2.7-2.7-7.6-2.7-10.3,0c-1.4,1.4-2.1,3.2-2.1,5.1C787.6,364.3,788.3,366.1,789.7,367.5L789.7,367.5z"/>
						</g>
					</g>
				</g>
				<g>
					<g>
						<g>
							<g>
								<g>
									<path d="M793.5,191.3c-45.4,0-82.3-36.2-82.3-80.8c0-30.1,16.8-57.5,44-71.6l4.1,7.7C735,59.1,720,83.6,720,110.5
										c0,39.8,33,72.1,73.5,72.1c40.6,0,73.5-32.4,73.5-72.1c0-26.9-15-51.4-39.3-63.9l4.1-7.7c27.2,14,44,41.5,44,71.6
										C875.8,155,838.9,191.3,793.5,191.3z"/>
								</g>
							</g>
							<g>
								<polygon points="763.6,184.6 760,168 783.2,146 785.7,138.1 772.2,128.5 758.7,128.5 745.4,116.4 747.8,101.1 755.5,101.1 
									769,85.8 763.8,83 758.3,86.3 743.9,79.2 744.2,75.1 726.9,75.1 726.9,66.4 753.6,66.4 753.1,74.1 757.9,76.4 763.7,73 
									782.7,83.5 759.5,109.7 755.4,109.7 754.8,113.2 762.2,119.8 775,119.8 796,134.7 790.9,150.7 769.6,170.9 772.2,182.7 
																	"/>
							</g>
							<g>
								<polygon points="747.5,118.3 726.2,102.3 727,90.1 719.2,82.5 725.4,76.4 736,86.7 735.3,98.2 752.8,111.4 								"/>
							</g>
							<g>
								<polygon points="769.2,169.7 760.4,169 762.2,147.2 756.1,141.6 756.1,124.1 764.9,124.1 764.9,137.9 771.3,143.8 								
									"/>
							</g>
							<g>
								<path d="M824.9,161.7l-6.5-16.2l1.3-6.5l-2.1-7.4l-12.6-0.6l-6.3-9.9l2.9-13.2l14-10.2l9.2,4.2l5.1-1.9l8.5,2.5l8.9,15.9
									l9.8,1.1l-10.3,14.5v9.2L836,160.2L824.9,161.7z M827.5,144.7l3.1,7.5h0.2l7.3-11.6v-9.3l3.6-5.1l-9.2-16.5l-2.1-0.6
									l-5.8,2.2l-7.8-3.5l-7.2,5.2l-1.5,6.6l2,3.1l14.3,0.7l4.4,15.3L827.5,144.7z"/>
							</g>
							<g>
								<polygon points="811.3,95.8 804,90.9 814.1,76.4 832.2,72.6 840,64.4 854.8,60.5 857.1,68.9 844.7,72.1 836.8,80.5 
									819.4,84.1 								"/>
							</g>
							<g>
								<polygon points="867.2,123.7 856.9,110.4 843.9,104.6 837.5,98.5 826.3,95.6 811.5,89.4 814.9,81.4 829.5,87.4 842.1,90.8 
									848.9,97.4 862.5,103.4 874.2,118.5 								"/>
							</g>
							<g>
								<polygon points="840.4,72.2 832.4,68.4 821,70.4 819.4,61.8 833.8,59.3 844.4,64.4 								"/>
							</g>
						</g>
					</g>
					<g>
						<g>
							<g>
								<path d="M794.8,66.1L773.3,45c-5.7-5.6-8.9-13.2-8.9-21.1s3.1-15.5,8.9-21.1c5.8-5.7,13.4-8.8,21.5-8.8
									c8.1,0,15.8,3.2,21.5,8.8l0,0c5.7,5.7,8.9,13.2,8.9,21.1s-3.2,15.5-8.9,21.1L794.8,66.1z M794.8,2.5
									c-5.8,0-11.2,2.2-15.4,6.2c-4.2,4-6.3,9.4-6.3,15.1s2.3,11,6.3,15.1L794.8,54l15.4-15.1c4.1-4,6.3-9.4,6.3-15.1
									s-2.3-11-6.3-15.1S800.6,2.5,794.8,2.5z"/>
							</g>
						</g>
						<g>
							<path d="M794.8,38.7c-4.1,0-7.8-1.5-10.7-4.4l6.3-6.2c2.3,2.3,6.6,2.3,8.9,0c1.2-1.2,1.9-2.7,1.9-4.4s-0.6-3.2-1.9-4.4
								c-2.4-2.3-6.6-2.3-8.9,0c-1.2,1.2-1.9,2.7-1.9,4.4s0.6,3.2,1.9,4.4l-6.3,6.2c-2.9-2.8-4.5-6.5-4.5-10.5s1.6-7.7,4.5-10.5
								c2.9-2.8,6.7-4.4,10.7-4.4s7.8,1.5,10.7,4.4c2.9,2.8,4.5,6.5,4.5,10.5s-1.6,7.7-4.5,10.5C802.8,37.1,798.9,38.7,794.8,38.7z"
								/>
						</g>
					</g>
				</g>
				<g>
					<g>
						<g>
							<g>
								<path d="M404.4,865.9c-23.5,0-40.3-3.7-41-3.8l-4.6-1.1l6.4-20.1c3.6-11.2,14.1-18.8,26-18.8h26.2c12,0,22.4,7.5,26,18.8
									l6.4,20.1l-4.6,1.1C444.6,862.2,427.8,865.9,404.4,865.9z M370,854.5c6.4,1.1,19,2.8,34.3,2.8c15.4,0,27.8-1.7,34.3-2.8
									l-3.5-11c-2.4-7.6-9.6-12.7-17.6-12.7h-26.2c-8.1,0-15.2,5.1-17.6,12.7L370,854.5z"/>
							</g>
							<g>
								<path d="M404.4,819.3c-12.9,0-23.5-10.3-23.5-23.1v-5.8c0-12.7,10.6-23.1,23.5-23.1c12.9,0,23.5,10.4,23.5,23.1v5.8
									C427.8,808.9,417.3,819.3,404.4,819.3z M404.4,776c-8.1,0-14.6,6.5-14.6,14.4v5.8c0,7.9,6.6,14.4,14.6,14.4
									c8.1,0,14.6-6.5,14.6-14.4v-5.8C419,782.5,412.4,776,404.4,776z"/>
							</g>
							<g>
								<path d="M435.3,812.8l22.2-29.7h-2.2c-13.2,0-23.8-10.5-23.8-23.4v-46.5c0-12.9,10.7-23.4,23.8-23.4H528
									c13.2,0,23.8,10.5,23.8,23.4v46.5c0,12.9-10.7,23.4-23.8,23.4h-35.2L435.3,812.8z M455.3,698.6c-8.2,0-15,6.6-15,14.7v46.5
									c0,8.1,6.7,14.7,15,14.7h19.6l-9.9,13.2l25.5-13.2H528c8.2,0,15-6.6,15-14.7v-46.5c0-8.1-6.7-14.7-15-14.7L455.3,698.6
									L455.3,698.6z"/>
							</g>
						</g>
					</g>
					<g>
						<g>
							<g>
								<path d="M492.9,766.2l-17.3-17c-4.6-4.5-7.1-10.5-7.1-17s2.6-12.5,7.1-17c4.5-4.5,10.7-7,17.3-7c6.6,0,12.7,2.5,17.3,7l0,0
									c4.6,4.5,7.1,10.5,7.1,17s-2.6,12.5-7.1,17L492.9,766.2z M492.9,717c-4.2,0-8.1,1.6-11,4.5c-3,2.9-4.5,6.8-4.5,10.8
									s1.6,7.9,4.5,10.8l11,10.8l11-10.8c3-2.9,4.5-6.8,4.5-10.8s-1.6-7.9-4.5-10.8C501,718.6,497.1,717,492.9,717z"/>
							</g>
						</g>
					</g>
				</g>
				<g>
					<g>
						<g>
							<g>
								<path d="M1500,203.4h-82.3c-8.5,0-15.4-6.8-15.4-15.2V21.1c0-8.4,6.9-15.2,15.4-15.2h82.3c8.5,0,15.4,6.8,15.4,15.2V41h-8.9
									V21.1c0-3.5-3-6.5-6.6-6.5h-82.3c-3.7,0-6.6,2.9-6.6,6.5v167.1c0,3.5,3,6.5,6.6,6.5h82.3c3.7,0,6.6-2.9,6.6-6.5v-11.4h8.9
									v11.4C1515.4,196.7,1508.5,203.4,1500,203.4z"/>
							</g>
							<g>
								<rect x="1429" y="23.1" width="41.5" height="8.7"/>
							</g>
							<g>
								<rect x="1477.4" y="23.1" width="11.3" height="8.7"/>
							</g>
						</g>
						<g>
							<g>
								<path d="M1519,161.3l-7.9-2.5l-7.9,2.5c-2.7-8.3-4.2-16.8-4.7-25.5l-36.3,12.5v-24.5l36.2-23.6V62c0-3.5,1.5-6.9,4.2-9.3
									c2.7-2.4,6.3-3.5,9.9-3.2c6.4,0.6,11.4,6.3,11.4,12.9v37.7l36.2,23.6v24.5l-36.3-12.5C1523.2,144.4,1521.6,153,1519,161.3z
									 M1507.1,123.6v6.6c0,9.1,1.3,18.2,3.9,26.8c2.6-8.8,3.9-17.8,3.9-26.8v-6.6l36.3,12.5v-7.7l-36.2-23.6V62.4
									c0-2.2-1.6-4.2-3.5-4.3c-1.1-0.2-2.2,0.2-3.1,1c-0.9,0.8-1.3,1.8-1.3,2.8v42.8l-36.2,23.6v7.7L1507.1,123.6z"/>
							</g>
							<g>
								<polygon points="1530.6,171.4 1511,164.6 1491.5,171.4 1488.6,163.2 1511,155.4 1533.4,163.2 								"/>
							</g>
						</g>
					</g>
					<g>
						<g>
							<g>
								<path d="M1455.1,105.1l-15.8-15.5c-4.2-4.2-6.6-9.7-6.6-15.5s2.4-11.4,6.6-15.5s9.9-6.5,15.8-6.5c6,0,11.6,2.3,15.8,6.5l0,0
									c4.2,4.2,6.6,9.7,6.6,15.5s-2.3,11.4-6.6,15.5L1455.1,105.1z M1455.1,60.6c-3.6,0-7,1.4-9.6,3.9c-2.6,2.5-4,5.8-4,9.5
									c0,3.5,1.4,6.9,4,9.5l9.6,9.5l9.6-9.5c2.6-2.5,4-5.8,4-9.5c0-3.5-1.4-6.9-4-9.5l0,0C1462.1,62,1458.7,60.6,1455.1,60.6z"/>
							</g>
						</g>
					</g>
				</g>
				<g>
					<g>
						<g>
							<path d="M745.6,796.9L764,765h-20.7v-79.4h105.4v79.3h-47.4L745.6,796.9z M752.2,756.3h26.9l-9.8,16.9l29.5-16.9h41v-62
								h-87.7V756.3z"/>
						</g>
						<g>
							<polygon points="909.7,865.9 682.4,865.9 682.4,836.8 777.4,836.8 777.4,845.4 691.3,845.4 691.3,857.3 900.9,857.3 
								900.9,845.4 814.7,845.4 814.7,836.8 909.7,836.8 							"/>
						</g>
						<g>
							<polygon points="713.1,841.1 704.3,841.1 704.3,721.6 733.1,721.6 733.1,730.2 713.1,730.2 							"/>
						</g>
						<g>
							<polygon points="887.9,841.1 879.1,841.1 879.1,730.2 860,730.2 860,721.6 887.9,721.6 							"/>
						</g>
					</g>
					<g>
						<g>
							<g>
								<path d="M796.1,747.5l-13.7-13.5c-3.7-3.6-5.6-8.4-5.6-13.5s2-9.8,5.6-13.5c3.6-3.6,8.5-5.5,13.7-5.5s10,2,13.7,5.5l0,0
									c3.7,3.6,5.6,8.4,5.6,13.5s-2,9.8-5.6,13.5L796.1,747.5z M796.1,710.3c-2.8,0-5.5,1.1-7.4,3c-2,1.9-3.1,4.5-3.1,7.3
									s1.1,5.4,3.1,7.3l7.4,7.3l7.4-7.3c2-1.9,3.1-4.5,3.1-7.3s-1.1-5.4-3.1-7.3C801.5,711.4,798.9,710.3,796.1,710.3z"/>
							</g>
						</g>
					</g>
				</g>
				<g>
					<g>
						<g>
							<g>
								<ellipse cx="1501.3" cy="458.6" rx="4.4" ry="4.3"/>
							</g>
							<g>
								<path d="M1481.2,524.1l-23.3-22.8c-6.2-6.1-9.6-14.2-9.6-22.8c0-8.6,3.4-16.8,9.6-22.8c6.2-6.1,14.5-9.5,23.3-9.5
									s17.1,3.4,23.3,9.5l0,0c6.2,6.1,9.6,14.2,9.6,22.8c0,8.6-3.4,16.8-9.6,22.8L1481.2,524.1z M1481.2,454.8
									c-6.4,0-12.5,2.5-17.1,6.9c-4.5,4.5-7.1,10.4-7.1,16.8c0,6.3,2.5,12.3,7.1,16.8l17.1,16.8l17.1-16.8
									c4.5-4.5,7.1-10.4,7.1-16.8c0-6.3-2.5-12.3-7.1-16.8C1493.7,457.2,1487.6,454.8,1481.2,454.8z"/>
							</g>
						</g>
						<g>
							<path d="M1481.2,494.3c-4.3,0-8.4-1.6-11.4-4.6l0,0c-3.1-3-4.7-7-4.7-11.2s1.6-8.2,4.7-11.2c3.1-3,7.1-4.6,11.4-4.6
								s8.4,1.6,11.4,4.6s4.7,7,4.7,11.2s-1.6,8.2-4.7,11.2C1489.5,492.6,1485.5,494.3,1481.2,494.3z M1476,483.5
								c2.7,2.7,7.6,2.7,10.3,0c1.4-1.4,2.1-3.2,2.1-5.1s-0.8-3.7-2.1-5.1c-2.7-2.7-7.6-2.7-10.3,0c-1.4,1.4-2.1,3.2-2.1,5.1
								C1473.8,480.3,1474.6,482.1,1476,483.5z"/>
						</g>
					</g>
					<g>
						<g>
							<g>
								<g>
									<path d="M1537.1,473.1h-9.6v-8.6h9.6c15.7,0,28.4-12.5,28.4-27.8s-12.7-27.8-28.4-27.8l-4.5,0.2l-0.6-3.7
										c-4.2-24.6-25.6-42.5-51-42.5c-28.6,0-51.8,22.8-51.8,50.8c0,1.8,0.1,3.6,0.3,5.6l0.7,6.4l-6.3-1.8
										c-1.9-0.5-3.8-0.8-5.7-0.8c-11.6,0-21.1,9.3-21.1,20.7c0,11.4,9.5,20.7,21.1,20.7h16.4v8.7h-16.4
										c-16.5,0-29.9-13.2-29.9-29.4c0-16.9,14.8-30.5,32.1-29.3c0-0.3,0-0.6,0-0.8c0-32.8,27.2-59.5,60.6-59.5
										c28.5,0,52.7,19.2,59,46.1c19.2,1.4,34.4,17.2,34.4,36.4C1574.2,456.8,1557.5,473.1,1537.1,473.1z"/>
								</g>
							</g>
							<g>
								<path d="M1517.9,416.1l-6-6.4c6.9-6.2,15.8-9.6,25.1-9.6v8.7C1529.9,408.8,1523.1,411.5,1517.9,416.1z"/>
							</g>
							<g>
								<path d="M1434.7,431.1c-4.1-5.1-10.1-8-16.7-8v-8.7c9.3,0,17.9,4.2,23.7,11.4L1434.7,431.1z"/>
							</g>
						</g>
					</g>
				</g>
				<g>
					<g>
						<g>
							<g>
								<path d="M1521.4,1126l-28.4-27.9c-7.6-7.5-11.8-17.4-11.8-27.9s4.2-20.5,11.8-27.9s17.7-11.5,28.4-11.5
									c10.7,0,20.8,4.1,28.4,11.5l0.5,0.5c7.3,7.4,11.3,17.1,11.3,27.4c0,10.5-4.2,20.5-11.8,27.9L1521.4,1126z M1521.4,1039.4
									c-8.4,0-16.3,3.2-22.2,9c-6,5.8-9.2,13.5-9.2,21.8c0,8.2,3.3,16,9.2,21.8l22.2,21.8l22.2-21.8c6-5.8,9.2-13.5,9.2-21.8
									s-3.3-15.9-9.2-21.8l-0.3-0.3C1537.4,1042.5,1529.6,1039.4,1521.4,1039.4z"/>
							</g>
						</g>
						<g>
							<path d="M1521.4,1088.9c-5.1,0-9.9-1.9-13.6-5.5l6.2-6.1c3.9,3.8,10.7,3.8,14.6,0c2-1.9,3-4.5,3-7.2s-1.1-5.2-3-7.2
								c-3.9-3.8-10.7-3.8-14.6,0c-2,1.9-3,4.5-3,7.2s1.1,5.2,3,7.2l-6.2,6.1c-3.6-3.5-5.6-8.2-5.6-13.3c0-5,2-9.8,5.6-13.3
								c3.6-3.5,8.4-5.5,13.6-5.5s9.9,1.9,13.6,5.5c3.6,3.5,5.6,8.2,5.6,13.3c0,5.1-2,9.8-5.6,13.3
								C1531.3,1087,1526.5,1088.9,1521.4,1088.9z"/>
						</g>
					</g>
					<g>
						<g>
							<g>
								<g>
									<g>
										<path d="M1431.3,1196.3h-41.9v-71.4h41.9V1196.3z M1398.2,1187.6h24.3v-54.1h-24.3V1187.6z"/>
									</g>
									<g>
										<path d="M1501.1,1204.8l-75.7-25.5l2.9-8.2l72,24.3l68.2-36.2c-3.1-3.8-9.9-8.7-22.1-5.1c-11.5,3.4-46.3,16.5-46.6,16.6
											l-3.1-8.1c1.4-0.5,35.4-13.2,47.2-16.8c20.1-6,31.6,6,34.9,13.2l1.6,3.7L1501.1,1204.8z"/>
									</g>
									<g>
										<path d="M1493.6,1171.8c-2.4,0-4.9-0.5-7.1-1.5l-28.8-13.2l3.8-7.8l28.8,13.2c3.7,1.7,8.1,0.4,10.3-3
											c1.3-1.9,1.5-4.2,0.9-6.4s-2.2-3.9-4.3-4.9l-31.7-14.6h-41.9v-8.7h43.9l33.5,15.5c4.3,2,7.6,5.8,9,10.2
											c1.4,4.5,0.7,9.4-1.8,13.4C1504.8,1169,1499.2,1171.8,1493.6,1171.8z"/>
									</g>
									<g>
										<rect x="1405.9" y="1168.7" width="8.9" height="11.5"/>
									</g>
								</g>
							</g>
						</g>
					</g>
				</g>
				<g>
					<g>
						<rect x="402.2" y="1112.2" width="100" height="8.7"/>
					</g>
					<g>
						<g>
							<path d="M452.1,1169.9c-30,0-54.4-24-54.4-53.4c0-29.5,24.4-53.4,54.4-53.4s54.4,24,54.4,53.4
								C506.5,1145.9,482.1,1169.9,452.1,1169.9z M452.1,1071.8c-25.1,0-45.6,20.1-45.6,44.8s20.4,44.8,45.6,44.8
								c25.1,0,45.6-20.1,45.6-44.8S477.3,1071.8,452.1,1071.8z"/>
						</g>
					</g>
					<g>
						<g>
							<path d="M452.1,1169.9c-15.4,0-23.7-27.5-23.7-53.4c0-25.9,8.3-53.4,23.7-53.4s23.7,27.5,23.7,53.4
								C475.9,1142.4,467.6,1169.9,452.1,1169.9z M452.1,1071.8c-6.1,0-15,17.5-15,44.8s8.9,44.8,15,44.8s15-17.5,15-44.8
								S458.2,1071.8,452.1,1071.8z"/>
						</g>
					</g>
					<g>
						<path d="M452.1,1056.1l-2.7-2.1c-2.9-2.2-17.5-13.8-17.5-23.9c0-10.9,9.1-19.8,20.2-19.8c11.1,0,20.2,8.9,20.2,19.8
							c0,10.2-14.6,21.8-17.5,23.9L452.1,1056.1z M452.1,1019c-6.3,0-11.4,5-11.4,11.2c0,3.8,6.1,10.4,11.4,14.9
							c5.3-4.5,11.4-11.2,11.4-14.9C463.6,1024,458.5,1019,452.1,1019z"/>
					</g>
					<g>
						<path d="M376,1179.6c-1.7,0-3.5-0.2-5.2-0.7c-5.2-1.4-9.6-4.7-12.3-9.2c-5.6-9.5-2.3-21.6,7.4-27.1l0,0
							c9-5.1,26.5,1.5,29.8,2.9l3.1,1.3l-0.5,3.3c-0.5,3.6-3.4,21.8-12.4,26.8C382.9,1178.7,379.4,1179.6,376,1179.6z M370.3,1150.1
							c-5.5,3.1-7.3,9.9-4.2,15.3c1.5,2.6,4,4.5,6.9,5.2c3,0.8,6,0.4,8.6-1.1c3.3-1.8,6.1-10.4,7.4-17.2
							C382.4,1150.1,373.5,1148.2,370.3,1150.1L370.3,1150.1z"/>
					</g>
					<g>
						<path d="M528.4,1179.6c-3.5,0-7-0.9-10.1-2.7c-9-5.1-11.9-23.3-12.4-26.8l-0.5-3.3l3.1-1.3c3.4-1.4,20.9-8,29.9-2.9
							c9.6,5.5,12.9,17.6,7.4,27.1c-2.7,4.6-7,7.8-12.3,9.2C531.9,1179.4,530.1,1179.6,528.4,1179.6z M515.2,1152.3
							c1.3,6.8,4.2,15.3,7.4,17.2l0,0c2.7,1.5,5.7,1.8,8.6,1.1c3-0.8,5.4-2.6,6.9-5.2c3.1-5.3,1.3-12.2-4.2-15.3
							C530.8,1148.2,521.9,1150.1,515.2,1152.3z"/>
					</g>
					<g>
						<g>
							<path d="M532.1,1146.6l-8.2-3.1c3.4-8.6,5.1-17.7,5.1-27c0-37.4-27.2-68.7-64.7-74.4l1.4-8.5c41.8,6.5,72.1,41.4,72.1,83
								C537.8,1126.9,535.9,1137,532.1,1146.6z"/>
						</g>
						<g>
							<path d="M452.1,1200.6c-25.9,0-50.1-11.3-66.5-31.1l6.8-5.5c14.6,17.8,36.4,27.9,59.6,27.9s45-10.2,59.6-27.9l6.8,5.5
								C502.3,1189.2,478.1,1200.6,452.1,1200.6z"/>
						</g>
						<g>
							<path d="M372.2,1146.6c-3.8-9.6-5.6-19.7-5.6-30.1c0-41.6,30.3-76.5,72.1-83l1.4,8.5c-37.5,5.8-64.7,37.1-64.7,74.4
								c0,9.3,1.7,18.4,5.1,27L372.2,1146.6z"/>
						</g>
					</g>
				</g>
				<g>
					<g>
						<path d="M1214.9,1200.3h-8.9c0-35.8-29.7-65-66.2-65s-66.2,29.1-66.2,65h-8.9c0-40.6,33.6-73.6,75-73.6
							C1181.2,1126.7,1214.9,1159.7,1214.9,1200.3z"/>
					</g>
					<g>
						<path d="M1046.9,1200.3h-8.9c0-46.2,31.9-86.1,77.6-97.1l2.1,8.4C1076,1121.6,1046.9,1158.1,1046.9,1200.3z"/>
					</g>
					<g>
						<path d="M1241.7,1200.3h-8.9c0-42.2-29.1-78.7-70.9-88.7l2.1-8.4C1209.7,1114.2,1241.7,1154.1,1241.7,1200.3z"/>
					</g>
					<g>
						<rect x="1029.7" y="1196" width="220.3" height="8.7"/>
					</g>
					<g>
						<path d="M1180.1,1200.3h-8.9c0-35.2-14.3-65-31.4-65c-17,0-31.4,29.8-31.4,65h-8.9c0-41.3,17.6-73.6,40.2-73.6
							C1162.4,1126.7,1180.1,1159,1180.1,1200.3z"/>
					</g>
					<g>
						<rect x="1135.4" y="1131" width="8.9" height="69.3"/>
					</g>
					<g>
						<path d="M1139.8,1177.5c-22.4,0-43.9-5.3-59.1-14.6l4.7-7.3c13.8,8.5,33.6,13.3,54.4,13.3s40.7-4.8,54.4-13.3l4.7,7.3
							C1183.8,1172.1,1162.2,1177.5,1139.8,1177.5z"/>
					</g>
					<g>
						<path d="M1139.8,1105.2l-3.1-3.2c-3.2-3.2-31.1-31.5-31.1-49c0-18.5,15.4-33.6,34.2-33.6s34.2,15.1,34.2,33.6
							c0,17.5-27.9,45.8-31.1,49L1139.8,1105.2z M1139.8,1028c-14,0-25.5,11.2-25.5,25c0,9.5,14.5,28.1,25.4,39.7
							c9.2-9.8,25.5-29.2,25.5-39.7C1165.3,1039.3,1153.8,1028,1139.8,1028z"/>
					</g>
					<g>
						<path d="M1139.8,1068.1c-8.5,0-15.4-6.8-15.4-15.1s6.9-15.1,15.4-15.1s15.4,6.8,15.4,15.1S1148.4,1068.1,1139.8,1068.1z
							 M1139.8,1046.6c-3.6,0-6.6,2.9-6.6,6.5c0,3.5,3,6.5,6.6,6.5s6.6-2.9,6.6-6.5C1146.4,1049.4,1143.4,1046.6,1139.8,1046.6z"/>
					</g>
				</g>
				<g>
					<g>
						<g>
							<g>
								<ellipse cx="1106.1" cy="24.7" rx="4.4" ry="4.3"/>
							</g>
							<g>
								<path d="M1083.1,98.4L1057,72.8c-7-6.8-10.8-15.9-10.8-25.6s3.8-18.8,10.8-25.6c7-6.8,16.2-10.6,26.1-10.6
									c9.9,0,19.1,3.8,26.1,10.6l0,0c7,6.8,10.8,15.9,10.8,25.6s-3.8,18.8-10.8,25.6L1083.1,98.4z M1083.1,19.6
									c-7.5,0-14.6,2.8-19.8,8.1c-5.3,5.2-8.2,12.2-8.2,19.5s2.9,14.3,8.2,19.5l19.8,19.5l19.8-19.5c5.3-5.2,8.2-12.2,8.2-19.5
									s-2.9-14.3-8.2-19.5l0,0C1097.7,22.5,1090.6,19.6,1083.1,19.6z"/>
							</g>
						</g>
						<g>
							<path d="M1083.1,64.6c-4.8,0-9.2-1.8-12.5-5.1c-3.3-3.2-5.2-7.7-5.2-12.3s1.9-9.1,5.2-12.3s7.8-5.1,12.5-5.1
								c4.8,0,9.2,1.8,12.5,5.1c3.3,3.2,5.2,7.7,5.2,12.3c0,4.7-1.9,9.1-5.2,12.3C1092.4,62.8,1087.8,64.6,1083.1,64.6z
								 M1083.1,38.5c-2.4,0-4.6,0.9-6.3,2.5c-1.7,1.7-2.6,3.8-2.6,6.2s0.9,4.5,2.6,6.2c3.4,3.3,9.2,3.3,12.7,0
								c1.7-1.7,2.6-3.8,2.6-6.2c0-2.3-0.9-4.5-2.6-6.2C1087.7,39.3,1085.5,38.5,1083.1,38.5z"/>
						</g>
					</g>
					<g>
						<g>
							<g>
								<ellipse cx="1215.9" cy="87.7" rx="4.4" ry="4.3"/>
							</g>
							<g>
								<path d="M1192.9,161.4l-26.1-25.6c-7-6.8-10.8-15.9-10.8-25.6s3.8-18.8,10.8-25.6s16.2-10.6,26.1-10.6
									c9.9,0,19.1,3.8,26.1,10.6l0,0c7,6.8,10.8,15.9,10.8,25.6s-3.8,18.8-10.8,25.6L1192.9,161.4z M1192.9,82.7
									c-7.5,0-14.6,2.8-19.8,8.1c-5.3,5.2-8.2,12.2-8.2,19.5c0,7.4,2.9,14.3,8.2,19.5l19.8,19.5l19.8-19.5
									c5.3-5.2,8.2-12.2,8.2-19.5c0-7.4-2.9-14.3-8.2-19.5C1207.5,85.5,1200.5,82.7,1192.9,82.7z"/>
							</g>
						</g>
						<g>
							<path d="M1192.9,127.7c-4.8,0-9.2-1.8-12.5-5.1l0,0c-3.4-3.3-5.2-7.7-5.2-12.3c0-4.7,1.9-9.1,5.2-12.3
								c3.3-3.2,7.8-5.1,12.5-5.1c4.7,0,9.2,1.8,12.5,5.1c3.4,3.3,5.2,7.7,5.2,12.3c0,4.7-1.9,9.1-5.2,12.3
								C1202.1,125.8,1197.7,127.7,1192.9,127.7z M1186.6,116.4c3.4,3.3,9.2,3.3,12.7,0c1.7-1.7,2.6-3.8,2.6-6.2s-0.9-4.5-2.6-6.2
								c-3.4-3.3-9.2-3.3-12.7,0c-1.7,1.7-2.6,3.8-2.6,6.2S1184.9,114.7,1186.6,116.4z"/>
						</g>
					</g>
					<g>
						<g>
							<rect x="1078.7" y="92.3" width="8.9" height="5.2"/>
						</g>
						<g>
							<rect x="1078.7" y="102.7" width="8.9" height="7.9"/>
						</g>
						<g>
							<polygon points="1087.5,125.4 1077.9,125.4 1077.9,116.8 1078.7,116.8 1078.7,116 1087.5,116 							"/>
						</g>
						<g>
							<rect x="1062.2" y="116.8" width="9.4" height="8.7"/>
						</g>
						<g>
							<polygon points="1055.1,126.4 1046.2,126.4 1046.2,116.8 1055.9,116.8 1055.9,125.4 1055.1,125.4 							"/>
						</g>
						<g>
							<path d="M1055.1,175.3h-8.9v-9.8h8.9V175.3z M1055.1,159h-8.9v-9.8h8.9V159z M1055.1,142.7h-8.9v-9.8h8.9V142.7z"/>
						</g>
						<g>
							<polygon points="1055.9,191.3 1046.2,191.3 1046.2,181.8 1055.1,181.8 1055.1,182.7 1055.9,182.7 							"/>
						</g>
						<g>
							<path d="M1120.3,191.3h-9.6v-8.7h9.6V191.3z M1104.2,191.3h-9.6v-8.7h9.6V191.3z M1088.1,191.3h-9.6v-8.7h9.6V191.3z
								 M1072,191.3h-9.6v-8.7h9.6V191.3z"/>
						</g>
						<g>
							<polygon points="1136.5,191.3 1126.7,191.3 1126.7,182.7 1127.7,182.7 1127.7,181.8 1136.5,181.8 							"/>
						</g>
						<g>
							<rect x="1127.7" y="166.6" width="8.9" height="9.2"/>
						</g>
						<g>
							<polygon points="1136.5,160.5 1127.7,160.5 1127.7,151 1137.3,151 1137.3,159.7 1136.5,159.7 							"/>
						</g>
						<g>
							<path d="M1179.3,159.7h-12.6V151h12.6V159.7z M1158.3,159.7h-12.6V151h12.6V159.7z"/>
						</g>
						<g>
							<rect x="1187.7" y="151" width="5.3" height="8.7"/>
						</g>
					</g>
				</g>
				<g>
					<g>
						<g>
							<path d="M1081.1,865.9c-11.1,0-20.2-8.9-20.2-19.8c0-10.9,9.1-19.8,20.2-19.8c11.1,0,20.2,8.9,20.2,19.8
								C1101.3,857,1092.2,865.9,1081.1,865.9z M1081.1,834.9c-6.3,0-11.4,5-11.4,11.2c0,6.2,5.1,11.2,11.4,11.2s11.4-5,11.4-11.2
								C1092.4,839.9,1087.3,834.9,1081.1,834.9z"/>
						</g>
						<g>
							<path d="M1204.1,865.9c-11.1,0-20.2-8.9-20.2-19.8c0-10.9,9.1-19.8,20.2-19.8c11.1,0,20.2,8.9,20.2,19.8
								C1224.3,857,1215.3,865.9,1204.1,865.9z M1204.1,834.9c-6.3,0-11.4,5-11.4,11.2c0,6.2,5.1,11.2,11.4,11.2s11.4-5,11.4-11.2
								C1215.5,839.9,1210.4,834.9,1204.1,834.9z"/>
						</g>
						<g>
							<path d="M1235.2,858.5h-17.6v-8.7h15.9v-12.8c-0.9-1.4-3.4-4.8-9.2-8.1c-15-8.5-41.4-7.8-41.7-7.8l-2.8,0.1l-1.3-2.5
								c-0.5-0.9-12.7-23.5-53.7-23.5c-30,0-39.1,8.2-45.7,14.3c-4.5,4.1-8.8,7.9-16.8,7.7c-1.8-0.1-4.2,0.4-5.9,0.8l-4.3,20.1v8.2
								l16.5,3.4l-1.8,8.5l-23.6-4.8l0.1-16.6l5.4-25.3l2.3-0.8c0.6-0.2,6.3-2.3,11.5-2.1c4.2,0.1,6.3-1.5,10.6-5.5
								c7.3-6.6,18.3-16.5,51.8-16.5c39.2,0,55.5,19,60.2,25.8c7.5,0,29.3,0.8,43.6,8.9c9.9,5.5,12.9,12.1,13.2,12.8l0.3,0.8v16.4
								C1242.2,855.4,1239.1,858.5,1235.2,858.5z"/>
						</g>
						<g>
							<path d="M1144.1,821.7c-15.9,0-32.2-0.5-42.7-2.3c-20.3-3.5-27.5-9.3-28.3-10l5.8-6.5c0,0,6.3,4.8,24,8
								c15,2.6,43.6,2.2,64.5,1.9c5.7-0.1,10.9-0.2,15-0.2v8.7c-4.1,0-9.2,0.1-14.9,0.2C1160.4,821.6,1152.3,821.7,1144.1,821.7z"/>
						</g>
						<g>
							<rect x="1094.5" y="849.9" width="96.2" height="8.7"/>
						</g>
					</g>
					<g>
						<g>
							<g>
								<path d="M1199.9,781.2l-28.4-27.9c-7.6-7.5-11.8-17.4-11.8-27.9c0-10.5,4.2-20.5,11.8-27.9c7.6-7.5,17.7-11.5,28.4-11.5
									c10.5,0,20.4,3.9,27.9,11.1l0,0l0.5,0.5c7.6,7.5,11.8,17.4,11.8,27.9s-4.2,20.5-11.8,27.9L1199.9,781.2z M1199.9,694.7
									c-8.4,0-16.3,3.2-22.2,9c-5.9,5.8-9.2,13.5-9.2,21.8s3.3,15.9,9.2,21.8l22.2,21.8l22.2-21.8c6-5.8,9.2-13.5,9.2-21.8
									c0-8.1-3.1-15.7-8.9-21.5l-0.2-0.2C1216.1,697.9,1208.3,694.7,1199.9,694.7z"/>
							</g>
						</g>
						<g>
							<path d="M1199.9,744.2c-5.1,0-9.9-1.9-13.6-5.5l0,0c-3.6-3.5-5.6-8.2-5.6-13.3s2-9.7,5.6-13.3s8.4-5.5,13.6-5.5
								c5.1,0,9.9,1.9,13.6,5.5c3.6,3.5,5.6,8.2,5.6,13.3c0,5-2,9.7-5.6,13.3C1209.8,742.3,1205,744.2,1199.9,744.2z M1192.6,732.6
								c3.9,3.8,10.7,3.8,14.6,0c2-1.9,3-4.5,3-7.2s-1.1-5.2-3-7.2c-3.9-3.8-10.7-3.8-14.6,0c-2,1.9-3,4.5-3,7.2
								C1189.6,728.2,1190.7,730.7,1192.6,732.6z"/>
						</g>
					</g>
					<g>
						<rect x="1059.6" y="701.7" width="77.6" height="8.7"/>
					</g>
					<g>
						<rect x="1073.7" y="723.6" width="63.5" height="8.7"/>
					</g>
					<g>
						<rect x="1087.8" y="745.4" width="49.4" height="8.7"/>
					</g>
				</g>
				<g>
					<g>
						<g>
							<g>
								<ellipse cx="133.9" cy="421.1" rx="4.4" ry="4.3"/>
							</g>
							<g>
								<path d="M108.6,501.7l-28.4-27.9c-7.6-7.5-11.8-17.4-11.8-27.9c0-10.5,4.2-20.5,11.8-27.9c7.6-7.5,17.7-11.5,28.4-11.5
									s20.8,4.1,28.4,11.5l0,0c7.6,7.5,11.8,17.4,11.8,27.9c0,10.5-4.2,20.5-11.8,27.9L108.6,501.7z M108.6,415.2
									c-8.4,0-16.3,3.2-22.2,9c-6,5.8-9.2,13.5-9.2,21.8s3.3,16,9.2,21.8l22.2,21.8l22.2-21.8c6-5.8,9.2-13.5,9.2-21.8
									s-3.3-16-9.2-21.8C124.9,418.4,117,415.2,108.6,415.2z"/>
							</g>
						</g>
						<g>
							<path d="M108.6,464.8c-5.1,0-9.9-1.9-13.6-5.5l4.4-4.3l-4.4,4.3c-3.6-3.5-5.6-8.2-5.6-13.3c0-5.1,2-9.8,5.6-13.3
								c3.6-3.5,8.4-5.5,13.6-5.5c5.1,0,9.9,1.9,13.6,5.5c3.6,3.5,5.6,8.2,5.6,13.3c0,5-2,9.8-5.6,13.3
								C118.5,462.8,113.7,464.8,108.6,464.8z M101.4,453.1c3.9,3.8,10.7,3.8,14.6,0c2-1.9,3.1-4.5,3.1-7.2c0-2.7-1.1-5.2-3.1-7.2
								c-3.9-3.8-10.7-3.8-14.6,0c-2,1.9-3.1,4.5-3.1,7.2C98.3,448.7,99.4,451.2,101.4,453.1L101.4,453.1z"/>
						</g>
					</g>
					<g>
						<path d="M191.2,528.6H26V439h-9.2v-28.4l91.8-63.2l91.8,63.2V439h-9.2L191.2,528.6L191.2,528.6z M34.9,520h147.6v-89.6h9.2
							v-15.2l-83-57.1l-83.1,57.1v15.2h9.2V520z"/>
					</g>
				</g>
				<g>
					<g>
						<g>
							<path d="M116.2,837.1l-25.7-25.2c-3.8-3.8-4.2-9.8-1-14l9.3-12.3l-12.5,9.2c-4.3,3.2-10.4,2.7-14.3-1l-25.7-25.2l97.7-36.5
								c2.7-1,5.7-0.4,7.8,1.6c2.1,2,2.7,5,1.6,7.7L116.2,837.1z M141.3,743.6l-44.9,59.3c-0.6,0.8-0.5,2,0.2,2.7l16.1,15.8L144,741
								L62,771.6l16.1,15.8c0.7,0.7,2,0.8,2.7,0.2L141.3,743.6z"/>
						</g>
					</g>
					<g>
						<path d="M108.6,860.4c-47.5,0-86.2-38-86.2-84.6s38.7-84.6,86.2-84.6s86.2,38,86.2,84.6C194.8,822.5,156.1,860.4,108.6,860.4z
							 M108.6,699.8c-42.7,0-77.4,34.1-77.4,76c0,41.9,34.7,76,77.4,76s77.4-34.1,77.4-76C186,733.9,151.3,699.8,108.6,699.8z"/>
					</g>
				</g>
				<g>
					<g>
						<path d="M523.3,442.1H353.8l25.5-25.5l-25.5-25.5h169.5l25.5,25.5L523.3,442.1z M374.9,433.4h144.8l16.8-16.8l-16.8-16.8
							H374.9l16.8,16.8L374.9,433.4z"/>
					</g>
					<g>
						<polygon points="464.7,528.6 438.7,528.6 438.7,451.7 447.5,451.7 447.5,520 456,520 456,451.7 464.7,451.7 						"/>
					</g>
					<g>
						<polygon points="464.7,399.8 438.7,399.8 438.7,364 447.5,364 447.5,391.1 456,391.1 456,364 464.7,364 						"/>
					</g>
					<g>
						<path d="M451.7,371.5c-10.6,0-19.2-8.5-19.2-18.8s8.6-18.8,19.2-18.8c10.6,0,19.2,8.5,19.2,18.8S462.3,371.5,451.7,371.5z
							 M451.7,342.5c-5.7,0-10.3,4.5-10.3,10.2s4.6,10.2,10.3,10.2s10.3-4.5,10.3-10.2S457.5,342.5,451.7,342.5z"/>
					</g>
				</g>
				<g>
					<g>
						<g>
							<g>
								<ellipse cx="1139.2" cy="398.7" rx="4.4" ry="4.3"/>
							</g>
							<g>
								<ellipse cx="1100.3" cy="398.7" rx="4.4" ry="4.3"/>
							</g>
							<g>
								<path d="M1119.7,462.1l-22.6-22.1c-6-5.9-9.3-13.8-9.3-22.1c0-8.4,3.3-16.2,9.3-22.1c6-5.9,14-9.2,22.6-9.2
									s16.5,3.2,22.6,9.2l-3.1,3.1l3.1-3.1c6,5.9,9.3,13.8,9.3,22.1c0,8.4-3.3,16.2-9.3,22.1L1119.7,462.1z M1119.7,395.1
									c-6.2,0-12,2.4-16.4,6.7s-6.8,10-6.8,16.1c0,6.1,2.4,11.8,6.8,16.1l16.4,16.1l16.4-16.1c4.4-4.3,6.8-10,6.8-16.1
									c0-6.1-2.4-11.8-6.8-16.1l0,0C1131.7,397.5,1125.9,395.1,1119.7,395.1z"/>
							</g>
						</g>
						<g>
							<path d="M1119.7,433.2c-4.2,0-8.1-1.6-11.1-4.5l0,0c-3-2.9-4.6-6.8-4.6-10.9c0-4.2,1.6-8,4.6-10.9s6.9-4.5,11.1-4.5
								c4.2,0,8.1,1.6,11.1,4.5c3,2.9,4.6,6.8,4.6,10.9c0,4.2-1.6,8-4.6,10.9C1127.8,431.6,1123.9,433.2,1119.7,433.2z
								 M1114.8,422.6c2.6,2.5,7.2,2.5,9.8,0c1.3-1.3,2-3,2-4.8c0-1.8-0.7-3.5-2-4.8c-2.6-2.5-7.2-2.5-9.8,0c-1.3,1.3-2,3-2,4.8
								C1112.8,419.6,1113.5,421.3,1114.8,422.6z"/>
						</g>
					</g>
					<g>
						<path d="M1119.9,493.2c-40.7,0-73.8-32.5-73.8-72.4s33.1-72.4,73.8-72.4c40.7,0,73.8,32.5,73.8,72.4
							C1193.7,460.7,1160.6,493.2,1119.9,493.2z M1119.9,357c-35.8,0-64.9,28.6-64.9,63.8s29.1,63.8,64.9,63.8s64.9-28.6,64.9-63.8
							S1155.7,357,1119.9,357z"/>
					</g>
					<g>
						<path d="M1133.9,473.3l-2.2-8.4c14.9-3.8,26.9-14.5,32-28.7l8.3,2.9C1165.8,456.1,1151.5,468.8,1133.9,473.3z"/>
					</g>
					<g>
						<path d="M1075,408.9l-8.5-2.2c4.7-17.2,17.8-31.1,34.9-37.1l3,8.2C1090,382.8,1079,394.5,1075,408.9z"/>
					</g>
					<g>
						<polygon points="1210.4,529.8 1168.7,488.9 1175,482.8 1210.4,517.6 1219.2,509 1183.8,474.1 1190,468.1 1231.6,509 						"/>
					</g>
				</g>
				<g>
					<g>
						<g>
							<path d="M1481.2,865.9c-45.7,0-82.9-36.5-82.9-81.4c0-44.8,37.2-81.4,82.9-81.4s82.9,36.5,82.9,81.4
								C1564,829.4,1526.9,865.9,1481.2,865.9z M1481.2,711.9c-40.8,0-74.1,32.6-74.1,72.7c0,40.1,33.2,72.8,74.1,72.8
								c40.9,0,74.1-32.6,74.1-72.7C1555.2,744.5,1522,711.9,1481.2,711.9z"/>
						</g>
						<g>
							<rect x="1464.9" y="688.6" width="32.6" height="8.7"/>
						</g>
						<g>
							<polygon points="1546,740 1539.7,733.9 1550.5,723.2 1543.6,716.5 1532.8,727.1 1526.6,720.9 1543.6,704.2 1563,723.2 
															"/>
						</g>
						<g>
							<path d="M1481.2,806c-5.8,0-11.3-2.2-15.4-6.3c-4.2-4.1-6.4-9.5-6.4-15.2s2.3-11.1,6.4-15.2c4.2-4.1,9.6-6.3,15.4-6.3
								s11.3,2.2,15.4,6.3c4.2,4.1,6.4,9.5,6.4,15.2c0,5.7-2.3,11.1-6.4,15.2C1492.5,803.8,1487,806,1481.2,806z M1481.2,771.8
								c-3.4,0-6.7,1.3-9.2,3.8c-5.1,5-5.1,13.1,0,18.1s13.3,5,18.4,0s5.1-13.1,0-18.1C1487.9,773.1,1484.6,771.8,1481.2,771.8z"/>
						</g>
						<g>
							<polygon points="1502.4,784.7 1494.6,780.7 1504.9,761.3 1485.1,771.4 1481,763.7 1525.6,740.9 							"/>
						</g>
						<g>
							<polygon points="1436.7,828.1 1460,784.5 1467.8,788.5 1457.5,807.8 1477.2,797.7 1481.3,805.4 							"/>
						</g>
					</g>
					<g>
						<rect x="1476.7" y="719.9" width="8.9" height="14.7"/>
					</g>
					<g>
						<rect x="1415.3" y="780.2" width="15" height="8.7"/>
					</g>
					<g>
						<rect x="1476.7" y="834.5" width="8.9" height="14.7"/>
					</g>
					<g>
						<rect x="1532" y="780.2" width="15" height="8.7"/>
					</g>
				</g>
			</g>
		</g>
	</g>
</g>
</svg>
