<?xml version="1.0" encoding="utf-8"?>
<!-- Generator: Adobe Illustrator 23.0.0, SVG Export Plug-In . SVG Version: 6.00 Build 0)  -->
<svg version="1.1" id="Layer_1" xmlns="http://www.w3.org/2000/svg" xmlns:xlink="http://www.w3.org/1999/xlink" x="0px" y="0px"
	 viewBox="0 0 10.9 12.6" style="enable-background:new 0 0 10.9 12.6;" xml:space="preserve">
<style type="text/css">
	.st0{fill:none;stroke:#222222;stroke-width:0.4006;stroke-linecap:round;stroke-linejoin:round;stroke-miterlimit:10;}
	.st1{fill:none;stroke:#222222;stroke-width:0.4006;stroke-linecap:round;stroke-linejoin:round;stroke-miterlimit:9.9999;}
	.st2{fill:none;stroke:#222222;stroke-width:0.2633;stroke-miterlimit:10;}
</style>
<g>
	<polyline class="st0" points="9.1,5.8 9.1,11.3 1.5,11.3 1.5,1.3 8.7,1.3 9.1,1.3 	"/>
	<line class="st0" x1="2.7" y1="2.8" x2="6.7" y2="2.8"/>
	<line class="st0" x1="2.7" y1="4" x2="5.5" y2="4"/>
	<line class="st0" x1="2.7" y1="5.3" x2="4.3" y2="5.3"/>
	<line class="st0" x1="2.7" y1="6.6" x2="3.2" y2="6.6"/>
</g>
<g>
	<rect x="2.7" y="4.8" transform="matrix(0.7072 -0.707 0.707 0.7072 -2.3128 6.2342)" class="st1" width="7.3" height="2.2"/>
	<path class="st0" d="M9.9,4c0.4-0.4,0.4-1.2,0-1.6S8.8,2,8.3,2.4L8.2,2.5L9.9,4L9.9,4z"/>
	<polygon class="st0" points="2.5,9.8 2.8,8.7 3,7.7 3.8,8.4 4.6,9.2 3.5,9.5 	"/>
	<line class="st2" x1="3.9" y1="8.4" x2="8.9" y2="3.4"/>
</g>
</svg>
