<?xml version="1.0" encoding="utf-8"?>
<!-- Generator: Adobe Illustrator 23.1.0, SVG Export Plug-In . SVG Version: 6.00 Build 0)  -->
<svg version="1.1" id="Layer_1" xmlns="http://www.w3.org/2000/svg" xmlns:xlink="http://www.w3.org/1999/xlink" x="0px" y="0px"
	 viewBox="0 0 232.6 212.1" style="enable-background:new 0 0 232.6 212.1;" xml:space="preserve">
<style type="text/css">
	.st0{fill:#191717;}
</style>
<g>
	<polygon class="st0" points="87.5,101 99.5,101 99.5,101 93.5,84 	"/>
	<path class="st0" d="M115.5,11.6c-57.4,0-104,36.7-104,82c0,29.3,19.5,55,48.8,69.5c-1.6,5.5-10.2,35.3-10.6,37.7
		c0,0-0.2,1.8,0.9,2.4c0.8,0.4,1.7,0.4,2.5,0.1c3.3-0.5,38-24.8,44-29c6.1,0.8,12.3,1.3,18.4,1.3c57.4,0,104-36.7,104-82
		S172.9,11.6,115.5,11.6z M64,80.8c-0.1,11.6,0.1,23.8-0.1,35.2c-0.1,3.7-2.2,4.7-5,5.8c-0.3,0.1-0.7,0.1-1,0.1
		c-3.3-0.6-5.8-1.8-5.9-5.8c-0.2-11.4,0.1-23.6-0.1-35.2c-2.8-0.1-6.7,0.1-9.2,0c-3.5-0.2-6-2.5-5.9-5.8c0.2-3.3,1.9-5.8,5.9-5.8
		c9.4-0.1,21-0.1,30.4,0c4,0.1,5.8,2.5,5.9,5.8s-2.3,5.6-5.8,5.8C70.7,80.9,66.8,80.7,64,80.8z M114.4,121.3
		c-1.2,0.5-2.5,0.8-3.8,0.8c-2.5,0-4.4-1-5-2.7l-3-7.8H84.3l-3,7.8c-0.6,1.6-2.5,2.7-5,2.7c-1.3,0-2.6-0.3-3.8-0.8
		c-1.7-0.8-3.3-2.9-1.4-8.5L85.5,75c1.2-3.4,4.4-5.7,8-5.9c3.6,0.2,6.8,2.5,8,5.9l14.3,37.8C117.6,118.4,116.1,120.6,114.4,121.3z
		 M144.7,121.3h-19.2c-3.1,0.1-5.7-2.4-5.8-5.5V75.1c0.1-3.4,3-6,6.4-5.9c3.2,0.1,5.7,2.7,5.9,5.9v35.3h12.8c3-0.2,5.6,2.1,5.8,5.2
		s-2.1,5.6-5.2,5.8C145.2,121.3,144.9,121.3,144.7,121.3L144.7,121.3z M191.7,116.8c-0.4,3.3-3.4,5.6-6.7,5.2
		c-1.6-0.2-3.1-1.1-4-2.4l-14.1-18.6l-2.1,2.1v13.1c0,3.3-2.7,6-6,6s-6-2.7-6-6v-41c0-3.3,2.7-6,6-6s6,2.7,6,6V88l16.7-16.7
		c0.9-0.9,2.1-1.4,3.3-1.3c3.1,0.1,5.6,2.5,5.9,5.6c0.1,1.3-0.4,2.7-1.3,3.7l-13.7,13.7l14.8,19.6
		C191.5,113.6,191.9,115.2,191.7,116.8L191.7,116.8z"/>
</g>
</svg>
