<?xml version="1.0" encoding="utf-8"?>
<!-- Generator: Adobe Illustrator 23.0.0, SVG Export Plug-In . SVG Version: 6.00 Build 0)  -->
<svg version="1.1" id="Layer_1" xmlns="http://www.w3.org/2000/svg" xmlns:xlink="http://www.w3.org/1999/xlink" x="0px" y="0px"
	 viewBox="0 0 230.38 53.66" style="enable-background:new 0 0 230.38 53.66;" xml:space="preserve">
<style type="text/css">
	.st0{clip-path:url(#SVGID_2_);}
</style>
<g>
	<defs>
		<rect id="SVGID_1_" width="230.38" height="53.66"/>
	</defs>
	<clipPath id="SVGID_2_">
		<use xlink:href="#SVGID_1_"  style="overflow:visible;"/>
	</clipPath>
	<path class="st0" d="M132.17,39.78c-1.43-1.9-3.6-2.5-5.32-2.02c-0.38,0.12-0.78,0.22-1.18,0.31c-0.14,0.03-0.28,0.05-0.41,0.07
		h-0.06c-0.76,0.02-1.36,0.14-1.61,0.2c-0.03,0.01-0.07,0.01-0.1,0.01c-0.54,0.04-1.08,0.04-1.63,0.02c0.03,0,0.05,0.01,0.07,0.02
		c-0.54-0.03-1.09-0.1-1.61-0.19c-0.6-0.11-1.2-0.26-1.78-0.46c-1.54-0.55-2.89-1.36-4.02-2.4c-0.38-0.36-0.73-0.74-1.05-1.15
		c-0.57-0.79-0.9-1.75-1.07-2.64c-0.11-0.8-0.17-1.68-0.19-2.46v-7.73V9.6c0-0.26-0.03-0.53-0.08-0.77
		c-0.17-0.95-0.66-1.77-1.45-2.4c-0.91-0.72-2.04-1.05-3.29-0.96c-1.25,0.09-2.39,0.38-3.29,1.23c-1,0.94-1.52,2.31-1.52,3.59v12.13
		v5.36l-0.01-0.02l0.01,1.29v2.25c0.01,0.16,0.02,0.38,0.04,0.62l0,0.25c0.77,8.82,8.15,12.58,12.13,13.97
		c0.11,0.05,0.22,0.09,0.34,0.13c1.33,0.47,2.72,0.8,4.16,0.98c1.37,0.17,2.77,0.21,4.2,0.11c1.46-0.1,2.88-0.33,4.25-0.7
		c0.33-0.08,0.66-0.18,0.97-0.28c0.15-0.03,0.31-0.07,0.46-0.11C134.45,44.29,132.17,39.78,132.17,39.78"/>
	<path class="st0" d="M217.53,34.28l-0.13-0.1c-1.02-0.67-2.28-0.89-3.47-0.62c-1.02,0.23-1.92,0.74-2.58,1.45
		c-1.16,1.21-2.56,2.17-4.18,2.86c-1.63,0.69-3.4,1.03-5.29,1.03c-1.78,0-3.47-0.33-5.03-0.98c-1.57-0.66-2.96-1.56-4.11-2.68
		c-1.14-1.11-2.06-2.44-2.73-3.95c-0.65-1.47-0.98-3.06-0.98-4.74c0-1.68,0.33-3.28,0.98-4.75c0.67-1.51,1.59-2.85,2.74-3.99
		c1.15-1.13,2.53-2.04,4.1-2.7c1.56-0.65,3.26-0.99,5.03-0.99c1.79,0,3.49,0.4,5.05,1.17c1.73,0.87,3.25,1.83,4.5,2.86
		c0.89,0.82,2.04,1.27,3.25,1.27c0.11,0,0.22,0,0.32-0.01c1.47-0.09,2.67-0.75,3.5-1.95c0.75-1.12,0.91-2.43,0.48-3.69
		c-0.3-0.86-0.77-1.6-1.38-2.19c-2.01-1.97-4.38-3.55-7.04-4.68c-2.69-1.15-5.6-1.73-8.67-1.73c-3.02,0-5.9,0.57-8.57,1.7
		c-2.65,1.12-4.98,2.65-6.95,4.56c-1.98,1.92-3.56,4.2-4.71,6.77c-1.16,2.6-1.75,5.4-1.75,8.34c0,2.93,0.59,5.73,1.75,8.32
		c1.15,2.58,2.73,4.85,4.71,6.78c1.97,1.91,4.32,3.44,6.97,4.54c2.66,1.1,5.54,1.66,8.55,1.66c3.14,0,6.13-0.59,8.88-1.75
		c2.76-1.17,5.18-2.84,7.22-4.97c0.83-0.89,1.27-2.03,1.27-3.31C219.24,36.41,218.64,35.16,217.53,34.28"/>
	<path class="st0" d="M172.06,29.47c3.09-0.36,3.69-3.03,3.76-3.6c-0.01-0.74-0.06-1.27-0.15-1.99c-0.01-0.1-0.02-0.2-0.04-0.29
		c-0.02-0.13-0.03-0.27-0.05-0.4c-0.02-0.1-0.04-0.2-0.06-0.31c-0.26-1.5-0.67-2.93-1.23-4.3c-0.07-0.18-0.16-0.35-0.23-0.52
		c-0.32-0.72-0.67-1.43-1.05-2.11c-0.21-0.37-0.44-0.73-0.67-1.08c-0.69-1.05-1.48-2.04-2.34-2.95c-0.13-0.14-0.25-0.27-0.38-0.4
		c-0.98-0.96-2.05-1.81-3.19-2.58h-0.01c-0.16-0.12-0.35-0.21-0.53-0.32c-1.08-0.66-2.23-1.25-3.4-1.74c-0.63-0.26-1.23-0.5-1.8-0.7
		c-1.99-0.6-4.1-0.93-6.29-0.93c-0.36,0-0.72,0.02-1.07,0.04c-0.53,0.03-1.05,0.07-1.57,0.13c-0.11,0.01-0.24,0.02-0.35,0.04
		c-1.76,0.27-3.44,0.75-5.05,1.43c-2.64,1.12-4.98,2.65-6.95,4.56c-0.38,0.37-0.72,0.75-1.06,1.13c-1.49,1.67-2.72,3.55-3.65,5.64
		c-0.35,0.8-0.66,1.61-0.91,2.45c-0.02,0.06-0.03,0.11-0.04,0.17c-0.1,0.36-0.19,0.72-0.27,1.07c-0.1,0.46-0.2,0.93-0.27,1.4
		c-0.16,1.04-0.24,2.12-0.24,3.2c0,2.35,0.39,4.6,1.1,6.71c0.19,0.56,0.41,1.11,0.65,1.66c1.15,2.57,2.73,4.85,4.71,6.78
		c1.98,1.92,4.32,3.44,6.97,4.54c1.01,0.42,2.06,0.74,3.14,0.99c0.02,0,0.04,0.01,0.07,0.02c0.22,0.05,0.42,0.12,0.63,0.16
		c0.13,0.03,0.26,0.04,0.38,0.06c1.44,0.29,2.92,0.43,4.44,0.43c3.14,0,6.13-0.59,8.87-1.75c2.76-1.17,5.18-2.84,7.22-4.97
		c0.83-0.89,1.27-2.03,1.27-3.31c0-1.42-0.6-2.67-1.71-3.55l-0.13-0.1c-0.65-0.43-1.39-0.65-2.15-0.7
		c-0.08-0.01-0.17-0.02-0.25-0.02c-0.09,0-0.19,0-0.28,0c-0.3,0.01-0.6,0.03-0.89,0.1c-1.03,0.23-1.92,0.74-2.58,1.45
		c-1.16,1.21-2.56,2.17-4.18,2.86c-1.6,0.68-3.36,1.02-5.23,1.03c-0.39,0-0.79-0.02-1.17-0.05c-0.06-0.01-0.12-0.01-0.18-0.02
		c-0.1-0.01-0.2-0.03-0.3-0.04c-1.16-0.14-2.27-0.43-3.33-0.87c-1.57-0.66-2.95-1.56-4.11-2.68c-1.14-1.11-2.06-2.44-2.73-3.95
		c-0.27-0.6-0.47-1.23-0.62-1.87l10.79,0.02L172.06,29.47z M143.38,21.37c0.64-1.33,1.48-2.52,2.51-3.55
		c1.15-1.13,2.53-2.04,4.1-2.7c1.06-0.44,2.17-0.72,3.33-0.87c0.56-0.07,1.13-0.12,1.7-0.12c1.79,0,3.49,0.4,5.05,1.17
		c0.35,0.17,0.67,0.35,1,0.54c1.14,0.74,2.14,1.65,2.97,2.71c0.65,0.85,1.2,1.79,1.6,2.81h-0.08h-12.24H143.38z"/>
	<path class="st0" d="M96.72,10.79v-0.2c0-1.23-0.46-2.34-1.32-3.2c-0.85-0.84-1.93-1.28-3.14-1.28c-1.21,0-2.3,0.44-3.14,1.28
		c-0.86,0.86-1.32,1.97-1.32,3.2v15.52c0,1.61-0.3,3.12-0.91,4.52c-0.62,1.42-1.47,2.68-2.54,3.75c-1.08,1.07-2.35,1.92-3.78,2.54
		c-1.42,0.61-2.96,0.91-4.59,0.91c-1.63,0-3.18-0.3-4.59-0.91c-1.43-0.62-2.71-1.47-3.78-2.54c-1.07-1.06-1.93-2.32-2.54-3.75
		c-0.6-1.4-0.91-2.91-0.91-4.52V10.59c0-1.23-0.45-2.34-1.32-3.2c-0.85-0.84-1.94-1.28-3.14-1.28c-1.21,0-2.29,0.44-3.14,1.29
		c-0.86,0.86-1.32,1.97-1.32,3.19v15.52c0,2.86,0.56,5.58,1.65,8.1c1.08,2.5,2.58,4.71,4.44,6.55c1.85,1.85,4.06,3.33,6.57,4.41
		c2.51,1.08,5.24,1.63,8.09,1.63c2.85,0,5.56-0.55,8.09-1.63c1.43-0.61,2.76-1.38,3.99-2.26v0.28c0,0.26,0.02,0.52,0.07,0.76
		c0.16,0.94,0.6,1.76,1.31,2.38c0.81,0.71,1.83,1.04,2.96,0.96c1.12-0.09,2.15-0.38,2.96-1.22c0.9-0.93,1.37-2.28,1.37-3.55V30.51
		v-3.05v-0.88V22.5V10.84C96.73,10.83,96.72,10.81,96.72,10.79"/>
	<path class="st0" d="M48.16,6.81c-0.86-0.76-1.96-1.16-3.15-1.16c-1.2,0-2.29,0.4-3.15,1.16C40.9,7.66,40.39,8.76,40.39,10v11.76
		H18.83V10c0-1.25-0.51-2.35-1.47-3.19c-0.87-0.76-1.96-1.16-3.15-1.16c-1.2,0-2.29,0.4-3.16,1.16C10.09,7.65,9.59,8.75,9.59,10
		v32.98c0,1.25,0.5,2.34,1.46,3.18c0.87,0.76,1.95,1.16,3.16,1.16c1.2,0,2.28-0.4,3.15-1.15c0.95-0.84,1.47-1.95,1.47-3.19V31.4
		h21.56v11.58c0,1.24,0.5,2.34,1.46,3.18c0.86,0.76,1.96,1.16,3.15,1.16c1.2,0,2.29-0.4,3.15-1.15c0.96-0.84,1.47-1.95,1.47-3.19V10
		C49.63,8.75,49.13,7.65,48.16,6.81"/>
</g>
</svg>
